<svg width="34" height="39" viewBox="0 0 34 39" fill="none" xmlns="http://www.w3.org/2000/svg">
<path d="M5.45 14.6483V24.475C5.45 25.781 4.4105 26.8251 3.08637 26.8251C1.77188 26.8251 0.5 25.7729 0.5 24.475V14.6483C0.5 13.3667 1.77188 12.3145 3.08637 12.3145C4.38438 12.3145 5.45 13.3667 5.45 14.6483ZM6.37812 27.9709C6.37812 29.3625 7.5125 30.4826 8.92188 30.4826H10.6324L10.6585 35.6674C10.6585 38.7982 15.4023 38.7738 15.4023 35.6674V30.4826H18.5991V35.6674C18.5991 38.7819 23.369 38.79 23.369 35.6674V30.4826H25.1042C25.4372 30.4815 25.7666 30.4157 26.0737 30.2889C26.3808 30.1621 26.6597 29.9767 26.8942 29.7435C27.1288 29.5102 27.3145 29.2336 27.4408 28.9295C27.5671 28.6254 27.6314 28.2996 27.6301 27.9709V12.7489H6.37812V27.9709ZM27.6906 11.9249H6.28325C6.28325 8.29314 8.48325 5.1366 11.7489 3.49113L10.1071 0.49615C9.8665 0.0807091 10.477 -0.182675 10.6833 0.173029L12.3498 3.1938C15.3486 1.87824 18.7957 1.94612 21.6571 3.1938L23.3154 0.181175C23.5299 -0.184033 24.1321 0.0874971 23.8915 0.504296L22.2498 3.49113C25.4893 5.1366 27.6893 8.29449 27.6893 11.9249H27.6906ZM13.0208 7.21516C13.0208 6.97896 12.9257 6.75242 12.7566 6.5854C12.5874 6.41838 12.358 6.32454 12.1187 6.32454C11.6292 6.32454 11.2429 6.73184 11.2429 7.21516C11.2429 7.69849 11.6389 8.10578 12.1187 8.10578C12.6261 8.10578 13.0208 7.69849 13.0208 7.21516ZM22.7668 7.21516C22.7679 6.98282 22.6766 6.75932 22.5125 6.59275C22.3485 6.42619 22.1248 6.32988 21.8895 6.32454C21.6503 6.32454 21.4208 6.41838 21.2517 6.5854C21.0825 6.75242 20.9875 6.97896 20.9875 7.21516C20.9875 7.45137 21.0825 7.6779 21.2517 7.84493C21.4208 8.01195 21.6503 8.10578 21.8895 8.10578C22.3708 8.10578 22.7668 7.69849 22.7668 7.21516ZM30.9136 12.3159C29.6156 12.3159 28.55 13.3422 28.55 14.6497V24.4763C28.55 25.7824 29.6156 26.8264 30.9136 26.8264C32.2377 26.8264 33.5 25.7742 33.5 24.4763V14.6497C33.5 13.3436 32.2281 12.3159 30.9136 12.3159Z" fill="#F5F5F7"/>
</svg>
