<svg width="32" height="39" viewBox="0 0 32 39" fill="none" xmlns="http://www.w3.org/2000/svg">
<path d="M26.7537 20.088C26.7353 16.9732 28.1499 14.6257 31.0066 12.8948C29.4089 10.6112 26.9917 9.35526 23.8054 9.1132C20.7886 8.87571 17.4878 10.867 16.2793 10.867C15.002 10.867 12.0813 9.19541 9.78312 9.19541C5.04034 9.26849 0 12.9679 0 20.4945C0 22.7187 0.407439 25.016 1.22232 27.3817C2.31187 30.4965 6.23977 38.1282 10.3371 38.0049C12.4795 37.9546 13.9948 36.4886 16.7828 36.4886C19.4884 36.4886 20.8893 38.0049 23.279 38.0049C27.4129 37.9455 30.9654 31.008 32 27.8841C26.4561 25.2763 26.7537 20.2479 26.7537 20.088ZM21.9422 6.15827C24.2632 3.40886 24.0526 0.906072 23.984 0.00634766C21.933 0.125093 19.5617 1.39932 18.2112 2.96585C16.7233 4.64655 15.8489 6.7246 16.0366 9.06753C18.2524 9.23652 20.2758 8.0993 21.9422 6.15827Z" fill="#F5F5F7"/>
</svg>
