<svg width="20" height="20" viewBox="0 0 20 20" fill="none" xmlns="http://www.w3.org/2000/svg">
<path fill-rule="evenodd" clip-rule="evenodd" d="M5 2.49992C4.53976 2.49992 4.16667 2.87301 4.16667 3.33325V16.6666C4.16667 17.1268 4.53976 17.4999 5 17.4999H15C15.4602 17.4999 15.8333 17.1268 15.8333 16.6666V3.33325C15.8333 2.87301 15.4602 2.49992 15 2.49992H5ZM2.5 3.33325C2.5 1.95254 3.61929 0.833252 5 0.833252H15C16.3807 0.833252 17.5 1.95254 17.5 3.33325V16.6666C17.5 18.0473 16.3807 19.1666 15 19.1666H5C3.61929 19.1666 2.5 18.0473 2.5 16.6666V3.33325Z" fill="#7161BA"/>
<path fill-rule="evenodd" clip-rule="evenodd" d="M6.6665 15.0001C6.6665 14.5398 7.0396 14.1667 7.49984 14.1667H12.4998C12.9601 14.1667 13.3332 14.5398 13.3332 15.0001V18.3334C13.3332 18.7937 12.9601 19.1667 12.4998 19.1667C12.0396 19.1667 11.6665 18.7937 11.6665 18.3334V15.8334H8.33317V18.3334C8.33317 18.7937 7.96007 19.1667 7.49984 19.1667C7.0396 19.1667 6.6665 18.7937 6.6665 18.3334V15.0001Z" fill="#7161BA"/>
<path fill-rule="evenodd" clip-rule="evenodd" d="M5.8335 5.00008C5.8335 4.53984 6.20659 4.16675 6.66683 4.16675H6.67516C7.1354 4.16675 7.5085 4.53984 7.5085 5.00008C7.5085 5.46032 7.1354 5.83341 6.67516 5.83341H6.66683C6.20659 5.83341 5.8335 5.46032 5.8335 5.00008Z" fill="#7161BA"/>
<path fill-rule="evenodd" clip-rule="evenodd" d="M12.5 5.00008C12.5 4.53984 12.8731 4.16675 13.3333 4.16675H13.3417C13.8019 4.16675 14.175 4.53984 14.175 5.00008C14.175 5.46032 13.8019 5.83341 13.3417 5.83341H13.3333C12.8731 5.83341 12.5 5.46032 12.5 5.00008Z" fill="#7161BA"/>
<path fill-rule="evenodd" clip-rule="evenodd" d="M9.1665 5.00008C9.1665 4.53984 9.5396 4.16675 9.99984 4.16675H10.0082C10.4684 4.16675 10.8415 4.53984 10.8415 5.00008C10.8415 5.46032 10.4684 5.83341 10.0082 5.83341H9.99984C9.5396 5.83341 9.1665 5.46032 9.1665 5.00008Z" fill="#7161BA"/>
<path fill-rule="evenodd" clip-rule="evenodd" d="M9.1665 8.33333C9.1665 7.8731 9.5396 7.5 9.99984 7.5H10.0082C10.4684 7.5 10.8415 7.8731 10.8415 8.33333C10.8415 8.79357 10.4684 9.16667 10.0082 9.16667H9.99984C9.5396 9.16667 9.1665 8.79357 9.1665 8.33333Z" fill="#7161BA"/>
<path fill-rule="evenodd" clip-rule="evenodd" d="M9.1665 11.6666C9.1665 11.2063 9.5396 10.8333 9.99984 10.8333H10.0082C10.4684 10.8333 10.8415 11.2063 10.8415 11.6666C10.8415 12.1268 10.4684 12.4999 10.0082 12.4999H9.99984C9.5396 12.4999 9.1665 12.1268 9.1665 11.6666Z" fill="#7161BA"/>
<path fill-rule="evenodd" clip-rule="evenodd" d="M12.5 8.33333C12.5 7.8731 12.8731 7.5 13.3333 7.5H13.3417C13.8019 7.5 14.175 7.8731 14.175 8.33333C14.175 8.79357 13.8019 9.16667 13.3417 9.16667H13.3333C12.8731 9.16667 12.5 8.79357 12.5 8.33333Z" fill="#7161BA"/>
<path fill-rule="evenodd" clip-rule="evenodd" d="M12.5 11.6666C12.5 11.2063 12.8731 10.8333 13.3333 10.8333H13.3417C13.8019 10.8333 14.175 11.2063 14.175 11.6666C14.175 12.1268 13.8019 12.4999 13.3417 12.4999H13.3333C12.8731 12.4999 12.5 12.1268 12.5 11.6666Z" fill="#7161BA"/>
<path fill-rule="evenodd" clip-rule="evenodd" d="M5.8335 8.33333C5.8335 7.8731 6.20659 7.5 6.66683 7.5H6.67516C7.1354 7.5 7.5085 7.8731 7.5085 8.33333C7.5085 8.79357 7.1354 9.16667 6.67516 9.16667H6.66683C6.20659 9.16667 5.8335 8.79357 5.8335 8.33333Z" fill="#7161BA"/>
<path fill-rule="evenodd" clip-rule="evenodd" d="M5.8335 11.6666C5.8335 11.2063 6.20659 10.8333 6.66683 10.8333H6.67516C7.1354 10.8333 7.5085 11.2063 7.5085 11.6666C7.5085 12.1268 7.1354 12.4999 6.67516 12.4999H6.66683C6.20659 12.4999 5.8335 12.1268 5.8335 11.6666Z" fill="#7161BA"/>
</svg>
