<svg width="20" height="20" viewBox="0 0 20 20" fill="none" xmlns="http://www.w3.org/2000/svg">
<path fill-rule="evenodd" clip-rule="evenodd" d="M2.58897 4.62831C2.72678 4.35578 3.01019 4.16667 3.3335 4.16667H16.6668C16.9902 4.16667 17.2736 4.35581 17.4114 4.62838L10.0002 9.81619L2.58897 4.62831ZM2.50016 6.60057V15C2.50016 15.4564 2.87707 15.8333 3.3335 15.8333H16.6668C17.1233 15.8333 17.5002 15.4564 17.5002 15V6.60067L10.4781 11.5161C10.1912 11.717 9.80928 11.717 9.52235 11.5161L2.50016 6.60057ZM19.1668 5.01476V15C19.1668 16.3769 18.0437 17.5 16.6668 17.5H3.3335C1.95659 17.5 0.833496 16.3769 0.833496 15V5C0.833496 3.6231 1.95659 2.5 3.3335 2.5H16.6668C18.0371 2.5 19.156 3.61234 19.1667 4.98019C19.167 4.99172 19.167 5.00324 19.1668 5.01476Z" fill="#7161BA"/>
</svg>
