<svg width="17" height="18" viewBox="0 0 17 18" fill="none" xmlns="http://www.w3.org/2000/svg">
<path d="M4.52093 17.0059H2.11228C1.88868 17.0068 1.66735 16.9609 1.46247 16.8711C1.25759 16.7814 1.07368 16.6497 0.922519 16.4846C0.771355 16.3195 0.656269 16.1246 0.584633 15.9124C0.512998 15.7001 0.486392 15.4752 0.506518 15.2521C0.774969 12.7766 1.6192 10.3987 2.97136 8.30947C4.20406 6.36572 5.84876 4.71776 7.78866 3.48262C9.88321 2.12304 12.2679 1.27694 14.7496 1.01288C14.9717 0.992774 15.1954 1.01921 15.4067 1.09051C15.618 1.16181 15.8121 1.2764 15.9767 1.42699C16.1414 1.57759 16.2729 1.76088 16.363 1.96521C16.4531 2.16953 16.4997 2.39041 16.4999 2.61378V5.02721C16.5038 5.41763 16.3658 5.79612 16.1117 6.09214C15.8576 6.38817 15.5048 6.58152 15.119 6.63616C14.3481 6.73803 13.5913 6.92694 12.8629 7.1993C12.5755 7.30753 12.2632 7.33096 11.9629 7.2668C11.6627 7.20263 11.3871 7.05357 11.1688 6.83728L10.1491 5.8156C8.13908 6.96081 6.47478 8.62841 5.33184 10.6425L6.3515 11.6641C6.56736 11.8829 6.71613 12.159 6.78016 12.4599C6.8442 12.7607 6.82082 13.0736 6.71279 13.3616C6.44098 14.0915 6.25244 14.8498 6.15078 15.6222C6.09576 16.0129 5.89931 16.3698 5.5988 16.625C5.29829 16.8801 4.91468 17.0156 4.52093 17.0059Z" fill="white" stroke="white" stroke-linecap="round" stroke-linejoin="round"/>
</svg>
