<svg width="18" height="18" viewBox="0 0 18 18" fill="none" xmlns="http://www.w3.org/2000/svg">
<path d="M5.02093 16.9995H2.61228C2.38868 17.0004 2.16735 16.9545 1.96247 16.8648C1.75759 16.775 1.57368 16.6434 1.42252 16.4783C1.27135 16.3132 1.15627 16.1183 1.08463 15.906C1.013 15.6938 0.986392 15.4689 1.00652 15.2457C1.27497 12.7702 2.1192 10.3923 3.47136 8.30312C4.70406 6.35937 6.34875 4.71141 8.28866 3.47627C10.3832 2.11669 12.7679 1.27059 15.2496 1.00653C15.4717 0.986426 15.6954 1.01286 15.9067 1.08416C16.118 1.15546 16.3121 1.27005 16.4767 1.42065C16.6414 1.57124 16.7729 1.75454 16.863 1.95886C16.9531 2.16319 16.9997 2.38407 16.9999 2.60744V5.02086C17.0038 5.41128 16.8658 5.78977 16.6117 6.0858C16.3576 6.38182 16.0048 6.57517 15.619 6.62981C14.8481 6.73168 14.0913 6.92059 13.3629 7.19295C13.0755 7.30118 12.7632 7.32461 12.4629 7.26045C12.1627 7.19629 11.8871 7.04723 11.6688 6.83093L10.6491 5.80925C8.63908 6.95446 6.97478 8.62206 5.83184 10.6361L6.8515 11.6578C7.06736 11.8765 7.21613 12.1527 7.28016 12.4535C7.3442 12.7544 7.32082 13.0673 7.21279 13.3552C6.94098 14.0851 6.75244 14.8435 6.65078 15.6158C6.59576 16.0066 6.39931 16.3635 6.0988 16.6186C5.79829 16.8737 5.41468 17.0093 5.02093 16.9995Z" fill="#7FC128" stroke="#7FC128" stroke-linecap="round" stroke-linejoin="round"/>
</svg>
