<svg width="20" height="20" viewBox="0 0 20 20" fill="none" xmlns="http://www.w3.org/2000/svg">
<path fill-rule="evenodd" clip-rule="evenodd" d="M9.99978 3.33341C8.61907 3.33341 7.49978 4.4527 7.49978 5.83341C7.49978 7.21413 8.61907 8.33342 9.99978 8.33342C11.3805 8.33342 12.4998 7.21413 12.4998 5.83341C12.4998 4.4527 11.3805 3.33341 9.99978 3.33341ZM5.83312 5.83341C5.83312 3.53223 7.6986 1.66675 9.99978 1.66675C12.301 1.66675 14.1665 3.53223 14.1665 5.83341C14.1665 8.1346 12.301 10.0001 9.99978 10.0001C7.6986 10.0001 5.83312 8.1346 5.83312 5.83341ZM3.72039 12.8871C4.50179 12.1057 5.5616 11.6667 6.66667 11.6667H13.3333C14.4384 11.6667 15.4982 12.1057 16.2796 12.8871C17.061 13.6685 17.5 14.7283 17.5 15.8334V17.5001C17.5 17.9603 17.1269 18.3334 16.6667 18.3334C16.2064 18.3334 15.8333 17.9603 15.8333 17.5001V15.8334C15.8333 15.1704 15.5699 14.5345 15.1011 14.0656C14.6323 13.5968 13.9964 13.3334 13.3333 13.3334H6.66667C6.00363 13.3334 5.36774 13.5968 4.8989 14.0656C4.43006 14.5345 4.16667 15.1704 4.16667 15.8334V17.5001C4.16667 17.9603 3.79357 18.3334 3.33333 18.3334C2.8731 18.3334 2.5 17.9603 2.5 17.5001V15.8334C2.5 14.7283 2.93899 13.6685 3.72039 12.8871Z" fill="#7161BA"/>
</svg>
