<svg width="20" height="20" viewBox="0 0 20 20" fill="none" xmlns="http://www.w3.org/2000/svg">
<path fill-rule="evenodd" clip-rule="evenodd" d="M2.86366 5.36342C3.02971 5.19737 3.25492 5.10409 3.48975 5.10409H9.68766V5.9895C9.68766 6.4785 10.0841 6.87492 10.5731 6.87492C11.0621 6.87492 11.4585 6.4785 11.4585 5.9895V5.10409H15.8856C16.1204 5.10409 16.3456 5.19737 16.5117 5.36342C16.6777 5.52947 16.771 5.75468 16.771 5.9895V6.98737C16.1636 7.14422 15.6032 7.46109 15.1521 7.91225C14.4879 8.57644 14.1147 9.47728 14.1147 10.4166C14.1147 11.3559 14.4879 12.2567 15.1521 12.9209C15.6032 13.3721 16.1636 13.6889 16.771 13.8458V14.8437C16.771 15.0785 16.6777 15.3037 16.5117 15.4698C16.3456 15.6358 16.1204 15.7291 15.8856 15.7291H11.4585V14.8437C11.4585 14.3547 11.0621 13.9583 10.5731 13.9583C10.0841 13.9583 9.68766 14.3547 9.68766 14.8437V15.7291H3.48975C3.25492 15.7291 3.02971 15.6358 2.86366 15.4698C2.69761 15.3037 2.60433 15.0785 2.60433 14.8437V13.8458C3.21175 13.6889 3.77209 13.3721 4.22325 12.9209C4.88744 12.2567 5.26058 11.3559 5.26058 10.4166C5.26058 9.47728 4.88744 8.57644 4.22325 7.91225C3.77209 7.46109 3.21175 7.14422 2.60433 6.98737V5.9895C2.60433 5.75467 2.69761 5.52947 2.86366 5.36342ZM15.8856 17.4999H10.5731H3.48975C2.78526 17.4999 2.10964 17.2201 1.61149 16.7219C1.11335 16.2238 0.833496 15.5481 0.833496 14.8437V13.0728C0.833496 12.5838 1.22991 12.1874 1.71891 12.1874L1.71998 12.1874C2.18925 12.1871 2.63924 12.0006 2.97108 11.6688C3.30318 11.3367 3.48975 10.8862 3.48975 10.4166C3.48975 9.94693 3.30318 9.49651 2.97108 9.16442C2.63899 8.83232 2.18857 8.64575 1.71891 8.64575C1.22991 8.64575 0.833496 8.24934 0.833496 7.76033V5.9895C0.833496 5.28502 1.11335 4.60939 1.61149 4.11125C2.10964 3.61311 2.78526 3.33325 3.48975 3.33325H10.5731H15.8856C16.5901 3.33325 17.2657 3.61311 17.7638 4.11125C18.262 4.60939 18.5418 5.28502 18.5418 5.9895V7.76033C18.5418 8.24934 18.1454 8.64575 17.6564 8.64575C17.1868 8.64575 16.7363 8.83232 16.4042 9.16442C16.0721 9.49651 15.8856 9.94693 15.8856 10.4166C15.8856 10.8862 16.0721 11.3367 16.4042 11.6688C16.7363 12.0008 17.1868 12.1874 17.6564 12.1874C18.1454 12.1874 18.5418 12.5838 18.5418 13.0728V14.8437C18.5418 15.5482 18.262 16.2238 17.7638 16.7219C17.2657 17.2201 16.5901 17.4999 15.8856 17.4999ZM11.4585 9.53117C11.4585 9.04217 11.0621 8.64575 10.5731 8.64575C10.0841 8.64575 9.68766 9.04217 9.68766 9.53117V11.302C9.68766 11.791 10.0841 12.1874 10.5731 12.1874C11.0621 12.1874 11.4585 11.791 11.4585 11.302V9.53117Z" fill="#7161BA"/>
</svg>
