<svg width="74" height="70" viewBox="0 0 74 70" fill="none" xmlns="http://www.w3.org/2000/svg">
<path d="M8.191 35.006C8.53693 35.3439 10.0648 35.7098 10.7854 35.8506V45.2643C10.7854 47.4735 12.5763 49.2643 14.7854 49.2643H37.1352L61.2146 49.2643C63.4237 49.2642 65.2146 47.4734 65.2146 45.2643V35.8505C65.9352 35.7097 67.4631 35.3438 67.809 35.0059C68.0535 34.7671 68.0244 41.7787 67.9354 48.5945C67.8785 52.9533 64.3184 56.443 59.9593 56.443H48.8101L47.9453 61.088H50.6884C52.1897 61.088 53.5646 61.9287 54.2488 63.2651L56.161 66.9999L37.1352 67H19.839L21.7512 63.2652C22.4354 61.9288 23.8103 61.0881 25.3116 61.0881H28.0547L27.1899 56.4431H16.0407C11.6816 56.4431 8.12154 52.9534 8.06462 48.5946C7.97563 41.7788 7.94649 34.7673 8.191 35.006Z" fill="#E3E1F1"/>
<path d="M26.8334 61.8014L25.8563 56.5325H15.6296C11.2702 56.5325 7.71081 53.043 7.65063 48.684C7.53958 40.6402 7.49044 31.9334 7.77929 32.2166C8.17015 32.5998 9.89643 33.0149 10.7107 33.1745V44.3897C10.7107 46.5988 12.5016 48.3897 14.7107 48.3897H37.0934L61.4303 48.3896C63.6395 48.3896 65.4303 46.5987 65.4303 44.3896V33.1744C66.2446 33.0148 67.9709 32.5996 68.3617 32.2164C68.6506 31.9333 68.6015 40.6401 68.4904 48.6839C68.4302 53.0429 64.8708 56.5324 60.5114 56.5324H50.2848L49.3076 61.8013M26.8334 61.8014H23.4207C21.9171 61.8014 20.5405 62.6446 19.8574 63.984L17.5505 68.5072H37.0934L58.5905 68.5071L56.2837 63.9839C55.6005 62.6445 54.2239 61.8013 52.7203 61.8013H49.3076M26.8334 61.8014H30.5M35.5 61.8013H49.3076" stroke="#7161BA" stroke-width="2" stroke-linecap="round" stroke-linejoin="round"/>
<circle cx="22.979" cy="4.71118" r="1.5" fill="#7161BA"/>
<ellipse cx="27.979" cy="4.66573" rx="1.5" ry="1.45455" fill="#7161BA"/>
<circle cx="32.979" cy="4.71118" r="1.5" fill="#7161BA"/>
<path d="M21 16C21 13.7909 22.7909 12 25 12H49C51.2091 12 53 13.7909 53 16V17.6543V33.5C53 35.7091 51.2091 37.5 49 37.5H25C22.7909 37.5 21 35.7091 21 33.5V17.6543V16Z" fill="#E3E1F1"/>
<circle cx="29" cy="16" r="1" fill="#7161BA"/>
<circle cx="32.2109" cy="16" r="1" fill="#7161BA"/>
<rect x="25" y="13" width="24" height="6" rx="2" stroke="#7161BA" stroke-width="2"/>
<circle cx="29" cy="26" r="1" fill="#7161BA"/>
<circle cx="32.2109" cy="26" r="1" fill="#7161BA"/>
<rect x="25" y="23" width="24" height="6" rx="2" stroke="#7161BA" stroke-width="2"/>
<rect x="31" y="32" width="11.9155" height="3.18993" rx="1.59496" stroke="#7161BA" stroke-width="2"/>
<path d="M37 20V22" stroke="#7161BA" stroke-width="2" stroke-linecap="round" stroke-linejoin="round"/>
<path d="M37 30V31" stroke="#7161BA" stroke-width="2" stroke-linecap="round" stroke-linejoin="round"/>
<path d="M15 29H10C6.68629 29 4 26.3137 4 23V13" stroke="#7161BA" stroke-width="2" stroke-linecap="round" stroke-linejoin="round"/>
<circle cx="4" cy="9" r="3" stroke="#7161BA" stroke-width="2"/>
<mask id="path-18-inside-1" fill="white">
<path d="M17.1973 4C17.1973 1.79086 18.9881 0 21.1973 0H52.8029C55.012 0 56.8029 1.79086 56.8029 4V8.5V37.5954C56.8029 39.8045 55.012 41.5954 52.8029 41.5954H21.1973C18.9881 41.5954 17.1973 39.8045 17.1973 37.5954V8.5V4Z"/>
</mask>
<path d="M44.5 9.5C45.0523 9.5 45.5 9.05229 45.5 8.5C45.5 7.94772 45.0523 7.5 44.5 7.5V9.5ZM51 7.5C50.4477 7.5 50 7.94772 50 8.5C50 9.05229 50.4477 9.5 51 9.5V7.5ZM17.1973 9.5H44.5V7.5H17.1973V9.5ZM51 9.5H56.8029V7.5H51V9.5ZM21.1973 2H52.8029V-2H21.1973V2ZM52.8029 39.5954H21.1973V43.5954H52.8029V39.5954ZM19.1973 37.5954V8.5H15.1973V37.5954H19.1973ZM19.1973 8.5V4H15.1973V8.5H19.1973ZM54.8029 4V8.5H58.8029V4H54.8029ZM54.8029 8.5V37.5954H58.8029V8.5H54.8029ZM21.1973 39.5954C20.0927 39.5954 19.1973 38.7 19.1973 37.5954H15.1973C15.1973 40.9091 17.8836 43.5954 21.1973 43.5954V39.5954ZM52.8029 43.5954C56.1166 43.5954 58.8029 40.9091 58.8029 37.5954H54.8029C54.8029 38.7 53.9075 39.5954 52.8029 39.5954V43.5954ZM52.8029 2C53.9075 2 54.8029 2.89543 54.8029 4H58.8029C58.8029 0.686289 56.1166 -2 52.8029 -2V2ZM21.1973 -2C17.8836 -2 15.1973 0.686291 15.1973 4H19.1973C19.1973 2.89543 20.0927 2 21.1973 2V-2Z" fill="#7161BA" mask="url(#path-18-inside-1)"/>
<path d="M59 29H64C67.3137 29 70 26.3137 70 23V13" stroke="#7161BA" stroke-width="2" stroke-linecap="round" stroke-linejoin="round"/>
<circle r="3" transform="matrix(-1 0 0 1 70 9)" stroke="#7161BA" stroke-width="2"/>
<path d="M39.7463 53.9753C39.7463 55.114 38.7855 56.0892 37.535 56.0892C36.2845 56.0892 35.3237 55.114 35.3237 53.9753C35.3237 52.8366 36.2845 51.8613 37.535 51.8613C38.7855 51.8613 39.7463 52.8366 39.7463 53.9753Z" stroke="#7161BA" stroke-width="2"/>
</svg>
