<svg width="28" height="92" viewBox="0 0 28 92" fill="none" xmlns="http://www.w3.org/2000/svg">
<path d="M26 68.6532H17.0785V4.03468C17.0785 2.33871 15.68 1 14 1C12.32 1 10.9215 2.33871 10.9215 4.03468V68.6532H2C1.64108 68.6532 1.30969 68.8455 1.13167 69.1572C0.953649 69.4689 0.956312 69.852 1.13865 70.1612L13.1386 90.508C13.3185 90.8129 13.646 91 14 91C14.354 91 14.6815 90.8129 14.8614 90.508L26.8614 70.1612C27.0437 69.852 27.0464 69.4689 26.8683 69.1572C26.6903 68.8455 26.3589 68.6532 26 68.6532Z" fill="#7161BA" stroke="#F5F5F7" stroke-width="2" stroke-linecap="round" stroke-linejoin="round"/>
</svg>
