<svg width="197" height="195" viewBox="0 0 197 195" fill="none" xmlns="http://www.w3.org/2000/svg">
<g filter="url(#filter0_d)">
<circle cx="100" cy="95" r="80" fill="#7161BA"/>
<path fill-rule="evenodd" clip-rule="evenodd" d="M117.534 39H119.053H130.543H132.062L132.47 40.4631L133.217 43.145C134.874 43.66 136.466 44.3229 137.977 45.1181L140.402 43.7498L141.725 43.0035L142.799 44.0775L150.924 52.2022L151.998 53.2762L151.252 54.5991L149.884 57.0244C150.679 58.5355 151.342 60.1274 151.857 61.7848L154.539 62.5323L156.002 62.94V64.4588V75.9489V77.4677L154.539 77.8755L151.857 78.6229C151.342 80.2802 150.679 81.8721 149.884 83.3831L151.252 85.8094L151.999 87.1322L150.925 88.2062L146.214 92.9173V123.745C146.214 126.971 143.599 129.586 140.373 129.586H112.471C113.324 133.559 116.837 136.4 120.904 136.4H123.824C125.974 136.4 127.718 138.143 127.718 140.294V147.108C127.718 149.259 125.974 151.002 123.824 151.002H66.3896C64.2391 151.002 62.4958 149.259 62.4958 147.108V140.294C62.4958 138.143 64.2391 136.4 66.3896 136.4H69.31C73.377 136.4 76.8896 133.559 77.7424 129.586H49.8408C46.615 129.586 44 126.971 44 123.745V61.4434C44 58.2176 46.615 55.6026 49.8408 55.6026H98.9095L98.3433 54.5988L97.597 53.2759L98.671 52.202L106.796 44.0773L107.87 43.0033L109.193 43.7495L111.619 45.1184C113.13 44.3231 114.722 43.6601 116.379 43.145L117.127 40.4631L117.534 39ZM146.214 90.0885V90.0889L149.51 86.792L147.593 83.3933C148.743 81.4102 149.642 79.2632 150.245 76.9959L154.002 75.9489V64.4588L150.245 63.4119C149.642 61.1445 148.743 58.9973 147.593 57.0141L149.51 53.6164L141.385 45.4917L137.987 47.4085C136.004 46.2588 133.857 45.3604 131.59 44.7568L130.543 41H119.053L118.006 44.7568C115.739 45.3604 113.592 46.259 111.609 47.4089L108.21 45.4915L100.085 53.6162L101.206 55.6026H101.206L102.003 57.0151L102.003 57.0153L102.003 57.0155C100.853 58.9983 99.9548 61.145 99.3513 63.4119L95.5944 64.4588V75.9489L99.3513 76.9959C99.9547 79.2627 100.853 81.4092 102.003 83.392L100.085 86.7922L108.209 94.9169L111.609 92.999C113.592 94.1488 115.739 95.0473 118.006 95.6509L119.053 99.4077H130.543L131.59 95.6509C133.294 95.1974 134.93 94.5773 136.479 93.8092V93.8089C136.991 93.5549 137.494 93.2847 137.987 92.999L138.426 93.2466V93.247L141.386 94.9167L144.267 92.0358V92.0355L146.214 90.0885ZM49.8408 57.5495H99.4436C98.7669 58.9029 98.1953 60.3183 97.7394 61.7848L95.4716 62.4169H54.7081C52.5576 62.4169 50.8142 64.1602 50.8142 66.3107V110.117C50.8142 112.267 52.5576 114.01 54.7081 114.01H134.532C136.682 114.01 138.426 112.267 138.426 110.117V95.5433L140.403 96.6586L141.726 97.4049L142.8 96.3309L144.267 94.8642V123.745C144.267 125.895 142.523 127.639 140.373 127.639H49.8408C47.6903 127.639 45.9469 125.895 45.9469 123.745V61.4434C45.9469 59.2929 47.6903 57.5495 49.8408 57.5495ZM54.7081 64.3638H93.5944V64.4588V75.9489V77.4677L95.0575 77.8755L97.7394 78.6229C98.2544 80.2797 98.9172 81.8711 99.7122 83.3817L98.3426 85.8096L97.5964 87.1325L98.6703 88.2064L106.795 96.3311L107.869 97.4051L109.192 96.6589L111.619 95.2894C113.13 96.0847 114.722 96.7477 116.379 97.2628L117.127 99.9446L117.534 101.408H119.053H130.543H132.062L132.47 99.9446L133.217 97.2628C134.336 96.9151 135.425 96.5 136.479 96.0224V110.117C136.479 111.192 135.607 112.063 134.532 112.063H54.7081C53.6328 112.063 52.7612 111.192 52.7612 110.117V66.3107C52.7612 65.2355 53.6328 64.3638 54.7081 64.3638ZM124.798 87.8327C134.535 87.8327 142.427 79.94 142.427 70.2038C142.427 60.4677 134.535 52.575 124.798 52.575C115.062 52.575 107.17 60.4677 107.17 70.2038C107.17 79.94 115.062 87.8327 124.798 87.8327ZM144.427 70.2038C144.427 81.0445 135.639 89.8327 124.798 89.8327C113.958 89.8327 105.17 81.0445 105.17 70.2038C105.17 59.3631 113.958 50.575 124.798 50.575C135.639 50.575 144.427 59.3631 144.427 70.2038ZM79.732 129.586H110.481L110.559 129.953C111.124 132.637 112.677 134.902 114.79 136.4H75.4235C77.5362 134.902 79.0897 132.637 79.6546 129.953L79.732 129.586ZM64.4427 140.294C64.4427 139.219 65.3144 138.347 66.3896 138.347H123.824C124.899 138.347 125.771 139.219 125.771 140.294V147.108C125.771 148.183 124.899 149.055 123.824 149.055H66.3896C65.3144 149.055 64.4427 148.183 64.4427 147.108V140.294ZM58.6019 71.178C58.6019 70.6404 59.0378 70.2046 59.5754 70.2046H61.5223C62.0599 70.2046 62.4958 70.6404 62.4958 71.178V73.1249C62.4958 73.6626 62.0599 74.0984 61.5223 74.0984H59.5754C59.0378 74.0984 58.6019 73.6626 58.6019 73.1249V71.178ZM90.7262 81.8861C90.7262 79.7356 88.9828 77.9923 86.8323 77.9923H62.4958C60.3453 77.9923 58.6019 79.7356 58.6019 81.8861V103.302C58.6019 105.453 60.3453 107.196 62.4958 107.196H86.8323C88.9828 107.196 90.7262 105.453 90.7262 103.302V81.8861ZM69.7967 79.9392V88.2136H79.5314V79.9392H86.8323C87.9076 79.9392 88.7793 80.8108 88.7793 81.8861V103.302C88.7793 104.378 87.9076 105.249 86.8323 105.249H62.4958C61.4205 105.249 60.5489 104.378 60.5489 103.302V81.8861C60.5489 80.8108 61.4205 79.9392 62.4958 79.9392H69.7967ZM77.5844 79.9392H71.7437V86.2667H77.5844V79.9392ZM113.116 104.276C113.116 103.738 113.552 103.302 114.089 103.302H116.036C116.574 103.302 117.01 103.738 117.01 104.276V106.223C117.01 106.76 116.574 107.196 116.036 107.196H114.089C113.552 107.196 113.116 106.76 113.116 106.223V104.276ZM120.904 104.276C120.904 103.738 121.339 103.302 121.877 103.302H123.824C124.362 103.302 124.797 103.738 124.797 104.276V106.223C124.797 106.76 124.362 107.196 123.824 107.196H121.877C121.339 107.196 120.904 106.76 120.904 106.223V104.276ZM127.718 104.276C127.718 103.738 128.154 103.302 128.691 103.302H130.638C131.176 103.302 131.612 103.738 131.612 104.276V106.223C131.612 106.76 131.176 107.196 130.638 107.196H128.691C128.154 107.196 127.718 106.76 127.718 106.223V104.276ZM65.4162 71.178C65.4162 70.6404 65.852 70.2046 66.3896 70.2046H89.7527C90.2903 70.2046 90.7262 70.6404 90.7262 71.178V73.1249C90.7262 73.6626 90.2903 74.0984 89.7527 74.0984H66.3896C65.852 74.0984 65.4162 73.6626 65.4162 73.1249V71.178ZM130.937 70.2039C130.937 73.5943 128.189 76.3427 124.799 76.3427C121.408 76.3427 118.66 73.5943 118.66 70.2039C118.66 66.8136 121.408 64.0651 124.799 64.0651C128.189 64.0651 130.937 66.8136 130.937 70.2039ZM132.937 70.2039C132.937 74.6989 129.293 78.3427 124.799 78.3427C120.304 78.3427 116.66 74.6989 116.66 70.2039C116.66 65.709 120.304 62.0651 124.799 62.0651C129.293 62.0651 132.937 65.709 132.937 70.2039Z" fill="#F5F5F7"/>
</g>
<defs>
<filter id="filter0_d" x="-3" y="0" width="200" height="200" filterUnits="userSpaceOnUse" color-interpolation-filters="sRGB">
<feFlood flood-opacity="0" result="BackgroundImageFix"/>
<feColorMatrix in="SourceAlpha" type="matrix" values="0 0 0 0 0 0 0 0 0 0 0 0 0 0 0 0 0 0 127 0" result="hardAlpha"/>
<feOffset dx="-3" dy="5"/>
<feGaussianBlur stdDeviation="10"/>
<feColorMatrix type="matrix" values="0 0 0 0 0.443137 0 0 0 0 0.380392 0 0 0 0 0.729412 0 0 0 0.15 0"/>
<feBlend mode="normal" in2="BackgroundImageFix" result="effect1_dropShadow"/>
<feBlend mode="normal" in="SourceGraphic" in2="effect1_dropShadow" result="shape"/>
</filter>
</defs>
</svg>
