<svg width="197" height="195" viewBox="0 0 197 195" fill="none" xmlns="http://www.w3.org/2000/svg">
<g filter="url(#filter0_d)">
<circle cx="100" cy="95" r="80" fill="#7161BA"/>
<path fill-rule="evenodd" clip-rule="evenodd" d="M73.4033 144.409C72.851 144.409 72.4033 144.857 72.4033 145.409C72.4033 145.962 72.851 146.409 73.4033 146.409H93.6513C94.2035 146.409 94.6513 145.962 94.6513 145.409C94.6513 144.857 94.2035 144.409 93.6513 144.409H73.4033ZM115.155 149.134C115.708 149.134 116.155 149.582 116.155 150.134C116.155 150.687 115.708 151.134 115.155 151.134H94.9075C94.3552 151.134 93.9075 150.687 93.9075 150.134C93.9075 149.582 94.3552 149.134 94.9075 149.134H115.155ZM95.8898 145.409C95.8898 144.857 96.3375 144.409 96.8898 144.409H102.559C103.111 144.409 103.559 144.857 103.559 145.409C103.559 145.962 103.111 146.409 102.559 146.409H96.8898C96.3375 146.409 95.8898 145.962 95.8898 145.409ZM91.6689 149.134C92.2212 149.134 92.6689 149.582 92.6689 150.134C92.6689 150.687 92.2212 151.134 91.6689 151.134H85.9995C85.4472 151.134 84.9995 150.687 84.9995 150.134C84.9995 149.582 85.4472 149.134 85.9995 149.134H91.6689Z" fill="#F5F5F7"/>
<path d="M44 139.868H156" stroke="#F5F5F7" stroke-width="2" stroke-linecap="round"/>
<path fill-rule="evenodd" clip-rule="evenodd" d="M84.6935 67.238H107.84C109.584 67.238 111.067 68.6922 111.067 70.5726V130.805C111.067 132.686 109.584 134.14 107.84 134.14H84.6935C84.613 134.14 84.533 134.137 84.4537 134.131C83.5746 134.684 82.5136 135.016 81.7348 135.203C82.5761 135.794 83.5952 136.14 84.6935 136.14H107.84C110.727 136.14 113.067 133.751 113.067 130.805V70.5726C113.067 67.6264 110.727 65.238 107.84 65.238H84.6935C81.8069 65.238 79.4668 67.6264 79.4668 70.5726V98.331C80.5852 98.3695 81.1656 98.8082 81.4668 99.2531V70.5726C81.4668 68.6922 82.9497 67.238 84.6935 67.238Z" fill="#F5F5F7"/>
<path d="M92.5332 69.9028H99.9999" stroke="#F5F5F7" stroke-width="2" stroke-linecap="round"/>
<path fill-rule="evenodd" clip-rule="evenodd" d="M81.7917 105.081C84.4977 104.058 86.4245 101.422 86.4245 98.3297C86.4245 94.3508 83.2335 91.1252 79.2972 91.1252C75.3609 91.1252 72.1699 94.3508 72.1699 98.3297C72.1699 101.428 74.1045 104.069 76.8192 105.087V100.222C76.8192 100.222 76.8192 98.3297 79.3055 98.3297C81.7917 98.3297 81.7917 100.222 81.7917 100.222V105.081Z" fill="#F5F5F7"/>
<path d="M67.5507 110.48V116.205M67.5507 110.48C67.5507 110.48 67.5507 108.572 65.1089 108.572C62.667 108.572 62.667 110.48 62.667 110.48C62.667 114.551 62.667 123.761 62.667 128.036C62.667 132.31 64.921 134.142 66.048 134.524V139.867H80.3235V135.287C80.3235 135.287 83.3289 134.906 84.8316 133.379C86.3343 131.852 85.9586 128.036 85.9586 128.036V113.388C85.9586 112.836 85.5078 112.394 84.9665 112.503C84.4669 112.604 83.8567 112.794 83.3289 113.152C82.2019 113.915 81.4505 115.06 81.4505 115.06M67.5507 110.48C67.5507 110.48 67.5507 108.572 69.8047 108.572C72.0588 108.572 72.0588 110.48 72.0588 110.48M72.0588 110.48V116.205M72.0588 110.48C72.0588 110.48 72.0588 108.572 74.3128 108.572C76.5668 108.572 76.5668 110.48 76.5668 110.48M76.5668 110.48V118.876M76.5668 110.48V99.7939C76.5668 99.7939 76.5668 97.8856 79.0087 97.8856C81.4505 97.8856 81.4505 99.7939 81.4505 99.7939V115.06M81.4505 121.548V115.06" stroke="#F5F5F7" stroke-width="2" stroke-linecap="round"/>
<path fill-rule="evenodd" clip-rule="evenodd" d="M69.2939 39C66.5325 39 64.2939 41.2386 64.2939 44V51.1815V56.3908V102.868C64.2939 103.421 64.7417 103.868 65.2939 103.868C65.8462 103.868 66.2939 103.421 66.2939 102.868V57.3908H134.641V128.448C134.641 130.109 133.307 131.448 131.654 131.448H118.667C118.115 131.448 117.667 131.896 117.667 132.448C117.667 133 118.115 133.448 118.667 133.448H131.654C134.42 133.448 136.641 131.205 136.641 128.448V44C136.641 41.2386 134.402 39 131.641 39H87.458C86.9057 39 86.458 39.4477 86.458 40C86.458 40.5523 86.9057 41 87.458 41H131.641C133.298 41 134.641 42.3431 134.641 44V55.3908H66.2939V51.1815V44C66.2939 42.3431 67.6371 41 69.2939 41H78.7851C79.3374 41 79.7851 40.5523 79.7851 40C79.7851 39.4477 79.3374 39 78.7851 39H69.2939Z" fill="#F5F5F7"/>
<ellipse cx="75.0543" cy="46.1135" rx="1.4" ry="1.39938" fill="#F5F5F7"/>
<ellipse cx="78.8531" cy="46.1135" rx="1.4" ry="1.39938" fill="#F5F5F7"/>
<ellipse cx="82.6539" cy="46.1135" rx="1.4" ry="1.39938" fill="#F5F5F7"/>
<path d="M74.9297 51.0724H80.7116" stroke="#F5F5F7" stroke-width="2" stroke-linecap="round"/>
<path d="M84.5674 51.0724H93.2403" stroke="#F5F5F7" stroke-width="2" stroke-linecap="round"/>
<path d="M97.0947 51.0724H124.077" stroke="#F5F5F7" stroke-width="2" stroke-linecap="round"/>
</g>
<defs>
<filter id="filter0_d" x="-3" y="0" width="200" height="200" filterUnits="userSpaceOnUse" color-interpolation-filters="sRGB">
<feFlood flood-opacity="0" result="BackgroundImageFix"/>
<feColorMatrix in="SourceAlpha" type="matrix" values="0 0 0 0 0 0 0 0 0 0 0 0 0 0 0 0 0 0 127 0" result="hardAlpha"/>
<feOffset dx="-3" dy="5"/>
<feGaussianBlur stdDeviation="10"/>
<feColorMatrix type="matrix" values="0 0 0 0 0.443137 0 0 0 0 0.380392 0 0 0 0 0.729412 0 0 0 0.15 0"/>
<feBlend mode="normal" in2="BackgroundImageFix" result="effect1_dropShadow"/>
<feBlend mode="normal" in="SourceGraphic" in2="effect1_dropShadow" result="shape"/>
</filter>
</defs>
</svg>
