<svg width="197" height="195" viewBox="0 0 197 195" fill="none" xmlns="http://www.w3.org/2000/svg">
<g filter="url(#filter0_d)">
<circle cx="100" cy="95" r="80" fill="#7161BA"/>
<path fill-rule="evenodd" clip-rule="evenodd" d="M56.1333 68.1521H50.4C46.8654 68.1521 44 70.7702 44 73.9998V123.71C44 126.939 46.8654 129.557 50.4 129.557H80.973C80.0386 133.535 76.1897 136.38 71.7333 136.38H68.5333C66.1769 136.38 64.2667 138.125 64.2667 140.278V147.1C64.2667 149.254 66.1769 150.999 68.5333 150.999H131.467C133.823 150.999 135.733 149.254 135.733 147.1V140.278C135.733 138.125 133.823 136.38 131.467 136.38H128.267C123.81 136.38 119.961 133.535 119.027 129.557H149.6C153.135 129.557 156 126.939 156 123.71V73.9998C156 70.7702 153.135 68.1521 149.6 68.1521H142.933V70.1013H149.6C151.956 70.1013 153.867 71.8467 153.867 73.9998V123.71C153.867 125.863 151.956 127.608 149.6 127.608H50.4C48.0436 127.608 46.1333 125.863 46.1333 123.71V73.9998C46.1333 71.8467 48.0436 70.1013 50.4 70.1013H56.1333V68.1521ZM83.1532 129.557H116.847L116.932 129.925C117.551 132.612 119.253 134.88 121.568 136.38H78.4321C80.7471 134.88 82.4494 132.612 83.0684 129.925L83.1532 129.557ZM66.4 140.278C66.4 139.202 67.3551 138.329 68.5333 138.329H131.467C132.645 138.329 133.6 139.202 133.6 140.278V147.1C133.6 148.177 132.645 149.05 131.467 149.05H68.5333C67.3551 149.05 66.4 148.177 66.4 147.1V140.278Z" fill="#F5F5F7"/>
<path d="M79.4668 114.6H99.7147" stroke="#F5F5F7" stroke-width="2" stroke-linecap="round"/>
<path d="M121.219 119.325H100.971" stroke="#F5F5F7" stroke-width="2" stroke-linecap="round"/>
<path d="M102.953 114.6H108.623" stroke="#F5F5F7" stroke-width="2" stroke-linecap="round"/>
<path d="M97.7324 119.325H92.063" stroke="#F5F5F7" stroke-width="2" stroke-linecap="round"/>
<path d="M102.564 88.7291L101.054 90.5293" stroke="#F5F5F7" stroke-width="2" stroke-linecap="round"/>
<path d="M106.508 92.2528L104.997 94.053" stroke="#F5F5F7" stroke-width="2" stroke-linecap="round"/>
<path d="M109.534 80.5042L105.003 85.9047" stroke="#F5F5F7" stroke-width="2" stroke-linecap="round"/>
<path d="M113.475 84.0278L108.943 89.4284" stroke="#F5F5F7" stroke-width="2" stroke-linecap="round"/>
<path d="M72.1006 105.766V75.2168H88.5504V105.766M96.1878 75.2168V99.304H128.5V75.2168H96.1878Z" stroke="#F5F5F7" stroke-width="2" stroke-linecap="round"/>
<path d="M65.0508 67.5787V105.766H135.55V67.5787" stroke="#F5F5F7" stroke-width="2" stroke-linecap="round"/>
<path d="M66.5186 67.5789C59.7625 67.5789 58 62.2915 58 59.9415C58 57.9823 60.2399 51.4318 62.1814 43.7235C62.8724 40.9799 65.3087 39 68.1379 39H99.712H131.286C134.115 39 136.543 40.9817 137.225 43.7275C138.673 49.5546 139.75 52.1311 141.424 59.9415C141.424 59.9415 141.424 67.5789 134.668 67.5789C127.912 67.5789 126.149 59.9415 126.149 59.9415C126.149 59.9415 124.387 67.5789 117.63 67.5789C110.874 67.5789 109.112 59.9415 109.112 59.9415C109.112 59.9415 107.349 67.5789 100.593 67.5789C93.837 67.5789 92.0746 59.9415 92.0746 59.9415C92.0746 59.9415 90.3121 67.5789 83.5559 67.5789C76.7998 67.5789 75.0373 59.9415 75.0373 59.9415C75.0373 59.9415 73.2748 67.5789 66.5186 67.5789Z" stroke="#F5F5F7" stroke-width="2" stroke-linecap="round"/>
<circle cx="83.2635" cy="91.6665" r="1.76248" fill="#F5F5F7"/>
</g>
<defs>
<filter id="filter0_d" x="-3" y="0" width="200" height="200" filterUnits="userSpaceOnUse" color-interpolation-filters="sRGB">
<feFlood flood-opacity="0" result="BackgroundImageFix"/>
<feColorMatrix in="SourceAlpha" type="matrix" values="0 0 0 0 0 0 0 0 0 0 0 0 0 0 0 0 0 0 127 0" result="hardAlpha"/>
<feOffset dx="-3" dy="5"/>
<feGaussianBlur stdDeviation="10"/>
<feColorMatrix type="matrix" values="0 0 0 0 0.443137 0 0 0 0 0.380392 0 0 0 0 0.729412 0 0 0 0.15 0"/>
<feBlend mode="normal" in2="BackgroundImageFix" result="effect1_dropShadow"/>
<feBlend mode="normal" in="SourceGraphic" in2="effect1_dropShadow" result="shape"/>
</filter>
</defs>
</svg>
