<svg width="197" height="195" viewBox="0 0 197 195" fill="none" xmlns="http://www.w3.org/2000/svg">
<g filter="url(#filter0_d)">
<circle cx="100" cy="95" r="80" fill="#7161BA"/>
<path fill-rule="evenodd" clip-rule="evenodd" d="M87.8667 81.9333H49.6C46.5072 81.9333 44 84.4406 44 87.5333V139.8C44 142.893 46.5072 145.4 49.6 145.4H87.8667V143.533H49.6C47.5381 143.533 45.8667 141.862 45.8667 139.8V124.56C48.9217 121.348 55.2891 117.377 63.2947 120.149C66.2176 121.16 68.7065 122.627 71.0773 124.257C72.1793 125.016 73.2483 125.804 74.3276 126.6L74.3283 126.6L74.5798 126.786C75.7403 127.641 76.915 128.502 78.1301 129.317C80.9864 131.233 84.0729 132.898 87.8667 133.765V131.846C84.5275 131.016 81.7726 129.512 79.1699 127.767C77.9933 126.977 76.8492 126.139 75.6873 125.283L75.4318 125.094C74.357 124.302 73.264 123.496 72.1352 122.72C69.6935 121.04 67.049 119.473 63.9053 118.385C56.0315 115.659 49.6082 118.774 45.8667 121.995V87.5333C45.8667 85.4715 47.5381 83.8 49.6 83.8H87.8667V81.9333ZM87.8667 91.2667H76.6666C76.1512 91.2667 75.7333 91.6845 75.7333 92.2V94.0667C75.7333 94.5821 76.1512 95 76.6666 95H87.8667V91.2667ZM87.8667 99.6667H70.1333C69.6178 99.6667 69.2 100.085 69.2 100.6C69.2 101.115 69.6178 101.533 70.1333 101.533H87.8667V99.6667ZM87.8667 105.267H70.1333C69.6178 105.267 69.2 105.685 69.2 106.2C69.2 106.715 69.6178 107.133 70.1333 107.133H87.8667V105.267ZM54.2667 91.2667C52.2048 91.2667 50.5333 92.9381 50.5333 95V103.4C50.5333 105.462 52.2048 107.133 54.2667 107.133H62.6666C64.7285 107.133 66.4 105.462 66.4 103.4V95C66.4 92.9381 64.7285 91.2667 62.6666 91.2667H54.2667ZM62.6666 93.1333H54.2667C53.2357 93.1333 52.4 93.9691 52.4 95V103.4C52.4 104.431 53.2357 105.267 54.2667 105.267H62.6666C63.6976 105.267 64.5333 104.431 64.5333 103.4V95C64.5333 93.9691 63.6976 93.1333 62.6666 93.1333ZM70.1333 91.2667C69.6178 91.2667 69.2 91.6845 69.2 92.2V94.0667C69.2 94.5821 69.6178 95 70.1333 95H72C72.5154 95 72.9333 94.5821 72.9333 94.0667V92.2C72.9333 91.6845 72.5154 91.2667 72 91.2667H70.1333ZM50.5333 137.933C50.5333 137.418 50.9512 137 51.4667 137H53.3333C53.8488 137 54.2667 137.418 54.2667 137.933V139.8C54.2667 140.315 53.8488 140.733 53.3333 140.733H51.4667C50.9512 140.733 50.5333 140.315 50.5333 139.8V137.933ZM58 137.933C58 137.418 58.4179 137 58.9333 137H60.8C61.3154 137 61.7333 137.418 61.7333 137.933V139.8C61.7333 140.315 61.3154 140.733 60.8 140.733H58.9333C58.4179 140.733 58 140.315 58 139.8V137.933ZM65.4666 137.933C65.4666 137.418 65.8845 137 66.4 137H68.2666C68.7821 137 69.2 137.418 69.2 137.933V139.8C69.2 140.315 68.7821 140.733 68.2666 140.733H66.4C65.8845 140.733 65.4666 140.315 65.4666 139.8V137.933Z" fill="#F5F5F7"/>
<path fill-rule="evenodd" clip-rule="evenodd" d="M106.532 44.6003H93.4662C90.3734 44.6003 87.8662 47.1075 87.8662 50.2003V145.4C87.8662 148.493 90.3734 151 93.4662 151H150.399C153.492 151 155.999 148.493 155.999 145.4V50.2003C155.999 47.1075 153.492 44.6003 150.399 44.6003H137.332V46.6003H150.399C152.388 46.6003 153.999 48.2121 153.999 50.2003V145.4C153.999 147.388 152.388 149 150.399 149H93.4662C91.478 149 89.8662 147.388 89.8662 145.4V50.2003C89.8662 48.2121 91.478 46.6003 93.4662 46.6003H106.532V44.6003Z" fill="#F5F5F7"/>
<rect x="107.532" y="40" width="28.8" height="9.19999" rx="1" stroke="#F5F5F7" stroke-width="2"/>
<rect x="104.665" y="116.466" width="35.4666" height="3.73333" rx="1" fill="#F5F5F7"/>
<rect x="97.2002" y="124.867" width="50.3999" height="1.86666" rx="0.933332" fill="#F5F5F7"/>
<rect x="97.2002" y="130.466" width="50.3999" height="1.86666" rx="0.933332" fill="#F5F5F7"/>
<rect x="112.133" y="136.067" width="20.5333" height="1.86666" rx="0.933332" fill="#F5F5F7"/>
<path d="M114.932 84.2667L120.998 91.2667L131.732 75.8667" stroke="#F5F5F7" stroke-width="2" stroke-linecap="round"/>
<circle cx="122.399" cy="83.7998" r="18.6" stroke="#F5F5F7" stroke-width="2"/>
</g>
<defs>
<filter id="filter0_d" x="-3" y="0" width="200" height="200" filterUnits="userSpaceOnUse" color-interpolation-filters="sRGB">
<feFlood flood-opacity="0" result="BackgroundImageFix"/>
<feColorMatrix in="SourceAlpha" type="matrix" values="0 0 0 0 0 0 0 0 0 0 0 0 0 0 0 0 0 0 127 0" result="hardAlpha"/>
<feOffset dx="-3" dy="5"/>
<feGaussianBlur stdDeviation="10"/>
<feColorMatrix type="matrix" values="0 0 0 0 0.443137 0 0 0 0 0.380392 0 0 0 0 0.729412 0 0 0 0.15 0"/>
<feBlend mode="normal" in2="BackgroundImageFix" result="effect1_dropShadow"/>
<feBlend mode="normal" in="SourceGraphic" in2="effect1_dropShadow" result="shape"/>
</filter>
</defs>
</svg>
