<svg width="64" height="64" viewBox="0 0 64 64" fill="none" xmlns="http://www.w3.org/2000/svg">
<circle cx="32" cy="32" r="32" fill="#EEEDF2"/>
<path d="M43.7325 23.0861L41.5 24.9997C41.1667 24.333 41.1 22.5997 43.5 20.9997C46.5 18.9997 49.5 22.9997 51.5 25.4997C53.1 27.4997 54.8333 32.6663 55.5 34.9997C54.6667 35.4997 52.1 36.6997 48.5 37.4997C44.9 38.2997 41 38.1663 39.5 37.9997C40.1667 37.1663 41.6 35.1997 42 33.9997C42.4 32.7997 42.5 29.6667 42.5 28.5L45.8549 25.5176C46.4967 24.9471 46.5793 23.9738 46.0429 23.3033C45.4727 22.5906 44.4254 22.4921 43.7325 23.0861Z" fill="#AAA5D4"/>
<path d="M39 27.5L32.5848 28.3554C31.9638 28.4382 31.5 28.9679 31.5 29.5944C31.5 30.3426 32.1529 30.9232 32.896 30.8358L40 30L45.5982 25.263C46.1046 24.8346 46.1892 24.0856 45.7912 23.555C45.361 22.9813 44.5378 22.8851 43.9869 23.3442L39 27.5Z" fill="#AAA5D4"/>
<path d="M23.4998 30.5L21.4998 29C21.3331 29.6667 21.3998 31.1 22.9998 31.5C24.3744 31.8437 27.8159 32.2119 30.0264 32.4145C30.6054 32.4676 31.1472 32.1314 31.3631 31.5916C31.6851 30.7868 31.159 29.8949 30.2988 29.7874L27.9998 29.5L23.4998 30.5Z" fill="#AAA5D4"/>
<circle cx="24.343" cy="18.6047" r="4.04022" fill="#AAA5D4"/>
<path fill-rule="evenodd" clip-rule="evenodd" d="M22.801 14.31C21.6287 14.7308 20.6787 15.6181 20.1746 16.748C19.4833 16.4467 19 15.7572 19 14.9549C19 13.8753 19.8753 13 20.9549 13C21.8086 13 22.5345 13.5472 22.801 14.31Z" fill="#AAA5D4"/>
<path d="M24.3579 27.1901L18.9052 23.2954C18.9052 23.2954 17.7368 22.5164 17.3473 23.6848C16.9579 24.8533 17.7368 25.2427 17.7368 25.2427L23.5789 29.5269L30 28C30 28 31.1689 27.9997 31.1689 26.8313C31.1689 25.6629 30 25.6632 30 25.6632L24.3579 27.1901Z" fill="#AAA5D4"/>
<path d="M8 34.5901C8.90877 32.2532 10.96 27.1901 11.8947 25.6322C13.0632 23.6848 14.2316 22.5164 15.4 21.7374C16.5684 20.9585 18.9053 20.569 20.4632 21.7374C21.5647 22.5636 21.6927 23.7791 21.5354 24.6957L19.126 22.9747L19.1208 22.9712L19.1195 22.9703L19.1177 22.9692L19.1129 22.9661L19.0983 22.9567C19.0863 22.9492 19.0699 22.9392 19.0495 22.9274C19.009 22.9038 18.9521 22.8726 18.8828 22.8398C18.7473 22.7756 18.5499 22.6981 18.3269 22.6663C18.1033 22.6343 17.8274 22.6449 17.5654 22.7905C17.2975 22.9393 17.0981 23.1992 16.9773 23.5616C16.7501 24.2433 16.8516 24.7523 17.0615 25.1022C17.1621 25.2697 17.2797 25.3878 17.3741 25.4649C17.4214 25.5036 17.4636 25.5327 17.4961 25.5532C17.507 25.5601 17.5169 25.566 17.5256 25.571L20.8573 28.0143C20.7262 29.8086 20.765 32.0777 21.2421 33.0318L23.1895 36.9266C21.3719 37.1862 17.0358 37.5497 14.2316 36.9266C11.4274 36.3034 8.90877 35.1092 8 34.5901Z" fill="#AAA5D4"/>
<path d="M23.0219 37.9473C21.7236 38.0771 18.3482 38.2588 15.2324 37.9473L19.1272 39.5052L20.7491 47.6148C20.9332 48.5354 21.7907 49.1624 22.7238 49.0588C23.7393 48.9459 24.4602 48.0154 24.3157 47.0039L23.0219 37.9473Z" fill="#AAA5D4"/>
<path d="M39.5582 38.9473C40.8564 39.0771 44.2319 39.2588 47.3477 38.9473L43.4529 40.5052L41.831 48.6148C41.6469 49.5354 40.7894 50.1624 39.8563 50.0588C38.8408 49.9459 38.1199 49.0154 38.2644 48.0039L39.5582 38.9473Z" fill="#AAA5D4"/>
<path d="M9 36.9474V36C9.93474 36.6232 13.0246 37.5579 14.4526 37.9474V48.0737H16.5947C16.9174 48.0737 17.1789 48.3352 17.1789 48.6579C17.1789 48.9805 16.9174 49.2421 16.5947 49.2421H11.1421C10.8195 49.2421 10.5579 48.9805 10.5579 48.6579C10.5579 48.3352 10.8195 48.0737 11.1421 48.0737H13.2842V37.9474H10C9.44772 37.9474 9 37.4997 9 36.9474Z" fill="#AAA5D4"/>
<path d="M53.5801 37.9474V37C52.6453 37.6232 49.5555 38.5579 48.1274 38.9474V49.0737H45.9853C45.6627 49.0737 45.4011 49.3352 45.4011 49.6579C45.4011 49.9805 45.6627 50.2421 45.9853 50.2421H51.438C51.7606 50.2421 52.0222 49.9805 52.0222 49.6579C52.0222 49.3352 51.7606 49.0737 51.438 49.0737H49.2959V38.9474H52.5801C53.1324 38.9474 53.5801 38.4997 53.5801 37.9474Z" fill="#AAA5D4"/>
<path d="M28.2094 23.7389C28.1066 23.568 28.1537 23.3467 28.3172 23.2325C28.4973 23.1066 28.7464 23.1597 28.8597 23.348L29.8989 25.0769C30.0016 25.2478 29.9545 25.4691 29.791 25.5833C29.6109 25.7092 29.3618 25.6562 29.2486 25.4678L28.2094 23.7389Z" fill="#AAA5D4"/>
<circle cx="41" cy="17" r="4" fill="#AAA5D4"/>
<path fill-rule="evenodd" clip-rule="evenodd" d="M24 33C23.4477 33 23 33.4477 23 34C23 34.5523 23.4477 35 24 35H25V46C25 46.5523 25.4477 47 26 47H36C36.5523 47 37 46.5523 37 46V35H38C38.5523 35 39 34.5523 39 34C39 33.4477 38.5523 33 38 33H24Z" fill="#AAA5D4"/>
</svg>
