<svg width="64" height="64" viewBox="0 0 64 64" fill="none" xmlns="http://www.w3.org/2000/svg">
<circle cx="32" cy="32" r="32" fill="#EEEDF2"/>
<path d="M38.2685 46.9683H16.1829C13.8727 46.9683 12 45.0956 12 42.7854C12 40.4753 13.8727 38.6025 16.1829 38.6025H34.3102C35.9806 38.6025 37.5753 39.2989 38.7108 40.524L43.2879 45.4625H52.2536C52.7442 45.4625 53.242 45.5085 53.6751 45.7388C54.2571 46.0483 55 46.6526 55 47.7212C55 48.7899 54.2571 49.3942 53.6751 49.7037C53.242 49.934 52.7442 49.98 52.2536 49.98H41.2802L38.2685 46.9683Z" fill="#AAA5D4"/>
<path d="M12 49.98H39.4397L37.7665 48.1395H13.6732C12.4685 48.1395 12.0558 47.6933 12 47.4702V49.98Z" fill="#AAA5D4"/>
<path d="M20.5344 25.8867C20.1329 26.9575 17.2439 33.8063 15.8496 37.0968H25.0519C25.0519 36.9853 25.0854 36.6953 25.2193 36.4276C25.3866 36.0929 27.227 33.7505 27.8963 33.0812C28.4317 32.5458 28.454 31.6312 28.3982 31.2408C29.0675 31.9658 30.5399 33.4828 31.0753 33.7505C31.7446 34.0851 36.4294 36.0929 37.7679 36.4276C39.1064 36.7622 39.7757 35.9256 39.943 35.4237C40.1103 34.9217 40.1103 33.5832 38.7718 33.0812C37.4333 32.5793 33.0831 31.0735 32.7484 30.7388C32.4138 30.4042 27.227 25.5521 26.7251 25.2174C26.2232 24.8828 23.0442 24.3809 22.5422 24.3809C22.0403 24.3809 21.0364 24.5482 20.5344 25.8867Z" fill="#AAA5D4"/>
<circle cx="28.0618" cy="19.1946" r="5.18677" fill="#AAA5D4"/>
<circle cx="45.7981" cy="38.6038" r="5.18677" fill="#AAA5D4"/>
<path fill-rule="evenodd" clip-rule="evenodd" d="M26.0829 13.682C24.578 14.2223 23.3585 15.3612 22.7114 16.8117C21.8237 16.4249 21.2031 15.5398 21.2031 14.5097C21.2031 13.1236 22.3268 12 23.7129 12C24.8089 12 25.7409 12.7026 26.0829 13.682Z" fill="#AAA5D4"/>
</svg>
