<svg width="64" height="64" viewBox="0 0 64 64" fill="none" xmlns="http://www.w3.org/2000/svg">
<circle cx="32" cy="32" r="32" fill="#EEEDF2"/>
<path d="M33 49C28.2 49 26 47.1667 25.5 46C28.6667 46.1667 35.5 46 37.5 46C39.5 46 40 44.6667 40 44C43.5 44 47 46 48.5 49.5C49.4269 51.6628 49.5185 52.871 49.5122 54.0002C49.5091 54.5524 49.0523 55 48.5 55H45.5C44.9477 55 44.5274 54.5523 44.5088 54.0004C44.4836 53.2521 44.3135 52.3559 43.5 51C42 48.5 39 49 33 49Z" fill="#AAA5D4"/>
<path d="M46.7996 27.1674L43 33.5C43.6667 33.1667 45.3 32.7 46.5 33.5C47.7 34.3 47.6667 36.5 47.5 37.5L51.1436 31.1236C51.3566 30.751 51.308 30.284 51.0228 29.9631L48.4045 27.0175C47.956 26.513 47.1468 26.5886 46.7996 27.1674Z" fill="#AAA5D4"/>
<path d="M24.1479 26.1122L29.5427 21.9511L35.2999 17.5105C36.3081 16.7328 36.3412 15.2246 35.3696 14.4017L29.7477 9.64049C27.2289 7.50728 23.5622 7.4235 20.9485 9.43944L20.2862 9.95032L19.7837 10.3379C17.0984 12.4092 16.284 16.1074 17.8509 19.115L21.1527 25.4526C21.7281 26.557 23.1619 26.8727 24.1479 26.1122Z" fill="#AAA5D4"/>
<path fill-rule="evenodd" clip-rule="evenodd" d="M26.541 25.2665L29.542 22.9518L34.3224 19.2646C35.3513 20.1805 35.9993 21.5149 35.9993 23.0007C35.9993 25.7621 33.7608 28.0007 30.9993 28.0007C29.0535 28.0007 27.3674 26.8892 26.541 25.2665Z" fill="#AAA5D4"/>
<path d="M17.5 20.5L13 25.5L14 27.5L18.5 22.5L17.5 20.5Z" fill="#AAA5D4"/>
<path fill-rule="evenodd" clip-rule="evenodd" d="M17.4757 35.4044C17.2133 34.0488 18.0994 32.7372 19.4549 32.4748C20.8105 32.2123 22.1221 33.0984 22.3846 34.454L24.0391 42.9998H26.0859C26.2918 42.4172 26.8474 41.9998 27.5005 41.9998H37.5005C38.329 41.9998 39.0005 42.6713 39.0005 43.4998C39.0005 44.3282 38.329 44.9998 37.5005 44.9998H27.5005C26.8474 44.9998 26.2918 44.5824 26.0859 43.9998H24.2327L24.4755 45.2534C24.683 46.3254 24.1723 47.3699 23.2791 47.8898L24.8005 50.0198C24.8652 50.0066 24.932 49.9998 25.0005 49.9998H40.0005C40.5528 49.9998 41.0005 50.4475 41.0005 50.9998V52.4998C41.0005 53.8805 39.8812 54.9998 38.5005 54.9998H26.5005C25.1198 54.9998 24.0005 53.8805 24.0005 52.4998L24.0005 51.9998L21.4414 48.1611C20.5164 47.9402 19.7592 47.1983 19.5666 46.2038L17.4757 35.4044Z" fill="#AAA5D4"/>
<path d="M25.5 30.5001C24.7 32.5001 24.5 38.6668 24.5 41.5001C24.5 41.7762 24.7238 42 24.9999 42H25.5607C25.842 42 26.1117 41.8883 26.3107 41.6893L26.5 41.5C26.8201 41.1799 27.2544 41 27.7071 41H37.772C38.2381 41 38.6852 41.1852 39.0148 41.5148C39.3 41.8 39.7418 41.8553 40.0861 41.6454C41.8836 40.5502 44.7846 38.7154 45.5 38C46.5 37 47 35.5 46 34.5C45 33.5 43.5 34.5 43 35C42.5 35.5 39 38 37 38.5C35 39 34 34.5001 32.5 31.5001C31 28.5001 26.5 28.0001 25.5 30.5001Z" fill="#AAA5D4"/>
</svg>
