<svg width="64" height="64" viewBox="0 0 64 64" fill="none" xmlns="http://www.w3.org/2000/svg">
<circle cx="32" cy="32" r="32" fill="#EEEDF2"/>
<path d="M35.3947 35.1225C36.3037 36.7205 39.6365 39.6766 40.7703 40.4325C41.705 41.0556 46.6115 43.9373 49.3847 45.1061C49.7379 44.3998 50.7189 42.0253 51.2852 40.8215H54.4011V46.6636C54.4011 47.524 53.7036 48.2215 52.8432 48.2215H40.38C39.5196 48.2215 38.8221 47.524 38.8221 46.6636V41.9899L27.1174 34.4163C26.2645 33.8644 26.0121 32.7302 26.5506 31.8687C27.0915 31.0032 28.2288 30.7352 29.0993 31.2681L35.3947 35.1225Z" fill="#AAA5D4"/>
<path d="M43.1059 33.8105L38.8078 31.6614C38.1702 31.3426 37.3949 31.6011 37.076 32.2387C36.7519 32.8871 37.025 33.6752 37.6809 33.9839L42.6859 36.3391C42.9447 36.4609 43.2494 36.4311 43.4796 36.2614L49.682 31.6913C50.1491 31.3471 50.2779 30.7041 49.9794 30.2066C49.6361 29.6345 48.8732 29.485 48.3395 29.8853L43.1059 33.8105Z" fill="#AAA5D4"/>
<path fill-rule="evenodd" clip-rule="evenodd" d="M45.1253 31.8091C42.5828 31.1112 39.7736 29.8087 39.2098 29.5268C38.4308 29.1373 37.6519 29.1377 36.094 30.3061C34.8477 31.2408 34.927 33.2921 35.3165 34.2008C36.0961 35.7587 39.6 38.8745 40.7684 39.6535C41.7032 40.2766 46.6106 43.0289 48.9474 44.3271C49.5965 43.0289 51.0506 40.0429 51.6737 38.485C52.2969 36.9271 52.4527 33.4219 52.4527 31.864C52.0019 31.9541 50.975 32.1069 49.6591 32.1919L43.7104 36.5751C43.3651 36.8296 42.908 36.8743 42.5198 36.6916L37.5149 34.3364C36.661 33.9346 36.3054 32.9086 36.7274 32.0646C37.1424 31.2346 38.1517 30.8982 38.9817 31.3132L43.0646 33.3546L45.1253 31.8091Z" fill="#AAA5D4"/>
<path d="M26.3579 27.1901L20.9052 23.2954C20.9052 23.2954 19.7368 22.5164 19.3473 23.6848C18.9579 24.8533 19.7368 25.2427 19.7368 25.2427L25.5789 29.5269H32.5894C32.5894 29.5269 33.7583 29.5267 33.7583 28.3582C33.7583 27.1898 32.5894 27.1901 32.5894 27.1901H26.3579Z" fill="#AAA5D4"/>
<path d="M29.8631 29.9164C30.5737 30.8622 31.7049 31.474 32.979 31.474C35.13 31.474 36.8737 29.7303 36.8737 27.5793C36.8737 25.4283 35.13 23.6846 32.979 23.6846C31.0947 23.6846 29.5229 25.0227 29.1621 26.8006H32.589L32.5906 26.8006L32.5928 26.8006L32.5985 26.8007L32.615 26.8011C32.6281 26.8015 32.6456 26.8023 32.6668 26.8038C32.7092 26.8069 32.7671 26.8127 32.8355 26.8241C32.9706 26.8466 33.1567 26.8923 33.3475 26.9876C33.5398 27.0836 33.744 27.2339 33.8992 27.4666C34.0561 27.7018 34.1474 27.9979 34.1474 28.3582C34.1474 28.7185 34.0561 29.0146 33.8993 29.2498C33.7441 29.4826 33.5399 29.6329 33.3476 29.7291C33.1568 29.8245 32.9708 29.8702 32.8357 29.8928C32.7673 29.9042 32.7093 29.9101 32.667 29.9131L32.5891 29.9164H29.8631Z" fill="#AAA5D4"/>
<path d="M10 34.5901C10.9088 32.2532 12.96 27.1901 13.8947 25.6322C15.0632 23.6848 16.2316 22.5164 17.4 21.7374C18.5684 20.9585 20.9053 20.569 22.4632 21.7374C23.5647 22.5636 23.6927 23.7791 23.5354 24.6957L21.126 22.9747L21.1208 22.9712L21.1195 22.9703L21.1177 22.9692L21.1129 22.9661L21.0983 22.9567C21.0863 22.9492 21.0699 22.9392 21.0495 22.9274C21.009 22.9038 20.9521 22.8726 20.8828 22.8398C20.7473 22.7756 20.5499 22.6981 20.3269 22.6663C20.1033 22.6343 19.8274 22.6449 19.5654 22.7905C19.2975 22.9393 19.0981 23.1992 18.9773 23.5616C18.7501 24.2433 18.8516 24.7523 19.0615 25.1022C19.1621 25.2697 19.2797 25.3878 19.3741 25.4649C19.4214 25.5036 19.4636 25.5327 19.4961 25.5532C19.507 25.5601 19.5169 25.566 19.5256 25.571L22.8573 28.0143C22.7262 29.8086 22.765 32.0777 23.2421 33.0318L25.1895 36.9266C23.3719 37.1862 19.0358 37.5497 16.2316 36.9266C13.4274 36.3034 10.9088 35.1092 10 34.5901Z" fill="#AAA5D4"/>
<circle cx="25.2375" cy="17.6047" r="4.04022" fill="#AAA5D4"/>
<path fill-rule="evenodd" clip-rule="evenodd" d="M23.6955 13.31C22.5232 13.7308 21.5732 14.6181 21.0692 15.748C20.3778 15.4467 19.8945 14.7572 19.8945 13.9549C19.8945 12.8753 20.7698 12 21.8495 12C22.7032 12 23.429 12.5472 23.6955 13.31Z" fill="#AAA5D4"/>
<path d="M25.1899 37.7051C23.8916 37.8349 20.5162 38.0167 17.4004 37.7051L21.2951 39.263L22.9171 47.3726C23.1012 48.2932 23.9587 48.9202 24.8918 48.8166C25.9073 48.7037 26.6282 47.7732 26.4837 46.7617L25.1899 37.7051Z" fill="#AAA5D4"/>
<path d="M11.168 36.7052V35.7578C12.1027 36.381 15.1925 37.3157 16.6206 37.7052V47.8315H18.7627C19.0854 47.8315 19.3469 48.0931 19.3469 48.4157C19.3469 48.7384 19.0854 48.9999 18.7627 48.9999H13.3101C12.9874 48.9999 12.7259 48.7384 12.7259 48.4157C12.7259 48.0931 12.9874 47.8315 13.3101 47.8315H15.4522V37.7052H12.168C11.6157 37.7052 11.168 37.2575 11.168 36.7052Z" fill="#AAA5D4"/>
</svg>
