<svg width="44" height="44" viewBox="0 0 44 44" fill="none" xmlns="http://www.w3.org/2000/svg">
<g clip-path="url(#clip0_1260_1040)">
<path d="M10.7949 41.4601H14.6093C16.8204 41.4601 16.8237 38.015 14.6093 38.015H10.7949C8.58383 38.015 8.58056 41.4601 10.7949 41.4601ZM10.7949 39.3041H14.6093C15.1696 39.3041 15.1696 40.171 14.6093 40.171H10.7949C10.2347 40.171 10.2347 39.3041 10.7949 39.3041Z" fill="#7161BA"/>
<path d="M15.5286 22.1538L11.3298 26.3527L9.87561 24.8984C9.28617 24.3094 8.3748 25.2206 8.96407 25.81L10.874 27.72C11.1779 27.9716 11.4818 27.9716 11.7856 27.72L16.4402 23.0653C17.0294 22.476 16.118 21.5648 15.5286 22.1538Z" fill="#7161BA"/>
<path d="M43.5213 28.5137C43.261 28.017 43.0725 27.4728 42.9445 26.9267C42.3159 24.2975 41.361 21.7504 40.1065 19.3558L38.0091 15.3523C36.8217 13.0858 33.3176 13.4626 32.6561 15.9485C31.087 15.384 29.3156 16.3119 28.8865 17.9234C27.5893 17.4566 26.0913 18.0064 25.4036 19.1995V5.04651V2.51823C25.4035 1.12973 24.2738 0 22.8852 0H7.87017C7.03683 0 7.03683 1.28906 7.87017 1.28906H22.8852C23.563 1.28906 24.1144 1.84044 24.1144 2.51823V4.40198H1.28967V2.51823C1.28967 1.84044 1.84105 1.28906 2.51884 1.28906H4.26088C5.09421 1.28906 5.09421 0 4.26088 0H2.51884C1.13034 0 0.000610352 1.12973 0.000610352 2.51823V5.04651V36.1116V41.4818C0.000610352 42.8703 1.13034 44 2.51884 44H22.8852C24.2738 44 25.4035 42.8703 25.4035 41.4818V36.1116V33.53L27.7067 34.6692C28.2759 34.9507 28.7436 35.4194 29.0239 35.9892C30.0471 38.0684 32.6696 38.9305 34.7295 37.8512L38.5696 35.8394C39.3078 35.4527 38.7096 34.3109 37.9714 34.6975L34.1313 36.7093C32.7049 37.457 30.8916 36.8649 30.1806 35.42C29.7757 34.5973 29.1002 33.9203 28.2782 33.5136L18.5042 28.6791C16.6685 27.7875 17.9961 24.9077 19.8604 25.7772L23.4093 27.6454C23.9568 27.9336 24.5676 27.3242 24.2805 26.7761L18.1154 15.0085C17.103 13.1053 19.8141 11.3486 20.8482 13.3227L25.2059 21.6404L26.3442 23.8131C26.7199 24.5306 27.8717 23.9512 27.486 23.2149L26.3778 21.0997C25.9291 19.6043 27.7753 18.3986 28.9635 19.4411L30.1966 21.7948C30.5724 22.5123 31.7242 21.9329 31.3385 21.1966L30.0847 18.8034C29.9674 17.4285 31.6511 16.5437 32.7154 17.4506L33.9565 19.8197C34.3322 20.5372 35.484 19.9578 35.0984 19.2215L33.857 16.852C33.6881 15.1646 36.063 14.4155 36.867 15.9504L38.9645 19.9539C40.1695 22.254 41.0867 24.7008 41.6906 27.2261C41.8371 27.8812 42.0677 28.517 42.3793 29.1118C43.122 30.5292 42.5729 32.2865 41.1555 33.0292C40.4174 33.4161 41.0157 34.5579 41.7537 34.1711C43.8008 33.0987 44.5938 30.5607 43.5213 28.5137ZM24.1144 41.4818C24.1144 42.1596 23.563 42.7109 22.8852 42.7109H2.51884C1.84105 42.7109 1.28967 42.1596 1.28967 41.4818V36.7562H24.1144V41.4818ZM16.573 25.9872C16.1355 26.9069 16.2205 28.0084 16.7906 28.8519C15.7247 29.9673 14.2624 30.5993 12.702 30.5993C9.57972 30.5993 7.03958 28.0592 7.03958 24.9369C7.03958 21.8146 9.57972 19.2745 12.702 19.2745C15.6645 19.2745 18.1014 21.5618 18.343 24.463C17.5796 24.6959 16.9161 25.2656 16.573 25.9872ZM21.2528 11.8219C20.9718 11.5937 20.6475 11.4183 20.2916 11.3071C18.227 10.6619 16.1478 12.5551 16.6022 14.6694H4.36606C4.24756 14.6694 4.15122 14.573 4.15122 14.4545V9.84844C4.15122 9.72993 4.24756 9.63359 4.36606 9.63359H21.0379C21.1565 9.63359 21.2528 9.72993 21.2528 9.84844V11.8219ZM24.1144 16.7795L22.5419 13.7779V9.84844C22.5419 9.01923 21.8672 8.34453 21.0379 8.34453H4.36606C3.53685 8.34453 2.86216 9.01923 2.86216 9.84844V14.4546C2.86216 15.2838 3.53685 15.9585 4.36606 15.9585H17.1577L22.1779 25.5406L20.4483 24.6301C20.4407 24.6261 20.4329 24.6221 20.425 24.6184C20.1689 24.4966 19.9011 24.4144 19.6286 24.3716C19.3396 20.8022 16.3446 17.9854 12.7021 17.9854C8.86902 17.9854 5.7506 21.1038 5.7506 24.9369C5.7506 28.77 8.86902 31.8884 12.7021 31.8884C14.6245 31.8884 16.4271 31.1089 17.7367 29.7305C19.7815 30.9089 21.9987 31.8459 24.1144 32.8923V35.467H1.28967V5.69104H24.1144V16.7795Z" fill="#7161BA"/>
</g>
<defs>
<clipPath id="clip0_1260_1040">
<rect width="44" height="44" fill="white"/>
</clipPath>
</defs>
</svg>
