<svg width="44" height="44" viewBox="0 0 44 44" fill="none" xmlns="http://www.w3.org/2000/svg">
<g clip-path="url(#clip0_1260_1041)">
<path d="M17.8668 12.7443C12.1934 12.7443 7.57776 17.3599 7.57776 23.0333C7.57776 28.7067 12.1934 33.3223 17.8668 33.3223C23.5402 33.3223 28.1558 28.7067 28.1558 23.0333C28.1558 17.3599 23.5402 12.7443 17.8668 12.7443ZM17.8668 32.0332C12.9042 32.0332 8.86683 27.9958 8.86683 23.0332C8.86683 18.0706 12.9042 14.0332 17.8668 14.0332C22.8294 14.0332 26.8667 18.0706 26.8667 23.0332C26.8667 27.9958 22.8294 32.0332 17.8668 32.0332Z" fill="#7161BA"/>
<path d="M24.6784 20.7627C24.5657 20.425 24.2007 20.2424 23.8631 20.355L19.4806 21.8159C19.1111 21.3272 18.5253 21.0109 17.8669 21.0109C17.5441 21.0109 17.2388 21.0874 16.9678 21.2226L13.5005 17.7553C13.2488 17.5036 12.8407 17.5036 12.5891 17.7553C12.3373 18.007 12.3373 18.4151 12.5891 18.6668L16.0563 22.134C15.9211 22.4051 15.8446 22.7103 15.8446 23.0332C15.8446 24.1483 16.7519 25.0555 17.8669 25.0555C18.9803 25.0555 19.8862 24.1512 19.8891 23.0385L24.2708 21.578C24.6084 21.4654 24.7909 21.1005 24.6784 20.7627ZM17.8669 23.7665C17.4625 23.7665 17.1336 23.4375 17.1336 23.0333C17.1336 22.629 17.4626 22.3001 17.8669 22.3001C18.2711 22.3001 18.6001 22.629 18.6001 23.0333C18.6001 23.4375 18.2712 23.7665 17.8669 23.7665Z" fill="#7161BA"/>
<path d="M24.0668 35.4777H2.71118C1.92699 35.4777 1.28907 34.8397 1.28907 34.0556V10.5889H34.4446V18.2111C34.4446 18.567 34.7332 18.8556 35.0892 18.8556C35.4451 18.8556 35.7337 18.567 35.7337 18.2111V6.49987C35.7337 5.00489 34.5175 3.7886 33.0225 3.7886H32.2892V3.05538C32.2892 1.94024 31.382 1.03308 30.2669 1.03308C29.1519 1.03308 28.2446 1.94024 28.2446 3.05538V3.7886H9.60007C9.24411 3.7886 8.95553 4.07718 8.95553 4.43314C8.95553 4.78909 9.24411 5.07767 9.60007 5.07767H28.2445V5.8109C28.2445 6.92603 29.1518 7.8332 30.2668 7.8332C31.3819 7.8332 32.2891 6.92603 32.2891 5.8109V5.07767H33.0224C33.8066 5.07767 34.4445 5.71568 34.4445 6.49987V9.29982H1.28907V6.49987C1.28907 5.71568 1.92699 5.07767 2.71118 5.07767H3.4444V5.8109C3.4444 6.92603 4.35165 7.8332 5.4667 7.8332C6.58175 7.8332 7.489 6.92603 7.489 5.8109V3.05546C7.489 1.94033 6.58175 1.03317 5.4667 1.03317C4.35165 1.03317 3.44449 1.94033 3.44449 3.05546V3.78869H2.71126C1.2162 3.78869 0 5.00489 0 6.49987V34.0555C0 35.5505 1.2162 36.7667 2.71118 36.7667H24.0668C24.4228 36.7667 24.7114 36.4781 24.7114 36.1222C24.7114 35.7662 24.4228 35.4777 24.0668 35.4777ZM30.2668 6.54421C29.8625 6.54421 29.5336 6.21524 29.5336 5.81099V3.05546C29.5336 2.65112 29.8626 2.32224 30.2668 2.32224C30.6711 2.32224 31 2.65121 31 3.05546V5.81107C31.0001 6.21532 30.6712 6.54421 30.2668 6.54421ZM4.73356 3.05546C4.73356 2.65112 5.06253 2.32224 5.46679 2.32224C5.87104 2.32224 6.20001 2.65121 6.20001 3.05546V5.81107C6.20001 6.21541 5.87104 6.5443 5.46679 6.5443C5.06253 6.5443 4.73356 6.21532 4.73356 5.81107V3.05546Z" fill="#7161BA"/>
<path d="M43.9731 37.8539C43.8166 36.8919 42.9272 36.1665 41.9043 36.1665C41.5407 36.1665 41.2448 35.8707 41.2448 35.507V31.2999C41.2448 28.1234 38.8261 25.5014 35.7337 25.1781V24.2607C36.5336 23.991 37.1114 23.2341 37.1114 22.3443C37.1114 21.2292 36.2042 20.322 35.0891 20.322C33.9741 20.322 33.0668 21.2293 33.0668 22.3443C33.0668 23.2341 33.6447 23.9909 34.4446 24.2607V25.1781C31.3522 25.5013 28.9335 28.1233 28.9335 31.2999V35.507C28.9335 35.8707 28.6377 36.1665 28.274 36.1665C27.2511 36.1665 26.3616 36.8919 26.2051 37.8539C26.1087 38.4464 26.2742 39.0458 26.6592 39.4985C27.0444 39.9514 27.6061 40.2111 28.2003 40.2111H31.7511C32.0533 41.7786 33.4347 42.9667 35.0892 42.9667C36.7436 42.9667 38.1251 41.7786 38.4272 40.2111H41.9781C42.5723 40.2111 43.1339 39.9514 43.5191 39.4985C43.904 39.0459 44.0695 38.4465 43.9731 37.8539ZM35.0891 21.6111C35.4935 21.6111 35.8224 21.9401 35.8224 22.3443C35.8224 22.7487 35.4934 23.0775 35.0891 23.0775C34.6849 23.0775 34.3559 22.7486 34.3559 22.3443C34.3558 21.9401 34.6848 21.6111 35.0891 21.6111ZM35.0891 41.6777C34.1498 41.6777 33.3522 41.0609 33.079 40.2112H37.0991C36.826 41.0609 36.0283 41.6777 35.0891 41.6777ZM42.537 38.6634C42.3972 38.8278 42.1935 38.9221 41.978 38.9221H28.2002C27.9847 38.9221 27.781 38.8278 27.6411 38.6634C27.4995 38.4968 27.4413 38.2829 27.4774 38.061C27.5327 37.7215 27.8825 37.4556 28.2739 37.4556C29.3483 37.4556 30.2225 36.5814 30.2225 35.507V31.2999C30.2225 28.6165 32.4056 26.4333 35.089 26.4333C37.7725 26.4333 39.9556 28.6165 39.9556 31.2999V35.507C39.9556 36.5814 40.8298 37.4556 41.9042 37.4556C42.2956 37.4556 42.6454 37.7215 42.7007 38.061C42.7368 38.2829 42.6787 38.4968 42.537 38.6634Z" fill="#7161BA"/>
</g>
<defs>
<clipPath id="clip0_1260_1041">
<rect width="44" height="44" fill="white"/>
</clipPath>
</defs>
</svg>
