<svg width="44" height="44" viewBox="0 0 44 44" fill="none" xmlns="http://www.w3.org/2000/svg">
<path d="M43.7559 8.89851C43.505 8.44622 43.0928 8.11863 42.5955 7.97623L18.6645 1.12323C17.6378 0.828983 16.5635 1.4253 16.2695 2.45191L14.5764 8.3645H1.93669C0.868742 8.3645 0 9.23333 0 10.3012V33.5084C0 33.865 0.289008 34.154 0.645563 34.154C1.00212 34.154 1.29113 33.865 1.29113 33.5084V10.3012C1.29113 9.94523 1.58073 9.65562 1.93669 9.65562H27.3461C27.702 9.65562 27.9916 9.94523 27.9916 10.3012V41.0153C27.9916 41.3713 27.702 41.6609 27.3461 41.6609H1.93669C1.58073 41.6609 1.29113 41.3713 1.29113 41.0153V36.4556C1.29113 36.099 1.00212 35.81 0.645563 35.81C0.289008 35.81 0 36.099 0 36.4556V41.0153C0 42.0832 0.868742 42.952 1.93669 42.952H27.3461C28.414 42.952 29.2828 42.0832 29.2828 41.0153V40.1416L33.0736 41.2272C33.5759 41.3683 34.0667 41.3122 34.5464 41.0589C34.9987 40.808 35.3263 40.3959 35.4687 39.8985L38.0994 30.7118C38.1976 30.369 37.9993 30.0116 37.6566 29.9135C37.3137 29.8151 36.9565 30.0137 36.8582 30.3564L34.2275 39.5431C34.1801 39.7089 34.0709 39.8463 33.92 39.9299C33.7693 40.0135 33.595 40.0334 33.4292 39.986L29.2829 38.7987V32.6715L31.3448 33.262C32.0864 33.4744 33.0113 32.9666 33.2254 32.2186L37.9558 15.6996C38.0676 15.3091 38.0207 14.8984 37.8237 14.5432C37.6266 14.188 37.303 13.9308 36.9125 13.819L29.2829 11.6341V10.3012C29.2829 9.23333 28.4141 8.3645 27.3462 8.3645H15.9193L17.5106 2.80735C17.6087 2.46515 17.9668 2.26646 18.309 2.36443L42.2401 9.21743C42.4059 9.26495 42.5432 9.37409 42.6269 9.52491C42.7105 9.67573 42.7304 9.85001 42.683 10.0158L37.6464 27.6038C37.5482 27.9466 37.7465 28.3041 38.0892 28.4021C38.4166 28.4911 38.6827 28.3435 38.8876 27.9592L43.9241 10.3711C44.0667 9.8739 44.007 9.35089 43.7559 8.89851ZM36.557 15.0601C36.6366 15.0829 36.6774 15.1385 36.6946 15.1695C36.7119 15.2007 36.7373 15.2646 36.7146 15.3443L31.9841 31.8632C31.9493 31.9849 31.8215 32.0553 31.7001 32.0208L29.2828 31.3285V12.9771L36.557 15.0601Z" fill="#7161BA"/>
<path d="M8.29825 15.546H5.79171C4.95313 15.546 4.27087 16.2283 4.27087 17.0668V34.2496C4.27087 35.0883 4.95313 35.7705 5.79171 35.7705H23.4911C24.3296 35.7705 25.0118 35.0882 25.0118 34.2496V17.0668C25.0118 16.2282 24.3296 15.546 23.4911 15.546H11.371C11.0145 15.546 10.7255 15.835 10.7255 16.1916C10.7255 16.5481 11.0145 16.8371 11.371 16.8371H23.4911C23.6177 16.8371 23.7207 16.9402 23.7207 17.0668V34.2496C23.7207 34.3763 23.6176 34.4793 23.4911 34.4793H5.79171C5.66504 34.4793 5.562 34.3763 5.562 34.2496V17.0668C5.562 16.9402 5.66504 16.8371 5.79171 16.8371H8.29816C8.65472 16.8371 8.94373 16.5481 8.94373 16.1916C8.94381 15.8349 8.65472 15.546 8.29825 15.546Z" fill="#7161BA"/>
<path d="M17.0087 18.5083H12.3606C10.6831 18.5083 9.31829 19.8731 9.31829 21.5506V24.5325C8.38208 24.778 7.84334 25.5235 7.91785 26.5354C7.9933 27.5603 8.6692 28.6448 9.55616 28.9403C10.1966 31.2069 12.28 32.8081 14.6739 32.8081C17.0762 32.8081 19.1662 31.1955 19.7984 28.916C20.6634 28.5852 21.2931 27.5107 21.3648 26.5354C21.4371 25.5549 20.9336 24.8246 20.0508 24.5567V21.5506C20.0508 19.8731 18.6862 18.5083 17.0087 18.5083ZM12.3606 19.7994H17.0087C17.9743 19.7994 18.7597 20.585 18.7597 21.5505V22.2413C18.7564 22.238 18.7533 22.2346 18.7499 22.2313C17.9749 21.4737 16.9511 21.0566 15.8671 21.0566H13.4808C12.402 21.0566 11.3832 21.47 10.6095 22.2206V21.5505C10.6094 20.585 11.395 19.7994 12.3606 19.7994ZM20.0772 26.4405C20.0271 27.1218 19.5301 27.7244 19.2563 27.7272C18.9491 27.7305 18.6868 27.9497 18.6291 28.2514C18.2667 30.1436 16.6033 31.5169 14.6739 31.5169C12.7438 31.5169 11.0803 30.1428 10.7185 28.2497C10.6599 27.9436 10.3922 27.7253 10.0848 27.7253C10.0699 27.7253 10.0549 27.7258 10.0397 27.7268C9.77075 27.7498 9.25538 27.117 9.20554 26.4405C9.19015 26.2307 9.15793 25.7942 9.89364 25.7399C10.2521 25.7159 10.637 25.5523 10.6477 25.1123C10.6848 23.5879 11.9557 22.3476 13.4807 22.3476H15.8671C17.4172 22.3476 18.6617 23.5614 18.7001 25.111C18.7088 25.4631 18.9955 25.7417 19.3509 25.7405L19.3689 25.7402C19.3765 25.7401 19.3841 25.7399 19.3919 25.74C20.1248 25.7955 20.0927 26.2311 20.0772 26.4405Z" fill="#7161BA"/>
<path d="M12.6904 26.5116C13.0371 26.5116 13.3181 26.2306 13.3181 25.8839C13.3181 25.5372 13.0371 25.2562 12.6904 25.2562C12.3438 25.2562 12.0627 25.5372 12.0627 25.8839C12.0627 26.2306 12.3438 26.5116 12.6904 26.5116Z" fill="#7161BA"/>
<path d="M17.245 26.1306C17.3777 25.8102 17.2257 25.4429 16.9054 25.3102C16.5851 25.1774 16.2178 25.3294 16.085 25.6498C15.9522 25.9701 16.1043 26.3374 16.4246 26.4701C16.7449 26.6029 17.1122 26.4509 17.245 26.1306Z" fill="#7161BA"/>
<path d="M16.0863 28.2565H13.2947C13.148 28.2565 13.0466 28.4041 13.0998 28.5408C13.3473 29.1778 13.9661 29.6294 14.6905 29.6294C15.415 29.6294 16.0338 29.1778 16.2812 28.5408C16.3344 28.4041 16.2329 28.2565 16.0863 28.2565Z" fill="#7161BA"/>
</svg>
