<svg width="44" height="44" viewBox="0 0 44 44" fill="none" xmlns="http://www.w3.org/2000/svg">
<path d="M22.0006 20.2383C24.0382 20.2383 25.6959 18.5805 25.6959 16.543C25.6959 14.5054 24.0382 12.8477 22.0006 12.8477C19.963 12.8477 18.3053 14.5054 18.3053 16.543C18.3053 18.5805 19.9629 20.2383 22.0006 20.2383ZM22.0006 14.1367C23.3274 14.1367 24.4069 15.2162 24.4069 16.543C24.4069 17.8698 23.3274 18.9492 22.0006 18.9492C20.6738 18.9492 19.5944 17.8698 19.5944 16.543C19.5944 15.2162 20.6737 14.1367 22.0006 14.1367Z" fill="#7161BA"/>
<path d="M22.0307 21.0977H21.9705C20.886 21.0977 19.8348 21.4104 18.9307 22.0018C18.6328 22.1968 18.5493 22.5961 18.7443 22.8941C18.9392 23.192 19.3387 23.2755 19.6365 23.0806C20.3302 22.6267 21.1373 22.3867 21.9705 22.3867H22.0307C24.3846 22.3867 26.2997 24.3017 26.2997 26.6557V27.9476C26.2997 28.5775 25.7874 29.0898 25.1574 29.0898H18.8437C18.2139 29.0898 17.7014 28.5775 17.7014 27.9476V26.6557C17.7014 26.1069 17.8039 25.5728 18.0061 25.0682C18.1386 24.7378 17.9781 24.3626 17.6477 24.2302C17.3172 24.0978 16.9421 24.2582 16.8096 24.5887C16.546 25.2463 16.4124 25.9418 16.4124 26.6557V27.9476C16.4124 29.2883 17.503 30.3789 18.8437 30.3789H25.1574C26.4981 30.3789 27.5888 29.2883 27.5888 27.9476V26.6557C27.5887 23.591 25.0954 21.0977 22.0307 21.0977Z" fill="#7161BA"/>
<path d="M22.0006 6.44531C23.6595 6.44531 25.07 5.15187 25.2114 3.50075C25.2418 3.14609 24.9789 2.83388 24.6242 2.80354C24.2693 2.77286 23.9574 3.03609 23.927 3.39066C23.8422 4.38075 22.996 5.15625 22.0006 5.15625C20.9344 5.15625 20.067 4.2888 20.067 3.22266C20.067 2.15652 20.9344 1.28906 22.0006 1.28906C22.254 1.28906 22.5 1.3371 22.7315 1.4318C23.0611 1.56681 23.4373 1.40877 23.5721 1.07929C23.7068 0.749805 23.549 0.373484 23.2195 0.238734C22.8323 0.0803516 22.4222 0 22.0006 0C20.2236 0 18.778 1.44564 18.778 3.22266C18.778 4.99967 20.2236 6.44531 22.0006 6.44531Z" fill="#7161BA"/>
<path d="M21.3131 8.37891V10.5273C21.3131 10.8834 21.6017 11.1719 21.9576 11.1719C22.3136 11.1719 22.6022 10.8834 22.6022 10.5273V8.37891C22.6022 8.02287 22.3136 7.73438 21.9576 7.73438C21.6017 7.73438 21.3131 8.02287 21.3131 8.37891Z" fill="#7161BA"/>
<path d="M30.1216 17.2736C30.1903 17.2736 30.2602 17.2625 30.329 17.2392L34.8836 15.6923C35.2207 15.5778 35.4011 15.2117 35.2866 14.8747C35.1721 14.5377 34.8061 14.3571 34.469 14.4717L29.9143 16.0186C29.5773 16.1331 29.3969 16.4992 29.5113 16.8362C29.6025 17.1044 29.8531 17.2736 30.1216 17.2736Z" fill="#7161BA"/>
<path d="M34.9108 29.2003L30.356 27.6534C30.0188 27.539 29.6529 27.7194 29.5384 28.0564C29.424 28.3934 29.6044 28.7595 29.9414 28.874L34.4961 30.4209C34.8241 30.535 35.1998 30.3581 35.3137 30.0179C35.4283 29.6809 35.2478 29.3148 34.9108 29.2003Z" fill="#7161BA"/>
<path d="M14.0868 16.0186L9.53207 14.4718C9.19477 14.3574 8.82893 14.5378 8.71446 14.8747C8.59999 15.2117 8.78046 15.5779 9.11742 15.6923L13.6721 17.2392C13.7409 17.2625 13.8107 17.2736 13.8795 17.2736C14.1479 17.2736 14.3986 17.1044 14.4897 16.8362C14.6042 16.4992 14.4238 16.1331 14.0868 16.0186Z" fill="#7161BA"/>
<path d="M5.76508 28.6212C4.98485 28.2573 4.10975 28.2192 3.30091 28.5136C1.63114 29.1213 0.767128 30.9743 1.37479 32.6441C1.49657 32.9786 1.86653 33.1509 2.20091 33.0293C2.53546 32.9075 2.70785 32.5376 2.58617 32.2031C2.22153 31.2013 2.73999 30.0895 3.74185 29.7249C4.22714 29.5482 4.75222 29.5711 5.22032 29.7894C6.17139 30.2091 6.61423 31.4262 6.15558 32.3589C5.85643 33.0178 5.17435 33.4608 4.45264 33.4754C4.09678 33.4845 3.81567 33.7804 3.82487 34.1362C3.83381 34.4864 4.12058 34.7643 4.46888 34.7643C5.67863 34.7471 6.82245 34.0071 7.3239 32.9038C8.08831 31.3491 7.35011 29.3207 5.76508 28.6212Z" fill="#7161BA"/>
<path d="M13.6449 27.6534L9.09021 29.2002C8.75316 29.3147 8.57278 29.6808 8.68725 30.0178C8.77843 30.2861 9.02902 30.4553 9.29749 30.4553C9.36616 30.4553 9.43611 30.4442 9.50486 30.4209L14.0595 28.874C14.3966 28.7596 14.577 28.3935 14.4625 28.0564C14.348 27.7194 13.982 27.5387 13.6449 27.6534Z" fill="#7161BA"/>
<path d="M22.0006 37.5547C20.2236 37.5547 18.778 39.0003 18.778 40.7773C18.778 42.5544 20.2236 44 22.0006 44C23.7776 44 25.2233 42.5544 25.2233 40.7773C25.2233 39.0003 23.7775 37.5547 22.0006 37.5547ZM22.0006 42.7109C20.9344 42.7109 20.067 41.8435 20.067 40.7773C20.067 39.7112 20.9344 38.8438 22.0006 38.8438C23.0668 38.8438 23.9342 39.7112 23.9342 40.7773C23.9342 41.8435 23.0668 42.7109 22.0006 42.7109Z" fill="#7161BA"/>
<path d="M39.5972 28.3192C37.8202 28.3192 36.3745 29.7649 36.3745 31.5419C36.3745 33.3189 37.8202 34.7645 39.5972 34.7645C41.3742 34.7645 42.8198 33.3189 42.8198 31.5419C42.8198 29.7649 41.3741 28.3192 39.5972 28.3192ZM39.5972 33.4755C38.5309 33.4755 37.6636 32.608 37.6636 31.5419C37.6636 30.4757 38.5309 29.6083 39.5972 29.6083C40.6634 29.6083 41.5308 30.4757 41.5308 31.5419C41.5308 32.608 40.6633 33.4755 39.5972 33.4755Z" fill="#7161BA"/>
<path d="M22.6022 35.6211V33.4727C22.6022 33.1166 22.3136 32.8281 21.9576 32.8281C21.6017 32.8281 21.3131 33.1166 21.3131 33.4727V35.6211C21.3131 35.9771 21.6017 36.2656 21.9576 36.2656C22.3136 36.2656 22.6022 35.9771 22.6022 35.6211Z" fill="#7161BA"/>
<path d="M39.5708 10.1281C37.7938 10.1281 36.3481 11.5737 36.3481 13.3507C36.3481 15.1277 37.7938 16.5734 39.5708 16.5734C41.3478 16.5734 42.7935 15.1277 42.7935 13.3507C42.7935 11.5737 41.3478 10.1281 39.5708 10.1281ZM39.5708 15.2843C38.5046 15.2843 37.6372 14.4168 37.6372 13.3507C37.6372 12.2846 38.5046 11.4171 39.5708 11.4171C40.637 11.4171 41.5044 12.2846 41.5044 13.3507C41.5044 14.4168 40.637 15.2843 39.5708 15.2843Z" fill="#7161BA"/>
<path d="M4.4303 10.1281C2.65328 10.1281 1.20764 11.5737 1.20764 13.3507C1.20764 15.1277 2.65328 16.5734 4.4303 16.5734C6.20731 16.5734 7.65295 15.1277 7.65295 13.3507C7.65295 11.5737 6.20723 10.1281 4.4303 10.1281ZM4.4303 15.2843C3.36407 15.2843 2.4967 14.4168 2.4967 13.3507C2.4967 12.2846 3.36407 11.4171 4.4303 11.4171C5.49652 11.4171 6.36389 12.2846 6.36389 13.3507C6.36389 14.4168 5.49644 15.2843 4.4303 15.2843Z" fill="#7161BA"/>
</svg>
