<svg width="44" height="44" viewBox="0 0 44 44" fill="none" xmlns="http://www.w3.org/2000/svg">
<path d="M23.0742 3.86719C23.4303 3.86719 23.7188 3.5787 23.7188 3.22266C23.7188 2.86662 23.4303 2.57812 23.0742 2.57812H18.7773C18.4213 2.57812 18.1328 2.86662 18.1328 3.22266C18.1328 3.5787 18.4213 3.86719 18.7773 3.86719H23.0742Z" fill="#7161BA"/>
<path d="M26.8984 39.7031C27.9172 39.7031 28.7461 38.8743 28.7461 37.8555V35.8789C28.7461 34.8601 27.9172 34.0312 26.8984 34.0312H17.1016C16.0828 34.0312 15.2539 34.8601 15.2539 35.8789V37.8555C15.2539 38.8743 16.0828 39.7031 17.1016 39.7031H26.8984ZM16.543 37.8555V35.8789C16.543 35.5709 16.7936 35.3203 17.1016 35.3203H26.8984C27.2064 35.3203 27.457 35.5709 27.457 35.8789V37.8555C27.457 38.1635 27.2064 38.4141 26.8984 38.4141H17.1016C16.7936 38.4141 16.543 38.1635 16.543 37.8555Z" fill="#7161BA"/>
<path d="M36.4851 7.98712H35.0195V3.86719C35.0195 1.73482 33.2847 0 31.1523 0H18.3906C18.0346 0 17.7461 0.288492 17.7461 0.644531C17.7461 1.00057 18.0346 1.28906 18.3906 1.28906H31.1523C32.5739 1.28906 33.7305 2.44561 33.7305 3.86719V7.98712H10.2695V3.86719C10.2695 2.44561 11.4261 1.28906 12.8477 1.28906H15.3828C15.7388 1.28906 16.0273 1.00057 16.0273 0.644531C16.0273 0.288492 15.7388 0 15.3828 0H12.8477C10.7153 0 8.98047 1.73482 8.98047 3.86719V7.98712H7.51489C5.97481 7.98712 4.72192 9.24 4.72192 10.7801V27.1183C4.72192 28.6584 5.97481 29.9112 7.51489 29.9112H8.98047V35.5781C8.98047 35.9342 9.26896 36.2227 9.625 36.2227C9.98104 36.2227 10.2695 35.9342 10.2695 35.5781V29.9113H24.4062C24.7623 29.9113 25.0508 29.6228 25.0508 29.2668C25.0508 28.9107 24.7623 28.6223 24.4062 28.6223H7.51489C6.68568 28.6223 6.01099 27.9476 6.01099 27.1184V10.7801C6.01099 9.95088 6.68568 9.27618 7.51489 9.27618H36.485C37.3142 9.27618 37.9889 9.95088 37.9889 10.7801V17.1016C37.9889 17.4576 38.2774 17.7461 38.6334 17.7461C38.9895 17.7461 39.278 17.4576 39.278 17.1016V10.7801C39.2781 9.24009 38.0252 7.98712 36.4851 7.98712Z" fill="#7161BA"/>
<path d="M38.6335 19.4648C38.2775 19.4648 37.989 19.7533 37.989 20.1094V27.1184C37.989 27.9476 37.3143 28.6223 36.4851 28.6223H27.4141C27.058 28.6223 26.7695 28.9107 26.7695 29.2668C26.7695 29.6228 27.058 29.9113 27.4141 29.9113H33.7305V40.1328C33.7305 41.5544 32.5739 42.7109 31.1523 42.7109H12.8477C11.4261 42.7109 10.2695 41.5544 10.2695 40.1328V38.5859C10.2695 38.2299 9.98104 37.9414 9.625 37.9414C9.26896 37.9414 8.98047 38.2299 8.98047 38.5859V40.1328C8.98047 42.2652 10.7153 44 12.8477 44H31.1523C33.2847 44 35.0195 42.2652 35.0195 40.1328V29.9113H36.4851C38.0252 29.9113 39.2781 28.6584 39.2781 27.1184V20.1094C39.2781 19.7533 38.9895 19.4648 38.6335 19.4648Z" fill="#7161BA"/>
<path d="M9.23828 16.5859H11.8164C12.6456 16.5859 13.3203 15.9112 13.3203 15.082V12.5039C13.3203 11.6747 12.6456 11 11.8164 11H9.23828C8.40907 11 7.73438 11.6747 7.73438 12.5039V15.082C7.73438 15.9112 8.40907 16.5859 9.23828 16.5859ZM9.02344 12.5039C9.02344 12.3854 9.11977 12.2891 9.23828 12.2891H11.8164C11.9349 12.2891 12.0312 12.3854 12.0312 12.5039V15.082C12.0312 15.2005 11.9349 15.2969 11.8164 15.2969H9.23828C9.11977 15.2969 9.02344 15.2005 9.02344 15.082V12.5039Z" fill="#7161BA"/>
<path d="M35.707 11.8594H29.6914C29.3354 11.8594 29.0469 12.1479 29.0469 12.5039C29.0469 12.8599 29.3354 13.1484 29.6914 13.1484H35.707C36.0631 13.1484 36.3516 12.8599 36.3516 12.5039C36.3516 12.1479 36.0631 11.8594 35.707 11.8594Z" fill="#7161BA"/>
<path d="M8.37891 26.8984H12.8477C13.2037 26.8984 13.4922 26.6099 13.4922 26.2539C13.4922 25.8979 13.2037 25.6094 12.8477 25.6094H8.37891C8.02287 25.6094 7.73438 25.8979 7.73438 26.2539C7.73438 26.6099 8.02287 26.8984 8.37891 26.8984Z" fill="#7161BA"/>
<path d="M16.1133 26.8984H20.582C20.9381 26.8984 21.2266 26.6099 21.2266 26.2539C21.2266 25.8979 20.9381 25.6094 20.582 25.6094H16.1133C15.7572 25.6094 15.4688 25.8979 15.4688 26.2539C15.4688 26.6099 15.7572 26.8984 16.1133 26.8984Z" fill="#7161BA"/>
<path d="M35.707 14.4375H31.668C31.3119 14.4375 31.0234 14.726 31.0234 15.082C31.0234 15.4381 31.3119 15.7266 31.668 15.7266H35.707C36.0631 15.7266 36.3516 15.4381 36.3516 15.082C36.3516 14.726 36.0631 14.4375 35.707 14.4375Z" fill="#7161BA"/>
<path d="M8.37891 19.25H12.3942C12.7502 19.25 13.0387 18.9615 13.0387 18.6055C13.0387 18.2494 12.7502 17.9609 12.3942 17.9609H8.37891C8.02287 17.9609 7.73438 18.2494 7.73438 18.6055C7.73438 18.9615 8.02287 19.25 8.37891 19.25Z" fill="#7161BA"/>
<path d="M16.1355 19.25H20.1508C20.5068 19.25 20.7953 18.9615 20.7953 18.6055C20.7953 18.2494 20.5068 17.9609 20.1508 17.9609H16.1355C15.7795 17.9609 15.491 18.2494 15.491 18.6055C15.491 18.9615 15.7795 19.25 16.1355 19.25Z" fill="#7161BA"/>
<path d="M28.552 18.6055C28.552 18.2494 28.2635 17.9609 27.9075 17.9609H23.8922C23.5362 17.9609 23.2477 18.2494 23.2477 18.6055C23.2477 18.9615 23.5362 19.25 23.8922 19.25H27.9075C28.2635 19.25 28.552 18.9615 28.552 18.6055Z" fill="#7161BA"/>
<path d="M35.664 17.9609H31.6488C31.2928 17.9609 31.0043 18.2494 31.0043 18.6055C31.0043 18.9615 31.2928 19.25 31.6488 19.25H35.664C36.0201 19.25 36.3086 18.9615 36.3086 18.6055C36.3086 18.2494 36.0201 17.9609 35.664 17.9609Z" fill="#7161BA"/>
<path d="M28.1798 26.8984H34.8047C35.6339 26.8984 36.3086 26.2237 36.3086 25.3945V23.907C36.3086 23.0778 35.6339 22.4031 34.8047 22.4031H28.1798C27.3506 22.4031 26.6759 23.0778 26.6759 23.907V25.3945C26.6759 26.2237 27.3506 26.8984 28.1798 26.8984ZM27.965 23.907C27.965 23.7885 28.0613 23.6921 28.1798 23.6921H34.8047C34.9232 23.6921 35.0196 23.7885 35.0196 23.907V25.3945C35.0196 25.513 34.9232 25.6093 34.8047 25.6093H28.1798C28.0613 25.6093 27.965 25.513 27.965 25.3945V23.907Z" fill="#7161BA"/>
<path d="M25.2227 3.86719C25.5786 3.86719 25.8672 3.57862 25.8672 3.22266C25.8672 2.86669 25.5786 2.57812 25.2227 2.57812C24.8667 2.57812 24.5781 2.86669 24.5781 3.22266C24.5781 3.57862 24.8667 3.86719 25.2227 3.86719Z" fill="#7161BA"/>
</svg>
