<svg width="44" height="44" viewBox="0 0 44 44" fill="none" xmlns="http://www.w3.org/2000/svg">
<g clip-path="url(#clip0_1260_1035)">
<path d="M14.4758 32.1234C14.4758 31.7675 14.1873 31.4791 13.8315 31.4791H5.25829C4.90251 31.4791 4.61401 31.7676 4.61401 32.1234C4.61401 32.4792 4.90251 32.7677 5.25829 32.7677H13.8315C14.1874 32.7677 14.4758 32.4792 14.4758 32.1234Z" fill="#7161BA"/>
<path d="M5.25829 33.7189C4.90251 33.7189 4.61401 34.0074 4.61401 34.3631C4.61401 34.7189 4.90251 35.0074 5.25829 35.0074H9.08465C9.44052 35.0074 9.72893 34.7189 9.72893 34.3631C9.72893 34.0074 9.44044 33.7189 9.08465 33.7189H5.25829Z" fill="#7161BA"/>
<path d="M43.1399 23.8062C43.122 23.4508 42.8194 23.1777 42.4641 23.195C42.1086 23.2129 41.8351 23.5154 41.8529 23.8708L42.7047 40.8141H22.8462L24.0174 17.5081H26.9191V18.1635C26.2153 18.4544 25.7188 19.1479 25.7188 19.9556C25.7188 21.0244 26.5884 21.894 27.6572 21.894C28.726 21.894 29.5956 21.0244 29.5956 19.9556C29.5956 19.078 29.0092 18.3351 28.2077 18.0973V17.5081H37.3791V18.0972C36.5777 18.335 35.9912 19.0779 35.9912 19.9555C35.9912 21.0243 36.8608 21.8939 37.9296 21.8939C38.9984 21.8939 39.868 21.0243 39.868 19.9555C39.868 19.1479 39.3714 18.4544 38.6677 18.1635V17.5081H41.5334L41.7034 20.8902C41.7213 21.2457 42.0249 21.5197 42.3792 21.5014C42.7346 21.4835 43.0082 21.1809 42.9904 20.8256L42.8142 17.3178C42.7832 16.702 42.276 16.2195 41.6593 16.2195H38.6676V14.453C38.6676 11.2138 36.0324 8.57865 32.7933 8.57865C29.5542 8.57865 26.919 11.2138 26.919 14.453V16.2195H25.5913L25.3958 12.3302C25.3621 11.658 24.8083 11.1314 24.1352 11.1314H20.5359V8.99785C20.5359 5.08245 17.3505 1.89709 13.4351 1.89709C9.51975 1.89709 6.33439 5.08245 6.33439 8.99785V11.1314H2.69176C2.01869 11.1314 1.465 11.658 1.43114 12.3302L0.00156735 40.7774C-0.0157061 41.121 0.11045 41.4612 0.347638 41.7105C0.584739 41.9598 0.918177 42.1028 1.26218 42.1028H9.84451C10.2004 42.1028 10.4888 41.8143 10.4888 41.4585C10.4888 41.1027 10.2003 40.8142 9.84451 40.8142H1.28994L2.71685 12.4201H6.33439V13.6769C5.59447 13.9585 5.06715 14.6749 5.06715 15.5124C5.06715 16.5952 5.94801 17.4759 7.03065 17.4759C8.11329 17.4759 8.99415 16.5951 8.99415 15.5124C8.99415 14.6361 8.417 13.8922 7.62302 13.6405V12.4201H19.2474V13.6276C18.4312 13.8658 17.833 14.6203 17.833 15.5124C17.833 16.5952 18.7138 17.4759 19.7965 17.4759C20.8791 17.4759 21.76 16.5951 21.76 15.5124C21.76 14.6913 21.2531 13.9867 20.536 13.694V12.4201H24.1102L24.3012 16.2196H23.8916C23.2751 16.2196 22.7678 16.702 22.7368 17.3178L21.556 40.8142H12.8619C12.5062 40.8142 12.2177 41.1027 12.2177 41.4585C12.2177 41.8143 12.5062 42.1028 12.8619 42.1028H42.8438C43.159 42.1028 43.4644 41.9718 43.6816 41.7434C43.8989 41.515 44.0144 41.2034 43.9986 40.8886L43.1399 23.8062ZM37.9295 19.3058C38.2878 19.3058 38.5793 19.5973 38.5793 19.9557C38.5793 20.3139 38.2878 20.6055 37.9295 20.6055C37.5711 20.6055 37.2796 20.314 37.2796 19.9557C37.2797 19.5974 37.5712 19.3058 37.9295 19.3058ZM28.2076 14.4532C28.2076 11.9245 30.2648 9.86745 32.7933 9.86745C35.322 9.86745 37.3791 11.9246 37.3791 14.4532V16.2197H28.2076V14.4532ZM27.6571 19.3058C28.0154 19.3058 28.307 19.5973 28.307 19.9557C28.307 20.3139 28.0155 20.6055 27.6571 20.6055C27.2988 20.6055 27.0073 20.314 27.0073 19.9557C27.0073 19.5974 27.2988 19.3058 27.6571 19.3058ZM7.70552 15.5124C7.70552 15.8846 7.40276 16.1874 7.03065 16.1874C6.65846 16.1874 6.3557 15.8846 6.3557 15.5124C6.3557 15.1403 6.65846 14.8376 7.03065 14.8376C7.40276 14.8376 7.70552 15.1403 7.70552 15.5124ZM7.62294 11.1315V8.99794C7.62294 5.79307 10.2303 3.18573 13.4351 3.18573C16.64 3.18573 19.2474 5.79307 19.2474 8.99794V11.1315H7.62294ZM19.7964 16.1874C19.4242 16.1874 19.1215 15.8846 19.1215 15.5124C19.1215 15.1403 19.4242 14.8376 19.7964 14.8376C20.1685 14.8376 20.4713 15.1403 20.4713 15.5124C20.4713 15.8846 20.1685 16.1874 19.7964 16.1874Z" fill="#7161BA"/>
<path d="M35.5805 32.1234C35.5805 31.7675 35.292 31.4791 34.9362 31.4791H26.363C26.0072 31.4791 25.7188 31.7676 25.7188 32.1234C25.7188 32.4792 26.0072 32.7677 26.363 32.7677H34.9362C35.292 32.7677 35.5805 32.4792 35.5805 32.1234Z" fill="#7161BA"/>
<path d="M26.363 33.7189C26.0072 33.7189 25.7188 34.0074 25.7188 34.3631C25.7188 34.7189 26.0072 35.0074 26.363 35.0074H30.1894C30.5453 35.0074 30.8337 34.7189 30.8337 34.3631C30.8337 34.0074 30.5452 33.7189 30.1894 33.7189H26.363Z" fill="#7161BA"/>
</g>
<defs>
<clipPath id="clip0_1260_1035">
<rect width="44" height="44" fill="white"/>
</clipPath>
</defs>
</svg>
