<svg width="44" height="44" viewBox="0 0 44 44" fill="none" xmlns="http://www.w3.org/2000/svg">
<g clip-path="url(#clip0_1260_1036)">
<path d="M30.4255 29.9127C30.2899 29.5839 29.9135 29.4273 29.5847 29.5628C29.2558 29.6984 29.0993 30.0748 29.2349 30.4035L30.3094 33.0031L29.1282 33.4931L19.8491 10.9823L21.0303 10.4923L28.0904 27.6243C28.226 27.9532 28.6024 28.1099 28.9311 27.9743C29.26 27.8388 29.4166 27.4625 29.2811 27.1337L28.8383 26.0591L30.0922 24.5367C30.6511 23.8582 30.7902 22.9318 30.4554 22.119L28.8056 18.1157C28.4706 17.303 27.7193 16.7434 26.8446 16.6556L24.8819 16.4585L22.2211 10.0016C21.9512 9.34712 21.199 9.03353 20.5432 9.30312L19.3583 9.79159C19.0405 9.92256 18.793 10.1695 18.6612 10.4868C18.5296 10.8038 18.5296 11.1529 18.6605 11.4686L18.8633 11.9606L11.3223 19.5048C11.071 19.7564 11.071 20.1641 11.3226 20.4155C11.4482 20.5412 11.613 20.604 11.7778 20.604C11.9426 20.604 12.1074 20.5411 12.2333 20.4153L19.3948 13.2506L27.2032 32.2019L11.9374 32.1419L8.60214 24.0479L10.1091 22.5402C10.3605 22.2887 10.3604 21.8809 10.1089 21.6296C9.85743 21.3781 9.44966 21.3782 9.1982 21.6297L7.47799 23.3507L3.50983 24.9859C2.57173 25.3724 2.03505 26.3253 2.13096 27.2867L1.39465 27.5901C0.839919 27.8187 0.407481 28.2496 0.176911 28.8035C-0.0536595 29.3573 -0.0547767 29.9678 0.173817 30.5225L1.39447 33.4849C1.62307 34.0396 2.05387 34.4721 2.60783 34.7027C2.88601 34.8186 3.17845 34.8765 3.47098 34.8765C3.76085 34.8765 4.0508 34.8197 4.32675 34.7059L5.06229 34.4028C5.29389 34.6891 5.59407 34.9153 5.94366 35.0609C6.22184 35.1768 6.51429 35.2347 6.8069 35.2347C6.88184 35.2347 6.95669 35.2307 7.03146 35.2231L8.29079 38.2783C8.39314 38.5269 8.63325 38.6771 8.88634 38.6771C8.96806 38.6771 9.05116 38.6614 9.13152 38.6284C9.46031 38.4928 9.61698 38.1164 9.48137 37.7876L8.2577 34.8189L11.6318 33.4285L11.7346 33.429L12.9762 41.8783L11.4299 42.5154L10.6268 40.5661C10.4914 40.2372 10.1153 40.0804 9.78619 40.216C9.45739 40.3514 9.30055 40.7278 9.43608 41.0566L10.4844 43.6014C10.5495 43.7593 10.6746 43.8849 10.8323 43.9506C10.9115 43.9836 10.9957 44.0001 11.0798 44.0001C11.1632 44.0001 11.2466 43.984 11.3252 43.9516L13.9317 42.8775C14.2049 42.765 14.3665 42.4808 14.3234 42.1886L13.0371 33.434L27.7348 33.4918L27.9375 33.9838C28.1418 34.4793 28.622 34.7793 29.1274 34.7792C29.2902 34.7792 29.4557 34.7481 29.6153 34.6823L30.8002 34.1938C31.4548 33.924 31.7682 33.1716 31.4986 32.516L30.4255 29.9127ZM26.716 17.937C27.117 17.9773 27.4614 18.2337 27.6149 18.6064L29.2645 22.6095C29.418 22.9821 29.3542 23.4068 29.0981 23.7178L28.2818 24.7089L25.4383 17.8087L26.716 17.937ZM3.83622 33.5152C3.59963 33.6128 3.33915 33.6122 3.10291 33.5139C2.86667 33.4155 2.68285 33.231 2.58531 32.9944L1.36465 30.0318C1.26711 29.7953 1.26754 29.5348 1.36594 29.2985C1.46426 29.0623 1.64885 28.8785 1.88543 28.7809L2.53435 28.5136L4.48513 33.2477L3.83622 33.5152ZM7.17205 33.8733C6.93547 33.9709 6.67499 33.9705 6.43875 33.872C6.20251 33.7737 6.01869 33.5891 5.92115 33.3525L3.47983 27.4279C3.47983 27.4278 3.47975 27.4277 3.47975 27.4276C3.47975 27.4276 3.47975 27.4275 3.47966 27.4275C3.27848 26.939 3.51215 26.378 4.00053 26.1768L7.49337 24.7375L10.6649 32.4341L7.17205 33.8733Z" fill="#7161BA"/>
<path d="M43.4025 5.38144C41.6884 1.02527 36.7498 -1.12429 32.3936 0.589909C28.0374 2.3041 25.8879 7.24259 27.6021 11.5988C28.1614 13.02 29.0837 14.2534 30.2802 15.185L30.4121 18.6345C30.4221 18.8963 30.5802 19.1297 30.8197 19.236C30.9091 19.2757 31.004 19.2951 31.0984 19.2951C31.2567 19.2951 31.4133 19.2404 31.5392 19.1351L34.2292 16.8849C35.7044 17.1098 37.2127 16.9406 38.6111 16.3904C40.7213 15.56 42.3818 13.9577 43.2868 11.8783C44.1917 9.79897 44.2329 7.49172 43.4025 5.38144ZM42.0272 11.33C41.2687 13.0728 39.8768 14.416 38.108 15.1121C36.8492 15.6075 35.4847 15.7346 34.1623 15.4796C33.9594 15.4403 33.75 15.4947 33.5916 15.6272L31.7313 17.1835L31.6404 14.805C31.6322 14.5928 31.5265 14.3964 31.3538 14.2728C30.2397 13.4752 29.3844 12.3767 28.8804 11.0959C27.4436 7.44462 29.2453 3.30519 32.8966 1.86832C36.548 0.431441 40.6874 2.23329 42.1242 5.8846C42.8202 7.65328 42.7857 9.58722 42.0272 11.33Z" fill="#7161BA"/>
<path d="M37.4754 3.57594C37.1455 3.44377 36.7704 3.60439 36.6384 3.93464L33.1704 12.6046C33.0383 12.9349 33.199 13.3096 33.5292 13.4417C33.6075 13.473 33.6885 13.4879 33.7681 13.4879C34.0236 13.4879 34.2655 13.3347 34.3662 13.083L37.8341 4.41297C37.9662 4.08271 37.8056 3.70803 37.4754 3.57594Z" fill="#7161BA"/>
<path d="M34.3752 5.38749C34.3752 4.71709 33.8317 4.17371 33.1614 4.17371C32.491 4.17371 31.9476 4.71717 31.9476 5.38749C31.9476 6.0578 32.491 6.60127 33.1614 6.60127C33.8318 6.60127 34.3752 6.0578 34.3752 5.38749Z" fill="#7161BA"/>
<path d="M37.8432 12.8437C38.5135 12.8437 39.057 12.3003 39.057 11.6299C39.057 10.9596 38.5135 10.4161 37.8432 10.4161C37.1728 10.4161 36.6294 10.9596 36.6294 11.6299C36.6294 12.3003 37.1728 12.8437 37.8432 12.8437Z" fill="#7161BA"/>
</g>
<defs>
<clipPath id="clip0_1260_1036">
<rect width="44" height="44" fill="white"/>
</clipPath>
</defs>
</svg>
