<svg width="44" height="44" viewBox="0 0 44 44" fill="none" xmlns="http://www.w3.org/2000/svg">
<g clip-path="url(#clip0_1260_1039)">
<path d="M14.8668 35.2637C13.2497 35.2637 11.934 36.5792 11.934 38.1962C12.0814 42.0814 17.653 42.0802 17.7998 38.1962C17.7998 36.5792 16.4841 35.2637 14.8668 35.2637ZM14.8668 39.8398C13.9605 39.8398 13.223 39.1025 13.223 38.1962C13.3057 36.0189 16.4285 36.0195 16.5107 38.1962C16.5107 39.1024 15.7733 39.8398 14.8668 39.8398Z" fill="#7161BA"/>
<path d="M22.5714 15.3474H7.16235C6.8064 15.3474 6.51782 15.636 6.51782 15.9919V25.4066C6.5442 26.2587 7.78075 26.2581 7.80688 25.4066V16.6365H21.9268V30.7537H7.80688V28.8406C7.78049 27.9885 6.54395 27.9891 6.51782 28.8406V31.3982C6.51782 31.7542 6.8064 32.0427 7.16235 32.0427H22.5714C22.9273 32.0427 23.2159 31.7542 23.2159 31.3982V15.9919C23.2159 15.636 22.9273 15.3474 22.5714 15.3474Z" fill="#7161BA"/>
<path d="M20.5136 21.3083C20.8695 21.3083 21.1581 21.0197 21.1581 20.6638V18.0942C21.1581 17.7383 20.8695 17.4497 20.5136 17.4497H17.9436C17.5877 17.4497 17.2991 17.7383 17.2991 18.0942V20.6638C17.2991 21.0197 17.5877 21.3083 17.9436 21.3083H20.5136ZM18.5881 18.7389H19.869V20.0193H18.5881V18.7389Z" fill="#7161BA"/>
<path d="M20.5136 26.1667H17.9436C17.5877 26.1667 17.2991 26.4553 17.2991 26.8113V29.3808C17.2991 29.7368 17.5877 30.0253 17.9436 30.0253H20.5136C20.8695 30.0253 21.1581 29.7368 21.1581 29.3808V26.8113C21.1581 26.4553 20.8695 26.1667 20.5136 26.1667ZM19.869 28.7363H18.5881V27.4558H19.869V28.7363Z" fill="#7161BA"/>
<path d="M9.16589 21.3083H11.7358C12.0918 21.3083 12.3804 21.0197 12.3804 20.6638V18.0942C12.3804 17.7383 12.0918 17.4497 11.7358 17.4497H9.16589C8.80994 17.4497 8.52136 17.7383 8.52136 18.0942V20.6638C8.52136 21.0198 8.80994 21.3083 9.16589 21.3083ZM9.81042 18.7389H11.0913V20.0193H9.81042V18.7389Z" fill="#7161BA"/>
<path d="M15.8757 17.4495C15.5198 17.4495 15.2312 17.738 15.2312 18.094V22.6633C15.2312 23.0192 15.5198 23.3078 15.8757 23.3078H19.8691V24.1944H17.9436C17.0915 24.2208 17.0921 25.4574 17.9436 25.4835H20.5136C20.8696 25.4835 21.1581 25.1949 21.1581 24.839V22.6633C21.1581 22.3073 20.8696 22.0188 20.5136 22.0188H16.5203V18.094C16.5203 17.738 16.2317 17.4495 15.8757 17.4495Z" fill="#7161BA"/>
<path d="M13.7672 17.4495C13.4113 17.4495 13.1227 17.738 13.1227 18.094V18.8904C13.1491 19.7425 14.3856 19.7419 14.4117 18.8904V18.094C14.4117 17.738 14.1233 17.4495 13.7672 17.4495Z" fill="#7161BA"/>
<path d="M15.8758 26.1667C15.5198 26.1667 15.2312 26.4553 15.2312 26.8113V28.7363H13.7673C12.9152 28.7627 12.9158 29.9992 13.7673 30.0253H15.8758C16.2317 30.0253 16.5203 29.7368 16.5203 29.3808V26.8113C16.5203 26.4553 16.2317 26.1667 15.8758 26.1667Z" fill="#7161BA"/>
<path d="M8.52136 29.3807C8.52136 29.7367 8.80994 30.0253 9.16589 30.0253H11.7359C12.0918 30.0253 12.3804 29.7367 12.3804 29.3807V24.8389C12.354 23.9868 11.1174 23.9874 11.0913 24.8389V28.7362H9.81042V23.3332H13.7672C14.1232 23.3332 14.4118 23.0447 14.4118 22.6887V20.6637C14.3854 19.8115 13.1488 19.8121 13.1227 20.6637V22.0442H9.16589C8.80994 22.0442 8.52136 22.3327 8.52136 22.6887V29.3807Z" fill="#7161BA"/>
<path d="M13.1227 24.839V26.8112C13.1491 27.6633 14.3856 27.6627 14.4117 26.8112V25.4835H15.8757C16.7278 25.4571 16.7272 24.2206 15.8757 24.1945H13.7672C13.4113 24.1945 13.1227 24.483 13.1227 24.839Z" fill="#7161BA"/>
<path d="M9.2064 9.34094H20.5275C21.3796 9.31456 21.379 8.078 20.5275 8.05188H9.2064C8.35424 8.07826 8.35484 9.31482 9.2064 9.34094Z" fill="#7161BA"/>
<path d="M11.3548 11.3868C10.5027 11.4132 10.5033 12.6498 11.3548 12.6759H18.379C19.2312 12.6495 19.2306 11.413 18.379 11.3868H11.3548Z" fill="#7161BA"/>
<path d="M39.6797 2.94496C39.4441 2.67804 39.0368 2.6526 38.77 2.88815C38.503 3.12371 38.4776 3.53096 38.7132 3.79788C42.8896 8.45069 39.5185 16.0511 33.2709 16.1029C31.7541 16.1252 30.2952 15.6941 29.0426 14.8551C28.8741 14.7424 28.6625 14.7155 28.4712 14.7823L26.2198 15.5697L27.0076 13.2805C27.072 13.0931 27.0468 12.8864 26.9389 12.7201C26.1282 11.4699 25.7179 10.0181 25.7525 8.52158C25.7988 3.3144 31.5287 -0.280945 36.2304 1.95462C36.5544 2.10243 36.9367 1.95986 37.0845 1.63597C37.2324 1.31216 37.0897 0.929821 36.7659 0.781924C33.7952 -0.632084 29.9558 -0.054931 27.554 2.06488C27.3733 0.897079 26.3612 0.000240616 25.1435 0.000240616H19.6462C16.1666 0.00152967 7.98337 -0.000704692 4.59024 0.000240616C3.24524 0.000240616 2.151 1.09439 2.151 2.43939V41.5608C2.151 42.9058 3.24524 44 4.59024 44H25.1434C26.4884 44 27.5827 42.9058 27.5827 41.5608V16.4586L28.5999 16.1028C30.0004 16.967 31.645 17.4168 33.29 17.3917C40.6286 17.33 44.5818 8.40617 39.6797 2.94496ZM19.0017 1.2893V2.16783C19.0017 2.80196 18.4857 3.31793 17.8516 3.31793H11.8823C11.2481 3.31793 10.7322 2.80196 10.7322 2.16783V1.2893H19.0017ZM26.2937 41.5608C26.2937 42.195 25.7778 42.7109 25.1435 42.7109H4.59024C3.95602 42.7109 3.44006 42.1951 3.44006 41.5608V2.43939C3.44006 1.80526 3.95602 1.2893 4.59024 1.2893H9.44302V2.16783C9.44302 3.51274 10.5373 4.60698 11.8822 4.60698H17.8515C19.1964 4.60698 20.2907 3.51274 20.2907 2.16783V1.2893H25.1434C25.7777 1.2893 26.2936 1.80518 26.2936 2.43939V3.37808C24.1359 6.02666 23.8467 10.2017 25.6888 13.1511L24.8566 15.5692C24.5391 16.4916 25.4795 17.1465 26.2935 16.9095V41.5608H26.2937Z" fill="#7161BA"/>
<path d="M36.2026 4.50588C36.121 4.44641 36.0092 4.28485 35.9105 4.14228C35.3123 3.27775 34.6311 3.04615 33.637 3.39041C33.3174 3.55885 32.9978 3.55885 32.6782 3.39041C31.6841 3.04641 31.0031 3.27766 30.4048 4.14228C30.256 4.45243 30.0107 4.63032 29.6691 4.67587C28.6616 4.98009 28.2363 5.56068 28.2564 6.61307C28.3191 6.95132 28.2271 7.2387 27.9804 7.47502C27.3311 8.3258 27.331 9.06744 27.9804 9.91823C28.2271 10.1546 28.3191 10.4418 28.2564 10.7801C28.2362 11.8325 28.6616 12.4131 29.6691 12.7173C30.0107 12.7629 30.256 12.9408 30.4048 13.251C31.0172 14.1359 31.6549 14.3572 32.6783 14.0027C32.9979 13.8343 33.3174 13.8343 33.637 14.0027C34.6312 14.3468 35.3123 14.1156 35.9106 13.2509C36.0594 12.9407 36.3045 12.7628 36.6462 12.7173C37.6537 12.4131 38.0791 11.8324 38.0589 10.78C37.9961 10.4418 38.0882 10.1545 38.3349 9.91814C38.9843 9.06744 38.9843 8.3258 38.3349 7.47502C38.0882 7.2387 37.9962 6.95132 38.0589 6.61307C38.079 5.56068 37.6537 4.98009 36.6462 4.67587C36.478 4.62508 36.2874 4.5675 36.2026 4.50588ZM36.7371 6.09555C36.7782 6.1613 36.7731 6.42865 36.77 6.58841C36.7559 7.32489 36.8957 7.71402 37.3101 8.25714C37.6087 8.64833 37.6087 8.74492 37.3101 9.13611C36.8956 9.67906 36.7558 10.0684 36.77 10.8048C36.7791 11.2808 36.73 11.3454 36.2734 11.4833C35.6342 11.6763 35.2303 11.9683 34.8504 12.5174C34.5798 12.9086 34.5065 12.9398 34.0587 12.7846C33.4143 12.5615 32.9009 12.5615 32.2565 12.7846C31.8092 12.9394 31.7358 12.9088 31.4648 12.5174C31.085 11.9683 30.6809 11.6762 30.0418 11.4832C29.5855 11.3455 29.5361 11.2809 29.5453 10.8048C29.5595 10.0684 29.4197 9.67898 29.0052 9.13611C28.7067 8.74501 28.7066 8.64824 29.0052 8.25714C29.4197 7.7141 29.5594 7.32489 29.5454 6.58841C29.5363 6.11248 29.5854 6.04786 30.0419 5.90993C30.6811 5.71691 31.085 5.4249 31.465 4.87576C31.7548 4.45698 31.7358 4.4282 32.2566 4.60858C32.901 4.83176 33.4146 4.83176 34.0589 4.60858C34.5062 4.45389 34.5796 4.48423 34.8507 4.87584C35.2306 5.4249 35.6345 5.717 36.2737 5.91002C36.4189 5.95384 36.6896 6.03557 36.7371 6.09555Z" fill="#7161BA"/>
<path d="M34.6712 6.45298C34.3761 6.25386 33.9754 6.33164 33.7764 6.62683L31.4702 10.0453C31.2711 10.3405 31.3489 10.741 31.644 10.9401C31.9353 11.1378 32.3385 11.0636 32.5388 10.7663L34.845 7.34776C35.0441 7.05265 34.9664 6.65201 34.6712 6.45298Z" fill="#7161BA"/>
<path d="M34.3107 9.76123C33.4813 9.76123 33.4799 11.0503 34.3107 11.0503C35.1402 11.0503 35.1416 9.76123 34.3107 9.76123Z" fill="#7161BA"/>
<path d="M32.0044 7.63184C32.8339 7.63184 32.8353 6.34277 32.0044 6.34277C31.175 6.34277 31.1736 7.63184 32.0044 7.63184Z" fill="#7161BA"/>
</g>
<defs>
<clipPath id="clip0_1260_1039">
<rect width="44" height="44" fill="white"/>
</clipPath>
</defs>
</svg>
