<svg width="44" height="44" viewBox="0 0 44 44" fill="none" xmlns="http://www.w3.org/2000/svg">
<path d="M41.101 9.24762L38.4934 8.86863L37.3271 6.50568C36.9337 5.70774 35.795 5.70807 35.4013 6.50568L34.2351 8.86863L31.6274 9.24762C30.7472 9.37552 30.3954 10.4581 31.0322 11.0792L32.9192 12.9184L32.4737 15.5157C32.323 16.3959 33.2478 17.0599 34.032 16.6476L36.3644 15.4214L38.6968 16.6476C39.4836 17.0616 40.4051 16.3929 40.2547 15.5157L39.8093 12.9184L41.6962 11.0792C42.3334 10.4581 41.9815 9.37552 41.101 9.24762ZM38.8284 12.0745C38.5753 12.3212 38.4601 12.6764 38.5195 13.0248L38.9106 15.3035L36.8639 14.2276C36.5514 14.0631 36.1774 14.0631 35.8645 14.2276L33.8181 15.3035L34.2089 13.0245C34.2686 12.6764 34.1532 12.3212 33.9001 12.0745L32.2444 10.4605L34.5325 10.1281C34.8823 10.0771 35.1844 9.85758 35.3409 9.54068L36.364 7.46744L37.3872 9.54068C37.5437 9.85758 37.8461 10.0771 38.1959 10.1281L40.484 10.4605L38.8284 12.0745Z" fill="#7161BA"/>
<path d="M6.80479 6.50572L5.6386 8.86867L3.03093 9.24767C2.1504 9.37556 1.79893 10.4582 2.43574 11.0792L4.32268 12.9185L3.87721 15.5154C3.72615 16.3956 4.65132 17.0599 5.43517 16.6477L7.7679 15.4214L10.1003 16.6477C10.8872 17.0619 11.8086 16.3922 11.6583 15.5157L11.2128 12.9185L13.0997 11.0792C13.7369 10.4582 13.3847 9.37523 12.5045 9.24733L9.89687 8.86833L8.73067 6.50539C8.3369 5.70778 7.19856 5.70811 6.80479 6.50572ZM8.79109 9.54073C8.94753 9.85762 9.24999 10.0772 9.59978 10.1282L11.8875 10.4605L10.2322 12.0742C9.97878 12.3213 9.8633 12.6764 9.92305 13.0249L10.3138 15.3036L8.26741 14.228C7.95455 14.0635 7.58092 14.0632 7.26805 14.228L5.22133 15.3039L5.61241 13.0252C5.67216 12.6768 5.55669 12.3216 5.30357 12.0745L3.64793 10.4609L5.93568 10.1282C6.28548 10.0775 6.58794 9.85796 6.74437 9.54073L7.76756 7.46748L8.79109 9.54073Z" fill="#7161BA"/>
<path d="M10.9406 41.0865C10.9406 41.2563 10.8026 41.3946 10.6328 41.3946H8.65015C8.29398 41.3946 8.00561 41.683 8.00561 42.0392C8.00561 42.395 8.29398 42.6837 8.65015 42.6837H10.6328C11.4196 42.6837 12.0742 42.1107 12.2045 41.3604L12.6607 41.36H12.662C14.9122 41.36 14.847 44.0003 18.4014 43.9999H18.4074H29.7105C31.0812 43.9999 32.1963 42.8848 32.1963 41.5141C32.1963 40.8636 31.9452 40.2707 31.5347 39.8273C32.1379 39.3885 32.5414 38.6953 32.5676 37.9165C32.5888 37.279 32.3723 36.6734 31.9563 36.1978C32.6015 35.7624 33.0379 35.0433 33.0641 34.2319C33.0876 33.5105 32.8076 32.8395 32.2984 32.3457C34.0709 30.8616 33.0262 27.9551 30.7039 27.9551C30.7035 27.9551 30.7025 27.9551 30.7022 27.9551H23.4888C24.5536 24.7039 24.5214 24.9678 24.5214 21.1553C24.5214 19.5987 23.2548 18.3322 21.6982 18.3322C20.2876 18.3322 19.0845 19.3869 18.8999 20.7854C18.4366 24.287 17.8767 24.6506 15.4463 26.991C14.7839 27.6288 13.9125 27.9803 12.993 27.9803H12.1447C11.9312 27.3495 11.3347 26.8937 10.6328 26.8937H3.65973C2.77887 26.8937 2.0625 27.61 2.0625 28.4909V41.0868C2.0625 41.9673 2.77887 42.6837 3.65973 42.6837H5.642C5.99817 42.6837 6.28653 42.3953 6.28653 42.0392C6.28653 41.6833 5.99817 41.3946 5.642 41.3946H3.65973C3.48987 41.3946 3.35156 41.2567 3.35156 41.0868V28.4906C3.35156 28.3207 3.48987 28.1827 3.65973 28.1827H10.6328C10.8026 28.1827 10.9406 28.3207 10.9406 28.4906V41.0865ZM12.2296 29.269H12.9927C14.2475 29.269 15.4365 28.7897 16.3402 27.9196C18.9073 25.4478 19.6622 24.854 20.1775 20.9543C20.2779 20.1942 20.9315 19.6212 21.6982 19.6212C22.5438 19.6212 23.232 20.3094 23.232 21.155C23.232 24.9161 23.2971 24.3981 22.1215 27.9867C21.9188 28.6057 22.381 29.2439 23.0326 29.2439H30.7025H30.7035C31.3642 29.2439 31.9016 29.7786 31.9023 30.4366C31.9026 31.0976 31.3652 31.636 30.7049 31.6364C29.5578 31.6374 32.4374 31.637 27.6205 31.637C27.2647 31.637 26.976 31.9257 26.976 32.2816C26.976 32.6377 27.2647 32.9261 27.6205 32.9261H30.5491H30.5508H30.5521C31.2396 32.9261 31.7979 33.5005 31.7754 34.19C31.7549 34.8275 31.1967 35.3464 30.5306 35.3464C29.0432 35.3464 30.9785 35.3471 27.6205 35.3471C27.2647 35.3471 26.976 35.6358 26.976 35.9916C26.976 36.3475 27.2647 36.6362 27.6205 36.6362C32.0772 36.6362 28.4487 36.6355 30.0832 36.6355C30.7532 36.6355 31.3017 37.1877 31.2789 37.8735C31.2577 38.5103 30.6995 39.0287 30.0348 39.0287C30.0348 39.0287 29.9532 39.0293 27.6205 39.0293C27.2643 39.0293 26.976 39.318 26.976 39.6739C26.976 40.03 27.2643 40.3184 27.6205 40.3184H29.7253C30.3782 40.3264 30.9069 40.8595 30.9069 41.5145C30.9069 42.1741 30.3702 42.7109 29.7105 42.7109H18.4071C18.4051 42.7109 18.4034 42.7109 18.4017 42.7109C15.406 42.7109 15.6765 40.071 12.663 40.071C12.662 40.071 12.661 40.071 12.6603 40.071L12.2296 40.0713V29.269Z" fill="#7161BA"/>
<path d="M27.2277 8.98143C26.9729 9.22984 26.9679 9.63805 27.2163 9.89284C27.465 10.148 27.8729 10.153 28.1277 9.90459L30.4097 7.68028C31.204 6.90584 30.7652 5.55602 29.6679 5.39656L25.2703 4.75774C25.2542 4.75539 25.2401 4.74532 25.233 4.73055L23.2665 0.745869C22.7757 -0.248791 21.3561 -0.248455 20.8656 0.745869L18.8988 4.73055C18.8918 4.74532 18.8777 4.75539 18.8616 4.75774L14.464 5.39656C13.3666 5.55635 12.9282 6.90618 13.7221 7.68028L16.9041 10.7818C16.9159 10.7932 16.9212 10.8096 16.9186 10.8257L16.1673 15.2055C15.979 16.3026 17.1321 17.1307 18.1096 16.6168L22.0429 14.5489C22.0574 14.5415 22.0745 14.5412 22.0889 14.5489L26.0222 16.6168C27.0035 17.1327 28.1522 16.2985 27.9645 15.2055L27.4734 12.3424C27.4133 11.9913 27.0797 11.7553 26.7295 11.8157C26.3784 11.8761 26.1427 12.2091 26.2032 12.5603L26.6943 15.4234C26.6963 15.4361 26.6993 15.4539 26.6745 15.4721C26.6496 15.4899 26.6339 15.4818 26.6224 15.4758L22.6891 13.4079C22.2991 13.2028 21.8331 13.2028 21.443 13.4079L17.5097 15.4758C17.4983 15.4818 17.4825 15.4899 17.4577 15.4721C17.4328 15.4539 17.4359 15.4361 17.4379 15.4234L18.1892 11.0439C18.2637 10.6095 18.12 10.1664 17.8041 9.85893L14.6221 6.75713C14.613 6.74806 14.5999 6.73564 14.6097 6.70644C14.6191 6.6769 14.6369 6.67455 14.6496 6.67253L19.0472 6.03371C19.4833 5.97026 19.8599 5.69634 20.0553 5.30123L22.0218 1.31621C22.0275 1.3048 22.0355 1.28868 22.0661 1.28868C22.097 1.28868 22.1047 1.3048 22.1107 1.31621L24.0772 5.30089C24.2723 5.69634 24.6489 5.97026 25.0853 6.03337L29.4829 6.67253C29.4956 6.67421 29.5131 6.6769 29.5228 6.7061C29.5322 6.73564 29.5195 6.74806 29.5104 6.75713L27.2277 8.98143Z" fill="#7161BA"/>
</svg>
