<svg width="44" height="44" viewBox="0 0 44 44" fill="none" xmlns="http://www.w3.org/2000/svg">
<g clip-path="url(#clip0_1260_1037)">
<path d="M40.923 30.7143C40.1089 22.7966 30.1949 19.4266 24.7798 25.465C19.4299 31.4317 23.6764 40.9492 31.6736 40.9492C37.1877 40.9496 41.4849 36.1794 40.923 30.7143ZM31.6729 39.6508C27.6372 39.6508 24.1652 36.5913 23.7425 32.4807C22.9869 25.1283 31.6665 20.9171 37.0225 25.7219C42.4057 30.5515 39.078 39.6508 31.6729 39.6508Z" fill="#7161BA"/>
<path d="M37.5073 28.0778C37.2535 27.8243 36.8423 27.8243 36.5888 28.0778L29.2888 35.3778L26.2122 32.3015C25.9588 32.048 25.5475 32.0477 25.2941 32.3015C25.0403 32.5549 25.0403 32.9661 25.2941 33.2196L28.4429 36.3684C28.9102 36.8364 29.6668 36.8364 30.1345 36.3687L37.5073 28.9959C37.7607 28.7425 37.7607 28.3316 37.5073 28.0778Z" fill="#7161BA"/>
<path d="M23.6342 4.30457H5.36841C4.3808 4.30457 3.57715 5.10889 3.57715 6.09683V12.4636C3.57715 13.4515 4.3808 14.2555 5.36841 14.2555H23.6342C24.6221 14.2555 25.4254 13.4515 25.4254 12.4636V6.09683C25.4254 5.10889 24.6221 4.30457 23.6342 4.30457ZM24.1266 12.4636C24.1266 12.7355 23.9061 12.9571 23.6342 12.9571H5.36841C5.09683 12.9571 4.87595 12.7355 4.87595 12.4636V6.09683C4.87595 5.82492 5.09683 5.60336 5.36841 5.60336H23.6342C23.9061 5.60336 24.1266 5.82492 24.1266 6.09683V12.4636Z" fill="#7161BA"/>
<path d="M21.9755 7.00928H7.02737C6.66852 7.00928 6.37781 7.29999 6.37781 7.65851C6.37781 8.01736 6.66852 8.30807 7.02737 8.30807H21.9755C22.334 8.30807 22.6247 8.01736 22.6247 7.65851C22.6247 7.29999 22.334 7.00928 21.9755 7.00928Z" fill="#7161BA"/>
<path d="M17.9427 10.2524H15.5117C15.1531 10.2524 14.8624 10.5435 14.8624 10.9017C14.8624 11.2612 15.1531 11.5512 15.5117 11.5512H17.9427C18.3009 11.5512 18.592 11.2612 18.592 10.9017C18.592 10.5435 18.3009 10.2524 17.9427 10.2524Z" fill="#7161BA"/>
<path d="M12.9144 10.2524H7.02737C6.66885 10.2524 6.37781 10.5435 6.37781 10.9017C6.37781 11.2612 6.66885 11.5512 7.02737 11.5512H12.9144C13.2729 11.5512 13.5637 11.2612 13.5637 10.9017C13.5637 10.5435 13.2729 10.2524 12.9144 10.2524Z" fill="#7161BA"/>
<path d="M21.9755 19.7616H7.02737C6.66852 19.7616 6.37781 20.0523 6.37781 20.4112C6.37781 20.7697 6.66852 21.0604 7.02737 21.0604H21.9755C22.334 21.0604 22.6247 20.7697 22.6247 20.4112C22.6247 20.0523 22.334 19.7616 21.9755 19.7616Z" fill="#7161BA"/>
<path d="M11.288 23.0051H7.02737C6.66852 23.0051 6.37781 23.2958 6.37781 23.6544C6.37781 24.0132 6.66852 24.3039 7.02737 24.3039H11.288C11.6465 24.3039 11.9372 24.0132 11.9372 23.6544C11.9372 23.2958 11.6465 23.0051 11.288 23.0051Z" fill="#7161BA"/>
<path d="M7.02737 33.8127H17.7263C18.0848 33.8127 18.3755 33.522 18.3755 33.1635C18.3755 32.8046 18.0848 32.5139 17.7263 32.5139H7.02737C6.66852 32.5139 6.37781 32.8046 6.37781 33.1635C6.37781 33.522 6.66852 33.8127 7.02737 33.8127Z" fill="#7161BA"/>
<path d="M12.2219 35.7573H7.02737C6.66885 35.7573 6.37781 36.0484 6.37781 36.4069C6.37781 36.7651 6.66885 37.0561 7.02737 37.0561H12.2219C12.5801 37.0561 12.8711 36.7651 12.8711 36.4069C12.8711 36.0484 12.5801 35.7573 12.2219 35.7573Z" fill="#7161BA"/>
<path d="M18.8058 35.7573H14.8191C14.4606 35.7573 14.1696 36.0484 14.1696 36.4069C14.1696 36.7651 14.4606 37.0561 14.8191 37.0561H18.8058C19.165 37.0561 19.455 36.7651 19.455 36.4069C19.455 36.0484 19.165 35.7573 18.8058 35.7573Z" fill="#7161BA"/>
<path d="M39.9129 22.4995C36.8591 19.7596 32.7764 18.7995 29.0026 19.6451V2.17429C29.0026 1.02286 28.066 0.0859375 26.9135 0.0859375H2.08902C0.936584 0.0859375 0 1.02286 0 2.17429V41.8915C0 43.043 0.936584 43.9795 2.08902 43.9795H26.9135C27.4235 43.9795 27.8911 43.7969 28.2536 43.4931C30.8586 44.2501 33.6032 44.1041 36.0333 43.189C36.3694 43.0628 36.5389 42.6878 36.4127 42.3528C36.2861 42.0171 35.9115 41.8472 35.5764 41.9738C31.7452 43.4132 27.2724 42.6593 24.1249 39.6924C16.9247 32.9087 21.6633 20.6468 31.7012 20.6468C37.3607 20.6468 42.0661 24.8984 42.6451 30.537C43.0708 34.6802 41.1567 38.6118 37.7554 40.8613C37.456 41.0587 37.3737 41.4612 37.5718 41.7606C37.7692 42.06 38.1727 42.1416 38.4715 41.9442C45.2387 37.4704 45.8812 27.8538 39.9129 22.4995ZM21.4169 38.4621H5.36841C5.09683 38.4621 4.87595 38.2405 4.87595 37.9686V31.6018C4.87595 31.3299 5.09683 31.1084 5.36841 31.1084H19.3833C19.2742 33.6335 19.9301 36.2183 21.4169 38.4621ZM24.1266 21.9419C22.8104 22.9665 21.7096 24.2552 20.9053 25.7098H5.36841C5.09683 25.7098 4.87595 25.4879 4.87595 25.2163V18.8495C4.87595 18.5776 5.09683 18.3561 5.36841 18.3561H23.6342C23.9061 18.3561 24.1266 18.5776 24.1266 18.8495V21.9419ZM27.7041 20.0104C26.9092 20.2806 26.1465 20.6321 25.4254 21.0581V18.8495C25.4254 17.8616 24.6221 17.0573 23.6342 17.0573H5.36841C4.3808 17.0573 3.57715 17.8616 3.57715 18.8495V25.2163C3.57715 26.2039 4.3808 27.0082 5.36841 27.0082H20.2836C19.9167 27.9059 19.6562 28.8461 19.5105 29.8099H5.36841C4.3808 29.8099 3.57715 30.6142 3.57715 31.6018V37.9686C3.57715 38.9566 4.3808 39.7609 5.36841 39.7609H22.4082C23.4468 40.9536 24.7393 41.961 26.1821 42.6811H2.08902C1.65262 42.6811 1.29846 42.3269 1.29846 41.8915V2.17429C1.29846 1.73856 1.65262 1.38474 2.08902 1.38474H26.9135C27.3499 1.38474 27.7041 1.73856 27.7041 2.17429V20.0104Z" fill="#7161BA"/>
</g>
<defs>
<clipPath id="clip0_1260_1037">
<rect width="44" height="44" fill="white"/>
</clipPath>
</defs>
</svg>
