<svg width="44" height="44" viewBox="0 0 44 44" fill="none" xmlns="http://www.w3.org/2000/svg">
<path d="M32.739 1.66042C32.3793 1.4648 31.9669 1.35352 31.5295 1.35352H12.0352C11.5979 1.35352 11.1855 1.4648 10.8257 1.66042C10.0344 2.09095 9.4961 2.9301 9.4961 3.89287V14.11C9.4961 14.4436 9.7665 14.7142 10.1004 14.7142C10.4339 14.7142 10.7046 14.4436 10.7046 14.11V11.1547C11.1908 11.4928 11.7895 11.6935 12.4365 11.6935C13.3882 11.6935 14.2352 11.2609 14.773 10.5922C15.3107 11.2609 16.1577 11.6935 17.1094 11.6935C18.0608 11.6935 18.9075 11.2609 19.4456 10.5922C19.9833 11.2609 20.8303 11.6935 21.782 11.6935C22.7332 11.6935 23.5804 11.2609 24.1179 10.5922C24.656 11.2609 25.5027 11.6935 26.4544 11.6935C27.4065 11.6935 28.2538 11.2607 28.7915 10.5912C29.3291 11.2607 30.1763 11.6935 31.1282 11.6935C31.7755 11.6935 32.3742 11.4928 32.8604 11.1547V37.0538H28.0916C27.758 37.0538 27.4874 37.3245 27.4874 37.6581C27.4874 37.9916 27.758 38.2623 28.0916 38.2623H32.8604V40.0645C32.8604 40.7984 32.2635 41.3953 31.5295 41.3953H12.0352C11.3015 41.3953 10.7043 40.7984 10.7043 40.0645V38.2623H25.5135C25.8473 38.2623 26.1177 37.9916 26.1177 37.6581C26.1177 37.3245 25.8473 37.0538 25.5135 37.0538H10.7043V16.5806C10.7043 16.247 10.4339 15.9763 10.1001 15.9763C9.7665 15.9763 9.49585 16.247 9.49585 16.5806V40.064C9.49585 41.0267 10.0344 41.8661 10.8257 42.2967C11.1855 42.4923 11.5979 42.6036 12.0352 42.6036H31.5295C31.9669 42.6036 32.379 42.4923 32.739 42.2967C33.5304 41.8661 34.0689 41.0267 34.0689 40.064V3.89287C34.0689 2.9301 33.5304 2.09095 32.739 1.66042ZM18.8413 7.42169H15.377V5.42137H18.8413V7.42169ZM23.5137 7.42169H20.0498V5.42137H23.5137V7.42169ZM28.1863 7.42169H24.7222V5.42137H28.1863V7.42169ZM32.8604 7.42169H29.396V5.42137H32.8604V7.42169ZM10.7043 3.89287C10.7043 3.15896 11.3013 2.56201 12.0352 2.56201H31.5295C32.2632 2.56201 32.8604 3.15896 32.8604 3.89287V4.21287H28.7918C28.7918 4.21287 28.7915 4.21287 28.7913 4.21287C28.7913 4.21287 28.7908 4.21287 28.7905 4.21287H10.7043V3.89287ZM10.7043 5.42137H14.1687V7.42169H10.7043V5.42137ZM12.4365 10.485C11.4813 10.485 10.7043 9.77196 10.7043 8.8958V8.63018H14.1687V8.8958C14.1687 9.77196 13.3917 10.485 12.4365 10.485ZM17.1091 10.485C16.1539 10.485 15.377 9.77196 15.377 8.8958V8.63018H18.8413V8.8958C18.8413 9.77196 18.0641 10.485 17.1091 10.485ZM21.7815 10.485C20.8268 10.485 20.0498 9.77196 20.0498 8.8958V8.63018H23.5137V8.8958C23.5137 9.77196 22.7367 10.485 21.7815 10.485ZM26.4544 10.485C25.4994 10.485 24.7222 9.77196 24.7222 8.8958V8.63018H28.1863V8.8958C28.1863 9.77196 27.4093 10.485 26.4544 10.485ZM31.1282 10.485C30.173 10.485 29.396 9.77196 29.396 8.8958V8.63018H32.8604V8.8958C32.8604 9.77196 32.0834 10.485 31.1282 10.485Z" fill="#7161BA"/>
<path d="M21.1453 39.1652C20.8114 39.1652 20.541 39.4356 20.541 39.7694C20.541 40.103 20.8114 40.3737 21.1453 40.3737H22.5448C22.8787 40.3737 23.1491 40.103 23.1491 39.7694C23.1491 39.4356 22.8787 39.1652 22.5448 39.1652H21.1453Z" fill="#7161BA"/>
<path d="M8.03979 20.0479C7.83711 19.9452 7.59365 19.9646 7.41011 20.0983L3.32589 23.0747C3.16979 23.1885 3.07739 23.3698 3.07739 23.5632C3.07739 23.7563 3.17004 23.9375 3.32589 24.0516L7.41011 27.0278C7.51535 27.1046 7.64023 27.1436 7.76611 27.1436C7.85927 27.1436 7.95343 27.1219 8.03979 27.0781C8.24246 26.9749 8.37011 26.7669 8.37011 26.5393V20.5867C8.37011 20.3594 8.24246 20.1512 8.03979 20.0479ZM7.16161 25.3512L4.70761 23.5632L7.16161 21.7748V25.3512Z" fill="#7161BA"/>
<path d="M40.45 23.0747L36.366 20.0983C36.1822 19.9646 35.9388 19.9452 35.7361 20.0479C35.5334 20.1512 35.4058 20.3594 35.4058 20.5867V26.5393C35.4058 26.7669 35.5334 26.9749 35.7361 27.0781C35.8227 27.1219 35.9166 27.1436 36.01 27.1436C36.1359 27.1436 36.2605 27.1046 36.366 27.0278L40.45 24.0516C40.6061 23.9375 40.6985 23.7563 40.6985 23.5632C40.6985 23.3698 40.6061 23.1885 40.45 23.0747ZM36.6143 25.3512V21.7748L39.068 23.5632L36.6143 25.3512Z" fill="#7161BA"/>
<path d="M17.1175 13.972C14.7317 13.972 12.7903 15.9135 12.7903 18.2995C12.7903 20.6858 14.7317 22.6269 17.1175 22.6269C19.5037 22.6269 21.4451 20.6858 21.4451 18.2995C21.4451 15.9135 19.5037 13.972 17.1175 13.972ZM17.1175 21.4184C15.3979 21.4184 13.9988 20.0196 13.9988 18.2995C13.9988 16.5796 15.3979 15.1805 17.1175 15.1805C18.8375 15.1805 20.2366 16.5796 20.2366 18.2995C20.2366 20.0196 18.8375 21.4184 17.1175 21.4184Z" fill="#7161BA"/>
<path d="M24.1892 15.1805H30.2239C30.5575 15.1805 30.8281 14.9101 30.8281 14.5763C30.8281 14.2427 30.5575 13.972 30.2239 13.972H24.1892C23.8554 13.972 23.585 14.2427 23.585 14.5763C23.585 14.9101 23.8554 15.1805 24.1892 15.1805Z" fill="#7161BA"/>
<path d="M24.1892 18.522H30.2239C30.5575 18.522 30.8281 18.2513 30.8281 17.9177C30.8281 17.5841 30.5575 17.3135 30.2239 17.3135H24.1892C23.8554 17.3135 23.585 17.5841 23.585 17.9177C23.585 18.2513 23.8554 18.522 24.1892 18.522Z" fill="#7161BA"/>
<path d="M24.1892 21.8633H30.2239C30.5575 21.8633 30.8281 21.5931 30.8281 21.259C30.8281 20.9254 30.5575 20.6548 30.2239 20.6548H24.1892C23.8554 20.6548 23.585 20.9254 23.585 21.259C23.585 21.5931 23.8554 21.8633 24.1892 21.8633Z" fill="#7161BA"/>
<path d="M20.1349 25.7506H14.1005C13.7669 25.7506 13.4962 26.0213 13.4962 26.3549C13.4962 26.689 13.7669 26.9591 14.1005 26.9591H20.1349C20.4685 26.9591 20.7391 26.689 20.7391 26.3549C20.7391 26.0213 20.469 25.7506 20.1349 25.7506Z" fill="#7161BA"/>
<path d="M20.1349 29.0923H14.1005C13.7669 29.0923 13.4962 29.3629 13.4962 29.6965C13.4962 30.0302 13.7669 30.3008 14.1005 30.3008H20.1349C20.4685 30.3008 20.7391 30.0302 20.7391 29.6965C20.7391 29.3629 20.469 29.0923 20.1349 29.0923Z" fill="#7161BA"/>
<path d="M20.1349 32.4338H14.1005C13.7669 32.4338 13.4962 32.7042 13.4962 33.0381C13.4962 33.3717 13.7669 33.6423 14.1005 33.6423H20.1349C20.4685 33.6423 20.7391 33.3717 20.7391 33.0381C20.7391 32.7042 20.469 32.4338 20.1349 32.4338Z" fill="#7161BA"/>
<path d="M22.7213 26.0842V33.4075C22.7213 33.7408 22.9917 34.0115 23.3256 34.0115H30.2238C30.5574 34.0115 30.8281 33.7408 30.8281 33.4075V26.0842C30.8281 25.7504 30.5574 25.48 30.2238 25.48H23.3256C22.9917 25.48 22.7213 25.7504 22.7213 26.0842ZM23.9298 26.6885H29.6196V32.8032H23.9298V26.6885Z" fill="#7161BA"/>
</svg>
