<?xml version="1.0" encoding="utf-8"?>
<!-- Generator: Adobe Illustrator 16.0.0, SVG Export Plug-In . SVG Version: 6.00 Build 0)  -->
<!DOCTYPE svg PUBLIC "-//W3C//DTD SVG 1.1//EN" "http://www.w3.org/Graphics/SVG/1.1/DTD/svg11.dtd">
<svg version="1.1" id="Layer_1" xmlns="http://www.w3.org/2000/svg" xmlns:xlink="http://www.w3.org/1999/xlink" x="0px" y="0px"
	 width="555px" height="560px" viewBox="0 0 555 560" enable-background="new 0 0 555 560" xml:space="preserve">
<path fill="#8B83FD" d="M0,517.676c0,0,32.004,54.117,102.212,38.152c0,0,83.781-18.557,69.537-85.205
	c-7.122-33.323-29.494-99.781,56.795-123.904c0,0,3.956-3.885,134.909-1.584c0,0,36.696,4.455,40.277-36.727
	c0,0,3.146-27.883-24.172-35.815c-25.883-7.516-68.033-9.852-71.617-80.571c0,0-3.58-102.053,107.42-91.311
	c0,0,68.713,9.491,67.143,78.774c-0.355,15.777-7.438,50.083,33.167,53.708c13.579,1.212,37.729,0.896,40.329-36.702V0H0V517.676z"
	/>
<path fill="#7E7BFE" d="M470.068,185.5c0,39.8-32.264,72.067-72.066,72.067c-39.805,0-72.066-32.268-72.066-72.067
	s32.264-72.066,72.066-72.066S470.068,145.699,470.068,185.5z"/>
<g>
	<path fill="#FFFFFF" d="M374.921,169.91h-2.29c-0.301-0.424-0.698-0.759-1.193-1.005c-0.494-0.246-1.003-0.369-1.527-0.369
		c-0.442,0-0.868,0.076-1.278,0.229s-0.781,0.375-1.114,0.667c-0.36,0.319-0.648,0.714-0.865,1.186
		c-0.216,0.472-0.324,0.944-0.324,1.418c0,0.219,0.021,0.434,0.062,0.646s0.106,0.425,0.194,0.639
		c0.09,0.214,0.195,0.415,0.318,0.602s0.262,0.36,0.417,0.52c0.351,0.374,0.76,0.661,1.228,0.861
		c0.467,0.201,0.951,0.301,1.452,0.301c0.602,0,1.184-0.171,1.747-0.513c0.563-0.342,0.987-0.791,1.274-1.347h-4.327v-1.805h6.747
		v0.226c0,1.486-0.547,2.748-1.641,3.787c-1.066,1.012-2.354,1.518-3.862,1.518s-2.803-0.513-3.883-1.538
		c-1.099-1.043-1.647-2.32-1.647-3.828s0.541-2.79,1.624-3.845c1.082-1.055,2.375-1.583,3.879-1.583c1.075,0,2.076,0.29,3.001,0.868
		C373.868,168.146,374.538,168.935,374.921,169.91z"/>
	<path fill="#FFFFFF" d="M376.698,177.217v-10.343h1.921v10.343H376.698z"/>
	<path fill="#FFFFFF" d="M379.761,177.217l4.313-10.343h1.497l4.354,10.343h-2.112l-1.121-2.673h-3.664l-1.148,2.673H379.761z
		 M383.165,164.147v-0.226l0.027-0.287c0-0.004,0.001-0.008,0.004-0.01c0.002-0.002,0.003-0.008,0.003-0.017
		c0.009-0.027,0.02-0.056,0.03-0.085c0.012-0.03,0.038-0.079,0.079-0.147h-0.007c0.032-0.086,0.077-0.172,0.137-0.256
		s0.13-0.172,0.212-0.263c0.063-0.064,0.139-0.124,0.226-0.181s0.189-0.11,0.308-0.161c0.273-0.1,0.508-0.15,0.704-0.15
		c0.232,0,0.442,0.039,0.629,0.116s0.357,0.196,0.513,0.355c0.306,0.305,0.458,0.677,0.458,1.114c0,0.173-0.049,0.349-0.146,0.526
		c-0.099,0.178-0.238,0.346-0.421,0.506c-0.155,0.146-0.273,0.301-0.355,0.465s-0.123,0.333-0.123,0.506h-1.23
		c0-0.16,0.028-0.326,0.085-0.499c0.058-0.173,0.146-0.349,0.264-0.526l0.595-0.697c0.073-0.068,0.109-0.178,0.109-0.328
		c0-0.137-0.039-0.249-0.116-0.335s-0.171-0.13-0.28-0.13c-0.118,0-0.212,0.034-0.28,0.103c-0.063,0.05-0.11,0.127-0.141,0.232
		c-0.029,0.105-0.044,0.23-0.044,0.376H383.165z M383.726,172.678h2.215l-1.107-3.131L383.726,172.678z"/>
	<path fill="#FFFFFF" d="M390.979,177.217v-10.343h1.921v10.343H390.979z"/>
	<path fill="#FFFFFF" d="M400.733,177.217h-1.921v-10.343h2.44c0.269,0,0.492,0.002,0.67,0.007c0.173,0.004,0.337,0.009,0.492,0.014
		c0.104,0,0.223,0.01,0.352,0.031c0.131,0.021,0.272,0.054,0.428,0.099c0.287,0.068,0.572,0.198,0.854,0.39
		c0.424,0.287,0.759,0.664,1.005,1.131s0.369,0.958,0.369,1.473c0,0.524-0.104,1.018-0.314,1.48s-0.515,0.851-0.916,1.166
		c-0.26,0.214-0.576,0.372-0.95,0.472c-0.155,0.045-0.306,0.081-0.451,0.106s-0.294,0.038-0.444,0.038
		c-0.241,0-0.463,0.002-0.663,0.007s-0.392,0.009-0.574,0.014h-0.376V177.217z M400.733,171.434h0.349h0.369
		c0.087,0,0.2-0.002,0.342-0.007c0.137-0.004,0.23-0.007,0.28-0.007c0.077,0,0.156-0.008,0.236-0.024
		c0.079-0.016,0.165-0.04,0.256-0.072c0.282-0.091,0.51-0.253,0.68-0.485c0.172-0.232,0.257-0.497,0.257-0.793
		c0-0.305-0.09-0.566-0.271-0.783c-0.18-0.216-0.42-0.366-0.721-0.448c-0.104-0.023-0.186-0.039-0.242-0.048
		c-0.058-0.009-0.127-0.014-0.209-0.014l-0.574-0.021h-0.403h-0.349V171.434z"/>
	<path fill="#FFFFFF" d="M406.653,177.217v-10.343h1.921v4.143h3.698v-4.143h1.914v10.343h-1.914v-4.341h-3.698v4.341H406.653z"/>
	<path fill="#FFFFFF" d="M415.321,177.217l4.313-10.343h1.497l4.354,10.343h-2.112l-1.121-2.673h-3.664l-1.148,2.673H415.321z
		 M419.204,166.047l-0.704-1.292l3.151-1.859l0.745,1.456L419.204,166.047z M419.286,172.678h2.215l-1.107-3.131L419.286,172.678z"
		/>
	<path fill="#FFFFFF" d="M428.46,177.217h-1.921v-10.343h2.44c0.269,0,0.492,0.002,0.67,0.007c0.173,0.004,0.337,0.009,0.492,0.014
		c0.104,0,0.223,0.01,0.352,0.031c0.131,0.021,0.272,0.054,0.428,0.099c0.287,0.068,0.572,0.198,0.854,0.39
		c0.424,0.287,0.759,0.664,1.005,1.131s0.369,0.958,0.369,1.473c0,0.524-0.104,1.018-0.314,1.48s-0.515,0.851-0.916,1.166
		c-0.26,0.214-0.576,0.372-0.95,0.472c-0.155,0.045-0.306,0.081-0.451,0.106s-0.294,0.038-0.444,0.038
		c-0.241,0-0.463,0.002-0.663,0.007s-0.392,0.009-0.574,0.014h-0.376V177.217z M428.46,171.434h0.349h0.369
		c0.087,0,0.2-0.002,0.342-0.007c0.137-0.004,0.23-0.007,0.28-0.007c0.077,0,0.156-0.008,0.236-0.024
		c0.079-0.016,0.165-0.04,0.256-0.072c0.282-0.091,0.51-0.253,0.68-0.485c0.172-0.232,0.257-0.497,0.257-0.793
		c0-0.305-0.09-0.566-0.271-0.783c-0.18-0.216-0.42-0.366-0.721-0.448c-0.104-0.023-0.186-0.039-0.242-0.048
		c-0.058-0.009-0.127-0.014-0.209-0.014l-0.574-0.021h-0.403h-0.349V171.434z"/>
	<path fill="#FFFFFF" d="M379.501,192.547v1.723c-0.511,0-0.989-0.063-1.436-0.188s-0.863-0.325-1.251-0.598
		c-0.392,0.242-0.855,0.433-1.392,0.574c-0.535,0.141-1.063,0.212-1.582,0.212c-1.504,0-2.796-0.513-3.876-1.538
		c-1.094-1.039-1.641-2.315-1.641-3.828c0-0.756,0.125-1.454,0.376-2.092s0.631-1.211,1.142-1.719s1.11-0.905,1.802-1.189
		c0.689-0.285,1.399-0.427,2.129-0.427c1.522,0,2.821,0.515,3.896,1.545c1.099,1.057,1.647,2.352,1.647,3.883
		c0,0.666-0.097,1.267-0.29,1.805c-0.194,0.538-0.508,1.057-0.94,1.559c0.155,0.086,0.33,0.155,0.526,0.205
		c0.087,0.023,0.182,0.041,0.283,0.055c0.104,0.014,0.202,0.021,0.298,0.021H379.501z M370.245,188.781l0.027,0.561
		c0.187-0.055,0.419-0.1,0.697-0.137c0.128-0.014,0.253-0.025,0.376-0.034s0.251-0.014,0.383-0.014c0.561,0,1.073,0.062,1.538,0.185
		c0.228,0.059,0.465,0.138,0.711,0.236s0.494,0.215,0.745,0.352c0.415,0.214,0.736,0.396,0.964,0.547
		c0.314,0.201,0.606,0.428,0.875,0.684c0.265-0.278,0.471-0.614,0.619-1.008c0.147-0.394,0.222-0.799,0.222-1.213
		c0-0.989-0.348-1.836-1.042-2.543c-0.695-0.707-1.535-1.06-2.52-1.06c-0.479,0-0.937,0.093-1.374,0.28s-0.836,0.462-1.196,0.827
		c-0.301,0.301-0.547,0.662-0.738,1.083S370.245,188.366,370.245,188.781z M375.201,192.069c-0.552-0.41-1.078-0.725-1.579-0.943
		c-0.615-0.273-1.21-0.41-1.784-0.41c-0.169,0-0.333,0.014-0.492,0.041c-0.146,0.018-0.299,0.059-0.458,0.123
		c0.369,0.51,0.827,0.898,1.374,1.162c0.52,0.242,1.107,0.362,1.764,0.362c0.246,0,0.492-0.048,0.738-0.144L375.201,192.069z"/>
	<path fill="#FFFFFF" d="M380.615,183.674h1.921v6.453v0.267c0,0.127,0.002,0.244,0.007,0.349s0.016,0.22,0.034,0.345
		s0.07,0.27,0.157,0.434c0.137,0.269,0.326,0.483,0.567,0.643s0.508,0.239,0.8,0.239c0.255,0,0.498-0.062,0.728-0.185
		c0.23-0.123,0.423-0.303,0.578-0.54c0.123-0.205,0.205-0.454,0.246-0.745c0.022-0.196,0.034-0.465,0.034-0.807v-6.453h1.914v6.453
		c0,0.606-0.041,1.098-0.123,1.477c-0.109,0.51-0.319,0.95-0.629,1.319c-0.333,0.396-0.744,0.72-1.233,0.971
		c-0.49,0.25-0.995,0.376-1.515,0.376c-0.479,0-0.956-0.116-1.433-0.349c-0.476-0.232-0.881-0.539-1.217-0.919
		c-0.334-0.38-0.568-0.831-0.7-1.35c-0.046-0.191-0.08-0.409-0.103-0.653s-0.034-0.534-0.034-0.872V183.674z"/>
	<path fill="#FFFFFF" d="M388.723,194.017l4.313-10.343h1.497l4.354,10.343h-2.112l-1.121-2.673h-3.664l-1.148,2.673H388.723z
		 M392.127,180.947v-0.226l0.027-0.287c0-0.004,0.001-0.008,0.004-0.01c0.002-0.002,0.003-0.008,0.003-0.017
		c0.009-0.027,0.02-0.056,0.03-0.085c0.012-0.03,0.038-0.079,0.079-0.147h-0.007c0.032-0.086,0.077-0.172,0.137-0.256
		s0.13-0.172,0.212-0.263c0.063-0.064,0.139-0.124,0.226-0.181s0.189-0.11,0.308-0.161c0.273-0.1,0.508-0.15,0.704-0.15
		c0.232,0,0.442,0.039,0.629,0.116s0.357,0.196,0.513,0.355c0.306,0.305,0.458,0.677,0.458,1.114c0,0.173-0.049,0.349-0.146,0.526
		c-0.099,0.178-0.238,0.346-0.421,0.506c-0.155,0.146-0.273,0.301-0.355,0.465s-0.123,0.333-0.123,0.506h-1.23
		c0-0.16,0.028-0.326,0.085-0.499c0.058-0.173,0.146-0.349,0.264-0.526l0.595-0.697c0.073-0.068,0.109-0.178,0.109-0.328
		c0-0.137-0.039-0.249-0.116-0.335s-0.171-0.13-0.28-0.13c-0.118,0-0.212,0.034-0.28,0.103c-0.063,0.05-0.11,0.127-0.141,0.232
		c-0.029,0.105-0.044,0.23-0.044,0.376H392.127z M392.688,189.478h2.215l-1.107-3.131L392.688,189.478z"/>
	<path fill="#FFFFFF" d="M399.94,194.017v-10.343h2.16l4.307,7.554v-7.554h1.921v10.343h-2.126l-4.341-7.533v7.533H399.94z"/>
	<path fill="#FFFFFF" d="M414.221,194.017v-10.343h1.921v8.483h3.165v1.859H414.221z"/>
	<path fill="#FFFFFF" d="M422.875,194.017v-3.821l-3.404-6.521h2.112l2.256,4.758l2.256-4.758h2.099l-3.404,6.521v3.821H422.875z
		 M422.622,182.847l-0.704-1.292l3.151-1.859l0.745,1.456L422.622,182.847z"/>
	<path fill="#FFFFFF" d="M387.492,207.748l4.758-7.273h1.572v7.041h1.087v1.764h-1.087v1.538h-1.866v-1.538h-4.464V207.748z
		 M391.956,207.516v-3.896l-2.475,3.896H391.956z"/>
	<path fill="#FFFFFF" d="M396.338,210.817v-1.859h1.866v1.859H396.338z"/>
	<path fill="#FFFFFF" d="M406.599,203.913v3.514c0,0.51-0.055,0.955-0.164,1.333c-0.123,0.447-0.342,0.844-0.656,1.193
		s-0.7,0.622-1.159,0.82c-0.457,0.198-0.926,0.297-1.404,0.297c-0.492,0-0.958-0.083-1.398-0.25
		c-0.439-0.167-0.839-0.42-1.199-0.762s-0.617-0.756-0.772-1.244c-0.118-0.392-0.178-0.882-0.178-1.47v-3.432
		c0-0.506,0.058-0.966,0.175-1.381c0.115-0.415,0.328-0.796,0.635-1.145c0.309-0.349,0.701-0.621,1.18-0.817
		c0.237-0.096,0.478-0.168,0.721-0.219c0.244-0.05,0.494-0.075,0.749-0.075c0.474,0,0.929,0.083,1.364,0.25
		c0.435,0.167,0.822,0.415,1.162,0.745c0.339,0.331,0.586,0.737,0.741,1.22C406.53,202.911,406.599,203.384,406.599,203.913z
		 M401.533,203.94v3.35c0,0.406,0.028,0.707,0.086,0.902c0.057,0.196,0.152,0.372,0.287,0.526c0.134,0.155,0.313,0.283,0.536,0.383
		c0.104,0.045,0.214,0.082,0.328,0.109s0.228,0.041,0.342,0.041c0.241,0,0.476-0.049,0.7-0.147c0.227-0.098,0.413-0.239,0.561-0.424
		c0.148-0.185,0.25-0.4,0.305-0.646c0.041-0.187,0.062-0.426,0.062-0.718v-3.445c0-0.515-0.139-0.934-0.417-1.258
		c-0.296-0.346-0.699-0.52-1.21-0.52c-0.237,0-0.465,0.052-0.684,0.157s-0.401,0.244-0.547,0.417
		c-0.128,0.173-0.219,0.367-0.273,0.581c-0.022,0.096-0.041,0.202-0.055,0.318S401.533,203.808,401.533,203.94z"/>
</g>
<circle fill="#FFFFFF" cx="80.414" cy="461.986" r="80.458"/>
<circle fill="#8B83FD" cx="80.05" cy="460.705" r="64.399"/>
<g>
	<path fill="#FFFFFF" d="M31.278,444.26v-5.493h0.405c1.433,0,2.498-0.206,3.193-0.617c0.951-0.54,1.427-1.455,1.427-2.747
		c0-0.865-0.288-1.562-0.862-2.087c-0.575-0.524-1.303-0.787-2.183-0.787c-0.752,0-1.377,0.263-1.874,0.787
		c-0.497,0.525-0.745,1.179-0.745,1.959h-5.813c0-2.257,0.831-4.223,2.491-5.897s3.641-2.512,5.94-2.512
		c2.385,0,4.453,0.834,6.207,2.501c1.752,1.668,2.629,3.694,2.629,6.079c0,1.221-0.224,2.32-0.671,3.3
		c-0.447,0.979-1.153,1.803-2.118,2.47c1.632,0.554,2.917,1.682,3.854,3.385c0.837,1.548,1.256,3.279,1.256,5.195
		c0,3.08-1.101,5.649-3.3,7.707c-2.144,1.987-4.776,2.981-7.899,2.981c-2.882,0-5.39-1.012-7.526-3.034s-3.204-4.461-3.204-7.313
		h5.833c0,1.32,0.521,2.431,1.565,3.332s2.268,1.352,3.673,1.352c1.405,0,2.597-0.492,3.577-1.479
		c0.979-0.986,1.469-2.183,1.469-3.587c0-1.945-0.752-3.429-2.257-4.45c-0.61-0.411-1.292-0.688-2.044-0.83
		c-0.313-0.057-0.692-0.106-1.139-0.149s-0.884-0.063-1.31-0.063H31.278z"/>
	<path fill="#FFFFFF" d="M69.133,438.191v10.943c0,1.59-0.17,2.974-0.511,4.152c-0.383,1.391-1.065,2.629-2.044,3.715
		c-0.979,1.086-2.183,1.938-3.609,2.555c-1.427,0.618-2.885,0.927-4.375,0.927c-1.533,0-2.984-0.26-4.354-0.777
		s-2.615-1.31-3.736-2.374c-1.122-1.064-1.924-2.356-2.406-3.875c-0.37-1.221-0.554-2.746-0.554-4.577v-10.688
		c0-1.575,0.181-3.009,0.543-4.301c0.362-1.291,1.022-2.48,1.98-3.566s2.182-1.934,3.673-2.544c0.738-0.298,1.486-0.525,2.246-0.682
		c0.759-0.155,1.536-0.233,2.331-0.233c1.476,0,2.892,0.259,4.248,0.776c1.355,0.519,2.562,1.292,3.62,2.321
		c1.057,1.029,1.827,2.296,2.31,3.8C68.92,435.069,69.133,436.545,69.133,438.191z M53.357,438.276v10.433
		c0,1.264,0.088,2.2,0.266,2.811c0.177,0.61,0.475,1.157,0.894,1.64c0.418,0.482,0.976,0.88,1.671,1.192
		c0.326,0.142,0.667,0.255,1.022,0.341c0.354,0.085,0.709,0.127,1.064,0.127c0.752,0,1.48-0.152,2.182-0.457
		c0.703-0.306,1.285-0.745,1.746-1.32c0.461-0.575,0.777-1.245,0.947-2.012c0.128-0.582,0.192-1.327,0.192-2.236v-10.73
		c0-1.604-0.433-2.909-1.299-3.917c-0.923-1.079-2.179-1.618-3.769-1.618c-0.738,0-1.448,0.163-2.129,0.489
		c-0.682,0.327-1.25,0.76-1.704,1.299c-0.397,0.54-0.681,1.143-0.852,1.81c-0.071,0.299-0.127,0.628-0.17,0.99
		C53.378,437.479,53.357,437.865,53.357,438.276z"/>
	<path fill="#FFFFFF" d="M79.438,426.865c2.157,0,3.995,0.759,5.514,2.277c1.519,1.52,2.278,3.372,2.278,5.558
		s-0.76,4.042-2.278,5.567c-1.519,1.525-3.357,2.289-5.514,2.289c-2.172,0-4.024-0.767-5.557-2.3
		c-1.533-1.533-2.299-3.386-2.299-5.557c0-2.172,0.763-4.021,2.289-5.547C75.396,427.628,77.252,426.865,79.438,426.865z
		 M79.438,431.698c-0.852,0-1.569,0.291-2.15,0.872c-0.583,0.583-0.873,1.292-0.873,2.13c0,0.78,0.301,1.479,0.905,2.097
		c0.603,0.617,1.295,0.926,2.076,0.926c0.823,0,1.529-0.29,2.118-0.872s0.884-1.299,0.884-2.15c0-0.838-0.281-1.547-0.841-2.13
		C80.996,431.989,80.29,431.698,79.438,431.698z M80.396,459.695l13.328-32.213h4.45l-13.328,32.213H80.396z M99.218,444.792
		c2.186,0,4.042,0.759,5.567,2.277c1.525,1.52,2.289,3.372,2.289,5.558c0,2.157-0.763,4.006-2.289,5.546
		c-1.526,1.54-3.382,2.311-5.567,2.311c-2.172,0-4.021-0.771-5.546-2.311c-1.526-1.54-2.289-3.389-2.289-5.546
		c0-2.186,0.759-4.038,2.278-5.558C95.179,445.551,97.032,444.792,99.218,444.792z M99.218,449.625c-0.852,0-1.565,0.266-2.14,0.798
		c-0.575,0.532-0.862,1.211-0.862,2.033c0,0.866,0.291,1.615,0.873,2.246c0.582,0.632,1.292,0.948,2.129,0.948
		c0.794,0,1.497-0.319,2.107-0.958s0.916-1.385,0.916-2.236c0-0.809-0.287-1.482-0.862-2.022
		C100.804,449.895,100.083,449.625,99.218,449.625z"/>
	<path fill="#FFFFFF" d="M86.54,468.612v-3.566h-0.845v-0.497h0.845v-1.427h0.552v1.427h0.943v0.497h-0.943v3.566H86.54z"/>
	<path fill="#FFFFFF" d="M92.73,464.549v4.063H92.2v-0.766c-0.148,0.273-0.369,0.488-0.664,0.646
		c-0.276,0.146-0.58,0.218-0.911,0.218c-0.317,0-0.627-0.068-0.929-0.206c-0.322-0.146-0.608-0.364-0.86-0.657
		c-0.092-0.1-0.178-0.258-0.258-0.476c-0.097-0.271-0.145-0.543-0.145-0.816c0-0.246,0.052-0.503,0.156-0.769
		c0.087-0.228,0.176-0.383,0.269-0.465c0.285-0.313,0.584-0.538,0.896-0.679c0.269-0.123,0.554-0.185,0.856-0.185
		c0.172,0,0.332,0.017,0.48,0.051c0.149,0.033,0.295,0.088,0.438,0.163c0.3,0.152,0.523,0.369,0.671,0.649v-0.772H92.73z
		 M90.611,464.987c-0.445,0-0.828,0.157-1.146,0.47c-0.319,0.313-0.479,0.694-0.479,1.142c0,0.438,0.164,0.811,0.492,1.119
		c0.328,0.309,0.71,0.463,1.148,0.463c0.421,0,0.789-0.156,1.103-0.468c0.314-0.313,0.472-0.682,0.472-1.107
		c0-0.447-0.152-0.829-0.456-1.145S91.063,464.987,90.611,464.987z M89.566,463.264h0.497c0.058,0.124,0.155,0.216,0.292,0.277
		c0.137,0.063,0.28,0.093,0.43,0.093c0.15,0,0.291-0.032,0.424-0.096c0.133-0.064,0.226-0.155,0.279-0.274h0.515
		c-0.07,0.273-0.222,0.485-0.457,0.635c-0.215,0.134-0.469,0.2-0.762,0.2c-0.295,0-0.549-0.066-0.762-0.2
		C89.788,463.749,89.636,463.537,89.566,463.264z"/>
	<path fill="#FFFFFF" d="M93.666,468.612v-4.063h0.519v0.587c0.16-0.222,0.344-0.391,0.554-0.506
		c0.209-0.114,0.447-0.172,0.713-0.172c0.276,0,0.539,0.058,0.789,0.174s0.467,0.284,0.651,0.504
		c0.143,0.177,0.243,0.384,0.301,0.621c0.021,0.094,0.039,0.2,0.051,0.319c0.012,0.118,0.018,0.25,0.018,0.396v2.141h-0.548v-2.141
		c0-0.216-0.013-0.384-0.04-0.505c-0.036-0.172-0.103-0.325-0.2-0.461c-0.118-0.166-0.27-0.295-0.455-0.384
		c-0.185-0.09-0.383-0.135-0.593-0.135c-0.191,0-0.378,0.044-0.561,0.133c-0.183,0.088-0.327,0.21-0.434,0.364
		c-0.095,0.123-0.156,0.281-0.185,0.472c-0.01,0.061-0.017,0.131-0.022,0.211c-0.005,0.079-0.007,0.181-0.007,0.305v2.141H93.666z"
		/>
	<path fill="#FFFFFF" d="M102.262,464.549v3.483c0,0.369-0.022,0.638-0.065,0.805c-0.063,0.24-0.2,0.475-0.41,0.704
		c-0.193,0.211-0.434,0.373-0.72,0.488s-0.581,0.172-0.884,0.172c-0.457,0-0.875-0.138-1.255-0.413
		c-0.38-0.276-0.625-0.635-0.736-1.078h0.533c0.165,0.31,0.368,0.546,0.61,0.708c0.256,0.172,0.554,0.258,0.893,0.258
		c0.269,0,0.521-0.06,0.758-0.178c0.251-0.126,0.442-0.303,0.573-0.53c0.08-0.143,0.132-0.294,0.156-0.453
		c0.015-0.095,0.022-0.256,0.022-0.482v-0.222c-0.124,0.288-0.341,0.514-0.653,0.679c-0.288,0.147-0.6,0.221-0.936,0.221
		c-0.269,0-0.529-0.052-0.782-0.155c-0.253-0.104-0.481-0.251-0.684-0.439c-0.21-0.201-0.37-0.432-0.477-0.691
		c-0.108-0.26-0.162-0.537-0.162-0.833c0-0.133,0.011-0.263,0.033-0.39s0.057-0.257,0.105-0.39c0.075-0.213,0.159-0.372,0.25-0.476
		c0.249-0.317,0.524-0.548,0.824-0.693c0.259-0.123,0.545-0.185,0.86-0.185c0.336,0,0.648,0.072,0.937,0.218
		c0.307,0.157,0.536,0.377,0.686,0.66v-0.787H102.262z M100.1,464.987c-0.421,0-0.777,0.153-1.069,0.459
		c-0.292,0.307-0.437,0.671-0.437,1.094c0,0.458,0.145,0.846,0.435,1.163c0.291,0.318,0.666,0.478,1.125,0.478
		c0.215,0,0.416-0.036,0.603-0.109c0.186-0.072,0.356-0.189,0.511-0.352c0.136-0.143,0.246-0.317,0.332-0.524
		s0.129-0.41,0.129-0.611c0-0.452-0.157-0.831-0.47-1.138C100.945,465.141,100.559,464.987,100.1,464.987z"/>
	<path fill="#FFFFFF" d="M109.41,463.122v5.49h-0.522v-0.744c-0.198,0.281-0.433,0.491-0.704,0.632
		c-0.271,0.14-0.583,0.21-0.937,0.21c-0.302,0-0.589-0.065-0.86-0.195c-0.271-0.131-0.551-0.347-0.842-0.646
		c-0.106-0.092-0.206-0.255-0.297-0.489c-0.099-0.264-0.149-0.533-0.149-0.81c0-0.598,0.213-1.099,0.641-1.504
		c0.427-0.405,0.941-0.607,1.544-0.607c0.317,0,0.613,0.066,0.889,0.199c0.295,0.143,0.524,0.341,0.686,0.595v-2.13H109.41z
		 M108.873,466.563c0-0.445-0.159-0.819-0.476-1.121c-0.317-0.303-0.7-0.454-1.15-0.454c-0.435,0-0.81,0.153-1.125,0.461
		s-0.472,0.679-0.472,1.114c0,0.444,0.156,0.826,0.47,1.143c0.313,0.317,0.693,0.476,1.141,0.476c0.445,0,0.825-0.158,1.139-0.476
		C108.715,467.389,108.873,467.007,108.873,466.563z"/>
	<path fill="#FFFFFF" d="M112.324,464.458c0.561,0,1.053,0.207,1.475,0.622c0.422,0.415,0.633,0.906,0.633,1.475
		c0,0.586-0.206,1.091-0.617,1.517s-0.908,0.639-1.491,0.639s-1.084-0.205-1.504-0.616c-0.419-0.411-0.629-0.907-0.629-1.488
		c0-0.59,0.207-1.096,0.621-1.517S111.729,464.458,112.324,464.458z M112.324,464.987c-0.445,0-0.82,0.158-1.125,0.474
		s-0.457,0.697-0.457,1.145c0,0.436,0.155,0.807,0.466,1.114c0.311,0.308,0.683,0.461,1.116,0.461c0.447,0,0.819-0.159,1.116-0.478
		c0.296-0.317,0.444-0.7,0.444-1.148c0-0.447-0.158-0.822-0.475-1.125c-0.143-0.135-0.311-0.243-0.503-0.322
		C112.713,465.027,112.52,464.987,112.324,464.987z"/>
	<path fill="#FFFFFF" d="M119.352,464.549v4.063h-0.53v-0.766c-0.148,0.273-0.369,0.488-0.664,0.646
		c-0.276,0.146-0.58,0.218-0.911,0.218c-0.317,0-0.627-0.068-0.929-0.206c-0.322-0.146-0.608-0.364-0.86-0.657
		c-0.092-0.1-0.178-0.258-0.258-0.476c-0.097-0.271-0.145-0.543-0.145-0.816c0-0.246,0.052-0.503,0.156-0.769
		c0.087-0.228,0.176-0.383,0.269-0.465c0.285-0.313,0.584-0.538,0.896-0.679c0.269-0.123,0.554-0.185,0.856-0.185
		c0.172,0,0.332,0.017,0.48,0.051c0.149,0.033,0.295,0.088,0.438,0.163c0.3,0.152,0.523,0.369,0.671,0.649v-0.772H119.352z
		 M117.233,464.987c-0.445,0-0.828,0.157-1.146,0.47c-0.319,0.313-0.479,0.694-0.479,1.142c0,0.438,0.164,0.811,0.492,1.119
		c0.328,0.309,0.71,0.463,1.148,0.463c0.421,0,0.789-0.156,1.103-0.468c0.314-0.313,0.472-0.682,0.472-1.107
		c0-0.447-0.152-0.829-0.456-1.145S117.685,464.987,117.233,464.987z"/>
	<path fill="#FFFFFF" d="M120.289,468.612v-4.063h0.519v0.587c0.16-0.222,0.344-0.391,0.554-0.506
		c0.209-0.114,0.447-0.172,0.713-0.172c0.276,0,0.539,0.058,0.789,0.174s0.467,0.284,0.651,0.504
		c0.143,0.177,0.243,0.384,0.301,0.621c0.021,0.094,0.039,0.2,0.051,0.319c0.012,0.118,0.018,0.25,0.018,0.396v2.141h-0.548v-2.141
		c0-0.216-0.013-0.384-0.04-0.505c-0.036-0.172-0.103-0.325-0.2-0.461c-0.118-0.166-0.27-0.295-0.455-0.384
		c-0.185-0.09-0.383-0.135-0.593-0.135c-0.191,0-0.378,0.044-0.561,0.133c-0.183,0.088-0.327,0.21-0.434,0.364
		c-0.095,0.123-0.156,0.281-0.185,0.472c-0.01,0.061-0.017,0.131-0.022,0.211c-0.005,0.079-0.007,0.181-0.007,0.305v2.141H120.289z"
		/>
	<path fill="#FFFFFF" d="M124.82,468.612v-5.49h0.551v2.014c0.114-0.217,0.284-0.385,0.51-0.502s0.468-0.176,0.724-0.176
		c0.264,0,0.516,0.053,0.756,0.159s0.452,0.262,0.633,0.465c0.16,0.188,0.273,0.405,0.341,0.649c0.053,0.208,0.08,0.455,0.08,0.74
		v2.141h-0.548v-2.141c0-0.218-0.013-0.387-0.04-0.508c-0.036-0.17-0.103-0.324-0.2-0.465c-0.114-0.162-0.265-0.288-0.455-0.377
		c-0.19-0.09-0.388-0.135-0.593-0.135c-0.191,0-0.377,0.044-0.557,0.133c-0.18,0.088-0.328,0.21-0.444,0.364
		c-0.087,0.119-0.147,0.276-0.182,0.472c-0.007,0.056-0.013,0.125-0.018,0.209c-0.005,0.083-0.007,0.186-0.007,0.307v2.141H124.82z"
		/>
	<path fill="#FFFFFF" d="M131.877,468.612v-3.566h-0.845v-0.497h0.845v-1.427h0.552v1.427h0.943v0.497h-0.943v3.566H131.877z"/>
	<path fill="#FFFFFF" d="M133.928,468.612v-5.49h0.551v2.014c0.114-0.217,0.284-0.385,0.51-0.502s0.468-0.176,0.724-0.176
		c0.264,0,0.516,0.053,0.756,0.159s0.452,0.262,0.633,0.465c0.16,0.188,0.273,0.405,0.341,0.649c0.053,0.208,0.08,0.455,0.08,0.74
		v2.141h-0.548v-2.141c0-0.218-0.013-0.387-0.04-0.508c-0.036-0.17-0.103-0.324-0.2-0.465c-0.114-0.162-0.265-0.288-0.455-0.377
		c-0.19-0.09-0.388-0.135-0.593-0.135c-0.191,0-0.377,0.044-0.557,0.133c-0.18,0.088-0.328,0.21-0.444,0.364
		c-0.087,0.119-0.147,0.276-0.182,0.472c-0.007,0.056-0.013,0.125-0.018,0.209c-0.005,0.083-0.007,0.186-0.007,0.307v2.141H133.928z
		"/>
	<path fill="#FFFFFF" d="M142.041,464.549v4.063h-0.519v-0.632c-0.126,0.247-0.313,0.434-0.559,0.56
		c-0.228,0.113-0.49,0.17-0.787,0.17c-0.273,0-0.518-0.053-0.733-0.159c-0.234-0.116-0.465-0.306-0.693-0.57
		c-0.106-0.113-0.185-0.293-0.236-0.54c-0.036-0.193-0.054-0.441-0.054-0.744v-2.147h0.551v2.147c0,0.247,0.015,0.432,0.043,0.556
		c0.029,0.123,0.074,0.236,0.134,0.341c0.109,0.188,0.256,0.334,0.443,0.436c0.186,0.102,0.393,0.152,0.621,0.152
		c0.201,0,0.386-0.042,0.555-0.125c0.169-0.084,0.315-0.208,0.439-0.372c0.092-0.128,0.158-0.285,0.2-0.472
		c0.031-0.157,0.047-0.329,0.047-0.516v-2.147H142.041z"/>
</g>
<g>
	<path fill="#FFFFFF" d="M29.548,478.124h0.621c0,0.322,0.111,0.598,0.333,0.826s0.498,0.343,0.828,0.343
		c0.335,0,0.618-0.108,0.851-0.325c0.232-0.218,0.349-0.491,0.349-0.82c0-0.158-0.035-0.31-0.105-0.454s-0.166-0.266-0.286-0.364
		s-0.264-0.181-0.433-0.247c-0.092-0.033-0.249-0.08-0.471-0.142c-0.133-0.033-0.24-0.063-0.322-0.088
		c-0.082-0.025-0.153-0.05-0.215-0.073c-0.194-0.074-0.355-0.167-0.482-0.279c-0.153-0.131-0.273-0.29-0.358-0.479
		c-0.085-0.188-0.128-0.39-0.128-0.602c0-0.454,0.16-0.829,0.479-1.122c0.319-0.294,0.709-0.441,1.168-0.441
		c0.445,0,0.821,0.151,1.13,0.452c0.309,0.302,0.464,0.675,0.464,1.119h-0.605c0-0.294-0.102-0.536-0.305-0.728
		c-0.203-0.192-0.454-0.288-0.753-0.288c-0.276,0-0.511,0.1-0.705,0.299c-0.194,0.199-0.291,0.438-0.291,0.717
		c0,0.215,0.056,0.394,0.168,0.536c0.092,0.115,0.235,0.216,0.429,0.303c0.059,0.025,0.133,0.054,0.224,0.083
		s0.199,0.062,0.324,0.098c0.325,0.092,0.519,0.15,0.583,0.176c0.107,0.041,0.203,0.087,0.288,0.137
		c0.084,0.05,0.166,0.11,0.245,0.182c0.166,0.143,0.297,0.324,0.395,0.544s0.146,0.443,0.146,0.671c0,0.47-0.175,0.87-0.525,1.201
		s-0.764,0.496-1.241,0.496c-0.501,0-0.924-0.161-1.269-0.482C29.725,479.04,29.548,478.625,29.548,478.124z"/>
	<path fill="#FFFFFF" d="M38.15,475.457v4.292h-0.559v-0.809c-0.156,0.289-0.39,0.517-0.702,0.683
		c-0.291,0.152-0.612,0.229-0.961,0.229c-0.335,0-0.662-0.073-0.981-0.219c-0.34-0.153-0.643-0.384-0.908-0.693
		c-0.097-0.104-0.188-0.271-0.272-0.502c-0.103-0.286-0.153-0.573-0.153-0.862c0-0.261,0.055-0.531,0.165-0.813
		c0.092-0.239,0.187-0.403,0.284-0.49c0.301-0.329,0.617-0.568,0.946-0.717c0.284-0.13,0.585-0.195,0.904-0.195
		c0.182,0,0.351,0.019,0.508,0.054c0.157,0.036,0.311,0.094,0.462,0.173c0.316,0.161,0.553,0.39,0.709,0.686v-0.816H38.15z
		 M35.913,475.921c-0.47,0-0.874,0.166-1.21,0.496c-0.337,0.331-0.506,0.732-0.506,1.205c0,0.463,0.173,0.856,0.519,1.183
		c0.346,0.325,0.75,0.488,1.213,0.488c0.444,0,0.833-0.165,1.165-0.494c0.332-0.33,0.499-0.719,0.499-1.169
		c0-0.473-0.161-0.875-0.481-1.209C36.79,476.088,36.391,475.921,35.913,475.921z"/>
	<path fill="#FFFFFF" d="M42.921,475.457v4.292h-0.548v-0.667c-0.133,0.261-0.33,0.458-0.59,0.591
		c-0.24,0.119-0.517,0.18-0.832,0.18c-0.289,0-0.546-0.057-0.774-0.169c-0.248-0.122-0.492-0.323-0.732-0.602
		c-0.112-0.12-0.195-0.311-0.249-0.57c-0.038-0.205-0.058-0.467-0.058-0.786v-2.269h0.583v2.269c0,0.261,0.016,0.456,0.046,0.587
		c0.031,0.13,0.078,0.25,0.142,0.359c0.115,0.199,0.271,0.353,0.467,0.46s0.415,0.161,0.655,0.161c0.212,0,0.407-0.044,0.586-0.132
		c0.179-0.089,0.333-0.22,0.463-0.393c0.097-0.136,0.167-0.302,0.211-0.499c0.033-0.166,0.05-0.347,0.05-0.544v-2.269H42.921z"/>
	<path fill="#FFFFFF" d="M46.083,479.749v-4.292h0.548v0.556c0.102-0.212,0.256-0.373,0.461-0.484s0.434-0.167,0.684-0.167
		c0.284,0,0.541,0.055,0.772,0.163c0.231,0.108,0.438,0.271,0.619,0.488l0.111,0.165l0.084-0.165
		c0.146-0.199,0.343-0.357,0.594-0.475c0.123-0.057,0.249-0.1,0.379-0.131c0.13-0.03,0.258-0.046,0.383-0.046
		c0.455,0,0.9,0.218,1.337,0.651c0.156,0.156,0.266,0.351,0.329,0.583c0.046,0.174,0.069,0.408,0.069,0.705v2.448h-0.583v-2.395
		c0-0.133-0.004-0.245-0.012-0.336c-0.007-0.09-0.021-0.172-0.042-0.243c-0.036-0.135-0.088-0.25-0.157-0.345
		c-0.24-0.34-0.564-0.51-0.973-0.51c-0.184,0-0.361,0.043-0.533,0.129c-0.171,0.085-0.31,0.205-0.417,0.357
		c-0.082,0.115-0.136,0.267-0.161,0.452c-0.013,0.107-0.019,0.272-0.019,0.495v2.395h-0.579v-2.456c0-0.202-0.01-0.349-0.031-0.44
		c-0.028-0.148-0.087-0.286-0.176-0.414c-0.107-0.156-0.248-0.281-0.421-0.376c-0.174-0.094-0.354-0.142-0.54-0.142
		c-0.187,0-0.362,0.038-0.527,0.115c-0.165,0.076-0.304,0.189-0.416,0.337c-0.082,0.118-0.136,0.251-0.163,0.398
		c-0.027,0.148-0.041,0.322-0.041,0.521v2.456H46.083z"/>
	<path fill="#FFFFFF" d="M55.532,475.361c0.593,0,1.112,0.22,1.558,0.657c0.446,0.438,0.669,0.958,0.669,1.558
		c0,0.618-0.217,1.152-0.651,1.602c-0.435,0.45-0.959,0.675-1.575,0.675s-1.145-0.217-1.588-0.651
		c-0.443-0.435-0.665-0.958-0.665-1.571c0-0.623,0.218-1.157,0.655-1.602C54.371,475.584,54.903,475.361,55.532,475.361z
		 M55.532,475.921c-0.47,0-0.866,0.167-1.188,0.5c-0.322,0.334-0.482,0.736-0.482,1.209c0,0.46,0.164,0.853,0.492,1.177
		s0.721,0.486,1.178,0.486c0.473,0,0.865-0.168,1.178-0.504s0.47-0.74,0.47-1.213s-0.167-0.868-0.502-1.188
		c-0.151-0.144-0.328-0.257-0.531-0.341C55.944,475.963,55.739,475.921,55.532,475.921z M54.133,474.94l1.138-0.989h0.502
		l1.138,0.989h-0.705l-0.682-0.575l-0.682,0.575H54.133z M55.248,481.263v-0.988h0.583v0.988H55.248z"/>
	<path fill="#FFFFFF" d="M59.076,479.749v-3.767h-0.893v-0.525h0.893v-1.506h0.582v1.506h0.997v0.525h-0.997v3.767H59.076z"/>
	<path fill="#FFFFFF" d="M63.414,479.749v-4.292h0.548v0.621c0.168-0.235,0.363-0.413,0.584-0.534
		c0.221-0.122,0.472-0.183,0.753-0.183c0.292,0,0.569,0.062,0.833,0.185c0.265,0.122,0.494,0.3,0.688,0.532
		c0.15,0.187,0.257,0.405,0.318,0.655c0.023,0.1,0.041,0.212,0.054,0.337s0.019,0.265,0.019,0.418v2.261h-0.579v-2.261
		c0-0.228-0.014-0.405-0.042-0.532c-0.039-0.182-0.109-0.344-0.211-0.487c-0.125-0.176-0.285-0.312-0.481-0.406
		c-0.195-0.094-0.404-0.142-0.626-0.142c-0.202,0-0.399,0.047-0.592,0.14c-0.193,0.094-0.346,0.222-0.458,0.386
		c-0.1,0.13-0.165,0.296-0.195,0.498c-0.01,0.063-0.018,0.138-0.023,0.222c-0.005,0.085-0.008,0.192-0.008,0.322v2.261H63.414z"/>
	<path fill="#FFFFFF" d="M72.571,475.457v4.292h-0.559v-0.809c-0.156,0.289-0.39,0.517-0.702,0.683
		c-0.291,0.152-0.612,0.229-0.961,0.229c-0.335,0-0.662-0.073-0.981-0.219c-0.34-0.153-0.643-0.384-0.908-0.693
		c-0.097-0.104-0.188-0.271-0.272-0.502c-0.103-0.286-0.153-0.573-0.153-0.862c0-0.261,0.055-0.531,0.165-0.813
		c0.092-0.239,0.187-0.403,0.284-0.49c0.301-0.329,0.617-0.568,0.946-0.717c0.284-0.13,0.585-0.195,0.904-0.195
		c0.182,0,0.351,0.019,0.508,0.054c0.157,0.036,0.311,0.094,0.462,0.173c0.316,0.161,0.553,0.39,0.709,0.686v-0.816H72.571z
		 M70.333,475.921c-0.47,0-0.874,0.166-1.21,0.496c-0.337,0.331-0.506,0.732-0.506,1.205c0,0.463,0.173,0.856,0.519,1.183
		c0.346,0.325,0.75,0.488,1.213,0.488c0.444,0,0.833-0.165,1.165-0.494c0.332-0.33,0.499-0.719,0.499-1.169
		c0-0.473-0.161-0.875-0.481-1.209C71.21,476.088,70.812,475.921,70.333,475.921z M69.23,474.101h0.525
		c0.062,0.131,0.165,0.229,0.309,0.294c0.145,0.064,0.296,0.098,0.454,0.098s0.308-0.034,0.448-0.102
		c0.141-0.068,0.239-0.164,0.295-0.29h0.544c-0.074,0.289-0.235,0.513-0.483,0.671c-0.228,0.141-0.496,0.211-0.805,0.211
		c-0.312,0-0.58-0.07-0.805-0.211C69.465,474.613,69.304,474.39,69.23,474.101z"/>
	<path fill="#FFFFFF" d="M73.56,479.749v-4.292h0.548v0.556c0.102-0.212,0.256-0.373,0.461-0.484s0.434-0.167,0.684-0.167
		c0.284,0,0.541,0.055,0.772,0.163c0.231,0.108,0.438,0.271,0.619,0.488l0.111,0.165l0.084-0.165
		c0.146-0.199,0.343-0.357,0.594-0.475c0.123-0.057,0.249-0.1,0.379-0.131c0.13-0.03,0.258-0.046,0.383-0.046
		c0.455,0,0.9,0.218,1.337,0.651c0.156,0.156,0.266,0.351,0.329,0.583c0.046,0.174,0.069,0.408,0.069,0.705v2.448H79.35v-2.395
		c0-0.133-0.004-0.245-0.012-0.336c-0.007-0.09-0.021-0.172-0.042-0.243c-0.036-0.135-0.088-0.25-0.157-0.345
		c-0.24-0.34-0.564-0.51-0.973-0.51c-0.184,0-0.361,0.043-0.533,0.129c-0.171,0.085-0.31,0.205-0.417,0.357
		c-0.082,0.115-0.136,0.267-0.161,0.452c-0.013,0.107-0.019,0.272-0.019,0.495v2.395h-0.579v-2.456c0-0.202-0.01-0.349-0.031-0.44
		c-0.028-0.148-0.087-0.286-0.176-0.414c-0.107-0.156-0.248-0.281-0.421-0.376c-0.174-0.094-0.354-0.142-0.54-0.142
		c-0.187,0-0.362,0.038-0.527,0.115c-0.165,0.076-0.304,0.189-0.416,0.337c-0.082,0.118-0.136,0.251-0.163,0.398
		c-0.027,0.148-0.041,0.322-0.041,0.521v2.456H73.56z"/>
	<path fill="#FFFFFF" d="M82.741,478.484h0.579c0,0.225,0.075,0.416,0.224,0.573s0.334,0.235,0.554,0.235
		c0.209,0,0.388-0.065,0.535-0.197s0.22-0.304,0.22-0.516c0-0.228-0.085-0.414-0.256-0.56c-0.123-0.1-0.306-0.187-0.548-0.26
		c-0.104-0.031-0.198-0.061-0.281-0.089c-0.083-0.027-0.136-0.047-0.159-0.058c-0.143-0.061-0.266-0.14-0.368-0.235
		c-0.103-0.096-0.187-0.218-0.253-0.366c-0.059-0.147-0.088-0.297-0.088-0.448c0-0.345,0.12-0.631,0.36-0.86
		c0.24-0.229,0.533-0.343,0.877-0.343c0.319,0,0.597,0.115,0.833,0.345c0.236,0.23,0.354,0.502,0.354,0.816h-0.583
		c0-0.184-0.063-0.33-0.188-0.438s-0.285-0.163-0.479-0.163c-0.158,0-0.297,0.059-0.417,0.175s-0.18,0.256-0.18,0.419
		c0,0.21,0.078,0.373,0.234,0.491c0.087,0.066,0.26,0.142,0.521,0.226c0.388,0.12,0.668,0.257,0.839,0.41
		c0.117,0.103,0.207,0.224,0.268,0.364s0.092,0.3,0.092,0.479c0,0.401-0.129,0.729-0.389,0.985
		c-0.259,0.255-0.592,0.383-0.998,0.383c-0.36,0-0.667-0.135-0.922-0.404C82.868,479.179,82.741,478.857,82.741,478.484z"/>
	<path fill="#FFFFFF" d="M89.922,476.078v3.671h-0.548v-0.667c-0.133,0.261-0.33,0.458-0.59,0.591
		c-0.24,0.119-0.517,0.18-0.832,0.18c-0.289,0-0.546-0.057-0.774-0.169c-0.248-0.122-0.492-0.323-0.732-0.602
		c-0.112-0.12-0.195-0.311-0.249-0.57c-0.038-0.205-0.058-0.467-0.058-0.786v-2.269h0.583v2.269c0,0.261,0.016,0.456,0.046,0.587
		c0.031,0.13,0.078,0.25,0.142,0.359c0.115,0.199,0.271,0.353,0.467,0.46s0.415,0.161,0.655,0.161c0.212,0,0.407-0.044,0.586-0.132
		c0.179-0.089,0.333-0.22,0.463-0.393c0.097-0.136,0.167-0.302,0.211-0.499c0.033-0.166,0.05-0.347,0.05-0.544v-2.269h0.36v-0.371
		h0.579v0.992H89.922z M87.895,474.158h-0.417v-0.054l0.012-0.11c0.01-0.044,0.024-0.082,0.042-0.115
		c0.031-0.071,0.078-0.144,0.142-0.215c0.054-0.054,0.128-0.103,0.222-0.146c0.1-0.033,0.188-0.05,0.265-0.05
		c0.179,0,0.33,0.062,0.452,0.186s0.184,0.276,0.184,0.458c0,0.146-0.076,0.284-0.226,0.414c-0.151,0.13-0.226,0.267-0.226,0.41
		h-0.414c0-0.11,0.04-0.229,0.119-0.356l0.276-0.322c0.039-0.043,0.058-0.1,0.058-0.168c0-0.069-0.022-0.126-0.067-0.171
		c-0.045-0.045-0.099-0.067-0.163-0.067c-0.071,0-0.129,0.021-0.172,0.062C87.923,473.964,87.895,474.046,87.895,474.158z"/>
	<path fill="#FFFFFF" d="M97.471,473.951v5.798h-0.552v-0.785c-0.209,0.296-0.458,0.519-0.744,0.666
		c-0.286,0.148-0.616,0.223-0.988,0.223c-0.319,0-0.622-0.069-0.908-0.207s-0.583-0.365-0.889-0.682
		c-0.112-0.098-0.217-0.27-0.314-0.518c-0.105-0.278-0.157-0.563-0.157-0.854c0-0.631,0.226-1.16,0.676-1.588
		c0.451-0.429,0.994-0.643,1.63-0.643c0.334,0,0.647,0.07,0.939,0.211c0.312,0.15,0.553,0.36,0.724,0.629v-2.25H97.471z
		 M96.903,477.584c0-0.47-0.167-0.864-0.502-1.184c-0.334-0.319-0.739-0.479-1.214-0.479c-0.46,0-0.856,0.162-1.188,0.486
		c-0.332,0.325-0.498,0.717-0.498,1.177c0,0.47,0.165,0.872,0.496,1.207c0.331,0.335,0.732,0.502,1.205,0.502
		c0.47,0,0.871-0.167,1.203-0.502S96.903,478.054,96.903,477.584z"/>
	<path fill="#FFFFFF" d="M102.241,475.457v4.292h-0.548v-0.667c-0.133,0.261-0.33,0.458-0.59,0.591
		c-0.24,0.119-0.517,0.18-0.832,0.18c-0.289,0-0.546-0.057-0.774-0.169c-0.248-0.122-0.492-0.323-0.732-0.602
		c-0.112-0.12-0.195-0.311-0.249-0.57c-0.038-0.205-0.058-0.467-0.058-0.786v-2.269h0.583v2.269c0,0.261,0.016,0.456,0.046,0.587
		c0.031,0.13,0.078,0.25,0.142,0.359c0.115,0.199,0.271,0.353,0.467,0.46s0.415,0.161,0.655,0.161c0.212,0,0.407-0.044,0.586-0.132
		c0.179-0.089,0.333-0.22,0.463-0.393c0.097-0.136,0.167-0.302,0.211-0.499c0.033-0.166,0.05-0.347,0.05-0.544v-2.269H102.241z
		 M100,481.263v-0.988h0.583v0.988H100z"/>
	<path fill="#FFFFFF" d="M103.229,479.749v-4.292h0.548v0.621c0.168-0.235,0.363-0.413,0.584-0.534
		c0.221-0.122,0.472-0.183,0.753-0.183c0.292,0,0.569,0.062,0.833,0.185c0.265,0.122,0.494,0.3,0.688,0.532
		c0.15,0.187,0.257,0.405,0.318,0.655c0.023,0.1,0.041,0.212,0.054,0.337s0.019,0.265,0.019,0.418v2.261h-0.579v-2.261
		c0-0.228-0.014-0.405-0.042-0.532c-0.039-0.182-0.109-0.344-0.211-0.487c-0.125-0.176-0.285-0.312-0.481-0.406
		c-0.195-0.094-0.404-0.142-0.626-0.142c-0.202,0-0.399,0.047-0.592,0.14c-0.193,0.094-0.346,0.222-0.458,0.386
		c-0.1,0.13-0.165,0.296-0.195,0.498c-0.01,0.063-0.018,0.138-0.023,0.222c-0.005,0.085-0.008,0.192-0.008,0.322v2.261H103.229z"/>
	<path fill="#FFFFFF" d="M112.307,475.457v3.679c0,0.391-0.023,0.675-0.069,0.851c-0.066,0.253-0.21,0.501-0.433,0.743
		c-0.204,0.223-0.458,0.395-0.76,0.516s-0.614,0.183-0.933,0.183c-0.483,0-0.925-0.146-1.326-0.438
		c-0.401-0.291-0.661-0.67-0.778-1.138h0.563c0.174,0.327,0.388,0.576,0.644,0.747c0.271,0.182,0.585,0.272,0.942,0.272
		c0.284,0,0.55-0.063,0.801-0.188c0.266-0.133,0.468-0.319,0.605-0.559c0.084-0.151,0.139-0.311,0.165-0.479
		c0.015-0.1,0.023-0.27,0.023-0.51v-0.233c-0.13,0.304-0.36,0.543-0.69,0.717c-0.304,0.155-0.633,0.233-0.989,0.233
		c-0.283,0-0.559-0.055-0.826-0.165c-0.267-0.109-0.507-0.265-0.722-0.464c-0.222-0.212-0.39-0.455-0.504-0.729
		s-0.17-0.567-0.17-0.88c0-0.14,0.011-0.277,0.035-0.411c0.023-0.135,0.06-0.271,0.111-0.412c0.079-0.225,0.167-0.393,0.265-0.502
		c0.263-0.335,0.553-0.579,0.87-0.732c0.273-0.13,0.576-0.195,0.908-0.195c0.355,0,0.685,0.077,0.988,0.23
		c0.325,0.166,0.566,0.398,0.725,0.697v-0.832H112.307z M110.023,475.921c-0.444,0-0.82,0.162-1.128,0.485
		c-0.308,0.322-0.461,0.708-0.461,1.155c0,0.482,0.153,0.892,0.459,1.228c0.307,0.336,0.703,0.504,1.188,0.504
		c0.228,0,0.439-0.038,0.636-0.115c0.197-0.076,0.376-0.2,0.54-0.371c0.143-0.151,0.26-0.336,0.351-0.554
		c0.091-0.219,0.136-0.434,0.136-0.646c0-0.478-0.166-0.879-0.496-1.201C110.917,476.083,110.508,475.921,110.023,475.921z"/>
	<path fill="#FFFFFF" d="M119.093,478.492h0.644c-0.191,0.422-0.472,0.754-0.841,0.996c-0.369,0.243-0.785,0.364-1.247,0.364
		c-0.644,0-1.196-0.213-1.656-0.64c-0.459-0.427-0.689-0.965-0.689-1.613c0-0.623,0.23-1.152,0.691-1.587
		c0.461-0.434,1.005-0.651,1.63-0.651c0.465,0,0.894,0.126,1.286,0.378c0.392,0.251,0.67,0.592,0.833,1.021h-0.651
		c-0.146-0.252-0.352-0.455-0.619-0.608c-0.267-0.153-0.547-0.23-0.841-0.23c-0.483,0-0.895,0.159-1.236,0.478
		c-0.341,0.317-0.511,0.716-0.511,1.193s0.163,0.881,0.49,1.209s0.73,0.492,1.211,0.492c0.327,0,0.61-0.065,0.851-0.195
		S118.896,478.766,119.093,478.492z"/>
	<path fill="#FFFFFF" d="M124.917,475.457v4.292h-0.559v-0.809c-0.156,0.289-0.39,0.517-0.702,0.683
		c-0.291,0.152-0.612,0.229-0.961,0.229c-0.335,0-0.662-0.073-0.981-0.219c-0.34-0.153-0.643-0.384-0.908-0.693
		c-0.097-0.104-0.188-0.271-0.272-0.502c-0.103-0.286-0.153-0.573-0.153-0.862c0-0.261,0.055-0.531,0.165-0.813
		c0.092-0.239,0.187-0.403,0.284-0.49c0.301-0.329,0.617-0.568,0.946-0.717c0.284-0.13,0.585-0.195,0.904-0.195
		c0.182,0,0.351,0.019,0.508,0.054c0.157,0.036,0.311,0.094,0.462,0.173c0.316,0.161,0.553,0.39,0.709,0.686v-0.816H124.917z
		 M122.68,475.921c-0.47,0-0.874,0.166-1.21,0.496c-0.337,0.331-0.506,0.732-0.506,1.205c0,0.463,0.173,0.856,0.519,1.183
		c0.346,0.325,0.75,0.488,1.213,0.488c0.444,0,0.833-0.165,1.165-0.494c0.332-0.33,0.499-0.719,0.499-1.169
		c0-0.473-0.161-0.875-0.481-1.209C123.557,476.088,123.158,475.921,122.68,475.921z M123.726,474.104l-1.544,0.836l-0.26-0.456
		l1.556-0.847L123.726,474.104z"/>
	<path fill="#FFFFFF" d="M129.531,478.492h0.644c-0.191,0.422-0.472,0.754-0.841,0.996c-0.369,0.243-0.785,0.364-1.247,0.364
		c-0.644,0-1.196-0.213-1.656-0.64c-0.459-0.427-0.689-0.965-0.689-1.613c0-0.623,0.23-1.152,0.691-1.587
		c0.461-0.434,1.005-0.651,1.63-0.651c0.465,0,0.894,0.126,1.286,0.378c0.392,0.251,0.67,0.592,0.833,1.021h-0.651
		c-0.146-0.252-0.352-0.455-0.619-0.608c-0.267-0.153-0.547-0.23-0.841-0.23c-0.483,0-0.895,0.159-1.236,0.478
		c-0.341,0.317-0.511,0.716-0.511,1.193s0.163,0.881,0.49,1.209s0.73,0.492,1.211,0.492c0.327,0,0.61-0.065,0.851-0.195
		S129.334,478.766,129.531,478.492z"/>
	<path fill="#FFFFFF" d="M29.87,489.166v-5.798h0.583v4.069l1.97-2.563h0.743l-1.663,2.15l1.774,2.142h-0.748l-1.395-1.693
		l-0.682,0.877v0.816H29.87z"/>
	<path fill="#FFFFFF" d="M33.809,489.166v-5.798h0.583v2.127c0.12-0.229,0.299-0.406,0.539-0.53
		c0.239-0.124,0.494-0.187,0.764-0.187c0.278,0,0.545,0.057,0.799,0.169c0.254,0.112,0.478,0.275,0.669,0.49
		c0.168,0.199,0.289,0.428,0.36,0.687c0.056,0.22,0.084,0.479,0.084,0.781v2.261h-0.579v-2.261c0-0.229-0.014-0.409-0.042-0.536
		c-0.039-0.179-0.109-0.343-0.211-0.491c-0.12-0.171-0.28-0.304-0.481-0.398c-0.2-0.094-0.409-0.142-0.626-0.142
		c-0.202,0-0.398,0.047-0.588,0.14c-0.19,0.094-0.347,0.222-0.47,0.386c-0.092,0.125-0.156,0.291-0.191,0.498
		c-0.008,0.059-0.014,0.132-0.019,0.22c-0.005,0.089-0.008,0.196-0.008,0.324v2.261H33.809z"/>
	<path fill="#FFFFFF" d="M42.967,484.874v4.292h-0.559v-0.809c-0.156,0.289-0.39,0.517-0.702,0.683
		c-0.291,0.152-0.612,0.229-0.961,0.229c-0.335,0-0.662-0.073-0.981-0.219c-0.34-0.153-0.643-0.384-0.908-0.693
		c-0.097-0.104-0.188-0.271-0.272-0.502c-0.103-0.286-0.153-0.573-0.153-0.862c0-0.261,0.055-0.531,0.165-0.813
		c0.092-0.239,0.187-0.403,0.284-0.49c0.301-0.329,0.617-0.568,0.946-0.717c0.284-0.13,0.585-0.195,0.904-0.195
		c0.182,0,0.351,0.019,0.508,0.054c0.157,0.036,0.311,0.094,0.462,0.173c0.316,0.161,0.553,0.39,0.709,0.686v-0.816H42.967z
		 M40.729,485.338c-0.47,0-0.874,0.166-1.21,0.496c-0.337,0.331-0.506,0.732-0.506,1.205c0,0.463,0.173,0.856,0.519,1.183
		c0.346,0.325,0.75,0.488,1.213,0.488c0.444,0,0.833-0.165,1.165-0.494c0.332-0.33,0.499-0.719,0.499-1.169
		c0-0.473-0.161-0.875-0.481-1.209C41.606,485.505,41.208,485.338,40.729,485.338z M41.776,483.521l-1.544,0.836l-0.26-0.456
		l1.556-0.847L41.776,483.521z"/>
	<path fill="#FFFFFF" d="M47.581,487.909h0.644c-0.191,0.422-0.472,0.754-0.841,0.996c-0.369,0.243-0.785,0.364-1.247,0.364
		c-0.644,0-1.196-0.213-1.656-0.64c-0.459-0.427-0.689-0.965-0.689-1.613c0-0.623,0.23-1.152,0.691-1.587
		c0.461-0.434,1.005-0.651,1.63-0.651c0.465,0,0.894,0.126,1.286,0.378c0.392,0.251,0.67,0.592,0.833,1.021h-0.651
		c-0.146-0.252-0.352-0.455-0.619-0.608c-0.267-0.153-0.547-0.23-0.841-0.23c-0.483,0-0.895,0.159-1.236,0.478
		c-0.341,0.317-0.511,0.716-0.511,1.193s0.163,0.881,0.49,1.209s0.73,0.492,1.211,0.492c0.327,0,0.61-0.065,0.851-0.195
		S47.384,488.183,47.581,487.909z"/>
	<path fill="#FFFFFF" d="M49.033,489.166v-5.798h0.583v2.127c0.12-0.229,0.299-0.406,0.539-0.53
		c0.239-0.124,0.494-0.187,0.764-0.187c0.278,0,0.545,0.057,0.799,0.169c0.254,0.112,0.478,0.275,0.669,0.49
		c0.168,0.199,0.289,0.428,0.36,0.687c0.056,0.22,0.084,0.479,0.084,0.781v2.261h-0.579v-2.261c0-0.229-0.014-0.409-0.042-0.536
		c-0.039-0.179-0.109-0.343-0.211-0.491c-0.12-0.171-0.28-0.304-0.481-0.398c-0.2-0.094-0.409-0.142-0.626-0.142
		c-0.202,0-0.398,0.047-0.588,0.14c-0.19,0.094-0.347,0.222-0.47,0.386c-0.092,0.125-0.156,0.291-0.191,0.498
		c-0.008,0.059-0.014,0.132-0.019,0.22c-0.005,0.089-0.008,0.196-0.008,0.324v2.261H49.033z"/>
	<path fill="#FFFFFF" d="M55.991,489.166v-5.798h0.583v2.127c0.12-0.229,0.299-0.406,0.539-0.53
		c0.239-0.124,0.494-0.187,0.764-0.187c0.278,0,0.545,0.057,0.799,0.169c0.254,0.112,0.478,0.275,0.669,0.49
		c0.168,0.199,0.289,0.428,0.36,0.687c0.056,0.22,0.084,0.479,0.084,0.781v2.261H59.21v-2.261c0-0.229-0.014-0.409-0.042-0.536
		c-0.039-0.179-0.109-0.343-0.211-0.491c-0.12-0.171-0.28-0.304-0.481-0.398c-0.2-0.094-0.409-0.142-0.626-0.142
		c-0.202,0-0.398,0.047-0.588,0.14c-0.19,0.094-0.347,0.222-0.47,0.386c-0.092,0.125-0.156,0.291-0.191,0.498
		c-0.008,0.059-0.014,0.132-0.019,0.22c-0.005,0.089-0.008,0.196-0.008,0.324v2.261H55.991z"/>
	<path fill="#FFFFFF" d="M65.149,484.874v4.292H64.59v-0.809c-0.156,0.289-0.39,0.517-0.702,0.683
		c-0.291,0.152-0.612,0.229-0.961,0.229c-0.335,0-0.662-0.073-0.981-0.219c-0.34-0.153-0.643-0.384-0.908-0.693
		c-0.097-0.104-0.188-0.271-0.272-0.502c-0.103-0.286-0.153-0.573-0.153-0.862c0-0.261,0.055-0.531,0.165-0.813
		c0.092-0.239,0.187-0.403,0.284-0.49c0.301-0.329,0.617-0.568,0.946-0.717c0.284-0.13,0.585-0.195,0.904-0.195
		c0.182,0,0.351,0.019,0.508,0.054c0.157,0.036,0.311,0.094,0.462,0.173c0.316,0.161,0.553,0.39,0.709,0.686v-0.816H65.149z
		 M62.912,485.338c-0.47,0-0.874,0.166-1.21,0.496c-0.337,0.331-0.506,0.732-0.506,1.205c0,0.463,0.173,0.856,0.519,1.183
		c0.346,0.325,0.75,0.488,1.213,0.488c0.444,0,0.833-0.165,1.165-0.494c0.332-0.33,0.499-0.719,0.499-1.169
		c0-0.473-0.161-0.875-0.481-1.209C63.789,485.505,63.39,485.338,62.912,485.338z M62.314,483.055l1.556,0.847l-0.26,0.456
		l-1.544-0.836L62.314,483.055z"/>
	<path fill="#FFFFFF" d="M66.138,489.166v-4.292h0.548v0.621c0.168-0.235,0.363-0.413,0.584-0.534
		c0.221-0.122,0.472-0.183,0.753-0.183c0.292,0,0.569,0.062,0.833,0.185c0.265,0.122,0.494,0.3,0.688,0.532
		c0.15,0.187,0.257,0.405,0.318,0.655c0.023,0.1,0.041,0.212,0.054,0.337s0.019,0.265,0.019,0.418v2.261h-0.579v-2.261
		c0-0.228-0.014-0.405-0.042-0.532c-0.039-0.182-0.109-0.344-0.211-0.487c-0.125-0.176-0.285-0.312-0.481-0.406
		c-0.195-0.094-0.404-0.142-0.626-0.142c-0.202,0-0.399,0.047-0.592,0.14c-0.193,0.094-0.346,0.222-0.458,0.386
		c-0.1,0.13-0.165,0.296-0.195,0.498c-0.01,0.063-0.018,0.138-0.023,0.222c-0.005,0.085-0.008,0.192-0.008,0.322v2.261H66.138z"/>
	<path fill="#FFFFFF" d="M75.216,484.874v3.679c0,0.391-0.023,0.675-0.069,0.851c-0.066,0.253-0.21,0.501-0.433,0.743
		c-0.204,0.223-0.458,0.395-0.76,0.516s-0.614,0.183-0.933,0.183c-0.483,0-0.925-0.146-1.326-0.438
		c-0.401-0.291-0.661-0.67-0.778-1.138h0.563c0.174,0.327,0.388,0.576,0.644,0.747c0.271,0.182,0.585,0.272,0.942,0.272
		c0.284,0,0.55-0.063,0.801-0.188c0.266-0.133,0.468-0.319,0.605-0.559c0.084-0.151,0.139-0.311,0.165-0.479
		c0.015-0.1,0.023-0.27,0.023-0.51v-0.233c-0.13,0.304-0.36,0.543-0.69,0.717c-0.304,0.155-0.633,0.233-0.989,0.233
		c-0.283,0-0.559-0.055-0.826-0.165c-0.267-0.109-0.507-0.265-0.722-0.464c-0.222-0.212-0.39-0.455-0.504-0.729
		s-0.17-0.567-0.17-0.88c0-0.14,0.011-0.277,0.035-0.411c0.023-0.135,0.06-0.271,0.111-0.412c0.079-0.225,0.167-0.393,0.265-0.502
		c0.263-0.335,0.553-0.579,0.87-0.732c0.273-0.13,0.576-0.195,0.908-0.195c0.355,0,0.685,0.077,0.988,0.23
		c0.325,0.166,0.566,0.398,0.725,0.697v-0.832H75.216z M72.932,485.338c-0.444,0-0.82,0.162-1.128,0.485
		c-0.308,0.322-0.461,0.708-0.461,1.155c0,0.482,0.153,0.892,0.459,1.228c0.307,0.336,0.703,0.504,1.188,0.504
		c0.228,0,0.439-0.038,0.636-0.115c0.197-0.076,0.376-0.2,0.54-0.371c0.143-0.151,0.26-0.336,0.351-0.554
		c0.091-0.219,0.136-0.434,0.136-0.646c0-0.478-0.166-0.879-0.496-1.201C73.825,485.5,73.417,485.338,72.932,485.338z"/>
	<path fill="#FFFFFF" d="M82.001,487.909h0.644c-0.191,0.422-0.472,0.754-0.841,0.996c-0.369,0.243-0.785,0.364-1.247,0.364
		c-0.644,0-1.196-0.213-1.656-0.64c-0.459-0.427-0.689-0.965-0.689-1.613c0-0.623,0.23-1.152,0.691-1.587
		c0.461-0.434,1.005-0.651,1.63-0.651c0.465,0,0.894,0.126,1.286,0.378c0.392,0.251,0.67,0.592,0.833,1.021h-0.651
		c-0.146-0.252-0.352-0.455-0.619-0.608c-0.267-0.153-0.547-0.23-0.841-0.23c-0.483,0-0.895,0.159-1.236,0.478
		c-0.341,0.317-0.511,0.716-0.511,1.193s0.163,0.881,0.49,1.209s0.73,0.492,1.211,0.492c0.327,0,0.61-0.065,0.851-0.195
		S81.805,488.183,82.001,487.909z"/>
	<path fill="#FFFFFF" d="M87.236,484.874v4.292h-0.548v-0.667c-0.133,0.261-0.33,0.458-0.59,0.591
		c-0.24,0.119-0.517,0.18-0.832,0.18c-0.289,0-0.546-0.057-0.774-0.169c-0.248-0.122-0.492-0.323-0.732-0.602
		c-0.112-0.12-0.195-0.311-0.249-0.57c-0.038-0.205-0.058-0.467-0.058-0.786v-2.269h0.583v2.269c0,0.261,0.016,0.456,0.046,0.587
		c0.031,0.13,0.078,0.25,0.142,0.359c0.115,0.199,0.271,0.353,0.467,0.46s0.415,0.161,0.655,0.161c0.212,0,0.407-0.044,0.586-0.132
		c0.179-0.089,0.333-0.22,0.463-0.393c0.097-0.136,0.167-0.302,0.211-0.499c0.033-0.166,0.05-0.347,0.05-0.544v-2.269H87.236z
		 M85.208,483.575h-0.417v-0.054l0.012-0.11c0.01-0.044,0.024-0.082,0.042-0.115c0.031-0.071,0.078-0.144,0.142-0.215
		c0.054-0.054,0.128-0.103,0.222-0.146c0.1-0.033,0.188-0.05,0.265-0.05c0.179,0,0.33,0.062,0.452,0.186s0.184,0.276,0.184,0.458
		c0,0.146-0.076,0.284-0.226,0.414c-0.151,0.13-0.226,0.267-0.226,0.41h-0.414c0-0.11,0.04-0.229,0.119-0.356l0.276-0.322
		c0.039-0.043,0.058-0.1,0.058-0.168c0-0.069-0.022-0.126-0.067-0.171c-0.045-0.045-0.099-0.067-0.163-0.067
		c-0.071,0-0.129,0.021-0.172,0.062C85.237,483.381,85.208,483.463,85.208,483.575z"/>
	<path fill="#FFFFFF" d="M92.596,484.874v4.292h-0.559v-0.809c-0.156,0.289-0.39,0.517-0.702,0.683
		c-0.291,0.152-0.612,0.229-0.961,0.229c-0.335,0-0.662-0.073-0.981-0.219c-0.34-0.153-0.643-0.384-0.908-0.693
		c-0.097-0.104-0.188-0.271-0.272-0.502c-0.103-0.286-0.153-0.573-0.153-0.862c0-0.261,0.055-0.531,0.165-0.813
		c0.092-0.239,0.187-0.403,0.284-0.49c0.301-0.329,0.617-0.568,0.946-0.717c0.284-0.13,0.585-0.195,0.904-0.195
		c0.182,0,0.351,0.019,0.508,0.054c0.157,0.036,0.311,0.094,0.462,0.173c0.316,0.161,0.553,0.39,0.709,0.686v-0.816H92.596z
		 M90.358,485.338c-0.47,0-0.874,0.166-1.21,0.496c-0.337,0.331-0.506,0.732-0.506,1.205c0,0.463,0.173,0.856,0.519,1.183
		c0.346,0.325,0.75,0.488,1.213,0.488c0.444,0,0.833-0.165,1.165-0.494c0.332-0.33,0.499-0.719,0.499-1.169
		c0-0.473-0.161-0.875-0.481-1.209C91.235,485.505,90.836,485.338,90.358,485.338z"/>
	<path fill="#FFFFFF" d="M95.861,489.166v-5.798h0.893l2.119,4.936l2.111-4.936h0.893v5.798h-0.579v-5.157l-2.18,5.157h-0.495
		l-2.184-5.157v5.157H95.861z"/>
	<path fill="#FFFFFF" d="M105.992,484.874h0.617l-2.479,5.798h-0.613l0.678-1.64l-1.652-4.158h0.621l1.375,3.422L105.992,484.874z"
		/>
	<path fill="#FFFFFF" d="M106.854,487.541h0.621c0,0.322,0.111,0.598,0.333,0.826s0.498,0.343,0.828,0.343
		c0.335,0,0.618-0.108,0.851-0.325c0.232-0.218,0.349-0.491,0.349-0.82c0-0.158-0.035-0.31-0.105-0.454s-0.166-0.266-0.286-0.364
		s-0.264-0.181-0.433-0.247c-0.092-0.033-0.249-0.08-0.471-0.142c-0.133-0.033-0.24-0.063-0.322-0.088
		c-0.082-0.025-0.153-0.05-0.215-0.073c-0.194-0.074-0.355-0.167-0.482-0.279c-0.153-0.131-0.273-0.29-0.358-0.479
		c-0.085-0.188-0.128-0.39-0.128-0.602c0-0.454,0.16-0.829,0.479-1.122c0.319-0.294,0.709-0.441,1.168-0.441
		c0.445,0,0.821,0.151,1.13,0.452c0.309,0.302,0.464,0.675,0.464,1.119h-0.605c0-0.294-0.102-0.536-0.305-0.728
		c-0.203-0.192-0.454-0.288-0.753-0.288c-0.276,0-0.511,0.1-0.705,0.299c-0.194,0.199-0.291,0.438-0.291,0.717
		c0,0.215,0.056,0.394,0.168,0.536c0.092,0.115,0.235,0.216,0.429,0.303c0.059,0.025,0.133,0.054,0.224,0.083
		s0.199,0.062,0.324,0.098c0.325,0.092,0.519,0.15,0.583,0.176c0.107,0.041,0.203,0.087,0.288,0.137
		c0.084,0.05,0.166,0.11,0.245,0.182c0.166,0.143,0.297,0.324,0.395,0.544s0.146,0.443,0.146,0.671c0,0.47-0.175,0.87-0.525,1.201
		s-0.764,0.496-1.241,0.496c-0.501,0-0.924-0.161-1.269-0.482C107.031,488.457,106.854,488.042,106.854,487.541z"/>
	<path fill="#FFFFFF" d="M111.084,484.874h0.548v0.736c0.161-0.264,0.41-0.472,0.747-0.625c0.307-0.138,0.628-0.207,0.965-0.207
		c0.322,0,0.627,0.066,0.916,0.197c0.289,0.132,0.569,0.344,0.843,0.635c0.138,0.125,0.257,0.321,0.358,0.588
		s0.151,0.548,0.151,0.841c0,0.626-0.229,1.154-0.688,1.585s-1.003,0.646-1.634,0.646c-0.339,0-0.655-0.075-0.946-0.227
		c-0.314-0.16-0.54-0.387-0.678-0.678v2.307h-0.583V484.874z M113.307,488.71c0.48,0,0.888-0.159,1.222-0.479
		c0.335-0.319,0.502-0.72,0.502-1.2c0-0.467-0.164-0.866-0.492-1.197c-0.328-0.33-0.726-0.496-1.194-0.496
		c-0.475,0-0.88,0.157-1.216,0.472s-0.504,0.706-0.504,1.176c0,0.243,0.034,0.463,0.104,0.659c0.069,0.197,0.184,0.376,0.345,0.539
		c0.161,0.162,0.349,0.29,0.565,0.385C112.854,488.663,113.077,488.71,113.307,488.71z"/>
	<path fill="#FFFFFF" d="M120.81,484.874v4.292h-0.559v-0.809c-0.156,0.289-0.39,0.517-0.702,0.683
		c-0.291,0.152-0.612,0.229-0.961,0.229c-0.335,0-0.662-0.073-0.981-0.219c-0.34-0.153-0.643-0.384-0.908-0.693
		c-0.097-0.104-0.188-0.271-0.272-0.502c-0.103-0.286-0.153-0.573-0.153-0.862c0-0.261,0.055-0.531,0.165-0.813
		c0.092-0.239,0.187-0.403,0.284-0.49c0.301-0.329,0.617-0.568,0.946-0.717c0.284-0.13,0.585-0.195,0.904-0.195
		c0.182,0,0.351,0.019,0.508,0.054c0.157,0.036,0.311,0.094,0.462,0.173c0.316,0.161,0.553,0.39,0.709,0.686v-0.816H120.81z
		 M118.572,485.338c-0.47,0-0.874,0.166-1.21,0.496c-0.337,0.331-0.506,0.732-0.506,1.205c0,0.463,0.173,0.856,0.519,1.183
		c0.346,0.325,0.75,0.488,1.213,0.488c0.444,0,0.833-0.165,1.165-0.494c0.332-0.33,0.499-0.719,0.499-1.169
		c0-0.473-0.161-0.875-0.481-1.209C119.449,485.505,119.05,485.338,118.572,485.338z"/>
	<path fill="#FFFFFF" d="M126.657,483.778l1.077,0.012v-0.59h0.582v0.59l0.372-0.012l0.007,0.533h-0.337v4.854h-0.552v-0.785
		c-0.209,0.296-0.458,0.519-0.744,0.666c-0.286,0.148-0.616,0.223-0.988,0.223c-0.319,0-0.622-0.069-0.908-0.207
		s-0.583-0.365-0.889-0.682c-0.112-0.098-0.217-0.27-0.314-0.518c-0.105-0.278-0.157-0.563-0.157-0.854
		c0-0.631,0.226-1.16,0.676-1.588c0.451-0.429,0.994-0.643,1.63-0.643c0.334,0,0.647,0.07,0.939,0.211
		c0.312,0.15,0.553,0.36,0.724,0.629v-1.307l-1.123,0.007L126.657,483.778z M127.791,487.001c0-0.47-0.167-0.864-0.502-1.184
		c-0.334-0.319-0.739-0.479-1.214-0.479c-0.46,0-0.856,0.162-1.188,0.486c-0.332,0.325-0.498,0.717-0.498,1.177
		c0,0.47,0.165,0.872,0.496,1.207c0.331,0.335,0.732,0.502,1.205,0.502c0.47,0,0.871-0.167,1.203-0.502
		S127.791,487.471,127.791,487.001z"/>
	<path fill="#FFFFFF" d="M133.719,484.874v4.292h-0.559v-0.809c-0.156,0.289-0.39,0.517-0.702,0.683
		c-0.291,0.152-0.612,0.229-0.961,0.229c-0.335,0-0.662-0.073-0.981-0.219c-0.34-0.153-0.643-0.384-0.908-0.693
		c-0.097-0.104-0.188-0.271-0.272-0.502c-0.103-0.286-0.153-0.573-0.153-0.862c0-0.261,0.055-0.531,0.165-0.813
		c0.092-0.239,0.187-0.403,0.284-0.49c0.301-0.329,0.617-0.568,0.946-0.717c0.284-0.13,0.585-0.195,0.904-0.195
		c0.182,0,0.351,0.019,0.508,0.054c0.157,0.036,0.311,0.094,0.462,0.173c0.316,0.161,0.553,0.39,0.709,0.686v-0.816H133.719z
		 M131.481,485.338c-0.47,0-0.874,0.166-1.21,0.496c-0.337,0.331-0.506,0.732-0.506,1.205c0,0.463,0.173,0.856,0.519,1.183
		c0.346,0.325,0.75,0.488,1.213,0.488c0.444,0,0.833-0.165,1.165-0.494c0.332-0.33,0.499-0.719,0.499-1.169
		c0-0.473-0.161-0.875-0.481-1.209C132.358,485.505,131.959,485.338,131.481,485.338z M132.393,483.571l0.238,0.376
		c-0.039,0.036-0.082,0.07-0.128,0.104c-0.047,0.033-0.108,0.07-0.182,0.111c-0.115,0.061-0.226,0.092-0.333,0.092l-0.142-0.012
		c-0.018-0.003-0.042-0.008-0.071-0.016s-0.056-0.017-0.079-0.026c-0.059-0.021-0.145-0.061-0.259-0.121
		c-0.114-0.06-0.203-0.098-0.266-0.114c-0.064-0.017-0.114-0.025-0.149-0.025c-0.069,0-0.148,0.023-0.238,0.069
		c-0.028,0.015-0.061,0.037-0.098,0.066s-0.072,0.061-0.105,0.094l-0.226-0.387c0.1-0.107,0.207-0.188,0.32-0.245
		c0.114-0.056,0.237-0.084,0.37-0.084c0.153,0,0.325,0.052,0.515,0.157c0.19,0.104,0.33,0.156,0.42,0.156
		c0.077,0,0.161-0.026,0.252-0.08L132.393,483.571z"/>
	<path fill="#FFFFFF" d="M30.365,498.583v-3.767h-0.893v-0.525h0.893v-1.506h0.582v1.506h0.997v0.525h-0.997v3.767H30.365z"/>
	<path fill="#FFFFFF" d="M36.901,494.291v4.292h-0.559v-0.809c-0.156,0.289-0.39,0.517-0.702,0.683
		c-0.291,0.152-0.612,0.229-0.961,0.229c-0.335,0-0.662-0.073-0.981-0.219c-0.34-0.153-0.643-0.384-0.908-0.693
		c-0.097-0.104-0.188-0.271-0.272-0.502c-0.103-0.286-0.153-0.573-0.153-0.862c0-0.261,0.055-0.531,0.165-0.813
		c0.092-0.239,0.187-0.403,0.284-0.49c0.301-0.329,0.617-0.568,0.946-0.717c0.284-0.13,0.585-0.195,0.904-0.195
		c0.182,0,0.351,0.019,0.508,0.054c0.157,0.036,0.311,0.094,0.462,0.173c0.316,0.161,0.553,0.39,0.709,0.686v-0.816H36.901z
		 M34.664,494.755c-0.47,0-0.874,0.166-1.21,0.496c-0.337,0.331-0.506,0.732-0.506,1.205c0,0.463,0.173,0.856,0.519,1.183
		c0.346,0.325,0.75,0.488,1.213,0.488c0.444,0,0.833-0.165,1.165-0.494c0.332-0.33,0.499-0.719,0.499-1.169
		c0-0.473-0.161-0.875-0.481-1.209C35.541,494.922,35.142,494.755,34.664,494.755z M33.56,492.935h0.525
		c0.062,0.131,0.165,0.229,0.309,0.294c0.145,0.064,0.296,0.098,0.454,0.098s0.308-0.034,0.448-0.102
		c0.141-0.068,0.239-0.164,0.295-0.29h0.544c-0.074,0.289-0.235,0.513-0.483,0.671c-0.228,0.141-0.496,0.211-0.805,0.211
		c-0.312,0-0.58-0.07-0.805-0.211C33.795,493.447,33.634,493.224,33.56,492.935z"/>
	<path fill="#FFFFFF" d="M37.89,498.583v-4.292h0.548v0.621c0.168-0.235,0.363-0.413,0.584-0.534
		c0.221-0.122,0.472-0.183,0.753-0.183c0.292,0,0.569,0.062,0.833,0.185c0.265,0.122,0.494,0.3,0.688,0.532
		c0.15,0.187,0.257,0.405,0.318,0.655c0.023,0.1,0.041,0.212,0.054,0.337s0.019,0.265,0.019,0.418v2.261h-0.579v-2.261
		c0-0.228-0.014-0.405-0.042-0.532c-0.039-0.182-0.109-0.344-0.211-0.487c-0.125-0.176-0.285-0.312-0.481-0.406
		c-0.195-0.094-0.404-0.142-0.626-0.142c-0.202,0-0.399,0.047-0.592,0.14c-0.193,0.094-0.346,0.222-0.458,0.386
		c-0.1,0.13-0.165,0.296-0.195,0.498c-0.01,0.063-0.018,0.138-0.023,0.222c-0.005,0.085-0.008,0.192-0.008,0.322v2.261H37.89z"/>
	<path fill="#FFFFFF" d="M46.968,494.291v3.679c0,0.391-0.023,0.675-0.069,0.851c-0.066,0.253-0.21,0.501-0.433,0.743
		c-0.204,0.223-0.458,0.395-0.76,0.516s-0.614,0.183-0.933,0.183c-0.483,0-0.925-0.146-1.326-0.438
		c-0.401-0.291-0.661-0.67-0.778-1.138h0.563c0.174,0.327,0.388,0.576,0.644,0.747c0.271,0.182,0.585,0.272,0.942,0.272
		c0.284,0,0.55-0.063,0.801-0.188c0.266-0.133,0.468-0.319,0.605-0.559c0.084-0.151,0.139-0.311,0.165-0.479
		c0.015-0.1,0.023-0.27,0.023-0.51v-0.233c-0.13,0.304-0.36,0.543-0.69,0.717c-0.304,0.155-0.633,0.233-0.989,0.233
		c-0.283,0-0.559-0.055-0.826-0.165c-0.267-0.109-0.507-0.265-0.722-0.464c-0.222-0.212-0.39-0.455-0.504-0.729
		s-0.17-0.567-0.17-0.88c0-0.14,0.011-0.277,0.035-0.411c0.023-0.135,0.06-0.271,0.111-0.412c0.079-0.225,0.167-0.393,0.265-0.502
		c0.263-0.335,0.553-0.579,0.87-0.732c0.273-0.13,0.576-0.195,0.908-0.195c0.355,0,0.685,0.077,0.988,0.23
		c0.325,0.166,0.566,0.398,0.725,0.697v-0.832H46.968z M44.684,494.755c-0.444,0-0.82,0.162-1.128,0.485
		c-0.308,0.322-0.461,0.708-0.461,1.155c0,0.482,0.153,0.892,0.459,1.228c0.307,0.336,0.703,0.504,1.188,0.504
		c0.228,0,0.439-0.038,0.636-0.115c0.197-0.076,0.376-0.2,0.54-0.371c0.143-0.151,0.26-0.336,0.351-0.554
		c0.091-0.219,0.136-0.434,0.136-0.646c0-0.478-0.166-0.879-0.496-1.201C45.577,494.917,45.169,494.755,44.684,494.755z"/>
	<path fill="#FFFFFF" d="M50.869,494.227h-0.583c0-0.438,0.137-0.803,0.412-1.096c0.274-0.294,0.631-0.441,1.071-0.441
		c0.406,0,0.749,0.146,1.027,0.436s0.418,0.639,0.418,1.048c0,0.232-0.051,0.435-0.153,0.607c-0.103,0.172-0.25,0.334-0.445,0.484
		c0.292,0.13,0.526,0.341,0.705,0.63c0.179,0.29,0.269,0.598,0.269,0.922c0,0.521-0.182,0.963-0.544,1.326
		c-0.363,0.362-0.803,0.544-1.322,0.544c-0.514,0-0.946-0.189-1.299-0.567s-0.529-0.827-0.529-1.349h0.579
		c0,0.156,0.014,0.29,0.042,0.402c0.028,0.112,0.079,0.227,0.153,0.341c0.117,0.182,0.268,0.329,0.45,0.442
		c0.183,0.114,0.378,0.171,0.588,0.171c0.358,0,0.665-0.126,0.92-0.379s0.383-0.562,0.383-0.924c0-0.269-0.081-0.514-0.242-0.735
		c-0.161-0.223-0.369-0.38-0.625-0.472c-0.079-0.028-0.168-0.047-0.268-0.058c-0.1-0.01-0.169-0.017-0.207-0.019
		c-0.038-0.003-0.097-0.004-0.176-0.004h-0.13v-0.518l0.195,0.016c0.309,0,0.558-0.072,0.748-0.215
		c0.217-0.163,0.326-0.395,0.326-0.693c0-0.258-0.086-0.47-0.259-0.635c-0.172-0.164-0.389-0.247-0.649-0.247
		c-0.25,0-0.46,0.102-0.628,0.303C50.944,493.734,50.869,493.961,50.869,494.227z"/>
	<path fill="#FFFFFF" d="M54.217,496.38v-1.51c0-0.319,0.03-0.593,0.09-0.82s0.181-0.451,0.362-0.672
		c0.181-0.222,0.403-0.392,0.665-0.51c0.262-0.119,0.539-0.179,0.83-0.179c0.273,0,0.534,0.053,0.782,0.157
		c0.248,0.104,0.464,0.259,0.649,0.462c0.186,0.203,0.32,0.445,0.404,0.727c0.069,0.234,0.104,0.513,0.104,0.835v1.51
		c0,0.176-0.005,0.333-0.015,0.471c-0.01,0.139-0.027,0.259-0.05,0.36c-0.062,0.278-0.184,0.533-0.366,0.765
		s-0.404,0.408-0.665,0.531c-0.125,0.059-0.259,0.103-0.4,0.134c-0.142,0.03-0.29,0.046-0.443,0.046
		c-0.307,0-0.583-0.056-0.83-0.167s-0.463-0.279-0.649-0.504s-0.317-0.483-0.391-0.777C54.243,497.019,54.217,496.732,54.217,496.38
		z M57.524,496.284v-1.28c0-0.312-0.021-0.556-0.065-0.731c-0.043-0.177-0.106-0.327-0.188-0.452
		c-0.115-0.174-0.274-0.313-0.479-0.418c-0.204-0.104-0.414-0.157-0.628-0.157c-0.227,0-0.452,0.061-0.672,0.183
		c-0.221,0.121-0.386,0.28-0.496,0.477c-0.072,0.133-0.123,0.301-0.153,0.502c-0.013,0.087-0.023,0.183-0.031,0.287
		c-0.008,0.105-0.011,0.209-0.011,0.311v1.28c0,0.283,0.011,0.506,0.034,0.666c0.039,0.256,0.111,0.463,0.218,0.621
		c0.133,0.184,0.292,0.322,0.477,0.416c0.186,0.093,0.397,0.14,0.634,0.14c0.253,0,0.479-0.054,0.678-0.161s0.36-0.268,0.483-0.482
		c0.084-0.144,0.142-0.337,0.172-0.583c0.008-0.073,0.014-0.161,0.019-0.262C57.521,496.537,57.524,496.419,57.524,496.284z"/>
	<path fill="#FFFFFF" d="M59.815,492.689c0.38,0,0.701,0.134,0.96,0.4c0.259,0.268,0.389,0.591,0.389,0.972
		c0,0.373-0.135,0.695-0.404,0.968c-0.27,0.271-0.587,0.408-0.952,0.408c-0.375,0-0.698-0.138-0.967-0.412s-0.404-0.602-0.404-0.979
		c0-0.386,0.131-0.708,0.395-0.967C59.094,492.819,59.422,492.689,59.815,492.689z M59.815,493.245c-0.243,0-0.44,0.075-0.594,0.227
		c-0.153,0.15-0.23,0.345-0.23,0.582c0,0.223,0.08,0.415,0.239,0.579c0.16,0.163,0.35,0.245,0.569,0.245
		c0.232,0,0.425-0.085,0.579-0.253c0.153-0.169,0.229-0.369,0.229-0.602c0-0.215-0.077-0.398-0.231-0.55
		C60.222,493.321,60.035,493.245,59.815,493.245z M59.754,498.583l2.606-5.798h0.563l-2.605,5.798H59.754z M62.877,495.932
		c0.383,0,0.705,0.138,0.966,0.414c0.26,0.275,0.391,0.604,0.391,0.988c0,0.37-0.135,0.688-0.406,0.954
		c-0.271,0.266-0.59,0.398-0.958,0.398c-0.378,0-0.702-0.133-0.971-0.398s-0.404-0.586-0.404-0.962c0-0.391,0.133-0.721,0.398-0.99
		S62.486,495.932,62.877,495.932z M62.877,496.487c-0.237,0-0.434,0.08-0.59,0.241c-0.156,0.161-0.234,0.362-0.234,0.605
		c0,0.222,0.081,0.41,0.241,0.563c0.161,0.153,0.353,0.229,0.575,0.229c0.232,0,0.426-0.08,0.579-0.241
		c0.153-0.161,0.23-0.355,0.23-0.583c0-0.225-0.077-0.417-0.232-0.576C63.292,496.566,63.102,496.487,62.877,496.487z"/>
	<path fill="#FFFFFF" d="M71.468,492.785v5.798h-0.552v-0.785c-0.209,0.296-0.458,0.519-0.744,0.666
		c-0.286,0.148-0.616,0.223-0.988,0.223c-0.319,0-0.622-0.069-0.908-0.207s-0.583-0.365-0.889-0.682
		c-0.112-0.098-0.217-0.27-0.314-0.518c-0.105-0.278-0.157-0.563-0.157-0.854c0-0.631,0.226-1.16,0.676-1.588
		c0.451-0.429,0.994-0.643,1.63-0.643c0.334,0,0.647,0.07,0.939,0.211c0.312,0.15,0.553,0.36,0.724,0.629v-2.25H71.468z
		 M70.901,496.418c0-0.47-0.167-0.864-0.502-1.184c-0.334-0.319-0.739-0.479-1.214-0.479c-0.46,0-0.856,0.162-1.188,0.486
		c-0.332,0.325-0.498,0.717-0.498,1.177c0,0.47,0.165,0.872,0.496,1.207c0.331,0.335,0.732,0.502,1.205,0.502
		c0.47,0,0.871-0.167,1.203-0.502S70.901,496.888,70.901,496.418z"/>
	<path fill="#FFFFFF" d="M74.545,494.195c0.593,0,1.112,0.22,1.558,0.657c0.446,0.438,0.669,0.958,0.669,1.558
		c0,0.618-0.217,1.152-0.651,1.602c-0.435,0.45-0.959,0.675-1.575,0.675s-1.145-0.217-1.588-0.651
		c-0.443-0.435-0.665-0.958-0.665-1.571c0-0.623,0.218-1.157,0.655-1.602C73.384,494.418,73.917,494.195,74.545,494.195z
		 M74.545,494.755c-0.47,0-0.866,0.167-1.188,0.5c-0.322,0.334-0.482,0.736-0.482,1.209c0,0.46,0.164,0.853,0.492,1.177
		s0.721,0.486,1.178,0.486c0.473,0,0.865-0.168,1.178-0.504s0.47-0.74,0.47-1.213s-0.167-0.868-0.502-1.188
		c-0.151-0.144-0.328-0.257-0.531-0.341C74.957,494.797,74.752,494.755,74.545,494.755z"/>
	<path fill="#FFFFFF" d="M81.967,494.291v4.292h-0.559v-0.809c-0.156,0.289-0.39,0.517-0.702,0.683
		c-0.291,0.152-0.612,0.229-0.961,0.229c-0.335,0-0.662-0.073-0.981-0.219c-0.34-0.153-0.643-0.384-0.908-0.693
		c-0.097-0.104-0.188-0.271-0.272-0.502c-0.103-0.286-0.153-0.573-0.153-0.862c0-0.261,0.055-0.531,0.165-0.813
		c0.092-0.239,0.187-0.403,0.284-0.49c0.301-0.329,0.617-0.568,0.946-0.717c0.284-0.13,0.585-0.195,0.904-0.195
		c0.182,0,0.351,0.019,0.508,0.054c0.157,0.036,0.311,0.094,0.462,0.173c0.316,0.161,0.553,0.39,0.709,0.686v-0.816H81.967z
		 M79.729,494.755c-0.47,0-0.874,0.166-1.21,0.496c-0.337,0.331-0.506,0.732-0.506,1.205c0,0.463,0.173,0.856,0.519,1.183
		c0.346,0.325,0.75,0.488,1.213,0.488c0.444,0,0.833-0.165,1.165-0.494c0.332-0.33,0.499-0.719,0.499-1.169
		c0-0.473-0.161-0.875-0.481-1.209C80.606,494.922,80.207,494.755,79.729,494.755z"/>
	<path fill="#FFFFFF" d="M82.956,498.583v-4.292h0.548v0.621c0.168-0.235,0.363-0.413,0.584-0.534
		c0.221-0.122,0.472-0.183,0.753-0.183c0.292,0,0.569,0.062,0.833,0.185c0.265,0.122,0.494,0.3,0.688,0.532
		c0.15,0.187,0.257,0.405,0.318,0.655c0.023,0.1,0.041,0.212,0.054,0.337s0.019,0.265,0.019,0.418v2.261h-0.579v-2.261
		c0-0.228-0.014-0.405-0.042-0.532c-0.039-0.182-0.109-0.344-0.211-0.487c-0.125-0.176-0.285-0.312-0.481-0.406
		c-0.195-0.094-0.404-0.142-0.626-0.142c-0.202,0-0.399,0.047-0.592,0.14c-0.193,0.094-0.346,0.222-0.458,0.386
		c-0.1,0.13-0.165,0.296-0.195,0.498c-0.01,0.063-0.018,0.138-0.023,0.222c-0.005,0.085-0.008,0.192-0.008,0.322v2.261H82.956z"/>
	<path fill="#FFFFFF" d="M87.741,498.583v-5.798h0.583v2.127c0.12-0.229,0.299-0.406,0.539-0.53
		c0.239-0.124,0.494-0.187,0.764-0.187c0.278,0,0.545,0.057,0.799,0.169c0.254,0.112,0.478,0.275,0.669,0.49
		c0.168,0.199,0.289,0.428,0.36,0.687c0.056,0.22,0.084,0.479,0.084,0.781v2.261H90.96v-2.261c0-0.229-0.014-0.409-0.042-0.536
		c-0.039-0.179-0.109-0.343-0.211-0.491c-0.12-0.171-0.28-0.304-0.481-0.398c-0.2-0.094-0.409-0.142-0.626-0.142
		c-0.202,0-0.398,0.047-0.588,0.14c-0.19,0.094-0.347,0.222-0.47,0.386c-0.092,0.125-0.156,0.291-0.191,0.498
		c-0.008,0.059-0.014,0.132-0.019,0.22c-0.005,0.089-0.008,0.196-0.008,0.324v2.261H87.741z"/>
	<path fill="#FFFFFF" d="M95.194,498.583v-3.767h-0.893v-0.525h0.893v-1.506h0.582v1.506h0.997v0.525h-0.997v3.767H95.194z"/>
	<path fill="#FFFFFF" d="M97.359,498.583v-5.798h0.583v2.127c0.12-0.229,0.299-0.406,0.539-0.53
		c0.239-0.124,0.494-0.187,0.764-0.187c0.278,0,0.545,0.057,0.799,0.169c0.254,0.112,0.478,0.275,0.669,0.49
		c0.168,0.199,0.289,0.428,0.36,0.687c0.056,0.22,0.084,0.479,0.084,0.781v2.261h-0.579v-2.261c0-0.229-0.014-0.409-0.042-0.536
		c-0.039-0.179-0.109-0.343-0.211-0.491c-0.12-0.171-0.28-0.304-0.481-0.398c-0.2-0.094-0.409-0.142-0.626-0.142
		c-0.202,0-0.398,0.047-0.588,0.14c-0.19,0.094-0.347,0.222-0.47,0.386c-0.092,0.125-0.156,0.291-0.191,0.498
		c-0.008,0.059-0.014,0.132-0.019,0.22c-0.005,0.089-0.008,0.196-0.008,0.324v2.261H97.359z"/>
	<path fill="#FFFFFF" d="M105.927,494.291v4.292h-0.548v-0.667c-0.133,0.261-0.33,0.458-0.59,0.591
		c-0.24,0.119-0.517,0.18-0.832,0.18c-0.289,0-0.546-0.057-0.774-0.169c-0.248-0.122-0.492-0.323-0.732-0.602
		c-0.112-0.12-0.195-0.311-0.249-0.57c-0.038-0.205-0.058-0.467-0.058-0.786v-2.269h0.583v2.269c0,0.261,0.016,0.456,0.046,0.587
		c0.031,0.13,0.078,0.25,0.142,0.359c0.115,0.199,0.271,0.353,0.467,0.46s0.415,0.161,0.655,0.161c0.212,0,0.407-0.044,0.586-0.132
		c0.179-0.089,0.333-0.22,0.463-0.393c0.097-0.136,0.167-0.302,0.211-0.499c0.033-0.166,0.05-0.347,0.05-0.544v-2.269H105.927z"/>
	<path fill="#FFFFFF" d="M107.214,498.583v-0.988h0.579v0.988H107.214z"/>
</g>
</svg>
