<svg width="25" height="24" viewBox="0 0 25 24" fill="none" xmlns="http://www.w3.org/2000/svg">
<path d="M8.52093 19.9995H6.11228C5.88868 20.0004 5.66735 19.9545 5.46247 19.8648C5.25759 19.775 5.07368 19.6434 4.92252 19.4783C4.77135 19.3132 4.65627 19.1183 4.58463 18.906C4.513 18.6938 4.48639 18.4689 4.50652 18.2457C4.77497 15.7702 5.6192 13.3923 6.97136 11.3031C8.20406 9.35937 9.84875 7.71141 11.7887 6.47627C13.8832 5.11669 16.2679 4.27059 18.7496 4.00653C18.9717 3.98643 19.1954 4.01286 19.4067 4.08416C19.618 4.15546 19.8121 4.27005 19.9767 4.42065C20.1414 4.57124 20.2729 4.75454 20.363 4.95886C20.4531 5.16319 20.4997 5.38407 20.4999 5.60744V8.02086C20.5038 8.41128 20.3658 8.78977 20.1117 9.0858C19.8576 9.38182 19.5048 9.57517 19.119 9.62981C18.3481 9.73168 17.5913 9.92059 16.8629 10.1929C16.5755 10.3012 16.2632 10.3246 15.9629 10.2604C15.6627 10.1963 15.3871 10.0472 15.1688 9.83093L14.1491 8.80925C12.1391 9.95446 10.4748 11.6221 9.33184 13.6361L10.3515 14.6578C10.5674 14.8765 10.7161 15.1527 10.7802 15.4535C10.8442 15.7544 10.8208 16.0673 10.7128 16.3552C10.441 17.0851 10.2524 17.8435 10.1508 18.6158C10.0958 19.0066 9.89931 19.3635 9.5988 19.6186C9.29829 19.8737 8.91468 20.0093 8.52093 19.9995Z" fill="#7FC128" stroke="#7FC128" stroke-linecap="round" stroke-linejoin="round"/>
</svg>
