<svg width="16" height="16" viewBox="0 0 16 16" fill="none" xmlns="http://www.w3.org/2000/svg">
<path fill-rule="evenodd" clip-rule="evenodd" d="M3.89949 1.07102C3.11845 0.289974 1.85212 0.289974 1.07107 1.07102C0.290019 1.85207 0.290019 3.1184 1.07107 3.89945L5.31371 8.14209L1.07107 12.3847C0.290018 13.1658 0.290018 14.4321 1.07107 15.2132C1.85212 15.9942 3.11844 15.9942 3.89949 15.2132L8.14213 10.9705L12.3848 15.2132C13.1658 15.9942 14.4322 15.9942 15.2132 15.2132C15.9943 14.4321 15.9943 13.1658 15.2132 12.3847L10.9706 8.14209L15.2132 3.89945C15.9943 3.1184 15.9943 1.85207 15.2132 1.07102C14.4322 0.289974 13.1658 0.289973 12.3848 1.07102L8.14214 5.31366L3.89949 1.07102Z" fill="#7161BA"/>
</svg>
