<svg width="25" height="24" viewBox="0 0 25 24" fill="none" xmlns="http://www.w3.org/2000/svg">
<path fill-rule="evenodd" clip-rule="evenodd" d="M21.5 8.48889V15.5111V18C21.5 19.1046 20.6046 20 19.5 20H16.692H7.307H4.5C3.39543 20 2.5 19.1046 2.5 18V15.5111V8.48889V6C2.5 4.89543 3.39543 4 4.5 4H7.307H16.692H19.5C20.6046 4 21.5 4.89543 21.5 6V8.48889ZM6.11783 7.37406C5.62489 7.125 5.02338 7.3227 4.77432 7.81563C4.52526 8.30857 4.72296 8.91008 5.21589 9.15914L11.5492 12.3591C11.8328 12.5024 12.1676 12.5024 12.4512 12.3591L18.7845 9.15914C19.2774 8.91008 19.4751 8.30857 19.2261 7.81563C18.977 7.3227 18.3755 7.125 17.8826 7.37406L12.0002 10.3462L6.11783 7.37406Z" fill="#7FC128"/>
</svg>
