<svg width="835" height="447" viewBox="0 0 835 447" fill="none" xmlns="http://www.w3.org/2000/svg">
<path d="M834.85 217.453C834.917 218.792 834.961 220.135 834.983 221.48L833.983 221.497C833.994 222.164 834 222.831 834 223.5C834 224.168 833.994 224.836 833.983 225.503L834.983 225.519C834.961 226.865 834.917 228.207 834.85 229.546L833.851 229.497C833.786 230.825 833.698 232.151 833.588 233.473L834.585 233.556C834.474 234.893 834.342 236.227 834.188 237.558L833.194 237.443C833.041 238.765 832.866 240.084 832.669 241.4L833.659 241.548C833.461 242.874 833.241 244.198 833 245.518L832.016 245.338C831.777 246.645 831.517 247.948 831.237 249.248L832.214 249.459C831.931 250.769 831.627 252.075 831.302 253.377L830.332 253.135C830.009 254.428 829.666 255.716 829.302 257.002L830.264 257.274C829.9 258.559 829.516 259.839 829.112 261.116L828.159 260.814C827.758 262.081 827.337 263.344 826.896 264.603L827.84 264.934C827.396 266.202 826.932 267.466 826.448 268.726L825.514 268.367C825.041 269.601 824.548 270.831 824.036 272.057L824.959 272.442C824.444 273.677 823.909 274.908 823.356 276.135L822.444 275.724C821.896 276.94 821.329 278.152 820.744 279.36L821.643 279.796C821.064 280.992 820.466 282.184 819.851 283.372L818.963 282.912C818.351 284.092 817.722 285.268 817.075 286.441L817.951 286.924C817.302 288.1 816.635 289.272 815.951 290.44L815.088 289.935C814.422 291.073 813.739 292.207 813.039 293.337L813.889 293.863C813.185 295 812.465 296.133 811.728 297.262L810.891 296.715C810.16 297.835 809.412 298.951 808.649 300.063L809.473 300.629C808.723 301.721 807.957 302.809 807.177 303.893L806.365 303.308C805.589 304.386 804.797 305.46 803.99 306.53L804.788 307.132C803.977 308.208 803.15 309.28 802.308 310.347L801.523 309.728C800.708 310.762 799.878 311.793 799.034 312.819L799.807 313.454C798.96 314.484 798.098 315.51 797.223 316.532L796.464 315.882C795.593 316.899 794.708 317.912 793.809 318.921L794.556 319.586C793.672 320.578 792.774 321.567 791.864 322.551L791.13 321.872C790.23 322.844 789.318 323.813 788.393 324.777L789.115 325.469C788.185 326.438 787.243 327.402 786.288 328.363L785.579 327.658C784.64 328.602 783.688 329.543 782.725 330.479L783.421 331.196C782.47 332.121 781.507 333.041 780.532 333.958L779.847 333.229C778.876 334.142 777.893 335.05 776.899 335.955L777.571 336.695C776.573 337.603 775.563 338.507 774.542 339.406L773.881 338.656C772.893 339.526 771.894 340.393 770.884 341.255L771.534 342.016C770.52 342.881 769.496 343.743 768.461 344.601L767.823 343.831C766.792 344.686 765.75 345.536 764.697 346.383L765.324 347.162C764.283 348 763.232 348.833 762.17 349.663L761.554 348.875C760.512 349.689 759.46 350.5 758.398 351.306L759.003 352.103C757.938 352.912 756.862 353.717 755.778 354.519L755.183 353.714C754.102 354.513 753.011 355.308 751.91 356.099L752.494 356.911C751.417 357.684 750.331 358.454 749.236 359.22L748.663 358.401C747.575 359.161 746.479 359.918 745.374 360.671L745.937 361.497C744.828 362.252 743.71 363.004 742.584 363.751L742.031 362.918C740.912 363.66 739.785 364.398 738.649 365.132L739.192 365.972C738.08 366.691 736.959 367.406 735.831 368.117L735.298 367.271C734.172 367.98 733.039 368.685 731.897 369.387L732.421 370.239C731.276 370.942 730.123 371.642 728.963 372.338L728.449 371.48C727.301 372.168 726.145 372.852 724.981 373.532L725.486 374.396C724.341 375.065 723.188 375.731 722.029 376.392L721.533 375.524C720.376 376.184 719.212 376.84 718.04 377.493L718.527 378.366C717.352 379.02 716.17 379.671 714.981 380.317L714.503 379.439C713.328 380.077 712.146 380.712 710.957 381.343L711.426 382.227C710.254 382.849 709.074 383.467 707.889 384.082L707.428 383.194C706.245 383.807 705.055 384.417 703.859 385.023L704.31 385.915C703.111 386.522 701.905 387.125 700.692 387.725L700.249 386.829C699.049 387.422 697.842 388.012 696.629 388.598L697.064 389.498C695.868 390.075 694.667 390.649 693.459 391.219L693.033 390.314C691.828 390.883 690.617 391.448 689.399 392.009L689.818 392.917C688.598 393.48 687.372 394.039 686.14 394.594L685.729 393.682C684.505 394.233 683.274 394.781 682.038 395.325L682.44 396.24C681.226 396.775 680.006 397.306 678.781 397.833L678.385 396.914C677.162 397.44 675.934 397.962 674.699 398.481L675.087 399.403C673.85 399.923 672.607 400.439 671.359 400.952L670.979 400.026C669.734 400.538 668.482 401.046 667.226 401.55L667.598 402.478C666.365 402.972 665.128 403.463 663.885 403.95L663.52 403.019C662.282 403.504 661.038 403.986 659.79 404.464L660.147 405.398C658.896 405.877 657.64 406.353 656.379 406.825L656.028 405.888C654.77 406.359 653.506 406.826 652.237 407.29L652.58 408.229C651.324 408.688 650.064 409.143 648.799 409.595L648.463 408.653C647.212 409.099 645.956 409.542 644.696 409.982L645.025 410.926C643.763 411.366 642.496 411.802 641.224 412.235L640.901 411.289C639.632 411.721 638.357 412.15 637.078 412.575L637.394 413.524C636.116 413.948 634.833 414.37 633.546 414.787L633.237 413.836C631.976 414.245 630.711 414.651 629.441 415.053L629.743 416.006C628.471 416.409 627.194 416.808 625.913 417.204L625.618 416.248C624.34 416.643 623.057 417.035 621.77 417.423L622.059 418.38C620.769 418.769 619.476 419.154 618.178 419.536L617.896 418.576C616.615 418.953 615.331 419.326 614.042 419.695L614.317 420.657C613.037 421.023 611.754 421.387 610.466 421.747L610.197 420.784C608.911 421.143 607.622 421.499 606.328 421.851L606.591 422.816C605.295 423.169 603.996 423.519 602.692 423.864L602.436 422.898C601.135 423.243 599.83 423.585 598.521 423.923L598.771 424.891C597.483 425.224 596.191 425.554 594.896 425.88L594.652 424.91C593.361 425.235 592.066 425.556 590.767 425.874L591.005 426.846C589.705 427.164 588.4 427.479 587.093 427.791L586.861 426.818C585.555 427.129 584.246 427.437 582.933 427.741L583.159 428.715C581.849 429.019 580.535 429.319 579.218 429.615L578.999 428.639C577.703 428.931 576.403 429.219 575.101 429.504L575.315 430.481C574.01 430.767 572.702 431.049 571.391 431.327L571.183 430.349C569.874 430.627 568.562 430.901 567.246 431.173L567.448 432.152C566.13 432.424 564.809 432.692 563.485 432.956L563.289 431.976C561.976 432.238 560.66 432.497 559.34 432.753L559.53 433.734C558.223 433.987 556.912 434.237 555.599 434.484L555.414 433.501C554.103 433.747 552.788 433.989 551.47 434.229L551.649 435.213C550.329 435.452 549.007 435.688 547.682 435.921L547.509 434.936C546.185 435.168 544.859 435.397 543.529 435.622L543.697 436.608C542.376 436.832 541.052 437.053 539.726 437.27L539.565 436.283C538.251 436.498 536.935 436.709 535.616 436.918L535.772 437.905C534.451 438.114 533.128 438.319 531.802 438.52L531.651 437.532C530.327 437.733 529 437.931 527.671 438.126L527.815 439.115C526.484 439.31 525.15 439.501 523.813 439.689L523.674 438.699C522.349 438.885 521.022 439.068 519.693 439.247L519.826 440.238C518.505 440.416 517.181 440.591 515.855 440.763L515.727 439.771C514.403 439.942 513.076 440.11 511.746 440.274L511.869 441.267C510.538 441.431 509.204 441.593 507.868 441.75L507.751 440.757C506.417 440.915 505.08 441.069 503.741 441.22L503.853 442.214C502.521 442.364 501.187 442.51 499.85 442.653L499.744 441.659C498.42 441.801 497.094 441.939 495.765 442.074L495.866 443.069C494.536 443.204 493.203 443.336 491.869 443.465L491.773 442.469C490.44 442.598 489.105 442.722 487.767 442.844L487.858 443.84C486.518 443.962 485.177 444.08 483.834 444.195L483.749 443.198C482.413 443.312 481.075 443.423 479.735 443.53L479.815 444.527C478.486 444.634 477.155 444.737 475.821 444.837L475.747 443.839C474.415 443.939 473.082 444.035 471.747 444.128L471.816 445.126C470.479 445.219 469.14 445.308 467.799 445.395L467.734 444.397C466.395 444.483 465.054 444.565 463.711 444.645L463.769 445.643C462.426 445.722 461.082 445.798 459.735 445.871L459.681 444.872C458.352 444.943 457.02 445.012 455.687 445.076L455.736 446.075C454.401 446.14 453.064 446.202 451.726 446.26L451.683 445.261C450.346 445.319 449.008 445.373 447.667 445.425L447.706 446.424C446.364 446.475 445.02 446.523 443.675 446.568L443.641 445.568C442.298 445.613 440.952 445.654 439.605 445.692L439.633 446.691C438.298 446.729 436.962 446.763 435.624 446.793L435.601 445.793C434.267 445.824 432.932 445.851 431.595 445.875L431.613 446.875C430.274 446.898 428.934 446.919 427.592 446.936L427.58 445.936C426.239 445.953 424.898 445.967 423.555 445.977L423.562 446.977C422.217 446.987 420.871 446.994 419.523 446.997L419.52 445.997C418.847 445.999 418.174 446 417.5 446C417.156 446 416.811 446 416.467 445.999C416.138 445.999 415.809 445.998 415.48 445.997L415.478 446.997C414.13 446.994 412.783 446.987 411.438 446.977L411.446 445.977C410.103 445.967 408.761 445.953 407.421 445.936L407.408 446.936C406.067 446.919 404.726 446.899 403.388 446.875L403.406 445.875C402.069 445.851 400.733 445.824 399.4 445.793L399.377 446.793C398.039 446.763 396.702 446.729 395.367 446.691L395.395 445.692C394.048 445.654 392.703 445.613 391.359 445.568L391.326 446.568C389.981 446.523 388.637 446.475 387.295 446.424L387.333 445.425C385.993 445.373 384.655 445.319 383.318 445.261L383.275 446.26C381.936 446.202 380.599 446.14 379.265 446.075L379.313 445.076C377.98 445.012 376.649 444.944 375.319 444.872L375.266 445.871C373.919 445.798 372.574 445.722 371.231 445.643L371.29 444.645C369.947 444.565 368.605 444.483 367.266 444.397L367.202 445.395C365.861 445.308 364.522 445.219 363.185 445.126L363.254 444.128C361.919 444.035 360.585 443.939 359.254 443.839L359.179 444.837C357.846 444.737 356.515 444.634 355.186 444.527L355.266 443.531C353.926 443.423 352.588 443.312 351.252 443.198L351.167 444.195C349.823 444.08 348.482 443.962 347.143 443.84L347.233 442.844C345.896 442.723 344.561 442.598 343.228 442.469L343.132 443.465C341.797 443.336 340.465 443.204 339.134 443.069L339.235 442.074C337.907 441.939 336.581 441.801 335.257 441.659L335.15 442.653C333.813 442.51 332.479 442.364 331.147 442.214L331.259 441.22C329.92 441.069 328.584 440.915 327.249 440.757L327.132 441.75C325.796 441.593 324.462 441.431 323.131 441.267L323.254 440.274C321.925 440.11 320.598 439.942 319.273 439.771L319.145 440.763C317.819 440.591 316.495 440.416 315.174 440.238L315.308 439.247C313.978 439.068 312.651 438.885 311.327 438.699L311.187 439.689C309.851 439.501 308.517 439.31 307.185 439.115L307.33 438.126C306 437.931 304.673 437.733 303.349 437.532L303.199 438.521C301.872 438.319 300.549 438.114 299.228 437.905L299.384 436.918C298.065 436.709 296.749 436.498 295.436 436.283L295.274 437.27C293.948 437.053 292.625 436.832 291.304 436.608L291.471 435.622C290.142 435.397 288.815 435.168 287.492 434.936L287.319 435.921C285.993 435.688 284.671 435.452 283.351 435.213L283.53 434.229C282.212 433.989 280.898 433.747 279.586 433.501L279.402 434.484C278.088 434.237 276.778 433.988 275.47 433.734L275.66 432.753C274.341 432.497 273.024 432.238 271.711 431.976L271.515 432.956C270.191 432.692 268.87 432.424 267.553 432.152L267.754 431.173C266.439 430.902 265.126 430.627 263.817 430.349L263.609 431.327C262.298 431.049 260.99 430.767 259.686 430.481L259.9 429.504C258.597 429.22 257.298 428.931 256.002 428.639L255.782 429.615C254.465 429.319 253.152 429.019 251.842 428.715L252.067 427.741C250.755 427.437 249.445 427.129 248.14 426.818L247.908 427.791C246.6 427.479 245.296 427.164 243.995 426.846L244.233 425.874C242.934 425.556 241.639 425.235 240.348 424.91L240.104 425.88C238.809 425.554 237.517 425.224 236.23 424.892L236.48 423.923C235.171 423.585 233.866 423.243 232.565 422.898L232.308 423.865C231.005 423.519 229.705 423.169 228.41 422.816L228.672 421.851C227.379 421.499 226.089 421.143 224.804 420.784L224.534 421.747C223.247 421.387 221.963 421.024 220.683 420.657L220.959 419.695C219.67 419.326 218.385 418.953 217.104 418.576L216.822 419.536C215.525 419.154 214.231 418.769 212.942 418.381L213.23 417.423C211.943 417.035 210.661 416.644 209.382 416.249L209.087 417.204C207.806 416.808 206.53 416.409 205.258 416.006L205.56 415.053C204.29 414.651 203.024 414.245 201.763 413.836L201.455 414.787C200.167 414.37 198.885 413.949 197.607 413.524L197.922 412.575C196.643 412.15 195.369 411.721 194.099 411.289L193.777 412.236C192.505 411.803 191.238 411.366 189.975 410.926L190.304 409.982C189.044 409.542 187.788 409.099 186.538 408.653L186.202 409.595C184.936 409.143 183.676 408.688 182.42 408.229L182.764 407.29C181.495 406.826 180.231 406.359 178.972 405.888L178.622 406.825C177.36 406.353 176.104 405.877 174.853 405.398L175.211 404.465C173.962 403.986 172.719 403.505 171.481 403.019L171.116 403.95C169.873 403.463 168.635 402.972 167.402 402.478L167.775 401.55C166.518 401.046 165.267 400.538 164.021 400.027L163.641 400.952C162.393 400.439 161.151 399.923 159.914 399.403L160.301 398.481C159.067 397.963 157.838 397.44 156.615 396.914L156.22 397.833C154.994 397.306 153.774 396.775 152.56 396.241L152.963 395.325C151.726 394.781 150.496 394.233 149.271 393.682L148.861 394.594C147.628 394.039 146.402 393.48 145.182 392.917L145.601 392.009C144.384 391.448 143.173 390.883 141.968 390.315L141.541 391.219C140.333 390.649 139.132 390.076 137.937 389.498L138.372 388.598C137.158 388.012 135.952 387.422 134.751 386.829L134.308 387.725C133.095 387.126 131.889 386.522 130.69 385.915L131.142 385.023C129.945 384.417 128.755 383.807 127.572 383.194L127.112 384.082C125.926 383.467 124.747 382.849 123.574 382.227L124.043 381.343C122.854 380.712 121.672 380.077 120.497 379.439L120.019 380.317C118.83 379.671 117.648 379.021 116.474 378.366L116.96 377.493C115.788 376.84 114.624 376.184 113.467 375.524L112.972 376.392C111.812 375.731 110.66 375.065 109.515 374.396L110.019 373.533C108.856 372.852 107.7 372.168 106.552 371.48L106.038 372.338C104.877 371.642 103.724 370.943 102.579 370.239L103.103 369.387C101.961 368.686 100.828 367.98 99.7026 367.271L99.1695 368.117C98.041 367.406 96.9207 366.691 95.8086 365.972L96.3514 365.132C95.2154 364.398 94.088 363.66 92.9694 362.918L92.4165 363.751C91.2901 363.004 90.1725 362.253 89.0638 361.497L89.6267 360.671C88.5214 359.918 87.425 359.161 86.3376 358.401L85.7644 359.22C84.6694 358.454 83.5834 357.685 82.5065 356.911L83.0899 356.099C81.9893 355.308 80.8983 354.513 79.8169 353.715L79.2228 354.519C78.1379 353.718 77.0627 352.912 75.9973 352.103L76.6022 351.307C75.5403 350.5 74.4883 349.69 73.4462 348.875L72.8305 349.663C71.7688 348.834 70.7173 348 69.676 347.162L70.3028 346.383C69.2504 345.537 68.2086 344.686 67.1774 343.831L66.5393 344.601C65.5043 343.744 64.4801 342.882 63.4666 342.016L64.1161 341.256C63.1064 340.393 62.1075 339.527 61.1195 338.656L60.4585 339.407C59.4371 338.507 58.4271 337.603 57.4288 336.695L58.1017 335.955C57.1073 335.051 56.1245 334.142 55.1534 333.229L54.4686 333.958C53.4936 333.042 52.5303 332.121 51.5789 331.197L52.2757 330.479C51.3119 329.543 50.3603 328.602 49.4212 327.658L48.7121 328.363C47.7572 327.403 46.8151 326.438 45.8858 325.47L46.6074 324.777C45.6823 323.813 44.7699 322.845 43.8706 321.872L43.1365 322.551C42.2259 321.567 41.3285 320.579 40.4443 319.586L41.191 318.921C40.2924 317.912 39.4075 316.899 38.5367 315.882L37.7771 316.533C36.902 315.511 36.0408 314.484 35.1938 313.454L35.9662 312.819C35.1223 311.793 34.2925 310.763 33.4771 309.728L32.6918 310.348C31.8502 309.28 31.0236 308.209 30.2122 307.133L31.0106 306.531C30.2036 305.461 29.4117 304.387 28.6352 303.309L27.8238 303.893C27.0429 302.809 26.2774 301.721 25.5273 300.629L26.3516 300.063C25.5881 298.951 24.8407 297.836 24.1097 296.716L23.2723 297.262C22.5354 296.134 21.8149 295.001 21.1109 293.864L21.9612 293.337C21.2615 292.207 20.5784 291.073 19.912 289.935L19.0491 290.441C18.3651 289.273 17.6985 288.1 17.0495 286.924L17.925 286.441C17.2781 285.269 16.6489 284.093 16.0374 282.913L15.1495 283.373C14.534 282.185 13.9364 280.993 13.3568 279.797L14.2567 279.361C13.6711 278.153 13.1041 276.941 12.5558 275.725L11.6442 276.136C11.0909 274.909 10.5564 273.678 10.041 272.443L10.9639 272.058C10.4522 270.831 9.95946 269.602 9.48592 268.368L8.55234 268.726C8.06857 267.466 7.60461 266.202 7.16065 264.934L8.10446 264.604C7.66348 263.344 7.24241 262.082 6.84143 260.815L5.88807 261.117C5.48377 259.84 5.0997 258.559 4.73605 257.275L5.69823 257.002C5.33427 255.717 4.99095 254.428 4.66844 253.136L3.69819 253.378C3.37313 252.075 3.06903 250.769 2.78607 249.46L3.76352 249.249C3.48264 247.949 3.22279 246.645 2.98412 245.339L2.0004 245.519C1.75928 244.199 1.53961 242.875 1.34158 241.548L2.33062 241.401C2.13419 240.085 1.95924 238.766 1.80593 237.444L0.812589 237.559C0.658268 236.228 0.525709 234.894 0.415099 233.557L1.4117 233.474C1.30229 232.152 1.21454 230.826 1.14863 229.498L0.149855 229.547C0.0833929 228.208 0.0389447 226.865 0.0166973 225.52L1.01656 225.503C1.00553 224.836 1 224.169 1 223.5C1 222.832 1.00552 222.164 1.01655 221.497L0.0166853 221.481C0.0389249 220.135 0.0833656 218.793 0.149821 217.454L1.14859 217.503C1.2145 216.175 1.30225 214.849 1.41164 213.527L0.415042 213.444C0.525645 212.107 0.658196 210.773 0.812509 209.442L1.80586 209.557C1.95915 208.235 2.1341 206.916 2.33052 205.6L1.34147 205.452C1.5395 204.126 1.75916 202.802 2.00028 201.482L2.984 201.662C3.22266 200.355 3.48251 199.052 3.76338 197.752L2.78593 197.541C3.06888 196.231 3.37298 194.925 3.69803 193.623L4.66828 193.865C4.99078 192.572 5.3341 191.284 5.69805 189.998L4.73587 189.726C5.09952 188.442 5.48358 187.161 5.88787 185.884L6.84123 186.186C7.24221 184.919 7.66328 183.656 8.10425 182.397L7.16044 182.066C7.6044 180.798 8.06835 179.534 8.55212 178.274L9.4857 178.633C9.95924 177.399 10.4519 176.169 10.9636 174.943L10.0408 174.558C10.5562 173.323 11.0906 172.092 11.644 170.865L12.5556 171.276C13.1038 170.06 13.6708 168.848 14.2564 167.64L13.3565 167.204C13.9361 166.008 14.5338 164.816 15.1493 163.628L16.0372 164.088C16.6486 162.908 17.2778 161.732 17.9247 160.559L17.0492 160.076C17.6982 158.9 18.3648 157.728 19.0488 156.56L19.9117 157.065C20.5781 155.927 21.2612 154.793 21.9609 153.663L21.1106 153.137C21.8145 152 22.5351 150.867 23.272 149.738L24.1094 150.285C24.8404 149.165 25.5877 148.049 26.3513 146.937L25.527 146.371C26.2771 145.279 27.0426 144.191 27.8235 143.107L28.6349 143.692C29.4114 142.614 30.2033 141.54 31.0103 140.47L30.2119 139.868C31.0233 138.792 31.8499 137.72 32.6915 136.653L33.4767 137.272C34.2922 136.238 35.122 135.208 35.9658 134.181L35.1934 133.546C36.0405 132.516 36.9016 131.49 37.7768 130.468L38.5364 131.118C39.4072 130.101 40.292 129.088 41.1907 128.079L40.444 127.414C41.3281 126.422 42.2256 125.433 43.1362 124.449L43.8702 125.128C44.7696 124.156 45.6819 123.187 46.6071 122.223L45.8855 121.531C46.8148 120.562 47.7569 119.598 48.7117 118.637L49.4209 119.342C50.36 118.398 51.3116 117.457 52.2754 116.521L51.5785 115.804C52.5299 114.879 53.4932 113.959 54.4682 113.042L55.1531 113.771C56.1241 112.858 57.1069 111.95 58.1014 111.045L57.4285 110.305C58.4268 109.397 59.4367 108.493 60.4582 107.594L61.1192 108.344C62.1072 107.474 63.1061 106.607 64.1158 105.745L63.4662 104.984C64.4797 104.119 65.504 103.257 66.5389 102.399L67.1771 103.169C68.2082 102.314 69.2501 101.464 70.3025 100.617L69.6757 99.8378C70.7169 99.0002 71.7684 98.1665 72.8301 97.3369L73.4458 98.1249C74.488 97.3106 75.54 96.5001 76.6018 95.6935L75.9969 94.8972C77.0624 94.0879 78.1376 93.2826 79.2225 92.4812L79.8166 93.2856C80.8979 92.4869 81.9889 91.6922 83.0896 90.9014L82.5061 90.0893C83.583 89.3156 84.669 88.5458 85.7641 87.7799L86.3372 88.5994C87.4246 87.8388 88.5211 87.0821 89.6264 86.3293L89.0634 85.5028C90.1722 84.7476 91.2898 83.9964 92.4162 83.2491L92.969 84.0824C94.0876 83.3403 95.215 82.602 96.3511 81.8678L95.8083 81.0279C96.9203 80.3091 98.0406 79.5942 99.1691 78.883L99.7023 79.729C100.828 79.0199 101.961 78.3146 103.102 77.6131L102.579 76.7611C103.724 76.0576 104.876 75.358 106.037 74.6624L106.551 75.5201C107.699 74.8321 108.855 74.1479 110.019 73.4676L109.514 72.6043C110.659 71.935 111.812 71.2695 112.971 70.6077L113.467 71.4763C114.624 70.8163 115.788 70.16 116.96 69.5075L116.473 68.6338C117.648 67.9797 118.83 67.3293 120.019 66.6828L120.497 67.5614C121.672 66.9228 122.854 66.2878 124.043 65.6567L123.574 64.7734C124.746 64.1513 125.926 63.5328 127.111 62.9181L127.572 63.806C128.755 63.1927 129.945 62.5832 131.141 61.9774L130.689 61.0853C131.889 60.478 133.095 59.8746 134.308 59.275L134.751 60.1714C135.951 59.578 137.158 58.9883 138.371 58.4024L137.936 57.5019C139.132 56.9247 140.333 56.3511 141.541 55.7813L141.967 56.6856C143.172 56.117 144.383 55.5521 145.601 54.9909L145.182 54.0827C146.402 53.5203 147.628 52.9615 148.86 52.4065L149.271 53.3182C150.495 52.7667 151.726 52.2189 152.962 51.6748L152.559 50.7595C153.774 50.2252 154.994 49.6944 156.219 49.1673L156.614 50.086C157.838 49.56 159.066 49.0376 160.301 48.5188L159.913 47.5969C161.15 47.0771 162.393 46.5609 163.641 46.0485L164.021 46.9735C165.266 46.4621 166.518 45.9543 167.774 45.4503L167.402 44.5221C168.635 44.0278 169.872 43.537 171.115 43.0498L171.48 43.9809C172.718 43.4955 173.962 43.0138 175.21 42.5356L174.853 41.6018C176.104 41.1227 177.36 40.6472 178.621 40.1753L178.972 41.1119C180.23 40.641 181.494 40.1737 182.763 39.71L182.42 38.7707C183.676 38.312 184.936 37.8568 186.201 37.4052L186.537 38.347C187.788 37.9007 189.044 37.4578 190.304 37.0185L189.975 36.0742C191.237 35.6341 192.505 35.1975 193.776 34.7645L194.099 35.7112C195.368 35.2789 196.643 34.8503 197.922 34.4253L197.606 33.4763C198.884 33.0516 200.167 32.6304 201.454 32.2129L201.763 33.1641C203.024 32.755 204.289 32.3494 205.559 31.9473L205.257 30.994C206.53 30.5912 207.806 30.1919 209.087 29.7962L209.382 30.7516C210.66 30.3566 211.943 29.965 213.23 29.5771L212.941 28.6196C214.231 28.231 215.524 27.8459 216.822 27.4644L217.104 28.4238C218.385 28.0473 219.669 27.6743 220.958 27.3048L220.683 26.3435C221.962 25.9766 223.246 25.6131 224.534 25.2532L224.803 26.2163C226.089 25.8569 227.378 25.5011 228.672 25.1487L228.409 24.1838C229.705 23.8309 231.004 23.4815 232.308 23.1356L232.564 24.1021C233.865 23.7568 235.17 23.415 236.479 23.0767L236.229 22.1085C237.517 21.7757 238.809 21.4464 240.104 21.1205L240.348 22.0902C241.639 21.7653 242.934 21.4438 244.233 21.1257L243.995 20.1544C245.295 19.8359 246.6 19.5208 247.907 19.2092L248.139 20.182C249.445 19.8709 250.754 19.5632 252.067 19.2591L251.841 18.2849C253.151 17.9815 254.465 17.6815 255.782 17.385L256.001 18.3606C257.297 18.0689 258.597 17.7805 259.899 17.4956L259.686 16.5187C260.99 16.2334 262.298 15.9514 263.609 15.673L263.817 16.6512C265.126 16.3731 266.438 16.0985 267.754 15.8274L267.552 14.848C268.87 14.5764 270.191 14.3084 271.515 14.0438L271.711 15.0244C273.024 14.762 274.34 14.503 275.66 14.2475L275.47 13.2657C276.777 13.0125 278.088 12.7627 279.401 12.5164L279.586 13.4992C280.897 13.2532 282.212 13.0106 283.53 12.7714L283.351 11.7875C284.671 11.548 285.993 11.3119 287.318 11.0792L287.491 12.0642C288.815 11.8319 290.141 11.603 291.471 11.3776L291.303 10.3917C292.624 10.1678 293.948 9.94728 295.274 9.73023L295.435 10.7171C296.749 10.5022 298.065 10.2906 299.384 10.0824L299.228 9.09467C300.549 8.88622 301.872 8.68116 303.198 8.47953L303.349 9.46817C304.673 9.26682 306 9.06888 307.329 8.87438L307.185 7.88491C308.516 7.69014 309.85 7.49881 311.187 7.31094L311.326 8.3012C312.651 8.11506 313.978 7.93231 315.307 7.75298L315.174 6.76195C316.495 6.58375 317.819 6.40891 319.145 6.23746L319.273 7.22921C320.597 7.058 321.924 6.89017 323.254 6.72575L323.131 5.73331C324.462 5.56866 325.796 5.40742 327.132 5.2496L327.249 6.2427C328.583 6.0851 329.92 5.93091 331.259 5.78017L331.147 4.78645C332.479 4.63649 333.813 4.48994 335.15 4.3468L335.256 5.34111C336.58 5.19931 337.906 5.06087 339.235 4.92581L339.134 3.93094C340.464 3.79569 341.797 3.66382 343.131 3.53535L343.227 4.53075C344.56 4.40245 345.895 4.27754 347.233 4.15604L347.142 3.16015C348.482 3.03848 349.823 2.92024 351.166 2.80542L351.251 3.80179C352.587 3.68762 353.925 3.57686 355.265 3.46951L355.185 2.4727C356.514 2.36622 357.845 2.2631 359.179 2.16335L359.253 3.16056C360.585 3.06093 361.918 2.96468 363.253 2.8718L363.184 1.87421C364.521 1.78121 365.86 1.6916 367.201 1.6054L367.266 2.60334C368.605 2.51724 369.946 2.43455 371.289 2.35527L371.231 1.35701C372.573 1.27774 373.918 1.20189 375.265 1.12946L375.319 2.12801C376.648 2.05652 377.98 1.98837 379.313 1.92357L379.264 0.924753C380.599 0.859876 381.936 0.798362 383.274 0.740228L383.317 1.73929C384.654 1.68123 385.992 1.62654 387.333 1.57525L387.294 0.575978C388.636 0.524617 389.98 0.476652 391.325 0.432098L391.359 1.43155C392.702 1.38705 394.048 1.34596 395.395 1.3083L395.367 0.308687C396.702 0.271364 398.038 0.237398 399.376 0.206802L399.399 1.20654C400.733 1.17605 402.068 1.14891 403.405 1.12513L403.387 0.125291C404.726 0.101489 406.066 0.0810601 407.408 0.06402L407.42 1.06394C408.761 1.04692 410.102 1.03329 411.445 1.02305L411.438 0.0230818C412.783 0.0128348 414.129 0.00599187 415.477 0.0025685L415.48 1.00257C416.153 1.00086 416.826 1 417.5 1C418.174 1 418.847 1.00086 419.52 1.00256L419.522 0.0025668C420.87 0.00598907 422.217 0.0128309 423.562 0.023077L423.554 1.02305C424.897 1.03328 426.239 1.04691 427.579 1.06393L427.592 0.0640119C428.933 0.0810507 430.274 0.101478 431.612 0.125279L431.594 1.12512C432.931 1.14889 434.267 1.17603 435.6 1.20653L435.623 0.206788C436.961 0.237382 438.298 0.271348 439.633 0.308669L439.605 1.30828C440.952 1.34595 442.297 1.38703 443.641 1.43153L443.674 0.432078C445.019 0.476631 446.363 0.524595 447.705 0.575953L447.667 1.57522C449.007 1.62652 450.345 1.6812 451.682 1.73926L451.725 0.740201C453.064 0.798335 454.4 0.859848 455.735 0.924724L455.687 1.92354C457.02 1.98834 458.351 2.05649 459.681 2.12798L459.734 1.12943C461.081 1.20185 462.426 1.27771 463.769 1.35697L463.71 2.35524C465.053 2.43451 466.395 2.51721 467.734 2.6033L467.798 1.60536C469.139 1.69157 470.478 1.78118 471.815 1.87417L471.746 2.87176C473.081 2.96464 474.415 3.06089 475.746 3.16052L475.821 2.1633C477.154 2.26306 478.485 2.36618 479.814 2.47266L479.734 3.46946C481.074 3.57681 482.412 3.68758 483.748 3.80174L483.833 2.80537C485.177 2.92019 486.518 3.03843 487.857 3.1601L487.767 4.15599C489.104 4.27749 490.439 4.4024 491.772 4.5307L491.868 3.5353C493.203 3.66377 494.535 3.79564 495.866 3.93089L495.765 4.92576C497.093 5.06082 498.419 5.19926 499.743 5.34106L499.85 4.34674C501.187 4.48988 502.521 4.63644 503.853 4.78639L503.741 5.78012C505.08 5.93086 506.416 6.08504 507.751 6.24264L507.868 5.24955C509.204 5.40736 510.538 5.5686 511.869 5.73325L511.746 6.72569C513.075 6.89011 514.402 7.05794 515.727 7.22915L515.855 6.23741C517.181 6.40885 518.505 6.58368 519.826 6.76189L519.692 7.75292C521.022 7.93225 522.349 8.11499 523.673 8.30114L523.813 7.31087C525.149 7.49874 526.483 7.69007 527.815 7.88484L527.67 8.87431C529 9.06881 530.327 9.26675 531.651 9.4681L531.801 8.47946C533.127 8.68109 534.451 8.88615 535.772 9.0946L535.616 10.0824C536.935 10.2905 538.251 10.5021 539.564 10.717L539.726 9.73015C541.052 9.94721 542.375 10.1677 543.696 10.3916L543.529 11.3776C544.858 11.6029 546.185 11.8318 547.508 12.0641L547.681 11.0792C549.007 11.3118 550.329 11.5479 551.649 11.7874L551.47 12.7713C552.788 13.0105 554.102 13.2531 555.414 13.4991L555.598 12.5163C556.912 12.7627 558.222 13.0125 559.53 13.2657L559.34 14.2474C560.659 14.5029 561.976 14.7619 563.289 15.0243L563.485 14.0437C564.809 14.3083 566.13 14.5764 567.447 14.8479L567.246 15.8273C568.561 16.0984 569.874 16.373 571.183 16.6511L571.391 15.6729C572.702 15.9514 574.01 16.2333 575.314 16.5186L575.1 17.4955C576.403 17.7804 577.702 18.0688 578.998 18.3605L579.218 17.3849C580.535 17.6814 581.848 17.9814 583.158 18.2848L582.932 19.259C584.245 19.5631 585.555 19.8708 586.86 20.1819L587.092 19.2091C588.4 19.5207 589.704 19.8358 591.005 20.1543L590.767 21.1256C592.065 21.4437 593.361 21.7652 594.652 22.0901L594.896 21.1204C596.191 21.4463 597.483 21.7756 598.77 22.1084L598.52 23.0766C599.829 23.4149 601.134 23.7567 602.435 24.102L602.692 23.1355C603.995 23.4814 605.295 23.8308 606.59 24.1837L606.328 25.1486C607.621 25.5009 608.911 25.8568 610.196 26.2162L610.466 25.2531C611.753 25.613 613.037 25.9765 614.317 26.3434L614.041 27.3046C615.33 27.6741 616.615 28.0472 617.896 28.4237L618.178 27.4643C619.475 27.8458 620.769 28.2309 622.058 28.6195L621.769 29.5769C623.057 29.9649 624.339 30.3564 625.618 30.7515L625.913 29.7961C627.194 30.1918 628.47 30.5911 629.742 30.9939L629.44 31.9472C630.71 32.3493 631.976 32.7549 633.237 33.1639L633.545 32.2127C634.832 32.6303 636.115 33.0514 637.393 33.4762L637.078 34.4251C638.357 34.8502 639.631 35.2788 640.901 35.711L641.223 34.7644C642.495 35.1974 643.762 35.6339 645.025 36.0741L644.696 37.0183C645.956 37.4576 647.211 37.9005 648.462 38.3469L648.798 37.4051C650.064 37.8567 651.324 38.3118 652.58 38.7706L652.236 39.7098C653.505 40.1735 654.769 40.6408 656.028 41.1118L656.378 40.1752C657.64 40.647 658.896 41.1225 660.147 41.6016L659.789 42.5355C661.038 43.0136 662.281 43.4954 663.519 43.9807L663.884 43.0497C665.127 43.5369 666.365 44.0276 667.598 44.522L667.225 45.4501C668.482 45.9542 669.733 46.4619 670.979 46.9734L671.359 46.0483C672.607 46.5608 673.849 47.077 675.086 47.5968L674.699 48.5187C675.933 49.0374 677.162 49.5598 678.385 50.0858L678.78 49.1672C680.006 49.6943 681.226 50.225 682.44 50.7594L682.037 51.6747C683.274 52.2187 684.504 52.7666 685.729 53.3181L686.139 52.4063C687.372 52.9613 688.598 53.5201 689.818 54.0825L689.399 54.9907C690.616 55.5519 691.827 56.1169 693.032 56.6854L693.459 55.7811C694.667 56.3509 695.868 56.9245 697.063 57.5017L696.628 58.4022C697.842 58.9881 699.048 59.5778 700.249 60.1712L700.692 59.2748C701.905 59.8744 703.111 60.4779 704.31 61.0851L703.858 61.9772C705.055 62.583 706.245 63.1925 707.428 63.8058L707.888 62.9179C709.074 63.5326 710.253 64.1511 711.425 64.7732L710.957 65.6565C712.146 66.2876 713.328 66.9226 714.503 67.5612L714.981 66.6826C716.17 67.3291 717.352 67.9795 718.526 68.6336L718.04 69.5073C719.212 70.1598 720.376 70.816 721.533 71.4761L722.028 70.6075C723.188 71.2693 724.34 71.9348 725.485 72.6041L724.981 73.4674C726.144 74.1477 727.3 74.8319 728.448 75.5199L728.962 74.6622C730.123 75.3578 731.276 76.0574 732.421 76.7609L731.897 77.6128C733.039 78.3143 734.172 79.0197 735.297 79.7288L735.831 78.8828C736.959 79.5939 738.079 80.3089 739.191 81.0277L738.649 81.8675C739.785 82.6018 740.912 83.34 742.031 84.0821L742.583 83.2488C743.71 83.9961 744.827 84.7474 745.936 85.5025L745.373 86.329C746.479 87.0819 747.575 87.8386 748.662 88.5992L749.236 87.7797C750.331 88.5456 751.417 89.3154 752.494 90.089L751.91 90.9012C753.011 91.6919 754.102 92.4866 755.183 93.2853L755.777 92.481C756.862 93.2823 757.937 94.0877 759.003 94.897L758.398 95.6933C759.46 96.4998 760.512 97.3103 761.554 98.1246L762.17 97.3367C763.231 98.1663 764.283 98.9999 765.324 99.8375L764.697 100.617C765.75 101.463 766.791 102.314 767.823 103.169L768.461 102.399C769.496 103.256 770.52 104.118 771.533 104.984L770.884 105.744C771.894 106.607 772.892 107.473 773.88 108.344L774.541 107.593C775.563 108.493 776.573 109.397 777.571 110.305L776.898 111.045C777.893 111.95 778.875 112.858 779.847 113.771L780.531 113.042C781.506 113.958 782.47 114.879 783.421 115.803L782.724 116.521C783.688 117.457 784.64 118.398 785.579 119.342L786.288 118.637C787.243 119.597 788.185 120.562 789.114 121.53L788.393 122.223C789.318 123.187 790.23 124.155 791.129 125.128L791.864 124.449C792.774 125.433 793.672 126.421 794.556 127.414L793.809 128.079C794.708 129.088 795.592 130.101 796.463 131.118L797.223 130.467C798.098 131.489 798.959 132.515 799.806 133.546L799.034 134.181C799.878 135.207 800.707 136.237 801.523 137.272L802.308 136.652C803.15 137.72 803.976 138.791 804.788 139.867L803.989 140.469C804.796 141.539 805.588 142.613 806.365 143.691L807.176 143.107C807.957 144.191 808.723 145.279 809.473 146.371L808.648 146.937C809.412 148.049 810.159 149.164 810.89 150.284L811.728 149.738C812.465 150.866 813.185 151.999 813.889 153.136L813.039 153.663C813.738 154.793 814.422 155.927 815.088 157.065L815.951 156.559C816.635 157.727 817.302 158.9 817.951 160.076L817.075 160.559C817.722 161.731 818.351 162.907 818.963 164.087L819.85 163.627C820.466 164.815 821.064 166.007 821.643 167.203L820.743 167.639C821.329 168.847 821.896 170.059 822.444 171.275L823.356 170.864C823.909 172.091 824.444 173.322 824.959 174.557L824.036 174.942C824.548 176.169 825.041 177.398 825.514 178.632L826.448 178.274C826.931 179.534 827.395 180.798 827.839 182.066L826.896 182.396C827.336 183.656 827.758 184.918 828.159 186.185L829.112 185.883C829.516 187.16 829.9 188.441 830.264 189.725L829.302 189.998C829.666 191.283 830.009 192.572 830.332 193.864L831.302 193.622C831.627 194.925 831.931 196.231 832.214 197.54L831.237 197.751C831.517 199.051 831.777 200.355 832.016 201.661L833 201.481C833.241 202.801 833.46 204.125 833.658 205.451L832.669 205.599C832.866 206.915 833.041 208.234 833.194 209.556L834.187 209.441C834.342 210.772 834.474 212.106 834.585 213.443L833.588 213.526C833.698 214.848 833.785 216.174 833.851 217.502L834.85 217.453Z" stroke="#7161BA" stroke-width="2" stroke-dasharray="4 4"/>
</svg>
