<svg width="160" height="160" viewBox="0 0 160 160" fill="none" xmlns="http://www.w3.org/2000/svg">
<ellipse cx="80" cy="140.171" rx="80" ry="19.829" fill="#E3E1F1"/>
<ellipse cx="80" cy="92.0262" rx="44" ry="44.4962" fill="#E3E1F1"/>
<path d="M106.835 46.5188C121.927 55.8128 132 72.5715 132 91.7014C132 120.924 108.495 144.613 79.5 144.613C50.5051 144.613 27 120.924 27 91.7014C27 72.5715 37.0731 55.8128 52.1653 46.5188" stroke="#7161BA" stroke-width="2" stroke-linecap="round"/>
<path fill-rule="evenodd" clip-rule="evenodd" d="M122.018 122.675C112.476 135.969 96.9869 144.614 79.501 144.614C62.0151 144.614 46.5258 135.969 36.9844 122.675H122.018ZM56.5049 126.939C55.9526 126.939 55.5049 127.387 55.5049 127.939C55.5049 128.492 55.9526 128.939 56.5049 128.939H78.1991C78.7514 128.939 79.1991 128.492 79.1991 127.939C79.1991 127.387 78.7514 126.939 78.1991 126.939H56.5049ZM101.629 132.204C102.181 132.204 102.629 132.652 102.629 133.204C102.629 133.756 102.181 134.204 101.629 134.204H79.9344C79.3821 134.204 78.9344 133.756 78.9344 133.204C78.9344 132.652 79.3821 132.204 79.9344 132.204H101.629ZM80.6698 127.939C80.6698 127.387 81.1175 126.939 81.6698 126.939H87.7442C88.2965 126.939 88.7442 127.387 88.7442 127.939C88.7442 128.492 88.2965 128.939 87.7442 128.939H81.6698C81.1175 128.939 80.6698 128.492 80.6698 127.939ZM76.4636 132.204C77.0159 132.204 77.4636 132.652 77.4636 133.204C77.4636 133.756 77.0159 134.204 76.4636 134.204H70.3893C69.837 134.204 69.3893 133.756 69.3893 133.204C69.3893 132.652 69.837 132.204 70.3893 132.204H76.4636Z" fill="#7161BA"/>
<rect x="60" y="28.3157" width="39" height="79.8909" rx="5" fill="#E3E1F1"/>
<rect x="58" y="25.2708" width="43" height="91.0375" rx="6" stroke="#7161BA" stroke-width="2"/>
<path d="M75 31.3496H84" stroke="#7161BA" stroke-width="2" stroke-linecap="round"/>
<ellipse cx="101" cy="69.7783" rx="9" ry="9.1015" fill="#7161BA"/>
<path d="M84.347 115.672V122.365H102.701V116.628C102.701 116.628 106.565 116.15 108.497 114.238C110.429 112.325 109.946 107.545 109.946 107.545V88.9443C109.946 88.392 109.497 87.9505 108.952 88.0378C108.268 88.1473 107.347 88.3849 106.565 88.9004C105.116 89.8565 104.15 91.2907 104.15 91.2907V72.1684C104.15 72.1684 104.15 69.7781 101.011 69.7781C97.8712 69.7781 97.8712 72.1684 97.8712 72.1684V85.554C97.8712 85.554 97.8712 83.1637 94.9732 83.1637C92.0751 83.1637 92.0751 85.554 92.0751 85.554C92.0751 85.554 92.0751 83.1637 89.1771 83.1637C86.2791 83.1637 86.2791 85.554 86.2791 85.554C86.2791 85.554 86.2791 83.1637 83.1395 83.1637C80 83.1637 80 85.554 80 85.554V107.545C80 112.899 82.898 115.194 84.347 115.672Z" fill="#E3E1F1"/>
<path d="M86.2791 85.554V92.7249M86.2791 85.554C86.2791 85.554 86.2791 83.1637 83.1395 83.1637C80 83.1637 80 85.554 80 85.554C80 90.6533 80 102.19 80 107.545C80 112.899 82.898 115.194 84.347 115.672V122.365H102.701V116.628C102.701 116.628 106.565 116.15 108.497 114.238C110.429 112.325 109.946 107.545 109.946 107.545V88.9443C109.946 88.392 109.497 87.9505 108.952 88.0378C108.268 88.1473 107.347 88.3849 106.565 88.9004C105.116 89.8565 104.15 91.2907 104.15 91.2907M86.2791 85.554C86.2791 85.554 86.2791 83.1637 89.1771 83.1637C92.0751 83.1637 92.0751 85.554 92.0751 85.554M92.0751 85.554V92.7249M92.0751 85.554C92.0751 85.554 92.0751 83.1637 94.9732 83.1637C97.8712 83.1637 97.8712 85.554 97.8712 85.554M97.8712 85.554V96.0713M97.8712 85.554V72.1684C97.8712 72.1684 97.8712 69.7781 101.011 69.7781C104.15 69.7781 104.15 72.1684 104.15 72.1684V91.2907M104.15 99.4177V91.2907" stroke="#7161BA" stroke-width="2" stroke-linecap="round"/>
<path d="M50 18.7086C50 28.4995 42.1544 36.4173 32.5 36.4173C22.8456 36.4173 15 28.4995 15 18.7086C15 8.91782 22.8456 1 32.5 1C42.1544 1 50 8.91782 50 18.7086Z" stroke="#7161BA" stroke-width="2"/>
<path d="M28.4336 11.3001C25.8311 10.2474 23 12.185 23 15.0203V15.2139C23 18.6872 24.6172 21.958 27.3652 24.0418L33 28.316L38.6348 24.0418C41.3828 21.958 43 18.6872 43 15.2139V15.0203C43 12.185 40.1689 10.2474 37.5664 11.3001C34.8086 12.4151 33 15.1161 33 18.1203C33 15.1161 31.1914 12.4151 28.4336 11.3001Z" fill="#7161BA"/>
</svg>
