<svg width="160" height="160" viewBox="0 0 160 160" fill="none" xmlns="http://www.w3.org/2000/svg">
<circle cx="80" cy="80" r="80" fill="#EEEDF2"/>
<path fill-rule="evenodd" clip-rule="evenodd" d="M53.4023 129.409C52.8501 129.409 52.4023 129.857 52.4023 130.409C52.4023 130.961 52.8501 131.409 53.4023 131.409H73.6503C74.2026 131.409 74.6503 130.961 74.6503 130.409C74.6503 129.857 74.2026 129.409 73.6503 129.409H53.4023ZM95.1544 134.134C95.7067 134.134 96.1544 134.582 96.1544 135.134C96.1544 135.686 95.7067 136.134 95.1544 136.134H74.9065C74.3542 136.134 73.9065 135.686 73.9065 135.134C73.9065 134.582 74.3542 134.134 74.9065 134.134H95.1544ZM75.8888 130.409C75.8888 129.857 76.3365 129.409 76.8888 129.409H82.5582C83.1105 129.409 83.5582 129.857 83.5582 130.409C83.5582 130.961 83.1105 131.409 82.5582 131.409H76.8888C76.3365 131.409 75.8888 130.961 75.8888 130.409ZM71.668 134.134C72.2203 134.134 72.668 134.582 72.668 135.134C72.668 135.686 72.2203 136.134 71.668 136.134H65.9985C65.4463 136.134 64.9985 135.686 64.9985 135.134C64.9985 134.582 65.4463 134.134 65.9985 134.134H71.668Z" fill="#7161BA"/>
<path d="M24 124.867H136" stroke="#7161BA" stroke-width="2" stroke-linecap="round"/>
<path fill-rule="evenodd" clip-rule="evenodd" d="M64.6954 52.2383H87.8421C89.5858 52.2383 91.0687 53.6925 91.0687 55.5728V115.806C91.0687 117.686 89.5858 119.14 87.8421 119.14H64.6954C64.6149 119.14 64.535 119.137 64.4557 119.131C63.5766 119.685 62.5156 120.017 61.7368 120.204C62.578 120.794 63.5972 121.14 64.6954 121.14H87.8421C90.7287 121.14 93.0687 118.752 93.0687 115.806V55.5728C93.0687 52.6266 90.7287 50.2383 87.8421 50.2383H64.6954C61.8088 50.2383 59.4688 52.6266 59.4688 55.5728V83.3312C60.5872 83.3697 61.1676 83.8084 61.4688 84.2533V55.5728C61.4688 53.6925 62.9517 52.2383 64.6954 52.2383Z" fill="#7161BA"/>
<path d="M72.5352 54.9033H80.0018" stroke="#7161BA" stroke-width="2" stroke-linecap="round"/>
<path fill-rule="evenodd" clip-rule="evenodd" d="M61.7917 90.0813C64.4977 89.0592 66.4245 86.4222 66.4245 83.3304C66.4245 79.3515 63.2335 76.126 59.2972 76.126C55.3609 76.126 52.1699 79.3515 52.1699 83.3304C52.1699 86.4285 54.1045 89.0699 56.8192 90.0875V85.2225C56.8192 85.2225 56.8192 83.3304 59.3055 83.3304C61.7917 83.3304 61.7917 85.2225 61.7917 85.2225V90.0813Z" fill="#7161BA"/>
<path d="M47.5517 95.4801V101.205M47.5517 95.4801C47.5517 95.4801 47.5517 93.5719 45.1098 93.5719C42.668 93.5719 42.668 95.4801 42.668 95.4801C42.668 99.5511 42.668 108.762 42.668 113.036C42.668 117.31 44.922 119.142 46.049 119.524V124.867H60.3245V120.287C60.3245 120.287 63.3299 119.906 64.8325 118.379C66.3352 116.852 65.9596 113.036 65.9596 113.036V98.3884C65.9596 97.8361 65.5088 97.3936 64.9675 97.5031C64.4678 97.6042 63.8577 97.7942 63.3299 98.1517C62.2029 98.915 61.4515 100.06 61.4515 100.06M47.5517 95.4801C47.5517 95.4801 47.5517 93.5719 49.8057 93.5719C52.0597 93.5719 52.0597 95.4801 52.0597 95.4801M52.0597 95.4801V101.205M52.0597 95.4801C52.0597 95.4801 52.0597 93.5719 54.3138 93.5719C56.5678 93.5719 56.5678 95.4801 56.5678 95.4801M56.5678 95.4801V103.876M56.5678 95.4801V84.794C56.5678 84.794 56.5678 82.8857 59.0097 82.8857C61.4515 82.8857 61.4515 84.794 61.4515 84.794V100.06M61.4515 106.548V100.06" stroke="#7161BA" stroke-width="2" stroke-linecap="round"/>
<path fill-rule="evenodd" clip-rule="evenodd" d="M49.2949 24C46.5335 24 44.2949 26.2386 44.2949 29V36.1815V41.3908V87.8685C44.2949 88.4207 44.7426 88.8685 45.2949 88.8685C45.8472 88.8685 46.2949 88.4207 46.2949 87.8685V42.3908H114.642V113.448C114.642 115.109 113.308 116.448 111.655 116.448H98.6681C98.1158 116.448 97.6681 116.896 97.6681 117.448C97.6681 118 98.1158 118.448 98.6681 118.448H111.655C114.421 118.448 116.642 116.205 116.642 113.448V29C116.642 26.2386 114.403 24 111.642 24H67.459C66.9067 24 66.459 24.4477 66.459 25C66.459 25.5523 66.9067 26 67.459 26H111.642C113.299 26 114.642 27.3431 114.642 29V40.3908H46.2949V36.1815V29C46.2949 27.3431 47.6381 26 49.2949 26H58.7861C59.3384 26 59.7861 25.5523 59.7861 25C59.7861 24.4477 59.3384 24 58.7861 24H49.2949Z" fill="#7161BA"/>
<ellipse cx="55.0543" cy="31.1132" rx="1.4" ry="1.39938" fill="#7161BA"/>
<ellipse cx="58.8531" cy="31.1132" rx="1.4" ry="1.39938" fill="#7161BA"/>
<ellipse cx="62.6539" cy="31.1132" rx="1.4" ry="1.39938" fill="#7161BA"/>
<path d="M54.9316 36.0723H60.7136" stroke="#7161BA" stroke-width="2" stroke-linecap="round"/>
<path d="M64.5684 36.0723H73.2412" stroke="#7161BA" stroke-width="2" stroke-linecap="round"/>
<path d="M77.0957 36.0723H104.078" stroke="#7161BA" stroke-width="2" stroke-linecap="round"/>
</svg>
