<svg width="160" height="160" viewBox="0 0 160 160" fill="none" xmlns="http://www.w3.org/2000/svg">
<ellipse cx="80" cy="140.171" rx="80" ry="19.8294" fill="#E3E1F1"/>
<path fill-rule="evenodd" clip-rule="evenodd" d="M79 26.0005H27C24.7909 26.0005 23 27.7913 23 30.0005V115.822H16V122.003C16 129.735 22.268 136.003 30 136.003H79H128C135.732 136.003 142 129.735 142 122.003V115.822H135V30.0005C135 27.7913 133.209 26.0005 131 26.0005H79ZM31 32.0006C28.7909 32.0006 27 33.7915 27 36.0006V104.002C27 106.211 28.7909 108.002 31 108.002H126C128.209 108.002 130 106.211 130 104.002V36.0006C130 33.7915 128.209 32.0006 126 32.0006H31Z" fill="#E3E1F1"/>
<path d="M89 20.0005H22.5556C20.3464 20.0005 18.5556 21.7913 18.5556 24.0005V117.988M18.5556 117.988H63.4691M18.5556 117.988H11V126.003C11 133.735 17.268 140.003 25 140.003H30M79 117.988H63.4691M63.4691 117.988V123.485C63.4691 125.694 65.26 127.485 67.4691 127.485H79H90.5309C92.74 127.485 94.5309 125.694 94.5309 123.485V117.988M40.5 140.003H133C140.732 140.003 147 133.735 147 126.003V117.988H139.444M139.444 117.988H94.5309M139.444 117.988V79.0017M94.5309 117.988H86.7654" stroke="#7161BA" stroke-width="2" stroke-linecap="round"/>
<path d="M89 32.0007H31C28.7909 32.0007 27 33.7916 27 36.0007V104.002C27 106.211 28.7909 108.002 31 108.002H126C128.209 108.002 130 106.211 130 104.002V79.0017" stroke="#7161BA" stroke-width="2" stroke-linecap="round"/>
<ellipse cx="65.5" cy="60.0012" rx="11.5" ry="12.0002" fill="#7161BA"/>
<path fill-rule="evenodd" clip-rule="evenodd" d="M58.1631 71.311C51.0192 74.6584 46 82.5604 46 91.7752C46 95.4995 46.8199 101.481 48.2687 108.002H83.3313C84.78 101.481 85.6 95.4995 85.6 91.7752C85.6 82.5604 80.5807 74.6584 73.4369 71.311C71.4157 73.232 68.7376 74.4016 65.8 74.4016C62.8624 74.4016 60.1843 73.232 58.1631 71.311Z" fill="#7161BA"/>
<path d="M101 9C101 7.34315 102.343 6 104 6H132.586C133.37 6 134.122 6.3064 134.682 6.85373L147.096 18.977C147.674 19.5415 148 20.3153 148 21.1233V63.0012C148 64.6581 146.657 66.0012 145 66.0012H104C102.343 66.0012 101 64.6581 101 63.0012V9Z" fill="#E3E1F1" stroke="#E3E1F1" stroke-width="2"/>
<path d="M138.468 1.8453L139.163 1.12707L138.468 1.8453L152.087 15.0398C152.671 15.6048 153 16.3823 153 17.1945V69.0014C153 70.6583 151.657 72.0014 150 72.0014H100C98.3431 72.0014 97 70.6583 97 69.0014V4C97 2.34315 98.3431 1 100 1H136.38C137.159 1 137.908 1.30315 138.468 1.8453Z" stroke="#7161BA" stroke-width="2"/>
<path d="M136.14 12.8649L136.502 2.18085C136.531 1.3257 137.551 0.899519 138.179 1.47976L153.12 15.2654C153.789 15.8828 153.352 17.0003 152.442 17.0003H140.138C137.876 17.0003 136.063 15.1259 136.14 12.8649Z" fill="#7161BA"/>
<path d="M107 25.0005H128.5M133 25.0005H137.5" stroke="#7161BA" stroke-width="2" stroke-linecap="round"/>
<path d="M107 41.5007H128.5M133 41.5007H137.5" stroke="#7161BA" stroke-width="2" stroke-linecap="round"/>
<path d="M142 33.5007H116M111.5 33.5007H107" stroke="#7161BA" stroke-width="2" stroke-linecap="round"/>
<path d="M142 49.501H116M111.5 49.501H107" stroke="#7161BA" stroke-width="2" stroke-linecap="round"/>
</svg>
