<svg width="160" height="160" viewBox="0 0 160 160" fill="none" xmlns="http://www.w3.org/2000/svg">
<circle cx="80" cy="80" r="80" fill="#7161BA"/>
<path fill-rule="evenodd" clip-rule="evenodd" d="M67.8667 66.9336H29.6C26.5072 66.9336 24 69.4408 24 72.5336V124.8C24 127.893 26.5072 130.4 29.6 130.4H67.8667V128.534H29.6C27.5381 128.534 25.8667 126.862 25.8667 124.8V109.56C28.9217 106.348 35.2891 102.378 43.2947 105.149C46.2176 106.161 48.7065 107.627 51.0773 109.258C52.1793 110.016 53.2483 110.804 54.3276 111.6L54.3283 111.6L54.5798 111.786C55.7403 112.641 56.915 113.502 58.1301 114.317C60.9864 116.233 64.0729 117.898 67.8667 118.765V116.846C64.5275 116.016 61.7726 114.513 59.1699 112.767C57.9933 111.978 56.8492 111.14 55.6873 110.283L55.4318 110.095C54.357 109.302 53.264 108.496 52.1352 107.72C49.6935 106.04 47.049 104.473 43.9053 103.385C36.0315 100.659 29.6082 103.774 25.8667 106.995V72.5336C25.8667 70.4717 27.5381 68.8003 29.6 68.8003H67.8667V66.9336ZM67.8667 76.2669H56.6666C56.1512 76.2669 55.7333 76.6848 55.7333 77.2002V79.0669C55.7333 79.5824 56.1512 80.0002 56.6666 80.0002H67.8667V76.2669ZM67.8667 84.6669H50.1333C49.6178 84.6669 49.2 85.0848 49.2 85.6002C49.2 86.1157 49.6178 86.5336 50.1333 86.5336H67.8667V84.6669ZM67.8667 90.2669H50.1333C49.6178 90.2669 49.2 90.6848 49.2 91.2002C49.2 91.7157 49.6178 92.1336 50.1333 92.1336H67.8667V90.2669ZM34.2667 76.2669C32.2048 76.2669 30.5333 77.9384 30.5333 80.0002V88.4002C30.5333 90.4621 32.2048 92.1336 34.2667 92.1336H42.6666C44.7285 92.1336 46.4 90.4621 46.4 88.4002V80.0002C46.4 77.9384 44.7285 76.2669 42.6666 76.2669H34.2667ZM42.6666 78.1336H34.2667C33.2357 78.1336 32.4 78.9693 32.4 80.0002V88.4002C32.4 89.4312 33.2357 90.2669 34.2667 90.2669H42.6666C43.6976 90.2669 44.5333 89.4312 44.5333 88.4002V80.0002C44.5333 78.9693 43.6976 78.1336 42.6666 78.1336ZM50.1333 76.2669C49.6178 76.2669 49.2 76.6848 49.2 77.2002V79.0669C49.2 79.5824 49.6178 80.0002 50.1333 80.0002H52C52.5154 80.0002 52.9333 79.5824 52.9333 79.0669V77.2002C52.9333 76.6848 52.5154 76.2669 52 76.2669H50.1333ZM30.5333 122.934C30.5333 122.418 30.9512 122 31.4667 122H33.3333C33.8488 122 34.2667 122.418 34.2667 122.934V124.8C34.2667 125.316 33.8488 125.734 33.3333 125.734H31.4667C30.9512 125.734 30.5333 125.316 30.5333 124.8V122.934ZM38 122.934C38 122.418 38.4179 122 38.9333 122H40.8C41.3154 122 41.7333 122.418 41.7333 122.934V124.8C41.7333 125.316 41.3154 125.734 40.8 125.734H38.9333C38.4179 125.734 38 125.316 38 124.8V122.934ZM45.4666 122.934C45.4666 122.418 45.8845 122 46.4 122H48.2666C48.7821 122 49.2 122.418 49.2 122.934V124.8C49.2 125.316 48.7821 125.734 48.2666 125.734H46.4C45.8845 125.734 45.4666 125.316 45.4666 124.8V122.934Z" fill="#EEEDF2"/>
<path fill-rule="evenodd" clip-rule="evenodd" d="M86.5328 29.6006H73.4672C70.3744 29.6006 67.8672 32.1078 67.8672 35.2006V130.4C67.8672 133.493 70.3744 136 73.4672 136H130.4C133.493 136 136 133.493 136 130.4V35.2006C136 32.1078 133.493 29.6006 130.4 29.6006H117.333V31.6006H130.4C132.389 31.6006 134 33.2124 134 35.2006V130.4C134 132.389 132.389 134 130.4 134H73.4672C71.479 134 69.8672 132.389 69.8672 130.4V35.2006C69.8672 33.2124 71.479 31.6006 73.4672 31.6006H86.5328V29.6006Z" fill="#EEEDF2"/>
<rect x="87.5332" y="25" width="28.8" height="9.19999" rx="1" stroke="#EEEDF2" stroke-width="2"/>
<rect x="84.666" y="101.466" width="35.4666" height="3.73333" rx="1" fill="#EEEDF2"/>
<rect x="77.2012" y="109.867" width="50.3999" height="1.86666" rx="0.933332" fill="#EEEDF2"/>
<rect x="77.2012" y="115.466" width="50.3999" height="1.86666" rx="0.933332" fill="#EEEDF2"/>
<rect x="92.1328" y="121.066" width="20.5333" height="1.86666" rx="0.933332" fill="#EEEDF2"/>
<path d="M94.9336 69.2672L101 76.2672L111.734 60.8672" stroke="#EEEDF2" stroke-width="2" stroke-linecap="round"/>
<circle cx="102.399" cy="68.8002" r="18.6" stroke="#EEEDF2" stroke-width="2"/>
</svg>
