<svg width="197" height="195" viewBox="0 0 197 195" fill="none" xmlns="http://www.w3.org/2000/svg">
<g filter="url(#filter0_d)">
<circle cx="100" cy="95" r="80" fill="#7161BA"/>
<path fill-rule="evenodd" clip-rule="evenodd" d="M73.4023 144.409C72.8501 144.409 72.4023 144.857 72.4023 145.409C72.4023 145.961 72.8501 146.409 73.4023 146.409H93.6503C94.2026 146.409 94.6503 145.961 94.6503 145.409C94.6503 144.857 94.2026 144.409 93.6503 144.409H73.4023ZM115.154 149.134C115.707 149.134 116.154 149.582 116.154 150.134C116.154 150.686 115.707 151.134 115.154 151.134H94.9065C94.3542 151.134 93.9065 150.686 93.9065 150.134C93.9065 149.582 94.3542 149.134 94.9065 149.134H115.154ZM95.8888 145.409C95.8888 144.857 96.3365 144.409 96.8888 144.409H102.558C103.111 144.409 103.558 144.857 103.558 145.409C103.558 145.961 103.111 146.409 102.558 146.409H96.8888C96.3365 146.409 95.8888 145.961 95.8888 145.409ZM91.668 149.134C92.2203 149.134 92.668 149.582 92.668 150.134C92.668 150.686 92.2203 151.134 91.668 151.134H85.9985C85.4463 151.134 84.9985 150.686 84.9985 150.134C84.9985 149.582 85.4463 149.134 85.9985 149.134H91.668Z" fill="#F5F5F7"/>
<path d="M44 139.867H156" stroke="#F5F5F7" stroke-width="2" stroke-linecap="round"/>
<path fill-rule="evenodd" clip-rule="evenodd" d="M84.6954 67.2383H107.842C109.586 67.2383 111.069 68.6925 111.069 70.5728V130.806C111.069 132.686 109.586 134.14 107.842 134.14H84.6954C84.6149 134.14 84.535 134.137 84.4557 134.131C83.5766 134.685 82.5156 135.017 81.7368 135.204C82.578 135.794 83.5972 136.14 84.6954 136.14H107.842C110.729 136.14 113.069 133.752 113.069 130.806V70.5728C113.069 67.6266 110.729 65.2383 107.842 65.2383H84.6954C81.8088 65.2383 79.4688 67.6266 79.4688 70.5728V98.3312C80.5872 98.3697 81.1676 98.8084 81.4688 99.2533V70.5728C81.4688 68.6925 82.9517 67.2383 84.6954 67.2383Z" fill="#F5F5F7"/>
<path d="M92.5352 69.9033H100.002" stroke="#F5F5F7" stroke-width="2" stroke-linecap="round"/>
<path fill-rule="evenodd" clip-rule="evenodd" d="M81.7917 105.081C84.4977 104.059 86.4245 101.422 86.4245 98.3304C86.4245 94.3515 83.2335 91.126 79.2972 91.126C75.3609 91.126 72.1699 94.3515 72.1699 98.3304C72.1699 101.429 74.1045 104.07 76.8192 105.088V100.222C76.8192 100.222 76.8192 98.3304 79.3055 98.3304C81.7917 98.3304 81.7917 100.222 81.7917 100.222V105.081Z" fill="#F5F5F7"/>
<path d="M67.5517 110.48V116.205M67.5517 110.48C67.5517 110.48 67.5517 108.572 65.1098 108.572C62.668 108.572 62.668 110.48 62.668 110.48C62.668 114.551 62.668 123.762 62.668 128.036C62.668 132.31 64.922 134.142 66.049 134.524V139.867H80.3245V135.287C80.3245 135.287 83.3299 134.906 84.8325 133.379C86.3352 131.852 85.9596 128.036 85.9596 128.036V113.388C85.9596 112.836 85.5088 112.394 84.9675 112.503C84.4678 112.604 83.8577 112.794 83.3299 113.152C82.2029 113.915 81.4515 115.06 81.4515 115.06M67.5517 110.48C67.5517 110.48 67.5517 108.572 69.8057 108.572C72.0597 108.572 72.0597 110.48 72.0597 110.48M72.0597 110.48V116.205M72.0597 110.48C72.0597 110.48 72.0597 108.572 74.3138 108.572C76.5678 108.572 76.5678 110.48 76.5678 110.48M76.5678 110.48V118.876M76.5678 110.48V99.794C76.5678 99.794 76.5678 97.8857 79.0097 97.8857C81.4515 97.8857 81.4515 99.794 81.4515 99.794V115.06M81.4515 121.548V115.06" stroke="#F5F5F7" stroke-width="2" stroke-linecap="round"/>
<path fill-rule="evenodd" clip-rule="evenodd" d="M69.2949 39C66.5335 39 64.2949 41.2386 64.2949 44V51.1815V56.3908V102.868C64.2949 103.421 64.7426 103.868 65.2949 103.868C65.8472 103.868 66.2949 103.421 66.2949 102.868V57.3908H134.642V128.448C134.642 130.109 133.308 131.448 131.655 131.448H118.668C118.116 131.448 117.668 131.896 117.668 132.448C117.668 133 118.116 133.448 118.668 133.448H131.655C134.421 133.448 136.642 131.205 136.642 128.448V44C136.642 41.2386 134.403 39 131.642 39H87.459C86.9067 39 86.459 39.4477 86.459 40C86.459 40.5523 86.9067 41 87.459 41H131.642C133.299 41 134.642 42.3431 134.642 44V55.3908H66.2949V51.1815V44C66.2949 42.3431 67.6381 41 69.2949 41H78.7861C79.3384 41 79.7861 40.5523 79.7861 40C79.7861 39.4477 79.3384 39 78.7861 39H69.2949Z" fill="#F5F5F7"/>
<ellipse cx="75.0543" cy="46.1132" rx="1.4" ry="1.39938" fill="#F5F5F7"/>
<ellipse cx="78.8531" cy="46.1132" rx="1.4" ry="1.39938" fill="#F5F5F7"/>
<ellipse cx="82.6539" cy="46.1132" rx="1.4" ry="1.39938" fill="#F5F5F7"/>
<path d="M74.9316 51.0723H80.7136" stroke="#F5F5F7" stroke-width="2" stroke-linecap="round"/>
<path d="M84.5684 51.0723H93.2412" stroke="#F5F5F7" stroke-width="2" stroke-linecap="round"/>
<path d="M97.0957 51.0723H124.078" stroke="#F5F5F7" stroke-width="2" stroke-linecap="round"/>
</g>
<defs>
<filter id="filter0_d" x="-3" y="0" width="200" height="200" filterUnits="userSpaceOnUse" color-interpolation-filters="sRGB">
<feFlood flood-opacity="0" result="BackgroundImageFix"/>
<feColorMatrix in="SourceAlpha" type="matrix" values="0 0 0 0 0 0 0 0 0 0 0 0 0 0 0 0 0 0 127 0" result="hardAlpha"/>
<feOffset dx="-3" dy="5"/>
<feGaussianBlur stdDeviation="10"/>
<feColorMatrix type="matrix" values="0 0 0 0 0.443137 0 0 0 0 0.380392 0 0 0 0 0.729412 0 0 0 0.15 0"/>
<feBlend mode="normal" in2="BackgroundImageFix" result="effect1_dropShadow"/>
<feBlend mode="normal" in="SourceGraphic" in2="effect1_dropShadow" result="shape"/>
</filter>
</defs>
</svg>
