<svg width="114" height="113" viewBox="0 0 114 113" fill="none" xmlns="http://www.w3.org/2000/svg">
<path fill-rule="evenodd" clip-rule="evenodd" d="M30.4023 105.409C29.8501 105.409 29.4023 105.857 29.4023 106.409C29.4023 106.962 29.8501 107.409 30.4023 107.409H50.6503C51.2026 107.409 51.6503 106.962 51.6503 106.409C51.6503 105.857 51.2026 105.409 50.6503 105.409H30.4023ZM72.1544 110.134C72.7067 110.134 73.1544 110.582 73.1544 111.134C73.1544 111.687 72.7067 112.134 72.1544 112.134H51.9065C51.3542 112.134 50.9065 111.687 50.9065 111.134C50.9065 110.582 51.3542 110.134 51.9065 110.134H72.1544ZM52.8888 106.409C52.8888 105.857 53.3365 105.409 53.8888 105.409H59.5582C60.1105 105.409 60.5582 105.857 60.5582 106.409C60.5582 106.962 60.1105 107.409 59.5582 107.409H53.8888C53.3365 107.409 52.8888 106.962 52.8888 106.409ZM48.668 110.134C49.2203 110.134 49.668 110.582 49.668 111.134C49.668 111.687 49.2203 112.134 48.668 112.134H42.9985C42.4463 112.134 41.9985 111.687 41.9985 111.134C41.9985 110.582 42.4463 110.134 42.9985 110.134H48.668Z" fill="#7161BA"/>
<path d="M1 100.868H113" stroke="#7161BA" stroke-width="2" stroke-linecap="round"/>
<path fill-rule="evenodd" clip-rule="evenodd" d="M41.6954 28.238H64.8421C66.5858 28.238 68.0687 29.6922 68.0687 31.5726V91.8053C68.0687 93.6856 66.5858 95.1398 64.8421 95.1398H41.6954C41.6149 95.1398 41.535 95.1367 41.4557 95.1306C40.5766 95.6844 39.5156 96.0165 38.7368 96.2035C39.578 96.7941 40.5972 97.1398 41.6954 97.1398H64.8421C67.7287 97.1398 70.0687 94.7515 70.0687 91.8053V31.5726C70.0687 28.6264 67.7287 26.238 64.8421 26.238H41.6954C38.8088 26.238 36.4688 28.6264 36.4688 31.5726V59.331C37.5872 59.3695 38.1676 59.8082 38.4688 60.2531V31.5726C38.4688 29.6922 39.9517 28.238 41.6954 28.238Z" fill="#7161BA"/>
<path d="M49.5352 30.9028H57.0018" stroke="#7161BA" stroke-width="2" stroke-linecap="round"/>
<path fill-rule="evenodd" clip-rule="evenodd" d="M38.7917 66.0805C41.4977 65.0584 43.4245 62.4215 43.4245 59.3297C43.4245 55.3508 40.2335 52.1252 36.2972 52.1252C32.3609 52.1252 29.1699 55.3508 29.1699 59.3297C29.1699 62.4278 31.1045 65.0692 33.8192 66.0868V61.2217C33.8192 61.2217 33.8192 59.3297 36.3055 59.3297C38.7917 59.3297 38.7917 61.2217 38.7917 61.2217V66.0805Z" fill="#7161BA"/>
<path d="M24.5517 71.4799V77.2046M24.5517 71.4799C24.5517 71.4799 24.5517 69.5717 22.1098 69.5717C19.668 69.5717 19.668 71.4799 19.668 71.4799C19.668 75.5508 19.668 84.7613 19.668 89.0357C19.668 93.3102 21.922 95.1421 23.049 95.5237V100.867H37.3245V96.287C37.3245 96.287 40.3299 95.9054 41.8325 94.3788C43.3352 92.8522 42.9596 89.0357 42.9596 89.0357V74.3881C42.9596 73.8359 42.5088 73.3934 41.9675 73.5029C41.4678 73.6039 40.8577 73.794 40.3299 74.1514C39.2029 74.9147 38.4515 76.0597 38.4515 76.0597M24.5517 71.4799C24.5517 71.4799 24.5517 69.5717 26.8057 69.5717C29.0597 69.5717 29.0597 71.4799 29.0597 71.4799M29.0597 71.4799V77.2046M29.0597 71.4799C29.0597 71.4799 29.0597 69.5717 31.3138 69.5717C33.5678 69.5717 33.5678 71.4799 33.5678 71.4799M33.5678 71.4799V79.8762M33.5678 71.4799V60.7937C33.5678 60.7937 33.5678 58.8855 36.0097 58.8855C38.4515 58.8855 38.4515 60.7937 38.4515 60.7937V76.0597M38.4515 82.5477V76.0597" stroke="#7161BA" stroke-width="2" stroke-linecap="round"/>
<path fill-rule="evenodd" clip-rule="evenodd" d="M26.2949 0C23.5335 0 21.2949 2.23858 21.2949 5V12.1815V17.3908V63.8685C21.2949 64.4207 21.7426 64.8685 22.2949 64.8685C22.8472 64.8685 23.2949 64.4207 23.2949 63.8685V18.3908H91.6417V89.448C91.6417 91.1093 90.3078 92.448 88.6554 92.448H75.6681C75.1158 92.448 74.6681 92.8957 74.6681 93.448C74.6681 94.0003 75.1158 94.448 75.6681 94.448H88.6554C91.4213 94.448 93.6417 92.2049 93.6417 89.448V5C93.6417 2.23858 91.4031 0 88.6417 0H44.459C43.9067 0 43.459 0.447715 43.459 1C43.459 1.55228 43.9067 2 44.459 2H88.6417C90.2985 2 91.6417 3.34314 91.6417 5V16.3908H23.2949V12.1815V5C23.2949 3.34315 24.6381 2 26.2949 2H35.7861C36.3384 2 36.7861 1.55228 36.7861 1C36.7861 0.447715 36.3384 0 35.7861 0H26.2949Z" fill="#7161BA"/>
<ellipse cx="32.0543" cy="7.11349" rx="1.4" ry="1.39938" fill="#7161BA"/>
<ellipse cx="35.8531" cy="7.11349" rx="1.4" ry="1.39938" fill="#7161BA"/>
<ellipse cx="39.6539" cy="7.11349" rx="1.4" ry="1.39938" fill="#7161BA"/>
<path d="M31.9316 12.0725H37.7136" stroke="#7161BA" stroke-width="2" stroke-linecap="round"/>
<path d="M41.5684 12.0725H50.2412" stroke="#7161BA" stroke-width="2" stroke-linecap="round"/>
<path d="M54.0957 12.0725H81.078" stroke="#7161BA" stroke-width="2" stroke-linecap="round"/>
</svg>
