<svg width="160" height="160" viewBox="0 0 160 160" fill="none" xmlns="http://www.w3.org/2000/svg">
<circle cx="80" cy="80" r="80" fill="#7161BA"/>
<path fill-rule="evenodd" clip-rule="evenodd" d="M36.1333 53.1523H30.4C26.8654 53.1523 24 55.7705 24 59.0001V108.71C24 111.939 26.8654 114.558 30.4 114.558H60.973C60.0386 118.536 56.1897 121.38 51.7333 121.38H48.5333C46.1769 121.38 44.2667 123.125 44.2667 125.278V132.101C44.2667 134.254 46.1769 135.999 48.5333 135.999H111.467C113.823 135.999 115.733 134.254 115.733 132.101V125.278C115.733 123.125 113.823 121.38 111.467 121.38H108.267C103.81 121.38 99.9614 118.536 99.027 114.558H129.6C133.135 114.558 136 111.939 136 108.71V59.0001C136 55.7705 133.135 53.1523 129.6 53.1523H122.933V55.1016H129.6C131.956 55.1016 133.867 56.847 133.867 59.0001V108.71C133.867 110.863 131.956 112.608 129.6 112.608H30.4C28.0436 112.608 26.1333 110.863 26.1333 108.71V59.0001C26.1333 56.847 28.0436 55.1016 30.4 55.1016H36.1333V53.1523ZM63.1532 114.558H96.8468L96.9316 114.926C97.5506 117.612 99.2529 119.88 101.568 121.38H58.4321C60.7471 119.88 62.4494 117.612 63.0684 114.926L63.1532 114.558ZM46.4 125.278C46.4 124.202 47.3551 123.329 48.5333 123.329H111.467C112.645 123.329 113.6 124.202 113.6 125.278V132.101C113.6 133.177 112.645 134.05 111.467 134.05H48.5333C47.3551 134.05 46.4 133.177 46.4 132.101V125.278Z" fill="#EEEDF2"/>
<path d="M82.5645 73.7295L81.0539 75.5297" stroke="#EEEDF2" stroke-width="2" stroke-linecap="round"/>
<path d="M86.5078 77.2529L84.9973 79.0531" stroke="#EEEDF2" stroke-width="2" stroke-linecap="round"/>
<path d="M89.5332 65.5039L85.0016 70.9045" stroke="#EEEDF2" stroke-width="2" stroke-linecap="round"/>
<path d="M93.4746 69.0283L88.943 74.4289" stroke="#EEEDF2" stroke-width="2" stroke-linecap="round"/>
<path d="M52.0996 90.7664V60.2168H68.5494V90.7664M76.1868 60.2168V84.304H108.499V60.2168H76.1868Z" stroke="#EEEDF2" stroke-width="2" stroke-linecap="round"/>
<path d="M45.0508 52.5791V90.7661H115.55V52.5791" stroke="#EEEDF2" stroke-width="2" stroke-linecap="round"/>
<path d="M46.5186 52.5789C39.7625 52.5789 38 47.2915 38 44.9415C38 42.9823 40.2399 36.4318 42.1814 28.7235C42.8724 25.9799 45.3087 24 48.1379 24H79.712H111.286C114.115 24 116.543 25.9817 117.225 28.7275C118.673 34.5546 119.75 37.1311 121.424 44.9415C121.424 44.9415 121.424 52.5789 114.668 52.5789C107.912 52.5789 106.149 44.9415 106.149 44.9415C106.149 44.9415 104.387 52.5789 97.6305 52.5789C90.8743 52.5789 89.1118 44.9415 89.1118 44.9415C89.1118 44.9415 87.3494 52.5789 80.5932 52.5789C73.837 52.5789 72.0746 44.9415 72.0746 44.9415C72.0746 44.9415 70.3121 52.5789 63.5559 52.5789C56.7998 52.5789 55.0373 44.9415 55.0373 44.9415C55.0373 44.9415 53.2748 52.5789 46.5186 52.5789Z" stroke="#EEEDF2" stroke-width="2" stroke-linecap="round"/>
<circle cx="63.2644" cy="76.6668" r="1.76248" fill="#EEEDF2"/>
<path d="M58 101H79.6942" stroke="#EEEDF2" stroke-width="2" stroke-linecap="round"/>
<path d="M102.734 106.062H81.0402" stroke="#EEEDF2" stroke-width="2" stroke-linecap="round"/>
<path d="M83.1641 101H89.2384" stroke="#EEEDF2" stroke-width="2" stroke-linecap="round"/>
<path d="M77.5703 106.062H71.4959" stroke="#EEEDF2" stroke-width="2" stroke-linecap="round"/>
</svg>
