<svg width="197" height="195" viewBox="0 0 197 195" fill="none" xmlns="http://www.w3.org/2000/svg">
<g filter="url(#filter0_d)">
<circle cx="100" cy="95" r="80" fill="#7161BA"/>
<path fill-rule="evenodd" clip-rule="evenodd" d="M108.993 51.6072C118.343 53.5793 126.608 58.4973 132.77 65.3449C133.211 64.8565 133.709 64.4081 134.259 64.0096C127.818 56.8513 119.178 51.7103 109.404 49.6495C109.334 50.3252 109.195 50.9802 108.993 51.6072ZM143.874 80.6379C143.254 80.9159 142.617 81.1232 141.973 81.2625C143.381 85.5873 144.142 90.2041 144.142 94.9985C144.142 99.7918 143.381 104.408 141.974 108.732C142.618 108.87 143.255 109.077 143.875 109.355C145.346 104.835 146.142 100.009 146.142 94.9985C146.142 89.986 145.346 85.1593 143.874 80.6379ZM134.262 125.983C133.712 125.585 133.215 125.136 132.774 124.647C126.613 131.496 118.348 136.415 108.998 138.389C109.199 139.016 109.337 139.671 109.406 140.347C119.181 138.286 127.821 133.143 134.262 125.983ZM90.1944 140.349C90.2629 139.673 90.4011 139.018 90.6017 138.39C81.2519 136.419 72.9877 131.503 66.8253 124.656C66.383 125.144 65.8853 125.592 65.3348 125.99C71.7771 133.149 80.4181 138.29 90.1944 140.349ZM55.7174 109.36C56.337 109.081 56.9736 108.873 57.6172 108.733C56.2099 104.409 55.4492 99.7925 55.4492 94.9985C55.4492 90.2048 56.2098 85.5888 57.6169 81.2645C56.9731 81.1252 56.3362 80.9179 55.7164 80.6399C54.2447 85.1607 53.4492 89.9867 53.4492 94.9985C53.4492 100.011 54.2451 104.838 55.7174 109.36ZM65.3311 64.0111C65.8811 64.4095 66.3783 64.8579 66.8202 65.3462C72.9843 58.4958 81.2523 53.5764 90.6069 51.6054C90.4051 50.9783 90.2658 50.3233 90.1961 49.6476C80.4172 51.7072 71.7742 56.8497 65.3311 64.0111Z" fill="#F5F5F7"/>
<circle cx="99.7801" cy="84.3826" r="13.4832" stroke="#F5F5F7" stroke-width="2"/>
<path d="M117.924 117.903H81.8873C78 117.903 76.3972 112.918 79.556 110.653L90.2012 103.017C91.1434 102.341 92.3713 102.193 93.4503 102.625C97.6625 104.31 102.376 104.316 106.589 102.63C107.673 102.196 108.904 102.352 109.847 103.041L120.286 110.674C123.408 112.958 121.793 117.903 117.924 117.903Z" stroke="#F5F5F7" stroke-width="2"/>
<mask id="path-5-inside-1" fill="white">
<path fill-rule="evenodd" clip-rule="evenodd" d="M99.8004 58.3109C105.133 58.3109 109.456 53.988 109.456 48.6555C109.456 43.3229 105.133 39 99.8004 39C94.4678 39 90.1449 43.3229 90.1449 48.6555C90.1449 53.988 94.4678 58.3109 99.8004 58.3109ZM99.8004 151C105.133 151 109.456 146.677 109.456 141.345C109.456 136.012 105.133 131.689 99.8004 131.689C94.4678 131.689 90.1449 136.012 90.1449 141.345C90.1449 146.677 94.4678 151 99.8004 151ZM68.019 76.6619C70.6852 72.0438 69.103 66.1386 64.4848 63.4723C59.8667 60.806 53.9615 62.3883 51.2952 67.0064C48.6289 71.6246 50.2112 77.5298 54.8293 80.196C59.4475 82.8623 65.3527 81.28 68.019 76.6619ZM148.303 123.011C150.969 118.393 149.387 112.488 144.769 109.822C140.151 107.155 134.245 108.738 131.579 113.356C128.913 117.974 130.495 123.879 135.113 126.545C139.731 129.212 145.637 127.629 148.303 123.011ZM144.761 80.194C140.143 82.8603 134.238 81.278 131.572 76.6599C128.906 72.0417 130.488 66.1366 135.106 63.4703C139.724 60.804 145.629 62.3863 148.296 67.0044C150.962 71.6226 149.38 77.5278 144.761 80.194ZM64.4966 126.543C59.8785 129.209 53.9733 127.627 51.307 123.009C48.6407 118.391 50.223 112.486 54.8411 109.819C59.4593 107.153 65.3645 108.735 68.0308 113.353C70.697 117.972 69.1148 123.877 64.4966 126.543Z"/>
</mask>
<path d="M68.019 76.6619L66.2869 75.6619H66.2869L68.019 76.6619ZM54.8293 80.196L53.8293 81.9281H53.8293L54.8293 80.196ZM131.579 113.356L133.311 114.356L131.579 113.356ZM135.113 126.545L134.113 128.277L135.113 126.545ZM131.572 76.6599L133.304 75.6599L131.572 76.6599ZM144.761 80.194L143.761 78.462L144.761 80.194ZM51.307 123.009L53.039 122.009L51.307 123.009ZM64.4966 126.543L65.4966 128.275H65.4966L64.4966 126.543ZM54.8411 109.819L53.8411 108.087H53.8411L54.8411 109.819ZM107.456 48.6555C107.456 52.8835 104.028 56.3109 99.8004 56.3109V60.3109C106.238 60.3109 111.456 55.0926 111.456 48.6555H107.456ZM99.8004 41C104.028 41 107.456 44.4275 107.456 48.6555H111.456C111.456 42.2183 106.238 37 99.8004 37V41ZM92.1449 48.6555C92.1449 44.4275 95.5724 41 99.8004 41V37C93.3633 37 88.1449 42.2183 88.1449 48.6555H92.1449ZM99.8004 56.3109C95.5724 56.3109 92.1449 52.8835 92.1449 48.6555H88.1449C88.1449 55.0926 93.3633 60.3109 99.8004 60.3109V56.3109ZM107.456 141.345C107.456 145.573 104.028 149 99.8004 149V153C106.238 153 111.456 147.782 111.456 141.345H107.456ZM99.8004 133.689C104.028 133.689 107.456 137.117 107.456 141.345H111.456C111.456 134.907 106.238 129.689 99.8004 129.689V133.689ZM92.1449 141.345C92.1449 137.117 95.5724 133.689 99.8004 133.689V129.689C93.3633 129.689 88.1449 134.907 88.1449 141.345H92.1449ZM99.8004 149C95.5724 149 92.1449 145.573 92.1449 141.345H88.1449C88.1449 147.782 93.3633 153 99.8004 153V149ZM63.4848 65.2043C67.1464 67.3183 68.4009 72.0003 66.2869 75.6619L69.751 77.6619C72.9696 72.0872 71.0595 64.9588 65.4848 61.7402L63.4848 65.2043ZM53.0273 68.0064C55.1413 64.3449 59.8233 63.0903 63.4848 65.2043L65.4848 61.7402C59.9101 58.5217 52.7817 60.4317 49.5631 66.0064L53.0273 68.0064ZM55.8293 78.464C52.1678 76.35 50.9133 71.668 53.0273 68.0064L49.5631 66.0064C46.3446 71.5812 48.2546 78.7095 53.8293 81.9281L55.8293 78.464ZM66.2869 75.6619C64.1729 79.3235 59.4909 80.578 55.8293 78.464L53.8293 81.9281C59.4041 85.1467 66.5324 83.2366 69.751 77.6619L66.2869 75.6619ZM143.769 111.554C147.43 113.668 148.685 118.35 146.571 122.011L150.035 124.011C153.254 118.436 151.344 111.308 145.769 108.089L143.769 111.554ZM133.311 114.356C135.425 110.694 140.107 109.44 143.769 111.554L145.769 108.089C140.194 104.871 133.066 106.781 129.847 112.356L133.311 114.356ZM136.113 124.813C132.452 122.699 131.197 118.017 133.311 114.356L129.847 112.356C126.629 117.93 128.539 125.059 134.113 128.277L136.113 124.813ZM146.571 122.011C144.457 125.673 139.775 126.927 136.113 124.813L134.113 128.277C139.688 131.496 146.816 129.586 150.035 124.011L146.571 122.011ZM129.84 77.6599C133.058 83.2346 140.187 85.1447 145.761 81.9261L143.761 78.462C140.1 80.576 135.418 79.3214 133.304 75.6599L129.84 77.6599ZM134.106 61.7382C128.531 64.9568 126.621 72.0852 129.84 77.6599L133.304 75.6599C131.19 71.9983 132.444 67.3163 136.106 65.2023L134.106 61.7382ZM150.028 66.0044C146.809 60.4297 139.681 58.5197 134.106 61.7382L136.106 65.2023C139.768 63.0883 144.45 64.3429 146.564 68.0044L150.028 66.0044ZM145.761 81.9261C151.336 78.7075 153.246 71.5791 150.028 66.0044L146.564 68.0044C148.678 71.666 147.423 76.348 143.761 78.462L145.761 81.9261ZM49.5749 124.009C52.7935 129.584 59.9219 131.494 65.4966 128.275L63.4966 124.811C59.8351 126.925 55.153 125.67 53.039 122.009L49.5749 124.009ZM53.8411 108.087C48.2664 111.306 46.3564 118.434 49.5749 124.009L53.039 122.009C50.925 118.347 52.1796 113.665 55.8411 111.551L53.8411 108.087ZM69.7628 112.353C66.5442 106.779 59.4159 104.869 53.8411 108.087L55.8411 111.551C59.5027 109.437 64.1847 110.692 66.2987 114.353L69.7628 112.353ZM65.4966 128.275C71.0713 125.057 72.9814 117.928 69.7628 112.353L66.2987 114.353C68.4127 118.015 67.1582 122.697 63.4966 124.811L65.4966 128.275Z" fill="#F5F5F7" mask="url(#path-5-inside-1)"/>
</g>
<defs>
<filter id="filter0_d" x="-3" y="0" width="200" height="200" filterUnits="userSpaceOnUse" color-interpolation-filters="sRGB">
<feFlood flood-opacity="0" result="BackgroundImageFix"/>
<feColorMatrix in="SourceAlpha" type="matrix" values="0 0 0 0 0 0 0 0 0 0 0 0 0 0 0 0 0 0 127 0" result="hardAlpha"/>
<feOffset dx="-3" dy="5"/>
<feGaussianBlur stdDeviation="10"/>
<feColorMatrix type="matrix" values="0 0 0 0 0.443137 0 0 0 0 0.380392 0 0 0 0 0.729412 0 0 0 0.15 0"/>
<feBlend mode="normal" in2="BackgroundImageFix" result="effect1_dropShadow"/>
<feBlend mode="normal" in="SourceGraphic" in2="effect1_dropShadow" result="shape"/>
</filter>
</defs>
</svg>
