<svg width="974" height="3878" viewBox="0 0 974 3878" fill="none" xmlns="http://www.w3.org/2000/svg">
<path d="M16.4445 2.94824C-17.5618 51.1238 13.2034 99.9731 63.8517 135.487C114.5 171 237.266 216.885 329.13 242.607C430.285 270.93 559.131 289.198 641.815 311.599C724.5 334 782.625 378.88 782.625 453.215" stroke="white" stroke-width="4" stroke-linecap="round"/>
<path d="M768.101 543.995C736.914 582.742 725.716 605.222 658.358 644.861C591 684.5 492.073 695.41 428.786 708.205C365.5 721 307.583 733.106 249.648 758.235C225.221 768.829 210.915 771.583 182.673 799.792C154.43 828 134.334 876.969 154.43 907.113" stroke="white" stroke-width="4" stroke-linecap="round"/>
<path d="M212.529 994.262C240.408 1022.14 244.39 1029.08 301.695 1055.79C359 1082.5 441.242 1092.72 511.9 1107.03C580.598 1120.94 650.92 1130.29 718.878 1147.58C773.156 1161.39 836.048 1177.48 885.509 1204.87C932.676 1230.99 988.685 1299.81 966 1358.79C958.666 1377.86 924.242 1397.32 924.242 1397.32" stroke="white" stroke-width="4" stroke-linecap="round"/>
<path d="M821.501 1485C821.501 1485 733.377 1521.04 698.939 1533.52C664.501 1546 599.155 1572.26 535.328 1593.88C471.501 1615.5 397.402 1643.48 330.065 1671.89C280.829 1692.66 227.801 1717.25 183.927 1747.96C183.927 1747.96 120 1793 115.001 1837C110.001 1881 127.272 1891 146 1918.5" stroke="white" stroke-width="4" stroke-linecap="round"/>
<path d="M186.5 1970.5C240.5 2023 336 2073 420 2094.5C504 2116 576.784 2130.24 639.283 2141.9C696.322 2152.53 759.593 2165.53 813.5 2185.5C848.42 2198.43 874.257 2211.1 899.5 2239.5C919.815 2262.35 932 2314 916 2348.5" stroke="white" stroke-width="4" stroke-linecap="round"/>
<path d="M901.732 2426.41C879.5 2449.5 848 2468.5 814.72 2487.83C781.439 2507.15 727.961 2529.93 680.231 2545.72C632.5 2561.5 519 2597.5 449.375 2613.84C379.75 2630.19 315.984 2646.22 256.466 2677.73C206.888 2703.98 157.501 2733 152 2775C146.499 2817 194.001 2876.5 194.001 2876.5" stroke="white" stroke-width="4" stroke-linecap="round"/>
<path d="M227 2931.5C227 2931.5 273.63 2983.05 359.565 3007.78C445.5 3032.5 433.106 3027.49 514.553 3045.75C596 3064 621.5 3072.5 663.335 3080.76C705.171 3089.03 753.757 3097.65 808.129 3116.08C862.5 3134.5 936.343 3222 921.304 3274.9C906.265 3327.81 862.5 3352 862.5 3352" stroke="white" stroke-width="4" stroke-linecap="round"/>
<path d="M166.162 3875.5C154.968 3853.11 157.326 3815.82 166.162 3792.91C174.999 3770 180.267 3762.12 200.883 3737.06C221.5 3712 266.148 3676.32 308.444 3656.69C401.923 3613.29 501.186 3583.79 595.519 3542.77C648.346 3520.68 762.999 3467.7 798.999 3432.5" stroke="white" stroke-width="4" stroke-linecap="round"/>
</svg>
