<svg width="53" height="52" viewBox="0 0 53 52" fill="none" xmlns="http://www.w3.org/2000/svg">
<rect x="0.666748" width="52" height="52" rx="12" fill="#F6F3FF"/>
<path d="M10.2429 18.3802C10.2918 17.7505 10.2008 17.1149 10.3103 16.4842C10.591 14.8748 11.9833 13.6291 13.6103 13.5998C15.2794 13.5705 16.9504 13.5871 18.6195 13.5871C23.8486 13.5871 29.0775 13.5871 34.306 13.5871C36.066 13.5871 37.4134 14.5698 37.8622 16.1645C38.087 16.9663 37.9531 17.7886 37.9893 18.6002C37.9951 18.7194 37.9296 18.7439 37.8299 18.739C37.7302 18.7341 37.6588 18.739 37.5737 18.739H24.1185C19.6207 18.739 15.123 18.7413 10.6252 18.7458C10.3367 18.7468 10.2184 18.7028 10.2429 18.3802Z" fill="#FEFEFE"/>
<path d="M29.4875 33.1524C29.4973 33.2502 29.511 33.348 29.5218 33.4457C29.5188 33.4658 29.5136 33.4855 29.5061 33.5044H13.9731C11.7321 33.5044 10.2517 32.0172 10.2507 29.7673C10.2507 27.6456 10.2507 25.5248 10.2449 23.403C10.2449 23.1409 10.2781 23.0344 10.5881 23.0344C19.611 23.0454 28.6339 23.0454 37.6569 23.0344C37.9287 23.0344 38.0147 23.094 37.9962 23.3717C37.9661 23.7622 37.9661 24.1545 37.9962 24.545C38.0265 24.898 37.9365 24.984 37.5708 24.942C35.6016 24.7152 33.8142 25.2246 32.2762 26.4585C30.1417 28.1677 29.2089 30.4166 29.4875 33.1524Z" fill="#FEFEFE"/>
<path d="M36.8277 26.045C35.5984 26.0411 34.3955 26.4017 33.371 27.0811C32.3464 27.7604 31.5462 28.7282 31.0713 29.8621C30.5965 30.9961 30.4683 32.2453 30.703 33.452C30.9377 34.6587 31.5248 35.7688 32.39 36.6421C33.2552 37.5154 34.3599 38.1127 35.5644 38.3586C36.7688 38.6044 38.0192 38.4878 39.1575 38.0235C40.2957 37.5592 41.2709 36.7679 41.9597 35.7497C42.6486 34.7315 43.0203 33.532 43.0278 32.3027C43.0386 28.8649 40.2519 26.0518 36.8277 26.045ZM40.1942 31.4834C39.1186 32.5589 38.0431 33.6345 36.9578 34.71C36.4689 35.1989 35.7844 35.2077 35.2887 34.7296C34.6473 34.1149 34.0182 33.4868 33.4016 32.8454C33.1909 32.6287 33.0743 32.3375 33.0775 32.0353C33.0806 31.7331 33.2031 31.4443 33.4182 31.2321C33.6291 31.0161 33.9158 30.8906 34.2175 30.882C34.5193 30.8734 34.8126 30.9825 35.0354 31.1861C35.3305 31.4411 35.6067 31.7172 35.8617 32.0123C36.069 32.2587 36.1834 32.2079 36.3809 31.9996C37.0898 31.2614 37.8172 30.5418 38.5427 29.8211C38.7056 29.6444 38.921 29.5247 39.157 29.4797C39.3931 29.4346 39.6374 29.4665 39.8539 29.5708C40.3076 29.7664 40.5335 30.1399 40.5511 30.6337C40.5536 30.7923 40.5232 30.9497 40.4617 31.0959C40.4003 31.2422 40.3092 31.3741 40.1942 31.4834Z" fill="#FEFEFE"/>
<path d="M37.5718 24.9371C35.6026 24.7103 33.8152 25.2197 32.2771 26.4537C30.1417 28.1677 29.2089 30.4166 29.4875 33.1524C29.4973 33.2502 29.511 33.348 29.5218 33.4457C29.5188 33.4658 29.5136 33.4855 29.5061 33.5044H13.9731C11.7321 33.5044 10.2517 32.0172 10.2507 29.7673C10.2507 27.6456 10.2507 25.5248 10.2449 23.403C10.2449 23.1409 10.2781 23.0344 10.5881 23.0344C19.611 23.0454 28.6339 23.0454 37.6569 23.0344C37.9287 23.0344 38.0147 23.094 37.9962 23.3717C37.9661 23.7622 37.9661 24.1545 37.9962 24.545C38.0275 24.8931 37.9375 24.9792 37.5718 24.9371Z" fill="#3F2194"/>
<path d="M37.9893 18.6011C37.9952 18.7204 37.9297 18.7449 37.83 18.74C37.7302 18.7351 37.6589 18.74 37.5738 18.74H24.1186C19.6208 18.74 15.123 18.7423 10.6253 18.7468C10.3319 18.7468 10.2175 18.7038 10.242 18.3811C10.2909 17.7514 10.1999 17.1159 10.3094 16.4852C10.5901 14.8758 11.9824 13.6301 13.6094 13.6008C15.2785 13.5714 16.9495 13.5881 18.6186 13.5881C23.8477 13.5881 29.0766 13.5881 34.3051 13.5881C36.0651 13.5881 37.4125 14.5707 37.8613 16.1655C38.0871 16.9673 37.9532 17.7896 37.9893 18.6011Z" fill="#3F2194"/>
<path d="M36.8277 26.045C35.5984 26.0411 34.3955 26.4017 33.371 27.0811C32.3464 27.7604 31.5462 28.7282 31.0713 29.8621C30.5965 30.9961 30.4683 32.2453 30.703 33.452C30.9377 34.6587 31.5248 35.7688 32.39 36.6421C33.2552 37.5154 34.3599 38.1127 35.5644 38.3586C36.7688 38.6044 38.0192 38.4878 39.1575 38.0235C40.2957 37.5592 41.2709 36.7679 41.9597 35.7497C42.6486 34.7315 43.0203 33.532 43.0278 32.3027C43.0386 28.8649 40.2519 26.0518 36.8277 26.045ZM40.1942 31.4834C39.1186 32.5589 38.0431 33.6345 36.9578 34.71C36.4689 35.1989 35.7844 35.2077 35.2887 34.7296C34.6473 34.1149 34.0182 33.4868 33.4016 32.8454C33.1909 32.6287 33.0743 32.3375 33.0775 32.0353C33.0806 31.7331 33.2031 31.4443 33.4182 31.2321C33.6291 31.0161 33.9158 30.8906 34.2175 30.882C34.5193 30.8734 34.8126 30.9825 35.0354 31.1861C35.3305 31.4411 35.6067 31.7172 35.8617 32.0123C36.069 32.2587 36.1834 32.2079 36.3809 31.9996C37.0898 31.2614 37.8172 30.5418 38.5427 29.8211C38.7056 29.6444 38.921 29.5247 39.157 29.4797C39.3931 29.4346 39.6374 29.4665 39.8539 29.5708C40.3076 29.7664 40.5335 30.1399 40.5511 30.6337C40.5536 30.7923 40.5232 30.9497 40.4617 31.0959C40.4003 31.2422 40.3092 31.3741 40.1942 31.4834Z" fill="#3F2194"/>
</svg>
