<svg width="52" height="53" viewBox="0 0 52 53" fill="none" xmlns="http://www.w3.org/2000/svg">
<rect y="0.5" width="52" height="52" rx="12" fill="#F6F3FF"/>
<path d="M27.1371 35.9355C28.0953 35.9355 29.3058 36.3335 30.1682 36.88C29.5239 37.4735 28.7778 37.6799 27.9624 37.6818C25.8298 37.6818 23.6963 37.6916 21.5628 37.6818C20.0519 37.6569 18.58 38.1616 17.4024 39.1084C16.7424 39.6286 16.0814 40.1478 15.4116 40.6552C14.8621 41.0708 14.2256 41.2527 13.5949 40.9486C12.93 40.6327 12.6093 40.0343 12.6318 39.2766C12.6416 38.9607 12.6318 38.643 12.6318 38.3262C12.6318 37.7258 12.6318 37.7258 12.0529 37.5439C10.6352 37.103 9.60067 35.7839 9.59187 34.3026C9.57231 30.9625 9.56742 27.6234 9.59187 24.2833C9.60165 23.0758 10.1482 22.1087 11.1817 21.4478C11.2186 21.4141 11.2624 21.3888 11.31 21.3736C11.3576 21.3584 11.4079 21.3537 11.4575 21.3598V21.7313C11.4575 24.254 11.4467 26.7767 11.4575 29.3003C11.477 32.6697 13.6917 35.3684 16.9692 36.0372C17.2565 36.0908 17.5474 36.1235 17.8394 36.135C17.9939 36.1438 18.2041 36.2464 18.2696 35.9629C18.2882 35.8798 18.4232 35.9228 18.5033 35.9228C21.3839 35.9287 24.2605 35.9247 27.1371 35.9355Z" fill="#FEFEFE"/>
<path d="M42.4805 16.6431C42.4805 13.9688 40.435 11.9331 37.7549 11.9321C34.536 11.9321 31.3172 11.9321 28.0983 11.9321H18.4047C15.7226 11.9321 13.8042 13.8476 13.8022 16.5365C13.7983 20.7677 13.7983 24.9982 13.8022 29.228C13.7953 29.5328 13.8169 29.8376 13.8668 30.1384C14.2902 32.3423 16.0609 33.8089 18.3069 33.8138C21.1727 33.8197 24.0376 33.8138 26.9035 33.8138C29.0306 33.7986 31.0967 34.5246 32.7467 35.8672C33.5465 36.5056 34.3542 37.1383 35.153 37.7738C35.7485 38.25 36.4368 38.4719 37.1281 38.1473C37.9025 37.7826 38.4061 37.149 38.3865 36.2113C38.3699 35.4682 38.3865 34.7241 38.3806 33.98C38.3806 33.804 38.3953 33.6984 38.6163 33.6603C40.9972 33.2536 42.4746 31.5092 42.4785 29.0804C42.4863 24.934 42.487 20.7882 42.4805 16.6431ZM22.218 23.993C21.5238 23.993 21.0574 23.5217 21.0564 22.8197C21.0554 22.1176 21.5081 21.6464 22.2082 21.6464C22.3634 21.6447 22.5173 21.6738 22.6611 21.732C22.805 21.7902 22.9358 21.8764 23.0461 21.9855C23.1564 22.0946 23.244 22.2245 23.3037 22.3677C23.3635 22.5109 23.3943 22.6645 23.3942 22.8197C23.4079 23.4953 22.9024 23.994 22.218 23.993ZM28.0348 23.993C27.365 23.9832 26.9103 23.5041 26.9094 22.8197C26.9094 22.1108 27.365 21.6512 28.0671 21.6532C28.2224 21.6523 28.3763 21.6822 28.52 21.7413C28.6636 21.8003 28.7942 21.8873 28.9039 21.9972C29.0137 22.1071 29.1006 22.2376 29.1595 22.3813C29.2185 22.5251 29.2483 22.679 29.2472 22.8344C29.236 23.1466 29.1035 23.4423 28.8779 23.6584C28.6522 23.8746 28.3512 23.9943 28.0387 23.992L28.0348 23.993ZM33.9357 23.993C33.2287 23.9989 32.7565 23.5168 32.7623 22.7972C32.7682 22.1128 33.2248 21.6522 33.9034 21.6532C34.0586 21.65 34.2128 21.6775 34.3572 21.7343C34.5016 21.7911 34.6334 21.8759 34.7448 21.984C34.8562 22.092 34.945 22.2211 35.0062 22.3637C35.0674 22.5063 35.0997 22.6596 35.1012 22.8148C35.1129 23.4934 34.624 23.9872 33.9396 23.993H33.9357Z" fill="#FEFEFE"/>
<path d="M42.4805 16.6431C42.4805 13.9688 40.435 11.9331 37.7549 11.9321C34.536 11.9321 31.3172 11.9321 28.0983 11.9321H18.4047C15.7226 11.9321 13.8042 13.8476 13.8022 16.5365C13.7983 20.7677 13.7983 24.9982 13.8022 29.228C13.7953 29.5328 13.8169 29.8376 13.8668 30.1384C14.2902 32.3423 16.0609 33.8089 18.3069 33.8138C21.1727 33.8197 24.0376 33.8138 26.9035 33.8138C29.0306 33.7986 31.0967 34.5246 32.7467 35.8672C33.5465 36.5056 34.3542 37.1383 35.153 37.7738C35.7485 38.25 36.4368 38.4719 37.1281 38.1473C37.9025 37.7826 38.4061 37.149 38.3865 36.2113C38.3699 35.4682 38.3865 34.7241 38.3806 33.98C38.3806 33.804 38.3953 33.6984 38.6163 33.6603C40.9972 33.2536 42.4746 31.5092 42.4785 29.0804C42.4863 24.934 42.487 20.7882 42.4805 16.6431ZM22.218 23.993C21.5238 23.993 21.0574 23.5217 21.0564 22.8197C21.0554 22.1176 21.5081 21.6464 22.2082 21.6464C22.3634 21.6447 22.5173 21.6738 22.6611 21.732C22.805 21.7902 22.9358 21.8764 23.0461 21.9855C23.1564 22.0946 23.244 22.2245 23.3037 22.3677C23.3635 22.5109 23.3943 22.6645 23.3942 22.8197C23.4079 23.4953 22.9024 23.994 22.218 23.993ZM28.0348 23.993C27.365 23.9832 26.9103 23.5041 26.9094 22.8197C26.9094 22.1108 27.365 21.6512 28.0671 21.6532C28.2224 21.6523 28.3763 21.6822 28.52 21.7413C28.6636 21.8003 28.7942 21.8873 28.9039 21.9972C29.0137 22.1071 29.1006 22.2376 29.1595 22.3813C29.2185 22.5251 29.2483 22.679 29.2472 22.8344C29.236 23.1466 29.1035 23.4423 28.8779 23.6584C28.6522 23.8746 28.3512 23.9943 28.0387 23.992L28.0348 23.993ZM33.9357 23.993C33.2287 23.9989 32.7565 23.5168 32.7623 22.7972C32.7682 22.1128 33.2248 21.6522 33.9034 21.6532C34.0586 21.65 34.2128 21.6775 34.3572 21.7343C34.5016 21.7911 34.6334 21.8759 34.7448 21.984C34.8562 22.092 34.945 22.2211 35.0062 22.3637C35.0674 22.5063 35.0997 22.6596 35.1012 22.8148C35.1129 23.4934 34.624 23.9872 33.9396 23.993H33.9357Z" fill="#3F2194"/>
<path d="M30.1643 36.88C29.52 37.4735 28.7739 37.6799 27.9585 37.6818C25.8259 37.6818 23.6924 37.6916 21.5589 37.6818C20.048 37.6569 18.5761 38.1616 17.3985 39.1084C16.7385 39.6286 16.0775 40.1478 15.4077 40.6552C14.8582 41.0708 14.2217 41.2527 13.591 40.9486C12.9261 40.6327 12.6054 40.0343 12.6279 39.2766C12.6377 38.9607 12.6279 38.643 12.6279 38.3262C12.6279 37.7258 12.6279 37.7258 12.049 37.5439C10.6313 37.103 9.59676 35.7839 9.58796 34.3026C9.56841 30.9625 9.56352 27.6234 9.58796 24.2833C9.59774 23.0758 10.1443 22.1087 11.1778 21.4478C11.2147 21.4141 11.2585 21.3888 11.3061 21.3736C11.3537 21.3584 11.404 21.3537 11.4536 21.3598V21.7313C11.4536 24.254 11.4428 26.7767 11.4536 29.3003C11.4731 32.6697 13.6878 35.3684 16.9653 36.0372C17.2526 36.0908 17.5435 36.1235 17.8355 36.135C17.99 36.1438 18.2002 36.2464 18.2657 35.9629C18.2843 35.8798 18.4193 35.9228 18.4994 35.9228C21.3761 35.9228 24.2527 35.9228 27.1293 35.9287C28.0953 35.9394 29.3058 36.3335 30.1643 36.88Z" fill="#3F2194"/>
</svg>
