<svg width="52" height="53" viewBox="0 0 52 53" fill="none" xmlns="http://www.w3.org/2000/svg">
<rect y="0.5" width="52" height="52" rx="12" fill="#F6F3FF"/>
<path d="M17.9275 11.6377C13.3447 11.6279 9.57728 15.3904 9.57336 19.9801C9.57298 21.6301 10.0618 23.2432 10.978 24.6155C11.8942 25.9878 13.1967 27.0576 14.7209 27.6897C16.245 28.3219 17.9223 28.488 19.5408 28.167C21.1593 27.8461 22.6464 27.0525 23.8139 25.8866C24.9815 24.7206 25.7772 23.2347 26.1004 21.6167C26.4236 19.9986 26.2599 18.3211 25.6299 16.796C24.9999 15.271 23.9319 13.967 22.5609 13.0489C21.1899 12.1307 19.5775 11.6396 17.9275 11.6377ZM13.9968 17.6501C14.0081 17.3461 14.1376 17.0586 14.3577 16.8487C14.5778 16.6388 14.8711 16.523 15.1752 16.5261C15.4794 16.5291 15.7703 16.6508 15.9861 16.8651C16.2019 17.0794 16.3256 17.3694 16.3308 17.6735C16.3335 17.8295 16.3048 17.9844 16.2466 18.1291C16.1884 18.2738 16.1018 18.4054 15.9919 18.5161C15.882 18.6268 15.751 18.7143 15.6067 18.7735C15.4624 18.8328 15.3077 18.8625 15.1518 18.8609C14.9958 18.8593 14.8417 18.8265 14.6986 18.7644C14.5555 18.7023 14.4264 18.6121 14.3187 18.4993C14.211 18.3864 14.1271 18.2531 14.0718 18.1073C14.0165 17.9614 13.991 17.8059 13.9968 17.6501ZM20.4287 22.5839C19.8234 22.9917 19.2094 23.3857 18.6002 23.7886C18.1455 24.0897 17.687 24.0917 17.2313 23.7954C16.5791 23.3701 15.927 22.9438 15.2875 22.5008C15.0785 22.3592 14.9218 22.1528 14.8418 21.9134C14.7617 21.6739 14.7627 21.4148 14.8446 21.1759C15 20.6978 15.4391 20.383 16.0179 20.38C16.2389 20.3693 16.4745 20.4876 16.7023 20.6362C17.1091 20.9012 17.5168 21.3558 17.9304 21.3617C18.3215 21.3676 18.7234 20.9012 19.1204 20.644C19.7755 20.2187 20.4746 20.3253 20.8501 20.9061C21.2255 21.4869 21.0574 22.1625 20.4326 22.5839H20.4287ZM20.6741 18.8459C20.367 18.8401 20.0742 18.715 19.8578 18.497C19.6413 18.2791 19.5182 17.9855 19.5144 17.6784C19.5107 17.5259 19.5374 17.3741 19.5931 17.232C19.6489 17.0899 19.7324 16.9604 19.8389 16.8511C19.9454 16.7418 20.0727 16.6549 20.2132 16.5954C20.3538 16.536 20.5048 16.5053 20.6575 16.5051C20.8124 16.5012 20.9667 16.5281 21.1112 16.5841C21.2557 16.6402 21.3877 16.7243 21.4996 16.8317C21.6114 16.9391 21.7008 17.0675 21.7627 17.2097C21.8246 17.3518 21.8577 17.5048 21.8601 17.6598C21.8588 17.9733 21.734 18.2737 21.5127 18.4957C21.2914 18.7178 20.9915 18.8436 20.678 18.8459H20.6741Z" fill="#FEFEFE"/>
<path d="M42.239 21.915C41.7638 20.0182 40.1994 18.8233 38.1587 18.8145C36.342 18.8067 34.5243 18.8145 32.7076 18.8145C31.416 18.8145 30.1234 18.8145 28.8307 18.8145C28.6352 18.8145 28.5267 18.8145 28.554 19.0844C28.6859 20.4074 28.557 21.7435 28.1747 23.017C28.0534 23.4247 28.0544 23.4257 28.468 23.4257C30.5037 23.4257 32.5398 23.4257 34.5762 23.4257C34.7467 23.4223 34.9171 23.4368 35.0846 23.4687C35.2363 23.5027 35.3795 23.567 35.5056 23.6578C35.6318 23.7485 35.7383 23.8639 35.8187 23.9969C35.899 24.1299 35.9517 24.2778 35.9734 24.4317C35.9951 24.5856 35.9855 24.7423 35.9451 24.8924C35.7876 25.4732 35.375 25.7636 34.6739 25.7646C32.1865 25.7646 29.699 25.7646 27.2115 25.7646C27.0844 25.7646 26.9329 25.7118 26.8419 25.8535C26.4708 26.4076 26.0531 26.929 25.5933 27.4121C28.6939 27.4121 31.7054 27.4121 34.717 27.4121C35.4699 27.4121 35.9881 27.8922 35.9822 28.5776C35.9763 29.263 35.4562 29.751 34.7111 29.751C31.2732 29.751 27.8347 29.751 24.3955 29.751C24.0123 29.751 23.67 29.6532 23.4178 29.3598C23.32 29.2445 23.2476 29.2366 23.1147 29.311C21.2574 30.3618 19.1237 30.821 16.9987 30.627C16.8197 30.6124 16.7415 30.627 16.7435 30.8441C16.7562 32.0634 16.7239 33.2837 16.762 34.501C16.7988 35.4157 17.1506 36.2895 17.7579 36.9745C18.3652 37.6595 19.1906 38.1135 20.0943 38.2596C20.9743 38.4014 21.8709 38.3026 22.7597 38.3192C22.9648 38.3181 23.1655 38.3787 23.3356 38.4933C24.6452 39.3583 25.9584 40.2203 27.2751 41.0795C27.6731 41.3396 28.0915 41.3982 28.5188 41.1773C28.9461 40.9563 29.1583 40.5574 29.1632 40.0685C29.1632 39.605 29.1867 39.1406 29.1563 38.679C29.1368 38.373 29.2541 38.33 29.523 38.331C32.4127 38.3394 35.3023 38.3411 38.192 38.3358C40.6081 38.3358 42.3466 36.6071 42.3495 34.1998C42.3554 30.4569 42.3554 26.714 42.3495 22.971C42.3564 22.6158 42.3193 22.2611 42.239 21.915ZM29.4458 33.7188C28.5941 33.7188 27.7415 33.7188 26.8899 33.7188C26.0382 33.7188 25.21 33.7188 24.3701 33.7188C23.6319 33.7188 23.1059 33.2221 23.1068 32.5454C23.1078 31.8688 23.6368 31.378 24.3779 31.3721C26.0728 31.3721 27.7646 31.3721 29.4536 31.3721C30.1928 31.3721 30.7179 31.861 30.7169 32.5454C30.7159 33.2299 30.1899 33.7149 29.4458 33.7188Z" fill="#FEFEFE"/>
<path d="M42.239 21.915C41.7638 20.0182 40.1994 18.8233 38.1587 18.8145C36.342 18.8067 34.5243 18.8145 32.7076 18.8145C31.416 18.8145 30.1234 18.8145 28.8307 18.8145C28.6352 18.8145 28.5267 18.8145 28.554 19.0844C28.6859 20.4074 28.557 21.7435 28.1747 23.017C28.0534 23.4247 28.0544 23.4257 28.468 23.4257C30.5037 23.4257 32.5398 23.4257 34.5762 23.4257C34.7467 23.4223 34.9171 23.4368 35.0846 23.4687C35.2363 23.5027 35.3795 23.567 35.5056 23.6578C35.6318 23.7485 35.7383 23.8639 35.8187 23.9969C35.899 24.1299 35.9517 24.2778 35.9734 24.4317C35.9951 24.5856 35.9855 24.7423 35.9451 24.8924C35.7876 25.4732 35.375 25.7636 34.6739 25.7646C32.1865 25.7646 29.699 25.7646 27.2115 25.7646C27.0844 25.7646 26.9329 25.7118 26.8419 25.8535C26.4708 26.4076 26.0531 26.929 25.5933 27.4121C28.6939 27.4121 31.7054 27.4121 34.717 27.4121C35.4699 27.4121 35.9881 27.8922 35.9822 28.5776C35.9763 29.263 35.4562 29.751 34.7111 29.751C31.2732 29.751 27.8347 29.751 24.3955 29.751C24.0123 29.751 23.67 29.6532 23.4178 29.3598C23.32 29.2445 23.2476 29.2366 23.1147 29.311C21.2574 30.3618 19.1237 30.821 16.9987 30.627C16.8197 30.6124 16.7415 30.627 16.7435 30.8441C16.7562 32.0634 16.7239 33.2837 16.762 34.501C16.7988 35.4157 17.1506 36.2895 17.7579 36.9745C18.3652 37.6595 19.1906 38.1135 20.0943 38.2596C20.9743 38.4014 21.8709 38.3026 22.7597 38.3192C22.9648 38.3181 23.1655 38.3787 23.3356 38.4933C24.6452 39.3583 25.9584 40.2203 27.2751 41.0795C27.6731 41.3396 28.0915 41.3982 28.5188 41.1773C28.9461 40.9563 29.1583 40.5574 29.1632 40.0685C29.1632 39.605 29.1867 39.1406 29.1563 38.679C29.1368 38.373 29.2541 38.33 29.523 38.331C32.4127 38.3394 35.3023 38.3411 38.192 38.3358C40.6081 38.3358 42.3466 36.6071 42.3495 34.1998C42.3554 30.4569 42.3554 26.714 42.3495 22.971C42.3564 22.6158 42.3193 22.2611 42.239 21.915ZM29.4458 33.7188C28.5941 33.7188 27.7415 33.7188 26.8899 33.7188C26.0382 33.7188 25.21 33.7188 24.3701 33.7188C23.6319 33.7188 23.1059 33.2221 23.1068 32.5454C23.1078 31.8688 23.6368 31.378 24.3779 31.3721C26.0728 31.3721 27.7646 31.3721 29.4536 31.3721C30.1928 31.3721 30.7179 31.861 30.7169 32.5454C30.7159 33.2299 30.1899 33.7149 29.4458 33.7188Z" fill="#3F2194"/>
<path d="M17.9275 11.6377C13.3447 11.6279 9.57728 15.3904 9.57336 19.9801C9.57298 21.6301 10.0618 23.2432 10.978 24.6155C11.8942 25.9878 13.1967 27.0576 14.7209 27.6897C16.245 28.3219 17.9223 28.488 19.5408 28.167C21.1593 27.8461 22.6464 27.0525 23.8139 25.8866C24.9815 24.7206 25.7772 23.2347 26.1004 21.6167C26.4236 19.9986 26.2599 18.3211 25.6299 16.796C24.9999 15.271 23.9319 13.967 22.5609 13.0489C21.1899 12.1307 19.5775 11.6396 17.9275 11.6377ZM13.9968 17.6501C14.0081 17.3461 14.1376 17.0586 14.3577 16.8487C14.5778 16.6388 14.8711 16.523 15.1752 16.5261C15.4794 16.5291 15.7703 16.6508 15.9861 16.8651C16.2019 17.0794 16.3256 17.3694 16.3308 17.6735C16.3335 17.8295 16.3048 17.9844 16.2466 18.1291C16.1884 18.2738 16.1018 18.4054 15.9919 18.5161C15.882 18.6268 15.751 18.7143 15.6067 18.7735C15.4624 18.8328 15.3077 18.8625 15.1518 18.8609C14.9958 18.8593 14.8417 18.8265 14.6986 18.7644C14.5555 18.7023 14.4264 18.6121 14.3187 18.4993C14.211 18.3864 14.1271 18.2531 14.0718 18.1073C14.0165 17.9614 13.991 17.8059 13.9968 17.6501ZM20.4287 22.5839C19.8234 22.9917 19.2094 23.3857 18.6002 23.7886C18.1455 24.0897 17.687 24.0917 17.2313 23.7954C16.5791 23.3701 15.927 22.9438 15.2875 22.5008C15.0785 22.3592 14.9218 22.1528 14.8418 21.9134C14.7617 21.6739 14.7627 21.4148 14.8446 21.1759C15 20.6978 15.4391 20.383 16.0179 20.38C16.2389 20.3693 16.4745 20.4876 16.7023 20.6362C17.1091 20.9012 17.5168 21.3558 17.9304 21.3617C18.3215 21.3676 18.7234 20.9012 19.1204 20.644C19.7755 20.2187 20.4746 20.3253 20.8501 20.9061C21.2255 21.4869 21.0574 22.1625 20.4326 22.5839H20.4287ZM20.6741 18.8459C20.367 18.8401 20.0742 18.715 19.8578 18.497C19.6413 18.2791 19.5182 17.9855 19.5144 17.6784C19.5107 17.5259 19.5374 17.3741 19.5931 17.232C19.6489 17.0899 19.7324 16.9604 19.8389 16.8511C19.9454 16.7418 20.0727 16.6549 20.2132 16.5954C20.3538 16.536 20.5048 16.5053 20.6575 16.5051C20.8124 16.5012 20.9667 16.5281 21.1112 16.5841C21.2557 16.6402 21.3877 16.7243 21.4996 16.8317C21.6114 16.9391 21.7008 17.0675 21.7627 17.2097C21.8246 17.3518 21.8577 17.5048 21.8601 17.6598C21.8588 17.9733 21.734 18.2737 21.5127 18.4957C21.2914 18.7178 20.9915 18.8436 20.678 18.8459H20.6741Z" fill="#3F2194"/>
</svg>
