<svg width="52" height="53" viewBox="0 0 52 53" fill="none" xmlns="http://www.w3.org/2000/svg">
<rect y="0.5" width="52" height="52" rx="12" fill="#F6F3FF"/>
<path d="M39.1834 20.7966C37.8458 14.5281 32.4015 10.088 25.869 10.0743C25.2034 10.059 24.5381 10.114 23.8841 10.2385C18.6149 11.2359 14.9912 14.2201 13.1902 19.2889C12.274 21.8702 12.2486 24.4828 13.3006 27.069C13.8514 28.4331 14.5051 29.7534 15.2562 31.0183C17.5442 34.8512 20.3123 38.3262 23.2847 41.6399C24.812 43.3412 27.2672 43.2513 28.8082 41.5098C30.5457 39.5474 32.2158 37.5293 33.7665 35.4163C35.4962 33.0589 37.091 30.6252 38.3015 27.9441C39.3379 25.6464 39.7163 23.2919 39.1834 20.7966ZM25.9834 29.1801C22.7567 29.1801 20.1285 26.6036 20.1226 23.4249C20.1177 20.2275 22.7538 17.6198 25.9893 17.6247C29.2062 17.6247 31.8315 20.2295 31.8315 23.4092C31.8315 26.5889 29.214 29.1771 25.9863 29.1801H25.9834Z" fill="#FEFEFE"/>
<path d="M39.1834 20.7966C37.8458 14.5281 32.4015 10.088 25.869 10.0743C25.2034 10.059 24.5381 10.114 23.8841 10.2385C18.6149 11.2359 14.9912 14.2201 13.1902 19.2889C12.274 21.8702 12.2486 24.4828 13.3006 27.069C13.8514 28.4331 14.5051 29.7534 15.2562 31.0183C17.5442 34.8512 20.3123 38.3262 23.2847 41.6399C24.812 43.3412 27.2672 43.2513 28.8082 41.5098C30.5457 39.5474 32.2158 37.5293 33.7665 35.4163C35.4962 33.0589 37.091 30.6252 38.3015 27.9441C39.3379 25.6464 39.7163 23.2919 39.1834 20.7966ZM25.9834 29.1801C22.7567 29.1801 20.1285 26.6036 20.1226 23.4249C20.1177 20.2275 22.7538 17.6198 25.9893 17.6247C29.2062 17.6247 31.8315 20.2295 31.8315 23.4092C31.8315 26.5889 29.214 29.1771 25.9863 29.1801H25.9834Z" fill="#3F2194"/>
</svg>
