<svg width="52" height="53" viewBox="0 0 52 53" fill="none" xmlns="http://www.w3.org/2000/svg">
<rect y="0.5" width="52" height="52" rx="12" fill="#F6F3FF"/>
<path d="M34.2584 32.9503C34.2584 35.254 34.2652 37.5566 34.2584 39.8603C34.2525 41.412 33.3051 42.5521 31.8139 42.8141C31.0865 42.9413 30.4138 42.7613 29.7919 42.3741C28.688 41.6897 27.5763 41.0053 26.4802 40.3081C26.1125 40.0725 25.8065 40.0813 25.4408 40.3169C24.3261 41.0336 23.2056 41.7435 22.0665 42.4211C20.3407 43.4468 18.2101 42.5433 17.7447 40.6083C17.7075 40.4671 17.6872 40.3221 17.6841 40.1761C17.6841 37.6916 17.6841 35.2061 17.6841 32.6472C20.1891 34.4806 22.9426 35.4114 25.9952 35.4065C29.0478 35.4016 31.7729 34.4718 34.2516 32.6531C34.2496 32.787 34.2584 32.8682 34.2584 32.9503Z" fill="#FEFEFE"/>
<path d="M28.6713 20.6107C29.0213 20.6293 29.3675 20.7085 29.7772 20.7711C29.386 21.1739 29.0311 21.5533 28.6527 21.9122C28.0533 22.4754 27.8871 23.1549 28.0357 23.943C28.1276 24.4319 28.199 24.9208 28.288 25.4595C27.8069 25.1946 27.3708 24.957 26.9377 24.7145C26.2757 24.3449 25.6206 24.3488 24.9626 24.7301C24.5431 24.9726 24.1148 25.1994 23.6367 25.4634C23.7247 24.9257 23.7922 24.4378 23.886 23.9557C24.0405 23.153 23.8714 22.4597 23.2534 21.8965C22.8789 21.5543 22.5123 21.2023 22.0713 20.7887C22.7108 20.6909 23.2104 20.6039 23.713 20.5384C24.0545 20.506 24.3808 20.3816 24.6571 20.1784C24.9335 19.9753 25.1496 19.7009 25.2823 19.3846C25.4945 18.926 25.7125 18.4704 25.9609 17.9463C26.1516 18.3442 26.3422 18.6669 26.4644 19.014C26.835 20.0632 27.5879 20.554 28.6713 20.6107Z" fill="#FEFEFE"/>
<path d="M25.9942 10.0704C19.6533 10.0489 14.4906 15.1871 14.4623 21.5475C14.4339 27.8757 19.5897 33.0452 25.9492 33.0658C32.2686 33.0863 37.4352 27.9451 37.4625 21.6101C37.4899 15.2751 32.3429 10.0948 25.9942 10.0704ZM32.0398 21.8115C31.5353 22.3239 31.0385 22.845 30.5252 23.3476C30.4574 23.4071 30.4079 23.4847 30.3826 23.5713C30.3573 23.6579 30.3573 23.7499 30.3825 23.8365C30.5213 24.5904 30.6543 25.3452 30.7628 26.104C30.8674 26.8402 30.6181 27.4562 30.0148 27.8953C29.4115 28.3343 28.7691 28.3675 28.1199 28.0361C27.4706 27.7046 26.837 27.3428 26.2015 26.983C26.1322 26.9362 26.0504 26.9112 25.9668 26.9112C25.8832 26.9112 25.8015 26.9362 25.7321 26.983C25.1455 27.3213 24.5432 27.6459 23.9467 27.9725C23.2574 28.349 22.5651 28.3714 21.9188 27.9021C21.2725 27.4328 21.0388 26.7698 21.1845 25.973C21.3175 25.2435 21.4241 24.5063 21.5551 23.7778C21.5712 23.7017 21.566 23.6226 21.5399 23.5492C21.5139 23.4759 21.468 23.4112 21.4074 23.3623C20.9049 22.8656 20.416 22.3552 19.9144 21.8565C19.3336 21.2786 19.1321 20.5903 19.3981 19.8188C19.6641 19.0474 20.2703 18.6602 21.0779 18.5594C21.7301 18.4783 22.3764 18.358 23.0286 18.273C23.2046 18.2505 23.273 18.1576 23.3385 18.0168C23.6456 17.3558 23.9633 16.6997 24.2723 16.0397C24.6077 15.324 25.1582 14.9133 25.9551 14.9084C26.752 14.9035 27.3073 15.3142 27.6466 16.026C27.9595 16.685 28.2763 17.3411 28.5785 18.0041C28.6067 18.082 28.6575 18.1497 28.7244 18.1986C28.7912 18.2475 28.8711 18.2755 28.9539 18.2788C29.6902 18.3766 30.4206 18.4822 31.1529 18.6259C32.0584 18.8049 32.6313 19.5392 32.6294 20.4495C32.6362 20.9902 32.4143 21.4341 32.0398 21.8145V21.8115Z" fill="#FEFEFE"/>
<path d="M28.6713 20.6107C29.0213 20.6293 29.3675 20.7085 29.7772 20.7711C29.386 21.1739 29.0311 21.5533 28.6527 21.9122C28.0533 22.4754 27.8871 23.1549 28.0357 23.943C28.1276 24.4319 28.199 24.9208 28.288 25.4595C27.8069 25.1946 27.3708 24.957 26.9377 24.7145C26.2757 24.3449 25.6206 24.3488 24.9626 24.7301C24.5431 24.9726 24.1148 25.1994 23.6367 25.4634C23.7247 24.9257 23.7922 24.4378 23.886 23.9557C24.0405 23.153 23.8714 22.4597 23.2534 21.8965C22.8789 21.5543 22.5123 21.2023 22.0713 20.7887C22.7108 20.6909 23.2104 20.6039 23.713 20.5384C24.0545 20.506 24.3808 20.3816 24.6571 20.1784C24.9335 19.9753 25.1496 19.7009 25.2823 19.3846C25.4945 18.926 25.7125 18.4704 25.9609 17.9463C26.1516 18.3442 26.3422 18.6669 26.4644 19.014C26.835 20.0632 27.5879 20.554 28.6713 20.6107Z" fill="#3F2194"/>
<path d="M25.9942 10.0704C19.6533 10.0489 14.4906 15.1871 14.4623 21.5475C14.4339 27.8757 19.5897 33.0452 25.9492 33.0658C32.2686 33.0863 37.4352 27.9451 37.4625 21.6101C37.4899 15.2751 32.3429 10.0948 25.9942 10.0704ZM32.0398 21.8115C31.5353 22.3239 31.0385 22.845 30.5252 23.3476C30.4574 23.4071 30.4079 23.4847 30.3826 23.5713C30.3573 23.6579 30.3573 23.7499 30.3825 23.8365C30.5213 24.5904 30.6543 25.3452 30.7628 26.104C30.8674 26.8402 30.6181 27.4562 30.0148 27.8953C29.4115 28.3343 28.7691 28.3675 28.1199 28.0361C27.4706 27.7046 26.837 27.3428 26.2015 26.983C26.1322 26.9362 26.0504 26.9112 25.9668 26.9112C25.8832 26.9112 25.8015 26.9362 25.7321 26.983C25.1455 27.3213 24.5432 27.6459 23.9467 27.9725C23.2574 28.349 22.5651 28.3714 21.9188 27.9021C21.2725 27.4328 21.0388 26.7698 21.1845 25.973C21.3175 25.2435 21.4241 24.5063 21.5551 23.7778C21.5712 23.7017 21.566 23.6226 21.5399 23.5492C21.5139 23.4759 21.468 23.4112 21.4074 23.3623C20.9049 22.8656 20.416 22.3552 19.9144 21.8565C19.3336 21.2786 19.1321 20.5903 19.3981 19.8188C19.6641 19.0474 20.2703 18.6602 21.0779 18.5594C21.7301 18.4783 22.3764 18.358 23.0286 18.273C23.2046 18.2505 23.273 18.1576 23.3385 18.0168C23.6456 17.3558 23.9633 16.6997 24.2723 16.0397C24.6077 15.324 25.1582 14.9133 25.9551 14.9084C26.752 14.9035 27.3073 15.3142 27.6466 16.026C27.9595 16.685 28.2763 17.3411 28.5785 18.0041C28.6067 18.082 28.6575 18.1497 28.7244 18.1986C28.7912 18.2475 28.8711 18.2755 28.9539 18.2788C29.6902 18.3766 30.4206 18.4822 31.1529 18.6259C32.0584 18.8049 32.6313 19.5392 32.6294 20.4495C32.6362 20.9902 32.4143 21.4341 32.0398 21.8145V21.8115Z" fill="#3F2194"/>
<path d="M34.2564 39.8593C34.2506 41.411 33.3031 42.5511 31.812 42.8132C31.0845 42.9403 30.4118 42.7604 29.79 42.3732C28.686 41.6887 27.5743 41.0043 26.4782 40.3071C26.1106 40.0715 25.8045 40.0803 25.4388 40.3159C24.3242 41.0326 23.2036 41.7425 22.0645 42.4201C20.3388 43.4458 18.2082 42.5423 17.7428 40.6073C17.7056 40.4661 17.6852 40.3211 17.6821 40.1751C17.6821 37.6906 17.6821 35.2051 17.6821 32.6462C20.1872 34.4796 22.9406 35.4104 25.9932 35.4055C29.0459 35.4006 31.7709 34.4708 34.2496 32.6521C34.2574 32.7861 34.2662 32.8672 34.2662 32.9454C34.2594 35.253 34.2652 37.5557 34.2564 39.8593Z" fill="#3F2194"/>
<path d="M29.7772 20.7711C29.386 21.1739 29.0311 21.5533 28.6527 21.9122C28.0533 22.4754 27.8871 23.1549 28.0357 23.943C28.1276 24.4319 28.199 24.9208 28.288 25.4595C27.8069 25.1946 27.3708 24.957 26.9377 24.7145C26.2757 24.3449 25.6206 24.3488 24.9626 24.7301C24.5431 24.9726 24.1148 25.1994 23.6367 25.4634C23.7247 24.9257 23.7922 24.4378 23.886 23.9557C24.0405 23.153 23.8714 22.4597 23.2534 21.8965C22.8789 21.5543 22.5123 21.2023 22.0713 20.7887C22.7108 20.6909 23.2104 20.6039 23.713 20.5384C24.0545 20.506 24.3808 20.3816 24.6571 20.1784C24.9335 19.9753 25.1496 19.7009 25.2823 19.3846C25.4945 18.926 25.7125 18.4704 25.9609 17.9463C26.1516 18.3442 26.3422 18.6669 26.4644 19.014C26.835 20.0632 27.584 20.554 28.6713 20.6107C29.0213 20.6303 29.3675 20.7105 29.7772 20.7711Z" fill="#FEFEFE"/>
<path d="M29.7772 20.7711C29.386 21.1739 29.0311 21.5533 28.6527 21.9122C28.0533 22.4754 27.8871 23.1549 28.0357 23.943C28.1276 24.4319 28.199 24.9208 28.288 25.4595C27.8069 25.1946 27.3708 24.957 26.9377 24.7145C26.2757 24.3449 25.6206 24.3488 24.9626 24.7301C24.5431 24.9726 24.1148 25.1994 23.6367 25.4634C23.7247 24.9257 23.7922 24.4378 23.886 23.9557C24.0405 23.153 23.8714 22.4597 23.2534 21.8965C22.8789 21.5543 22.5123 21.2023 22.0713 20.7887C22.7108 20.6909 23.2104 20.6039 23.713 20.5384C24.0545 20.506 24.3808 20.3816 24.6571 20.1784C24.9335 19.9753 25.1496 19.7009 25.2823 19.3846C25.4945 18.926 25.7125 18.4704 25.9609 17.9463C26.1516 18.3442 26.3422 18.6669 26.4644 19.014C26.835 20.0632 27.584 20.554 28.6713 20.6107C29.0213 20.6303 29.3675 20.7105 29.7772 20.7711Z" fill="#3F2194"/>
</svg>
