<svg width="52" height="52" viewBox="0 0 52 52" fill="none" xmlns="http://www.w3.org/2000/svg">
<rect width="52" height="52" rx="12" fill="#F6F3FF"/>
<path d="M25.9755 9.57137C16.9506 9.55768 9.58401 16.9115 9.57325 25.9452C9.5625 34.9789 16.9134 42.3367 25.9471 42.3504C34.9808 42.3641 42.3366 35.0092 42.3513 25.9755C42.366 16.9419 35.0121 9.58604 25.9755 9.57137ZM32.4474 27.0902C32.3169 27.1196 32.1832 27.1324 32.0494 27.1283C30.0626 27.1283 28.0744 27.1283 26.085 27.1283C25.2676 27.1283 24.7904 26.6522 24.7885 25.8387C24.7885 24.8022 24.7885 23.7658 24.7885 22.7293C24.7885 21.6929 24.7885 20.6574 24.7885 19.621C24.7885 18.8886 25.2979 18.3499 25.9686 18.3587C26.6394 18.3675 27.1253 18.8925 27.1273 19.6063C27.1273 21.2147 27.1351 22.8242 27.1224 24.4336C27.1224 24.7054 27.1713 24.7993 27.4705 24.7963C29.0349 24.7787 30.5916 24.7827 32.1521 24.7905C32.4394 24.7851 32.7185 24.886 32.9359 25.0739C33.1533 25.2617 33.2937 25.5232 33.3301 25.8083C33.3664 26.0933 33.2963 26.3817 33.133 26.6181C32.9697 26.8545 32.7249 27.0223 32.4454 27.0892L32.4474 27.0902Z" fill="#3F2194"/>
</svg>
