<svg width="52" height="52" viewBox="0 0 52 52" fill="none" xmlns="http://www.w3.org/2000/svg">
<rect width="52" height="52" rx="12" fill="#F6F3FF"/>
<path d="M25.9658 19.0363C24.5766 19.0357 23.2185 19.447 22.0632 20.2183C20.9079 20.9896 20.0072 22.0862 19.4751 23.3694C18.943 24.6526 18.8034 26.0648 19.0739 27.4273C19.3444 28.7899 20.0129 30.0416 20.9948 31.0242C21.9768 32.0068 23.228 32.6761 24.5904 32.9476C25.9527 33.2191 27.365 33.0804 28.6485 32.5492C29.9321 32.018 31.0293 31.1181 31.8014 29.9633C32.5735 28.8085 32.9858 27.4507 32.9862 26.0616C32.9805 24.2009 32.2392 22.4181 30.924 21.1019C29.6088 19.7858 27.8264 19.0432 25.9658 19.0363ZM25.9658 30.7403C25.6716 30.7203 25.3958 30.5904 25.1931 30.3763C24.9904 30.1622 24.8757 29.8796 24.8719 29.5848C24.8681 29.29 24.9754 29.0046 25.1724 28.7853C25.3695 28.566 25.6419 28.429 25.9355 28.4014C26.5407 28.3936 27.143 28.9881 27.1352 29.5865C27.1301 29.8941 27.0043 30.1874 26.785 30.4032C26.5658 30.619 26.2705 30.74 25.9628 30.7403H25.9658ZM29.5835 27.6114C29.472 27.8295 29.2968 28.0086 29.0811 28.1249C28.8655 28.2412 28.6196 28.2892 28.376 28.2626C28.1453 28.2336 27.9302 28.1307 27.7629 27.9692C26.615 26.9729 25.2755 26.969 24.0581 27.9555C23.3121 28.5598 22.3255 28.2391 22.1231 27.3239C22.0302 26.9035 22.1818 26.5563 22.478 26.2669C23.4314 25.3361 24.5891 24.9078 25.9003 24.8795C27.233 24.9098 28.3897 25.3429 29.3401 26.2747C29.7312 26.6619 29.8123 27.1714 29.5855 27.6163L29.5835 27.6114ZM30.4068 25.2363C29.9179 25.4563 29.475 25.3341 29.0976 24.9772C28.4839 24.3621 27.701 23.9435 26.8487 23.7746C25.4964 23.5213 24.2928 23.8547 23.2309 24.7211C23.0989 24.8296 22.9796 24.9528 22.8486 25.0623C22.7365 25.1612 22.606 25.237 22.4646 25.2854C22.3231 25.3337 22.1735 25.3536 22.0243 25.344C21.8752 25.3344 21.7293 25.2954 21.5953 25.2292C21.4612 25.1631 21.3415 25.0712 21.2431 24.9587C20.8139 24.4903 20.8246 23.8528 21.2705 23.3776C23.6866 20.806 28.3203 20.7953 30.7549 23.3541C30.8654 23.4598 30.9534 23.5866 31.0138 23.727C31.0741 23.8675 31.1054 24.0187 31.1059 24.1715C31.113 24.3997 31.05 24.6246 30.9253 24.8159C30.8007 25.0071 30.6204 25.1556 30.4088 25.2412L30.4068 25.2363Z" fill="#FEFEFE"/>
<path d="M41.3658 22.8398C40.6491 22.5719 39.9314 22.3069 39.2088 22.0576C39.1284 22.0362 39.0547 21.9946 38.9948 21.9368C38.9349 21.8789 38.8908 21.8067 38.8666 21.7271C38.6668 21.1276 38.4203 20.5447 38.1294 19.9837C38.0862 19.9057 38.0641 19.8177 38.0653 19.7286C38.0665 19.6394 38.0909 19.5521 38.1362 19.4753C38.4853 18.7263 38.8206 17.9714 39.1668 17.2264C39.4054 16.7121 39.333 16.2603 38.9311 15.8575C37.9739 14.9002 37.0215 13.9391 36.0604 12.9877C35.6175 12.5497 35.2322 12.491 34.6661 12.7569C33.9728 13.0816 33.2796 13.4052 32.5961 13.7494C32.5044 13.805 32.3993 13.8344 32.292 13.8344C32.1848 13.8344 32.0796 13.805 31.9879 13.7494C31.455 13.4567 30.8943 13.218 30.314 13.0366C30.2278 13.015 30.1492 12.9704 30.0865 12.9075C30.0238 12.8447 29.9794 12.7659 29.9581 12.6797C29.7136 11.9669 29.4487 11.2619 29.1866 10.556C29.0997 10.2943 28.9309 10.0674 28.7052 9.90897C28.4795 9.75051 28.2088 9.66883 27.9331 9.67597C26.6535 9.67597 25.3736 9.67597 24.0934 9.67597C23.4842 9.67597 23.1156 9.93704 22.9093 10.5139C22.6306 11.2785 22.351 12.0422 22.0831 12.8107C22.0593 12.897 22.0136 12.9756 21.9503 13.0388C21.8871 13.1021 21.8085 13.1478 21.7223 13.1715C21.1336 13.3657 20.5614 13.6067 20.0111 13.8921C19.9333 13.9356 19.8456 13.9585 19.7564 13.9585C19.6673 13.9585 19.5796 13.9356 19.5017 13.8921C18.7537 13.5431 17.9989 13.2077 17.2479 12.8616C17.0619 12.7709 16.8584 12.7218 16.6515 12.7178C16.4806 12.7168 16.3113 12.751 16.1541 12.8182C15.997 12.8855 15.8554 12.9845 15.7383 13.1089C14.8338 14.0144 13.9245 14.9159 13.0239 15.8252C12.5839 16.2701 12.5028 16.7551 12.7599 17.33C13.1035 18.0946 13.4519 18.8573 13.8052 19.618C13.8451 19.6911 13.8651 19.7733 13.8632 19.8566C13.8613 19.9398 13.8376 20.0211 13.7944 20.0922C13.4909 20.6469 13.242 21.2298 13.0513 21.8327C13.0286 21.9187 12.9832 21.997 12.9196 22.0593C12.8561 22.1216 12.777 22.1656 12.6905 22.1866C11.8878 22.4682 11.0899 22.7606 10.2911 23.0529C9.78847 23.2368 9.5763 23.5369 9.57532 24.0718C9.57532 25.3514 9.57532 26.6313 9.57532 27.9115C9.57532 28.5412 9.83932 28.9079 10.4309 29.121C11.1857 29.3919 11.9376 29.6696 12.6944 29.9336C12.7814 29.9549 12.8613 29.9984 12.9262 30.06C12.9912 30.1215 13.039 30.1989 13.065 30.2846C13.2641 30.8847 13.5107 31.468 13.8023 32.0289C13.8438 32.1012 13.8656 32.1832 13.8656 32.2665C13.8656 32.3499 13.8438 32.4318 13.8023 32.5041C13.4551 33.213 13.1178 33.9268 12.7815 34.6416C12.5096 35.2214 12.5761 35.6047 13.0298 36.0613C13.9587 36.9954 14.8895 37.9266 15.8223 38.8548C16.3171 39.3437 16.6711 39.4043 17.3037 39.1188C18.0458 38.7834 18.7889 38.452 19.5262 38.1058C19.598 38.0655 19.679 38.0443 19.7613 38.0443C19.8437 38.0443 19.9247 38.0655 19.9965 38.1058C20.5831 38.3992 21.1698 38.6925 21.8083 38.8656C21.9775 38.9125 22.0283 39.0337 22.0791 39.1736C22.3542 39.9395 22.6303 40.7051 22.9073 41.4704C23.1224 42.057 23.4637 42.3161 24.0807 42.3191C25.3844 42.3249 26.6881 42.3249 27.9918 42.3191C28.5784 42.3191 28.9177 42.0609 29.1191 41.5144C29.4056 40.739 29.6941 39.9656 29.9679 39.1863C29.9889 39.1056 30.0305 39.0317 30.0886 38.9719C30.1467 38.9121 30.2193 38.8684 30.2993 38.845C30.9084 38.6363 31.5021 38.385 32.0759 38.0931C32.1424 38.0549 32.2178 38.0347 32.2945 38.0347C32.3712 38.0347 32.4465 38.0549 32.513 38.0931C33.2229 38.4393 33.9366 38.7776 34.6514 39.1139C35.2439 39.3926 35.6145 39.3369 36.0741 38.8822C37.0264 37.9377 37.9745 36.9892 38.9184 36.0369C39.3526 35.5988 39.4181 35.2038 39.156 34.6455C38.8216 33.9297 38.4862 33.215 38.1352 32.5071C38.091 32.4301 38.0684 32.3425 38.0698 32.2537C38.0712 32.1649 38.0965 32.0782 38.1431 32.0025C38.4381 31.4594 38.6807 30.8894 38.8676 30.3002C38.888 30.2135 38.9315 30.1339 38.9934 30.0698C39.0554 30.0058 39.1336 29.9597 39.2196 29.9365C39.9754 29.6725 40.7283 29.3958 41.4812 29.121C42.106 28.8932 42.3504 28.5451 42.3514 27.8861C42.3514 26.6795 42.3514 25.4736 42.3514 24.2683C42.3534 23.4841 42.1001 23.1136 41.3658 22.8398ZM25.957 35.4238C20.808 35.4238 16.5919 31.1939 16.5987 26.044C16.6055 20.9106 20.8149 16.7023 25.9502 16.6954C31.1011 16.6886 35.3261 20.9048 35.328 26.0557C35.33 31.2066 31.1089 35.4267 25.957 35.4238Z" fill="#FEFEFE"/>
<path d="M25.9658 19.0363C24.5766 19.0357 23.2185 19.447 22.0632 20.2183C20.9079 20.9896 20.0072 22.0862 19.4751 23.3694C18.943 24.6526 18.8034 26.0648 19.0739 27.4273C19.3444 28.7899 20.0129 30.0416 20.9948 31.0242C21.9768 32.0068 23.228 32.6761 24.5904 32.9476C25.9527 33.2191 27.365 33.0804 28.6485 32.5492C29.9321 32.018 31.0293 31.1181 31.8014 29.9633C32.5735 28.8085 32.9858 27.4507 32.9862 26.0616C32.9805 24.2009 32.2392 22.4181 30.924 21.1019C29.6088 19.7858 27.8264 19.0432 25.9658 19.0363ZM25.9658 30.7403C25.6716 30.7203 25.3958 30.5904 25.1931 30.3763C24.9904 30.1622 24.8757 29.8796 24.8719 29.5848C24.8681 29.29 24.9754 29.0046 25.1724 28.7853C25.3695 28.566 25.6419 28.429 25.9355 28.4014C26.5407 28.3936 27.143 28.9881 27.1352 29.5865C27.1301 29.8941 27.0043 30.1874 26.785 30.4032C26.5658 30.619 26.2705 30.74 25.9628 30.7403H25.9658ZM29.5835 27.6114C29.472 27.8295 29.2968 28.0086 29.0811 28.1249C28.8655 28.2412 28.6196 28.2892 28.376 28.2626C28.1453 28.2336 27.9302 28.1307 27.7629 27.9692C26.615 26.9729 25.2755 26.969 24.0581 27.9555C23.3121 28.5598 22.3255 28.2391 22.1231 27.3239C22.0302 26.9035 22.1818 26.5563 22.478 26.2669C23.4314 25.3361 24.5891 24.9078 25.9003 24.8795C27.233 24.9098 28.3897 25.3429 29.3401 26.2747C29.7312 26.6619 29.8123 27.1714 29.5855 27.6163L29.5835 27.6114ZM30.4068 25.2363C29.9179 25.4563 29.475 25.3341 29.0976 24.9772C28.4839 24.3621 27.701 23.9435 26.8487 23.7746C25.4964 23.5213 24.2928 23.8547 23.2309 24.7211C23.0989 24.8296 22.9796 24.9528 22.8486 25.0623C22.7365 25.1612 22.606 25.237 22.4646 25.2854C22.3231 25.3337 22.1735 25.3536 22.0243 25.344C21.8752 25.3344 21.7293 25.2954 21.5953 25.2292C21.4612 25.1631 21.3415 25.0712 21.2431 24.9587C20.8139 24.4903 20.8246 23.8528 21.2705 23.3776C23.6866 20.806 28.3203 20.7953 30.7549 23.3541C30.8654 23.4598 30.9534 23.5866 31.0138 23.727C31.0741 23.8675 31.1054 24.0187 31.1059 24.1715C31.113 24.3997 31.05 24.6246 30.9253 24.8159C30.8007 25.0071 30.6204 25.1556 30.4088 25.2412L30.4068 25.2363Z" fill="#3F2194"/>
<path d="M41.3658 22.8398C40.6491 22.5719 39.9314 22.3069 39.2088 22.0576C39.1284 22.0362 39.0547 21.9946 38.9948 21.9368C38.9349 21.8789 38.8908 21.8067 38.8666 21.7271C38.6668 21.1276 38.4203 20.5447 38.1294 19.9837C38.0862 19.9057 38.0641 19.8177 38.0653 19.7286C38.0665 19.6394 38.0909 19.5521 38.1362 19.4753C38.4853 18.7263 38.8206 17.9714 39.1668 17.2264C39.4054 16.7121 39.333 16.2603 38.9311 15.8575C37.9739 14.9002 37.0215 13.9391 36.0604 12.9877C35.6175 12.5497 35.2322 12.491 34.6661 12.7569C33.9728 13.0816 33.2796 13.4052 32.5961 13.7494C32.5044 13.805 32.3993 13.8344 32.292 13.8344C32.1848 13.8344 32.0796 13.805 31.9879 13.7494C31.455 13.4567 30.8943 13.218 30.314 13.0366C30.2278 13.015 30.1492 12.9704 30.0865 12.9075C30.0238 12.8447 29.9794 12.7659 29.9581 12.6797C29.7136 11.9669 29.4487 11.2619 29.1866 10.556C29.0997 10.2943 28.9309 10.0674 28.7052 9.90897C28.4795 9.75051 28.2088 9.66883 27.9331 9.67597C26.6535 9.67597 25.3736 9.67597 24.0934 9.67597C23.4842 9.67597 23.1156 9.93704 22.9093 10.5139C22.6306 11.2785 22.351 12.0422 22.0831 12.8107C22.0593 12.897 22.0136 12.9756 21.9503 13.0388C21.8871 13.1021 21.8085 13.1478 21.7223 13.1715C21.1336 13.3657 20.5614 13.6067 20.0111 13.8921C19.9333 13.9356 19.8456 13.9585 19.7564 13.9585C19.6673 13.9585 19.5796 13.9356 19.5017 13.8921C18.7537 13.5431 17.9989 13.2077 17.2479 12.8616C17.0619 12.7709 16.8584 12.7218 16.6515 12.7178C16.4806 12.7168 16.3113 12.751 16.1541 12.8182C15.997 12.8855 15.8554 12.9845 15.7383 13.1089C14.8338 14.0144 13.9245 14.9159 13.0239 15.8252C12.5839 16.2701 12.5028 16.7551 12.7599 17.33C13.1035 18.0946 13.4519 18.8573 13.8052 19.618C13.8451 19.6911 13.8651 19.7733 13.8632 19.8566C13.8613 19.9398 13.8376 20.0211 13.7944 20.0922C13.4909 20.6469 13.242 21.2298 13.0513 21.8327C13.0286 21.9187 12.9832 21.997 12.9196 22.0593C12.8561 22.1216 12.777 22.1656 12.6905 22.1866C11.8878 22.4682 11.0899 22.7606 10.2911 23.0529C9.78847 23.2368 9.5763 23.5369 9.57532 24.0718C9.57532 25.3514 9.57532 26.6313 9.57532 27.9115C9.57532 28.5412 9.83932 28.9079 10.4309 29.121C11.1857 29.3919 11.9376 29.6696 12.6944 29.9336C12.7814 29.9549 12.8613 29.9984 12.9262 30.06C12.9912 30.1215 13.039 30.1989 13.065 30.2846C13.2641 30.8847 13.5107 31.468 13.8023 32.0289C13.8438 32.1012 13.8656 32.1832 13.8656 32.2665C13.8656 32.3499 13.8438 32.4318 13.8023 32.5041C13.4551 33.213 13.1178 33.9268 12.7815 34.6416C12.5096 35.2214 12.5761 35.6047 13.0298 36.0613C13.9587 36.9954 14.8895 37.9266 15.8223 38.8548C16.3171 39.3437 16.6711 39.4043 17.3037 39.1188C18.0458 38.7834 18.7889 38.452 19.5262 38.1058C19.598 38.0655 19.679 38.0443 19.7613 38.0443C19.8437 38.0443 19.9247 38.0655 19.9965 38.1058C20.5831 38.3992 21.1698 38.6925 21.8083 38.8656C21.9775 38.9125 22.0283 39.0337 22.0791 39.1736C22.3542 39.9395 22.6303 40.7051 22.9073 41.4704C23.1224 42.057 23.4637 42.3161 24.0807 42.3191C25.3844 42.3249 26.6881 42.3249 27.9918 42.3191C28.5784 42.3191 28.9177 42.0609 29.1191 41.5144C29.4056 40.739 29.6941 39.9656 29.9679 39.1863C29.9889 39.1056 30.0305 39.0317 30.0886 38.9719C30.1467 38.9121 30.2193 38.8684 30.2993 38.845C30.9084 38.6363 31.5021 38.385 32.0759 38.0931C32.1424 38.0549 32.2178 38.0347 32.2945 38.0347C32.3712 38.0347 32.4465 38.0549 32.513 38.0931C33.2229 38.4393 33.9366 38.7776 34.6514 39.1139C35.2439 39.3926 35.6145 39.3369 36.0741 38.8822C37.0264 37.9377 37.9745 36.9892 38.9184 36.0369C39.3526 35.5988 39.4181 35.2038 39.156 34.6455C38.8216 33.9297 38.4862 33.215 38.1352 32.5071C38.091 32.4301 38.0684 32.3425 38.0698 32.2537C38.0712 32.1649 38.0965 32.0782 38.1431 32.0025C38.4381 31.4594 38.6807 30.8894 38.8676 30.3002C38.888 30.2135 38.9315 30.1339 38.9934 30.0698C39.0554 30.0058 39.1336 29.9597 39.2196 29.9365C39.9754 29.6725 40.7283 29.3958 41.4812 29.121C42.106 28.8932 42.3504 28.5451 42.3514 27.8861C42.3514 26.6795 42.3514 25.4736 42.3514 24.2683C42.3534 23.4841 42.1001 23.1136 41.3658 22.8398ZM25.957 35.4238C20.808 35.4238 16.5919 31.1939 16.5987 26.044C16.6055 20.9106 20.8149 16.7023 25.9502 16.6954C31.1011 16.6886 35.3261 20.9048 35.328 26.0557C35.33 31.2066 31.1089 35.4267 25.957 35.4238Z" fill="#3F2194"/>
<path d="M25.9658 19.0363C24.5766 19.0357 23.2185 19.447 22.0632 20.2183C20.9079 20.9896 20.0072 22.0862 19.4751 23.3694C18.943 24.6526 18.8034 26.0648 19.0739 27.4273C19.3444 28.7899 20.0129 30.0416 20.9948 31.0242C21.9768 32.0068 23.228 32.6761 24.5904 32.9476C25.9527 33.2191 27.365 33.0804 28.6485 32.5492C29.9321 32.018 31.0293 31.1181 31.8014 29.9633C32.5735 28.8085 32.9858 27.4507 32.9862 26.0616C32.9805 24.2009 32.2392 22.4181 30.924 21.1019C29.6088 19.7858 27.8264 19.0432 25.9658 19.0363ZM25.9658 30.7403C25.6716 30.7203 25.3958 30.5904 25.1931 30.3763C24.9904 30.1622 24.8757 29.8796 24.8719 29.5848C24.8681 29.29 24.9754 29.0046 25.1724 28.7853C25.3695 28.566 25.6419 28.429 25.9355 28.4014C26.5407 28.3936 27.143 28.9881 27.1352 29.5865C27.1301 29.8941 27.0043 30.1874 26.785 30.4032C26.5658 30.619 26.2705 30.74 25.9628 30.7403H25.9658ZM29.5835 27.6114C29.472 27.8295 29.2968 28.0086 29.0811 28.1249C28.8655 28.2412 28.6196 28.2892 28.376 28.2626C28.1453 28.2336 27.9302 28.1307 27.7629 27.9692C26.615 26.9729 25.2755 26.969 24.0581 27.9555C23.3121 28.5598 22.3255 28.2391 22.1231 27.3239C22.0302 26.9035 22.1818 26.5563 22.478 26.2669C23.4314 25.3361 24.5891 24.9078 25.9003 24.8795C27.233 24.9098 28.3897 25.3429 29.3401 26.2747C29.7312 26.6619 29.8123 27.1714 29.5855 27.6163L29.5835 27.6114ZM30.4068 25.2363C29.9179 25.4563 29.475 25.3341 29.0976 24.9772C28.4839 24.3621 27.701 23.9435 26.8487 23.7746C25.4964 23.5213 24.2928 23.8547 23.2309 24.7211C23.0989 24.8296 22.9796 24.9528 22.8486 25.0623C22.7365 25.1612 22.606 25.237 22.4646 25.2854C22.3231 25.3337 22.1735 25.3536 22.0243 25.344C21.8752 25.3344 21.7293 25.2954 21.5953 25.2292C21.4612 25.1631 21.3415 25.0712 21.2431 24.9587C20.8139 24.4903 20.8246 23.8528 21.2705 23.3776C23.6866 20.806 28.3203 20.7953 30.7549 23.3541C30.8654 23.4598 30.9534 23.5866 31.0138 23.727C31.0741 23.8675 31.1054 24.0187 31.1059 24.1715C31.113 24.3997 31.05 24.6246 30.9253 24.8159C30.8007 25.0071 30.6204 25.1556 30.4088 25.2412L30.4068 25.2363Z" fill="#FEFEFE"/>
<path d="M25.9658 19.0363C24.5766 19.0357 23.2185 19.447 22.0632 20.2183C20.9079 20.9896 20.0072 22.0862 19.4751 23.3694C18.943 24.6526 18.8034 26.0648 19.0739 27.4273C19.3444 28.7899 20.0129 30.0416 20.9948 31.0242C21.9768 32.0068 23.228 32.6761 24.5904 32.9476C25.9527 33.2191 27.365 33.0804 28.6485 32.5492C29.9321 32.018 31.0293 31.1181 31.8014 29.9633C32.5735 28.8085 32.9858 27.4507 32.9862 26.0616C32.9805 24.2009 32.2392 22.4181 30.924 21.1019C29.6088 19.7858 27.8264 19.0432 25.9658 19.0363ZM25.9658 30.7403C25.6716 30.7203 25.3958 30.5904 25.1931 30.3763C24.9904 30.1622 24.8757 29.8796 24.8719 29.5848C24.8681 29.29 24.9754 29.0046 25.1724 28.7853C25.3695 28.566 25.6419 28.429 25.9355 28.4014C26.5407 28.3936 27.143 28.9881 27.1352 29.5865C27.1301 29.8941 27.0043 30.1874 26.785 30.4032C26.5658 30.619 26.2705 30.74 25.9628 30.7403H25.9658ZM29.5835 27.6114C29.472 27.8295 29.2968 28.0086 29.0811 28.1249C28.8655 28.2412 28.6196 28.2892 28.376 28.2626C28.1453 28.2336 27.9302 28.1307 27.7629 27.9692C26.615 26.9729 25.2755 26.969 24.0581 27.9555C23.3121 28.5598 22.3255 28.2391 22.1231 27.3239C22.0302 26.9035 22.1818 26.5563 22.478 26.2669C23.4314 25.3361 24.5891 24.9078 25.9003 24.8795C27.233 24.9098 28.3897 25.3429 29.3401 26.2747C29.7312 26.6619 29.8123 27.1714 29.5855 27.6163L29.5835 27.6114ZM30.4068 25.2363C29.9179 25.4563 29.475 25.3341 29.0976 24.9772C28.4839 24.3621 27.701 23.9435 26.8487 23.7746C25.4964 23.5213 24.2928 23.8547 23.2309 24.7211C23.0989 24.8296 22.9796 24.9528 22.8486 25.0623C22.7365 25.1612 22.606 25.237 22.4646 25.2854C22.3231 25.3337 22.1735 25.3536 22.0243 25.344C21.8752 25.3344 21.7293 25.2954 21.5953 25.2292C21.4612 25.1631 21.3415 25.0712 21.2431 24.9587C20.8139 24.4903 20.8246 23.8528 21.2705 23.3776C23.6866 20.806 28.3203 20.7953 30.7549 23.3541C30.8654 23.4598 30.9534 23.5866 31.0138 23.727C31.0741 23.8675 31.1054 24.0187 31.1059 24.1715C31.113 24.3997 31.05 24.6246 30.9253 24.8159C30.8007 25.0071 30.6204 25.1556 30.4088 25.2412L30.4068 25.2363Z" fill="#3F2194"/>
</svg>
