<svg width="52" height="52" viewBox="0 0 52 52" fill="none" xmlns="http://www.w3.org/2000/svg">
<rect width="52" height="52" rx="12" fill="#F6F3FF"/>
<path d="M34.7677 34.6748C34.1087 35.108 33.5288 35.5059 32.9314 35.8775C31.2692 36.9149 29.1855 36.4759 28.1031 34.8577C28.0628 34.7859 28.0023 34.7275 27.9292 34.6896C27.856 34.6517 27.7734 34.6361 27.6915 34.6445C26.7528 34.6533 25.8142 34.6445 24.8755 34.6445C21.8346 34.6396 19.5417 32.3448 19.5378 29.299C19.5378 27.0677 19.5378 24.8368 19.5378 22.6061C19.5378 19.5349 21.8268 17.2469 24.8931 17.244H30.3393C31.717 17.244 33.0957 17.244 34.4734 17.244C34.5839 17.244 34.7608 17.3271 34.753 17.0846C34.7149 15.8438 34.8508 14.5962 34.6719 13.3603C34.403 11.4859 32.686 9.85101 30.8282 9.62123C30.5603 9.58896 30.4518 9.64665 30.3677 9.90772C29.8788 11.4223 29.3743 12.931 28.8697 14.4397C28.6321 15.1496 28.2615 15.4126 27.5145 15.4126H20.9282C20.0854 15.4126 19.7383 15.1633 19.4752 14.3683C19.0013 12.9382 18.5281 11.508 18.0555 10.0779C17.8785 9.54399 17.8775 9.54399 17.3271 9.67305C15.129 10.1874 13.6887 11.9923 13.6858 14.2686C13.6799 19.0232 13.6799 23.7782 13.6858 28.5334C13.6858 31.6173 13.6751 34.7022 13.6858 37.7861C13.6985 40.2051 15.6981 42.3005 18.0907 42.323C22.1746 42.3608 26.2591 42.3608 30.3442 42.323C32.4885 42.3054 34.3893 40.5699 34.6846 38.4383C34.8567 37.2151 34.71 35.9811 34.7677 34.6748ZM26.4722 37.7177C24.973 37.7235 23.4737 37.7235 21.9744 37.7177C21.2391 37.7177 20.7033 37.2112 20.7111 36.5375C20.719 35.8638 21.2411 35.3818 21.9881 35.3788C22.7351 35.3759 23.4753 35.3788 24.2194 35.3788C24.9635 35.3788 25.7311 35.3788 26.4869 35.3788C27.2055 35.3788 27.7277 35.8677 27.7326 36.5316C27.7375 37.1955 27.2104 37.7177 26.4722 37.7177Z" fill="#3F2194"/>
<path d="M38.2672 25.9658C38.2672 24.856 38.2672 23.7462 38.2672 22.6413C38.2672 20.8266 37.0283 19.5946 35.2107 19.5936C31.7845 19.5936 28.3581 19.5936 24.9313 19.5936C23.1155 19.5936 21.8816 20.8295 21.8796 22.6452C21.8796 24.8276 21.8796 27.0113 21.8796 29.1963C21.8796 31.105 23.096 32.3145 25.0085 32.3145C26.4957 32.3145 27.9839 32.3282 29.4711 32.3047C29.8094 32.3047 29.9013 32.4025 29.8505 32.7076C29.8476 32.744 29.8476 32.7806 29.8505 32.8171C29.8329 33.306 30.0079 33.7059 30.446 33.9474C30.884 34.1889 31.3328 34.1332 31.7532 33.8496C32.2187 33.5387 32.7144 33.2678 33.1544 32.9246C33.7802 32.4357 34.4519 32.2734 35.2468 32.294C37.0147 32.3399 38.2594 31.0639 38.2652 29.298C38.2701 28.1844 38.2672 27.0746 38.2672 25.9658ZM27.7287 22.437C27.8898 22.4237 28.0518 22.4439 28.2047 22.4962C28.3576 22.5486 28.4981 22.6319 28.6173 22.741C28.7364 22.8502 28.8318 22.9828 28.8973 23.1305C28.9629 23.2782 28.9972 23.4379 28.9981 23.5995C28.9991 23.7611 28.9666 23.9212 28.9028 24.0696C28.839 24.2181 28.7452 24.3518 28.6273 24.4623C28.5094 24.5729 28.37 24.6579 28.2177 24.712C28.0654 24.7661 27.9036 24.7882 27.7424 24.7768C27.4362 24.7688 27.1447 24.6434 26.9285 24.4264C26.7122 24.2094 26.5877 23.9176 26.5808 23.6113C26.5824 23.3049 26.7031 23.0111 26.9173 22.792C27.1315 22.5729 27.4224 22.4456 27.7287 22.437ZM28.7573 28.9177C28.5324 29.1416 28.2518 29.2501 27.7991 29.2472C27.5936 29.2354 27.396 29.1646 27.2298 29.0431C27.0636 28.9217 26.9361 28.7549 26.8624 28.5628C26.6747 28.114 26.7216 27.671 27.0648 27.3063C27.4491 26.8976 27.8539 26.5094 28.2508 26.1134C29.2863 25.0799 30.3149 24.0396 31.3602 23.0168C32.0358 22.3568 33.0977 22.6462 33.3275 23.5409C33.3826 23.7298 33.3852 23.9302 33.3351 24.1206C33.2849 24.3109 33.1839 24.484 33.0429 24.6213C31.6193 26.06 30.1907 27.4921 28.7573 28.9177ZM32.426 29.4564C32.1197 29.4487 31.8282 29.3235 31.6117 29.1067C31.3953 28.8899 31.2706 28.5982 31.2634 28.2919C31.2616 28.059 31.3292 27.8309 31.4576 27.6365C31.5859 27.4422 31.7692 27.2905 31.9841 27.2006C32.1989 27.1108 32.4357 27.0869 32.6642 27.1321C32.8926 27.1772 33.1025 27.2894 33.267 27.4542C33.4316 27.619 33.5434 27.8291 33.5881 28.0576C33.6329 28.2862 33.6086 28.5229 33.5184 28.7376C33.4282 28.9523 33.2762 29.1353 33.0816 29.2633C32.8871 29.3913 32.6588 29.4586 32.426 29.4564Z" fill="#3F2194"/>
<path d="M28.0171 9.57333C27.6446 10.6968 27.2798 11.79 26.923 12.8851C26.8711 13.0454 26.7812 13.0806 26.6296 13.0748C25 13.0695 23.3665 13.0695 21.729 13.0748C21.5931 13.0748 21.5041 13.0532 21.4562 12.9066C21.0944 11.8007 20.7268 10.6978 20.3542 9.57333H28.0171Z" fill="#3F2194"/>
</svg>
