<svg width="52" height="52" viewBox="0 0 52 52" fill="none" xmlns="http://www.w3.org/2000/svg">
<rect width="52" height="52" rx="12" fill="#F6F3FF"/>
<path d="M40.9444 39.4278C39.7251 39.4278 38.5058 39.419 37.2865 39.4347C37.0127 39.4347 36.9433 39.3711 36.9453 39.0954C36.957 36.5707 36.9521 34.0471 36.9521 31.5235C36.9521 28.597 36.9521 25.6705 36.9453 22.745C36.9453 22.4702 37.0127 22.3851 37.2894 22.3998C37.7392 22.4223 38.191 22.4076 38.6427 22.3998C39.1374 22.3998 39.5119 22.1798 39.7251 21.7281C39.9441 21.2607 39.8649 20.8187 39.5295 20.4394C37.5088 18.1748 35.4835 15.9139 33.4536 13.6565C32.9432 13.0904 32.1913 13.0972 31.6868 13.6565C29.666 15.9035 27.6486 18.1549 25.6343 20.411C25.2941 20.7914 25.1943 21.2304 25.4016 21.6987C25.6089 22.1671 25.9883 22.3969 26.5046 22.3979C26.968 22.3979 27.4315 22.4115 27.894 22.3979C28.1179 22.39 28.1873 22.4546 28.1873 22.6824C28.1746 23.4646 28.1707 24.2468 28.1873 25.0232C28.1932 25.2979 28.1345 25.3889 27.8373 25.3859C26.2396 25.3693 24.6429 25.3762 23.0462 25.3791C22.2229 25.3791 21.7565 25.8426 21.7477 26.6688C21.7418 27.2056 21.731 27.7443 21.7526 28.2782C21.7633 28.5451 21.7007 28.6263 21.4182 28.6234C19.8694 28.6077 18.3206 28.6155 16.7727 28.6155C15.7304 28.6155 15.3129 29.034 15.3129 30.0822C15.3129 33.082 15.3129 36.0809 15.3198 39.0778C15.3198 39.3711 15.2406 39.4366 14.9609 39.4307C14.0809 39.4122 13.2009 39.4083 12.3268 39.4307C12.0031 39.4395 11.9112 39.3623 11.9112 39.024C11.9223 29.9033 11.9252 20.7829 11.92 11.6628C11.92 11.5289 11.9249 11.3939 11.92 11.261C11.905 11.0286 11.8212 10.806 11.6793 10.6215C11.5374 10.4369 11.3438 10.2987 11.1231 10.2245C10.3077 9.94585 9.58215 10.5384 9.58215 11.4868C9.58215 21.1199 9.58215 30.7523 9.58215 40.3841C9.58215 41.3257 10.0231 41.7637 10.9726 41.7637H40.961C41.8078 41.7637 42.3446 41.3149 42.3504 40.6031C42.3563 39.8913 41.8156 39.4278 40.9444 39.4278ZM21.4534 39.4347C20.2839 39.419 19.1142 39.419 17.9441 39.4347C17.7006 39.4347 17.642 39.3672 17.643 39.1306C17.6508 36.5114 17.6508 33.892 17.643 31.2722C17.643 31.0483 17.6801 30.9505 17.9363 30.9544C19.1057 30.9694 20.2755 30.9694 21.4455 30.9544C21.7027 30.9544 21.7438 31.0434 21.7389 31.2692C21.7301 32.5853 21.7389 33.9014 21.7389 35.2165C21.7389 36.5316 21.734 37.8243 21.7438 39.1276C21.7467 39.3525 21.7066 39.4376 21.4534 39.4347ZM27.85 39.4347C26.6923 39.4151 25.5356 39.419 24.3779 39.4347C24.1344 39.4347 24.0767 39.3672 24.0767 39.1306C24.0839 35.4274 24.0839 31.7242 24.0767 28.0211C24.0767 27.7844 24.1344 27.714 24.3779 27.717C25.5473 27.7307 26.7167 27.7307 27.8862 27.717C28.1335 27.717 28.1795 27.7913 28.1795 28.0211C28.1707 29.873 28.1795 31.7239 28.1795 33.5758C28.1795 35.4277 28.1736 37.2542 28.1863 39.0944C28.1834 39.3574 28.1335 39.4405 27.85 39.4356V39.4347Z" fill="#FEFEFE"/>
<path d="M40.9444 39.4278C39.7251 39.4278 38.5058 39.419 37.2865 39.4347C37.0127 39.4347 36.9433 39.3711 36.9453 39.0954C36.957 36.5707 36.9521 34.0471 36.9521 31.5235C36.9521 28.597 36.9521 25.6705 36.9453 22.745C36.9453 22.4702 37.0127 22.3851 37.2894 22.3998C37.7392 22.4223 38.191 22.4076 38.6427 22.3998C39.1374 22.3998 39.5119 22.1798 39.7251 21.7281C39.9441 21.2607 39.8649 20.8187 39.5295 20.4394C37.5088 18.1748 35.4835 15.9139 33.4536 13.6565C32.9432 13.0904 32.1913 13.0972 31.6868 13.6565C29.666 15.9035 27.6486 18.1549 25.6343 20.411C25.2941 20.7914 25.1943 21.2304 25.4016 21.6987C25.6089 22.1671 25.9883 22.3969 26.5046 22.3979C26.968 22.3979 27.4315 22.4115 27.894 22.3979C28.1179 22.39 28.1873 22.4546 28.1873 22.6824C28.1746 23.4646 28.1707 24.2468 28.1873 25.0232C28.1932 25.2979 28.1345 25.3889 27.8373 25.3859C26.2396 25.3693 24.6429 25.3762 23.0462 25.3791C22.2229 25.3791 21.7565 25.8426 21.7477 26.6688C21.7418 27.2056 21.731 27.7443 21.7526 28.2782C21.7633 28.5451 21.7007 28.6263 21.4182 28.6234C19.8694 28.6077 18.3206 28.6155 16.7727 28.6155C15.7304 28.6155 15.3129 29.034 15.3129 30.0822C15.3129 33.082 15.3129 36.0809 15.3198 39.0778C15.3198 39.3711 15.2406 39.4366 14.9609 39.4307C14.0809 39.4122 13.2009 39.4083 12.3268 39.4307C12.0031 39.4395 11.9112 39.3623 11.9112 39.024C11.9223 29.9033 11.9252 20.7829 11.92 11.6628C11.92 11.5289 11.9249 11.3939 11.92 11.261C11.905 11.0286 11.8212 10.806 11.6793 10.6215C11.5374 10.4369 11.3438 10.2987 11.1231 10.2245C10.3077 9.94585 9.58215 10.5384 9.58215 11.4868C9.58215 21.1199 9.58215 30.7523 9.58215 40.3841C9.58215 41.3257 10.0231 41.7637 10.9726 41.7637H40.961C41.8078 41.7637 42.3446 41.3149 42.3504 40.6031C42.3563 39.8913 41.8156 39.4278 40.9444 39.4278ZM21.4534 39.4347C20.2839 39.419 19.1142 39.419 17.9441 39.4347C17.7006 39.4347 17.642 39.3672 17.643 39.1306C17.6508 36.5114 17.6508 33.892 17.643 31.2722C17.643 31.0483 17.6801 30.9505 17.9363 30.9544C19.1057 30.9694 20.2755 30.9694 21.4455 30.9544C21.7027 30.9544 21.7438 31.0434 21.7389 31.2692C21.7301 32.5853 21.7389 33.9014 21.7389 35.2165C21.7389 36.5316 21.734 37.8243 21.7438 39.1276C21.7467 39.3525 21.7066 39.4376 21.4534 39.4347ZM27.85 39.4347C26.6923 39.4151 25.5356 39.419 24.3779 39.4347C24.1344 39.4347 24.0767 39.3672 24.0767 39.1306C24.0839 35.4274 24.0839 31.7242 24.0767 28.0211C24.0767 27.7844 24.1344 27.714 24.3779 27.717C25.5473 27.7307 26.7167 27.7307 27.8862 27.717C28.1335 27.717 28.1795 27.7913 28.1795 28.0211C28.1707 29.873 28.1795 31.7239 28.1795 33.5758C28.1795 35.4277 28.1736 37.2542 28.1863 39.0944C28.1834 39.3574 28.1335 39.4405 27.85 39.4356V39.4347Z" fill="#3F2194"/>
</svg>
