<svg width="52" height="52" viewBox="0 0 52 52" fill="none" xmlns="http://www.w3.org/2000/svg">
<rect width="52" height="52" rx="12" fill="#F6F3FF"/>
<path d="M15.6679 29.1181C15.352 29.8212 15.4078 30.4978 15.4185 31.1813C15.4459 32.9725 15.4273 34.7648 15.4293 36.559C15.4132 36.7656 15.4244 36.9733 15.4625 37.177C15.5456 37.4811 15.4831 37.5612 15.1565 37.5573C13.7426 37.5388 12.3287 37.5505 10.9149 37.5485C10.0984 37.5485 9.5763 37.0186 9.57532 36.1982C9.57532 34.931 9.57532 33.6635 9.57532 32.3957C9.58118 30.4861 10.8924 29.1494 12.802 29.123C13.7338 29.1074 14.6715 29.1181 15.6679 29.1181Z" fill="#FEFEFE"/>
<path d="M16.013 27.5967C13.7885 27.5967 11.9288 25.6959 11.9171 23.403C11.9043 21.0847 13.7406 19.1819 16.0003 19.1712C18.2403 19.1614 20.0971 21.0456 20.1069 23.3404C20.1216 25.6079 18.21 27.5938 16.013 27.5967Z" fill="#FEFEFE"/>
<path d="M20.6956 19.6474C20.6956 16.7453 22.9992 14.3674 25.8279 14.3674C28.6566 14.3674 30.9906 16.7228 31.0013 19.6141C31.0121 22.5054 28.6801 24.9019 25.8289 24.899C22.9572 24.8961 20.6995 22.5866 20.6956 19.6474Z" fill="#FEFEFE"/>
<path d="M34.1537 30.9779C34.1703 32.7819 34.1595 34.5849 34.1537 36.3879C34.1537 37.2298 33.742 37.6492 32.8982 37.6512C30.5828 37.6558 28.2687 37.6558 25.956 37.6512H19.1555C18.1445 37.6512 17.769 37.2738 17.769 36.2627C17.769 34.5562 17.769 32.8503 17.769 31.1451C17.769 28.8238 19.444 27.1303 21.7672 27.1205C24.6066 27.1075 27.4461 27.1075 30.2856 27.1205C32.4993 27.1323 34.1331 28.7642 34.1537 30.9779Z" fill="#FEFEFE"/>
<path d="M35.7905 27.5967C33.567 27.5967 31.72 25.6989 31.6965 23.3923C31.673 21.0857 33.5377 19.1702 35.7895 19.1663C38.0413 19.1624 39.8962 21.0583 39.8874 23.3796C39.8805 25.6392 37.9748 27.5987 35.7905 27.5967Z" fill="#FEFEFE"/>
<path d="M42.3534 36.3478C42.3457 36.664 42.2164 36.965 41.9924 37.1883C41.7684 37.4115 41.4669 37.5399 41.1507 37.5466C39.5423 37.5593 37.9329 37.5466 36.254 37.5466C36.5552 36.8347 36.4975 36.1249 36.4985 35.4209C36.4985 34.1048 36.4907 32.7877 36.4985 31.4707C36.5182 30.764 36.4526 30.0574 36.3029 29.3665C36.256 29.166 36.3029 29.1132 36.5063 29.1152C37.4567 29.1269 38.4091 29.0986 39.3585 29.1347C40.9523 29.1973 42.3104 30.5838 42.3387 32.1795C42.369 33.568 42.3534 34.9584 42.3534 36.3478Z" fill="#FEFEFE"/>
<path d="M34.1566 36.3879C34.1566 37.2298 33.745 37.6492 32.9011 37.6512C30.5858 37.6558 28.2717 37.6558 25.9589 37.6512H19.1555C18.1445 37.6512 17.769 37.2738 17.769 36.2627C17.769 34.5562 17.769 32.8503 17.769 31.1451C17.769 28.8238 19.444 27.1303 21.7672 27.1205C24.6066 27.1075 27.4461 27.1075 30.2856 27.1205C32.4993 27.1313 34.1331 28.7632 34.1537 30.9769C34.1703 32.7819 34.1595 34.5849 34.1566 36.3879Z" fill="#3F2194"/>
<path d="M31.0013 19.6112C31.0131 22.5152 28.6801 24.9019 25.8328 24.899C22.9572 24.899 20.6995 22.5866 20.6956 19.6474C20.6956 16.7453 22.9992 14.3674 25.8279 14.3674C28.6566 14.3674 30.9906 16.7199 31.0013 19.6112Z" fill="#3F2194"/>
<path d="M20.1099 23.3404C20.1216 25.6079 18.21 27.5938 16.013 27.5967C13.7885 27.5967 11.9288 25.6959 11.9171 23.403C11.9043 21.0847 13.7406 19.1819 16.0003 19.1712C18.2403 19.1643 20.0971 21.0456 20.1099 23.3404Z" fill="#3F2194"/>
<path d="M39.8874 23.3835C39.8805 25.6392 37.9748 27.5987 35.7905 27.5967C33.567 27.5967 31.72 25.6989 31.6965 23.3923C31.673 21.0857 33.5377 19.1702 35.7895 19.1663C38.0413 19.1624 39.8932 21.0622 39.8874 23.3835Z" fill="#3F2194"/>
<path d="M42.3534 36.3478C42.3457 36.664 42.2164 36.965 41.9924 37.1883C41.7684 37.4115 41.4669 37.5399 41.1507 37.5466C39.5423 37.5593 37.9329 37.5466 36.254 37.5466C36.5552 36.8347 36.4975 36.1249 36.4985 35.4209C36.4985 34.1048 36.4907 32.7877 36.4985 31.4707C36.5182 30.764 36.4526 30.0574 36.3029 29.3665C36.256 29.166 36.3029 29.1132 36.5063 29.1152C37.4567 29.1269 38.4091 29.0986 39.3585 29.1347C40.9523 29.1973 42.3104 30.5838 42.3387 32.1795C42.369 33.568 42.3534 34.9584 42.3534 36.3478Z" fill="#3F2194"/>
<path d="M15.4645 37.174C15.5476 37.4781 15.485 37.5583 15.1584 37.5544C13.7446 37.5358 12.3307 37.5476 10.9168 37.5456C10.1004 37.5456 9.57825 37.0156 9.57727 36.1953C9.57727 34.9281 9.57727 33.6606 9.57727 32.3927C9.58314 30.4831 10.8943 29.1465 12.8039 29.1201C13.7406 29.1074 14.6783 29.1201 15.6747 29.1201C15.3589 29.8231 15.4146 30.4997 15.4254 31.1832C15.4527 32.9745 15.4342 34.7668 15.4361 36.561C15.4188 36.7657 15.4284 36.9718 15.4645 37.174Z" fill="#3F2194"/>
</svg>
