<svg width="52" height="52" viewBox="0 0 52 52" fill="none" xmlns="http://www.w3.org/2000/svg">
<rect width="52" height="52" rx="12" fill="#F6F3FF"/>
<path d="M42.3553 30.0969C42.3553 27.8842 40.9111 26.439 38.6965 26.4361C36.501 26.4361 34.3062 26.4361 32.1121 26.4361C29.8818 26.4361 27.6505 26.4283 25.4192 26.4361C23.317 26.4459 21.867 27.9086 21.863 30.0099C21.8585 32.277 21.8585 34.5448 21.863 36.8132C21.863 38.9233 23.3238 40.4037 25.4437 40.4095C29.8808 40.4219 34.3186 40.4219 38.7571 40.4095C40.8916 40.4095 42.3524 38.9184 42.3543 36.7917C42.355 34.5598 42.3553 32.3282 42.3553 30.0969ZM28.1775 30.5613C28.4716 30.5818 28.7472 30.7123 28.9494 30.9267C29.1517 31.1411 29.2659 31.4238 29.2692 31.7186C29.2725 32.0133 29.1648 32.2986 28.9674 32.5175C28.77 32.7364 28.4975 32.873 28.2039 32.9002C27.8915 32.9007 27.5915 32.7776 27.3695 32.5578C27.1475 32.338 27.0214 32.0393 27.0189 31.7268C27.0209 31.4195 27.1434 31.1253 27.3601 30.9074C27.5767 30.6894 27.8702 30.5652 28.1775 30.5613ZM29.3264 36.2686C28.9353 36.2735 28.5442 36.2686 28.1531 36.2686C27.762 36.2686 27.3709 36.2745 26.9798 36.2686C26.6785 36.2673 26.3895 36.1492 26.1734 35.9393C25.9573 35.7294 25.8311 35.4439 25.8211 35.1428C25.8111 34.8417 25.9181 34.5484 26.1198 34.3246C26.3215 34.1008 26.602 33.9638 26.9025 33.9425C27.7414 33.9093 28.5843 33.9093 29.4232 33.9425C30.0764 33.9679 30.532 34.5292 30.5037 35.1774C30.4821 35.7964 29.9835 36.2588 29.3245 36.2686H29.3264ZM34.4549 30.5652C35.3798 30.5496 36.3055 30.5496 37.2317 30.5652C37.5397 30.5688 37.8339 30.6934 38.0509 30.912C38.2678 31.1306 38.3901 31.4257 38.3914 31.7337C38.3914 32.379 37.8683 32.8904 37.1917 32.8992C36.7409 32.906 36.2901 32.8992 35.8394 32.8992C35.3886 32.8992 34.9379 32.8992 34.4871 32.8992C34.3314 32.9014 34.1768 32.8727 34.0323 32.8148C33.8877 32.7569 33.7561 32.6709 33.645 32.5618C33.5339 32.4527 33.4455 32.3226 33.3849 32.1791C33.3244 32.0356 33.2929 31.8816 33.2923 31.7259C33.2933 31.4184 33.4159 31.1238 33.6334 30.9063C33.8508 30.6889 34.1454 30.5663 34.4529 30.5652H34.4549ZM37.2132 36.2676C36.7497 36.2745 36.2872 36.2676 35.8247 36.2676C35.3622 36.2676 34.9232 36.2735 34.4725 36.2676C34.1687 36.2698 33.8761 36.1532 33.6571 35.9427C33.4381 35.7322 33.31 35.4444 33.3002 35.1408C33.2904 34.8372 33.3996 34.5417 33.6045 34.3175C33.8095 34.0933 34.0939 33.958 34.3972 33.9405C35.358 33.9125 36.3198 33.9125 37.2826 33.9405C37.5913 33.9497 37.8837 34.0812 38.0955 34.306C38.3073 34.5308 38.4211 34.8306 38.4119 35.1393C38.4027 35.448 38.2713 35.7404 38.0464 35.9522C37.8216 36.164 37.5219 36.2778 37.2132 36.2686V36.2676Z" fill="#3F2194"/>
<path d="M34.8322 24.1021C31.687 24.093 28.5415 24.093 25.3957 24.1021C22.5337 24.109 20.2497 25.9394 19.6366 28.6977C19.5537 29.0914 19.514 29.4931 19.5183 29.8954C19.5183 32.2118 19.5261 34.5282 19.5183 36.8445C19.4946 38.058 19.8542 39.248 20.5459 40.2452C20.5701 40.2838 20.5923 40.3236 20.6124 40.3645C20.5381 40.4623 20.4462 40.4163 20.3699 40.4173C17.9079 40.4173 15.4452 40.4173 12.9818 40.4173C11.1945 40.4173 9.90476 39.3418 9.61143 37.6463C9.54684 37.2222 9.57149 36.7892 9.68379 36.3752C11.1609 30.313 12.6399 24.2537 14.1209 18.1973C14.2891 17.508 14.7076 17.1834 15.437 17.1795C16.3601 17.1795 17.2831 17.1794 18.2061 17.1746C18.2061 18.3479 18.1973 19.5212 18.2061 20.7004C18.2061 20.9387 18.2803 21.171 18.4184 21.3651C18.5564 21.5593 18.7515 21.7056 18.9766 21.7838C19.7539 22.0635 20.5283 21.4983 20.541 20.6251C20.5567 19.4753 20.5557 18.3244 20.5616 17.1746H27.3522V17.2342C27.3581 18.3772 27.3522 19.5203 27.3718 20.6623C27.3816 21.3467 27.891 21.8522 28.5451 21.8522C28.7003 21.8531 28.8541 21.8228 28.9974 21.7631C29.1406 21.7034 29.2704 21.6155 29.3791 21.5047C29.4878 21.394 29.5732 21.2625 29.6301 21.1181C29.687 20.9737 29.7144 20.8194 29.7106 20.6642C29.7175 19.5007 29.7106 18.3381 29.7106 17.1746C30.6209 17.1746 31.5332 17.1746 32.4435 17.1795C33.213 17.1795 33.6217 17.5021 33.8007 18.2364C34.2475 20.0678 34.6807 21.9011 35.151 23.7267C35.2312 24.0747 35.1295 24.1021 34.8322 24.1021Z" fill="#3F2194"/>
<path d="M29.6911 17.1599H27.3611V17.1443C27.4246 16.0785 26.9807 15.2542 26.1232 14.6461C25.2657 14.0379 24.327 13.8687 23.316 14.0271C21.7623 14.2706 20.4091 15.486 20.544 17.1433C20.5595 17.1284 20.5773 17.1162 20.5968 17.1071C20.5854 17.1259 20.5723 17.1435 20.5577 17.1599H20.5479L20.5147 17.1736C20.519 17.1667 20.5239 17.1601 20.5293 17.1541H18.2159C18.1289 15.0137 19.1331 13.4737 20.9205 12.4265C23.7394 10.776 27.5107 11.7421 29.0624 14.472C29.5401 15.2833 29.7594 16.2209 29.6911 17.1599Z" fill="#3F2194"/>
</svg>
